<svg xmlns="http://www.w3.org/2000/svg" xmlns:xlink="http://www.w3.org/1999/xlink" viewBox="0 0 800 480" width="800" height="480">
  <rect width="100%" height="100%" fill="#ffffff"/>
  <defs>
    <radialGradient id="x0g0" cx=".5" cy=".5" fx=".33" fy=".33" r=".66"><stop offset="0%" stop-color="#b6b6b6"/><stop offset="40%" stop-color="#aaaaaa"/><stop offset="100%" stop-color="#6b4f55"/></radialGradient>
    <radialGradient id="x0g1" cx=".5" cy=".5" fx=".33" fy=".33" r=".66"><stop offset="0%" stop-color="#b6b6b6"/><stop offset="40%" stop-color="#aaaaaa"/><stop offset="100%" stop-color="#6b4f55"/></radialGradient>
    <radialGradient id="x0g2" cx=".5" cy=".5" fx=".33" fy=".33" r=".66"><stop offset="0%" stop-color="#b6b6b6"/><stop offset="40%" stop-color="#aaaaaa"/><stop offset="100%" stop-color="#6b4f55"/></radialGradient>
    <radialGradient id="x0g3" cx=".5" cy=".5" fx=".33" fy=".33" r=".66"><stop offset="0%" stop-color="#b6b6b6"/><stop offset="40%" stop-color="#aaaaaa"/><stop offset="100%" stop-color="#6b4f55"/></radialGradient>
    <radialGradient id="x0g4" cx=".5" cy=".5" fx=".33" fy=".33" r=".66"><stop offset="0%" stop-color="#b6b6b6"/><stop offset="40%" stop-color="#aaaaaa"/><stop offset="100%" stop-color="#6b4f55"/></radialGradient>
    <radialGradient id="x0g5" cx=".5" cy=".5" fx=".33" fy=".33" r=".66"><stop offset="0%" stop-color="#b6b6b6"/><stop offset="40%" stop-color="#aaaaaa"/><stop offset="100%" stop-color="#6b4f55"/></radialGradient>
    <radialGradient id="x0g6" cx=".5" cy=".5" fx=".33" fy=".33" r=".66"><stop offset="0%" stop-color="#b6b6b6"/><stop offset="40%" stop-color="#aaaaaa"/><stop offset="100%" stop-color="#6b4f55"/></radialGradient>
    <radialGradient id="x0g7" cx=".5" cy=".5" fx=".33" fy=".33" r=".66"><stop offset="0%" stop-color="#b6b6b6"/><stop offset="40%" stop-color="#aaaaaa"/><stop offset="100%" stop-color="#6b4f55"/></radialGradient>
    <radialGradient id="x0g8" cx=".5" cy=".5" fx=".33" fy=".33" r=".66"><stop offset="0%" stop-color="#b6b6b6"/><stop offset="40%" stop-color="#aaaaaa"/><stop offset="100%" stop-color="#6b4f55"/></radialGradient>
    <radialGradient id="x0g9" cx=".5" cy=".5" fx=".33" fy=".33" r=".66"><stop offset="0%" stop-color="#b6b6b6"/><stop offset="40%" stop-color="#aaaaaa"/><stop offset="100%" stop-color="#6b4f55"/></radialGradient>
    <radialGradient id="x0g10" cx=".5" cy=".5" fx=".33" fy=".33" r=".66"><stop offset="0%" stop-color="#b6b6b6"/><stop offset="40%" stop-color="#aaaaaa"/><stop offset="100%" stop-color="#6b4f55"/></radialGradient>
    <radialGradient id="x0g11" cx=".5" cy=".5" fx=".33" fy=".33" r=".66"><stop offset="0%" stop-color="#b6b6b6"/><stop offset="40%" stop-color="#aaaaaa"/><stop offset="100%" stop-color="#6b4f55"/></radialGradient>
    <radialGradient id="x0g12" cx=".5" cy=".5" fx=".33" fy=".33" r=".66"><stop offset="0%" stop-color="#b6b6b6"/><stop offset="40%" stop-color="#aaaaaa"/><stop offset="100%" stop-color="#6b4f55"/></radialGradient>
    <radialGradient id="x0g13" cx=".5" cy=".5" fx=".33" fy=".33" r=".66"><stop offset="0%" stop-color="#b6b6b6"/><stop offset="40%" stop-color="#aaaaaa"/><stop offset="100%" stop-color="#6b4f55"/></radialGradient>
  </defs>
  <polygon points="122.9,294.3 212.1,346.9 307.6,294.1 307.6,185.9 212.1,133.1 122.9,185.7" fill="#4682b4" fill-opacity="0.20" stroke="none"/>
  <polygon points="307.6,185.9 307.6,294.1 400.0,346.9 492.4,294.1 492.4,185.9 400.0,133.1" fill="#b22222" fill-opacity="0.20" stroke="none"/>
  <polygon points="492.4,185.9 492.4,294.1 587.9,346.9 677.1,294.3 677.1,185.7 587.9,133.1" fill="#3cb371" fill-opacity="0.20" stroke="none"/>
  <circle cx="122.9" cy="185.7" r="27.3" fill="url(#x0g0)" stroke="#000000" stroke-width="4.8"/>
  <line x1="130.1" y1="210.3" x2="130.1" y2="269.7" stroke="#000000" stroke-width="8.4" stroke-linecap="round" stroke-dasharray="8.4,16.8"/>
  <line x1="115.7" y1="210.3" x2="115.7" y2="269.7" stroke="#000000" stroke-width="8.4" stroke-linecap="round"/>
  <line x1="140.4" y1="167.0" x2="187.3" y2="139.3" stroke="#000000" stroke-width="8.4" stroke-linecap="round"/>
  <line x1="147.7" y1="179.5" x2="194.6" y2="151.8" stroke="#000000" stroke-width="8.4" stroke-linecap="round" stroke-dasharray="8.4,16.8"/>
  <circle cx="122.9" cy="294.3" r="27.3" fill="url(#x0g1)" stroke="#000000" stroke-width="4.8"/>
  <line x1="147.7" y1="300.6" x2="194.6" y2="328.2" stroke="#000000" stroke-width="8.4" stroke-linecap="round" stroke-dasharray="8.4,16.8"/>
  <line x1="140.4" y1="313.0" x2="187.3" y2="340.7" stroke="#000000" stroke-width="8.4" stroke-linecap="round"/>
  <circle cx="212.1" cy="346.9" r="27.3" fill="url(#x0g2)" stroke="#000000" stroke-width="4.8"/>
  <line x1="230.1" y1="328.7" x2="282.7" y2="299.7" stroke="#000000" stroke-width="8.4" stroke-linecap="round" stroke-dasharray="8.4,16.8"/>
  <line x1="237.1" y1="341.4" x2="289.6" y2="312.3" stroke="#000000" stroke-width="8.4" stroke-linecap="round"/>
  <circle cx="307.6" cy="294.1" r="27.3" fill="url(#x0g3)" stroke="#000000" stroke-width="4.8"/>
  <line x1="300.4" y1="269.6" x2="300.4" y2="210.4" stroke="#000000" stroke-width="8.4" stroke-linecap="round" stroke-dasharray="8.4,16.8"/>
  <line x1="314.8" y1="269.6" x2="314.8" y2="210.4" stroke="#000000" stroke-width="8.4" stroke-linecap="round"/>
  <line x1="332.5" y1="300.1" x2="382.3" y2="328.5" stroke="#000000" stroke-width="8.4" stroke-linecap="round" stroke-dasharray="8.4,16.8"/>
  <line x1="325.4" y1="312.6" x2="375.1" y2="341.0" stroke="#000000" stroke-width="8.4" stroke-linecap="round"/>
  <circle cx="212.1" cy="133.1" r="27.3" fill="url(#x0g4)" stroke="#000000" stroke-width="4.8"/>
  <line x1="237.1" y1="138.6" x2="289.6" y2="167.7" stroke="#000000" stroke-width="8.4" stroke-linecap="round"/>
  <line x1="230.1" y1="151.3" x2="282.7" y2="180.3" stroke="#000000" stroke-width="8.4" stroke-linecap="round" stroke-dasharray="8.4,16.8"/>
  <circle cx="307.6" cy="185.9" r="27.3" fill="url(#x0g5)" stroke="#000000" stroke-width="4.8"/>
  <line x1="325.4" y1="167.4" x2="375.1" y2="139.0" stroke="#000000" stroke-width="8.4" stroke-linecap="round"/>
  <line x1="332.5" y1="179.9" x2="382.3" y2="151.5" stroke="#000000" stroke-width="8.4" stroke-linecap="round" stroke-dasharray="8.4,16.8"/>
  <circle cx="400.0" cy="346.9" r="27.3" fill="url(#x0g6)" stroke="#000000" stroke-width="4.8"/>
  <line x1="417.7" y1="328.5" x2="467.5" y2="300.1" stroke="#000000" stroke-width="8.4" stroke-linecap="round" stroke-dasharray="8.4,16.8"/>
  <line x1="424.9" y1="341.0" x2="474.6" y2="312.6" stroke="#000000" stroke-width="8.4" stroke-linecap="round"/>
  <circle cx="492.4" cy="294.1" r="27.3" fill="url(#x0g7)" stroke="#000000" stroke-width="4.8"/>
  <line x1="485.2" y1="269.6" x2="485.2" y2="210.4" stroke="#000000" stroke-width="8.4" stroke-linecap="round" stroke-dasharray="8.4,16.8"/>
  <line x1="499.6" y1="269.6" x2="499.6" y2="210.4" stroke="#000000" stroke-width="8.4" stroke-linecap="round"/>
  <line x1="517.3" y1="299.7" x2="569.9" y2="328.8" stroke="#000000" stroke-width="8.4" stroke-linecap="round" stroke-dasharray="8.4,16.8"/>
  <line x1="510.4" y1="312.3" x2="562.9" y2="341.4" stroke="#000000" stroke-width="8.4" stroke-linecap="round"/>
  <circle cx="400.0" cy="133.1" r="27.3" fill="url(#x0g8)" stroke="#000000" stroke-width="4.8"/>
  <line x1="424.9" y1="139.0" x2="474.6" y2="167.4" stroke="#000000" stroke-width="8.4" stroke-linecap="round"/>
  <line x1="417.7" y1="151.5" x2="467.5" y2="179.9" stroke="#000000" stroke-width="8.4" stroke-linecap="round" stroke-dasharray="8.4,16.8"/>
  <circle cx="492.4" cy="185.9" r="27.3" fill="url(#x0g9)" stroke="#000000" stroke-width="4.8"/>
  <line x1="510.4" y1="167.7" x2="562.9" y2="138.6" stroke="#000000" stroke-width="8.4" stroke-linecap="round"/>
  <line x1="517.3" y1="180.3" x2="569.9" y2="151.3" stroke="#000000" stroke-width="8.4" stroke-linecap="round" stroke-dasharray="8.4,16.8"/>
  <circle cx="587.9" cy="346.9" r="27.3" fill="url(#x0g10)" stroke="#000000" stroke-width="4.8"/>
  <line x1="605.4" y1="328.2" x2="652.3" y2="300.6" stroke="#000000" stroke-width="8.4" stroke-linecap="round" stroke-dasharray="8.4,16.8"/>
  <line x1="612.7" y1="340.7" x2="659.6" y2="313.0" stroke="#000000" stroke-width="8.4" stroke-linecap="round"/>
  <circle cx="677.1" cy="294.3" r="27.3" fill="url(#x0g11)" stroke="#000000" stroke-width="4.8"/>
  <line x1="669.9" y1="269.7" x2="669.9" y2="210.3" stroke="#000000" stroke-width="8.4" stroke-linecap="round" stroke-dasharray="8.4,16.8"/>
  <line x1="684.3" y1="269.7" x2="684.3" y2="210.3" stroke="#000000" stroke-width="8.4" stroke-linecap="round"/>
  <circle cx="677.1" cy="185.7" r="27.3" fill="url(#x0g12)" stroke="#000000" stroke-width="4.8"/>
  <line x1="652.3" y1="179.5" x2="605.4" y2="151.8" stroke="#000000" stroke-width="8.4" stroke-linecap="round" stroke-dasharray="8.4,16.8"/>
  <line x1="659.6" y1="167.0" x2="612.7" y2="139.3" stroke="#000000" stroke-width="8.4" stroke-linecap="round"/>
  <circle cx="587.9" cy="133.1" r="27.3" fill="url(#x0g13)" stroke="#000000" stroke-width="4.8"/>
</svg>