<svg xmlns="http://www.w3.org/2000/svg" xmlns:xlink="http://www.w3.org/1999/xlink" viewBox="0 0 800 548" width="800" height="548">
  <rect width="100%" height="100%" fill="#ffffff"/>
  <defs>
    <radialGradient id="x0g0" cx=".5" cy=".5" fx=".33" fy=".33" r=".66"><stop offset="0%" stop-color="#fafafa"/><stop offset="40%" stop-color="#fafafa"/><stop offset="100%" stop-color="#b6a6ab"/></radialGradient>
    <radialGradient id="x0g1" cx=".5" cy=".5" fx=".33" fy=".33" r=".66"><stop offset="0%" stop-color="#dcdcdc"/><stop offset="40%" stop-color="#d9d9d9"/><stop offset="100%" stop-color="#a28d93"/></radialGradient>
    <radialGradient id="x0g2" cx=".5" cy=".5" fx=".33" fy=".33" r=".66"><stop offset="0%" stop-color="#dcdcdc"/><stop offset="40%" stop-color="#d9d9d9"/><stop offset="100%" stop-color="#a38e94"/></radialGradient>
    <radialGradient id="x0g3" cx=".5" cy=".5" fx=".33" fy=".33" r=".66"><stop offset="0%" stop-color="#f44d30"/><stop offset="40%" stop-color="#ff0d0d"/><stop offset="100%" stop-color="#bb0038"/></radialGradient>
    <radialGradient id="x0g4" cx=".5" cy=".5" fx=".33" fy=".33" r=".66"><stop offset="0%" stop-color="#f6745d"/><stop offset="40%" stop-color="#ff4242"/><stop offset="100%" stop-color="#c93863"/></radialGradient>
    <radialGradient id="x0g5" cx=".5" cy=".5" fx=".33" fy=".33" r=".66"><stop offset="0%" stop-color="#fbfbfb"/><stop offset="40%" stop-color="#fbfbfb"/><stop offset="100%" stop-color="#c8bdc0"/></radialGradient>
    <radialGradient id="x0g6" cx=".5" cy=".5" fx=".33" fy=".33" r=".66"><stop offset="0%" stop-color="#dedede"/><stop offset="40%" stop-color="#dbdbdb"/><stop offset="100%" stop-color="#a8959b"/></radialGradient>
    <radialGradient id="x0g7" cx=".5" cy=".5" fx=".33" fy=".33" r=".66"><stop offset="0%" stop-color="#dcdcdc"/><stop offset="40%" stop-color="#d9d9d9"/><stop offset="100%" stop-color="#a38e94"/></radialGradient>
    <radialGradient id="x0g8" cx=".5" cy=".5" fx=".33" fy=".33" r=".66"><stop offset="0%" stop-color="#fafafa"/><stop offset="40%" stop-color="#fafafa"/><stop offset="100%" stop-color="#bcadb2"/></radialGradient>
    <radialGradient id="x0g9" cx=".5" cy=".5" fx=".33" fy=".33" r=".66"><stop offset="0%" stop-color="#8ea6c2"/><stop offset="40%" stop-color="#7f7fbf"/><stop offset="100%" stop-color="#42429b"/></radialGradient>
    <radialGradient id="x0g10" cx=".5" cy=".5" fx=".33" fy=".33" r=".66"><stop offset="0%" stop-color="#fafafa"/><stop offset="40%" stop-color="#fafafa"/><stop offset="100%" stop-color="#bbacb1"/></radialGradient>
    <radialGradient id="x0g11" cx=".5" cy=".5" fx=".33" fy=".33" r=".66"><stop offset="0%" stop-color="#fafafa"/><stop offset="40%" stop-color="#fafafa"/><stop offset="100%" stop-color="#b6a6ab"/></radialGradient>
    <radialGradient id="x0g12" cx=".5" cy=".5" fx=".33" fy=".33" r=".66"><stop offset="0%" stop-color="#f44d30"/><stop offset="40%" stop-color="#ff0d0d"/><stop offset="100%" stop-color="#bb0038"/></radialGradient>
    <radialGradient id="x0g13" cx=".5" cy=".5" fx=".33" fy=".33" r=".66"><stop offset="0%" stop-color="#98aec7"/><stop offset="40%" stop-color="#8b8bc5"/><stop offset="100%" stop-color="#5454a4"/></radialGradient>
    <radialGradient id="x0g14" cx=".5" cy=".5" fx=".33" fy=".33" r=".66"><stop offset="0%" stop-color="#fbfbfb"/><stop offset="40%" stop-color="#fbfbfb"/><stop offset="100%" stop-color="#ccc1c5"/></radialGradient>
    <radialGradient id="x0g15" cx=".5" cy=".5" fx=".33" fy=".33" r=".66"><stop offset="0%" stop-color="#fbfbfb"/><stop offset="40%" stop-color="#fbfbfb"/><stop offset="100%" stop-color="#cbc0c3"/></radialGradient>
    <radialGradient id="x0g16" cx=".5" cy=".5" fx=".33" fy=".33" r=".66"><stop offset="0%" stop-color="#fafafa"/><stop offset="40%" stop-color="#fafafa"/><stop offset="100%" stop-color="#b9aaaf"/></radialGradient>
  </defs>
  <defs>
    <radialGradient id="x0vg1" cx=".5" cy=".5" fx=".33" fy=".33" r=".66"><stop offset="0%" stop-color="#fafafa"/><stop offset="100%" stop-color="#875e74"/></radialGradient>
    <radialGradient id="x0vg8" cx=".5" cy=".5" fx=".33" fy=".33" r=".66"><stop offset="0%" stop-color="#ff0d0d"/><stop offset="100%" stop-color="#7b0042"/></radialGradient>
    <radialGradient id="x0vg7" cx=".5" cy=".5" fx=".33" fy=".33" r=".66"><stop offset="0%" stop-color="#7f7fbf"/><stop offset="100%" stop-color="#27276a"/></radialGradient>
    <radialGradient id="x0vg6" cx=".5" cy=".5" fx=".33" fy=".33" r=".66"><stop offset="0%" stop-color="#d9d9d9"/><stop offset="100%" stop-color="#755165"/></radialGradient>
  </defs>
  <circle cx="391.3" cy="246.0" r="14.2" fill="url(#x0g14)" stroke="#727272" stroke-width="1.8"/>
  <line x1="390.7" y1="241.4" x2="388.3" y2="224.5" stroke="#232323" stroke-width="11.9" stroke-linecap="round"/>
  <circle cx="225.2" cy="310.4" r="14.2" fill="url(#x0g15)" stroke="#6a6a6a" stroke-width="1.8"/>
  <line x1="222.2" y1="304.3" x2="213.1" y2="285.6" stroke="#252525" stroke-width="11.9" stroke-linecap="round"/>
  <circle cx="663.6" cy="259.1" r="14.2" fill="url(#x0g5)" stroke="#5e5e5e" stroke-width="1.8"/>
  <line x1="651.4" y1="262.3" x2="615.7" y2="271.5" stroke="#313131" stroke-width="11.9" stroke-linecap="round"/>
  <circle cx="594.8" cy="277.0" r="24.3" fill="url(#x0g4)" stroke="#505050" stroke-width="1.8"/>
  <line x1="588.9" y1="271.3" x2="573.7" y2="256.7" stroke="#111111" stroke-width="11.9" stroke-linecap="round"/>
  <circle cx="207.7" cy="274.6" r="25.5" fill="url(#x0g13)" stroke="#232323" stroke-width="1.8"/>
  <line x1="185.9" y1="274.9" x2="148.6" y2="275.3" stroke="#0e0e0e" stroke-width="11.9" stroke-linecap="round"/>
  <line x1="223.4" y1="261.9" x2="263.2" y2="229.6" stroke="#090909" stroke-width="11.9" stroke-linecap="round"/>
  <circle cx="413.0" cy="136.2" r="14.2" fill="url(#x0g8)" stroke="#1f1f1f" stroke-width="1.8"/>
  <line x1="409.0" y1="148.3" x2="394.6" y2="192.6" stroke="#101010" stroke-width="11.9" stroke-linecap="round"/>
  <circle cx="387.1" cy="215.7" r="27.1" fill="url(#x0g6)" stroke="#1b1b1b" stroke-width="1.8"/>
  <line x1="364.3" y1="215.8" x2="302.7" y2="216.0" stroke="#080808" stroke-width="11.9" stroke-linecap="round"/>
  <line x1="402.0" y1="227.9" x2="443.2" y2="261.8" stroke="#040404" stroke-width="11.9" stroke-linecap="round"/>
  <circle cx="441.6" cy="411.8" r="14.2" fill="url(#x0g10)" stroke="#1a1a1a" stroke-width="1.8"/>
  <line x1="442.0" y1="407.3" x2="443.4" y2="393.2" stroke="#040404" stroke-width="11.9" stroke-linecap="round"/>
  <circle cx="136.4" cy="275.4" r="14.2" fill="url(#x0g16)" stroke="#121212" stroke-width="1.8"/>
  <circle cx="279.9" cy="216.1" r="27.1" fill="url(#x0g7)" stroke="#050505" stroke-width="1.8"/>
  <line x1="272.5" y1="203.9" x2="258.3" y2="180.6" stroke="#000000" stroke-width="11.9" stroke-linecap="round"/>
  <circle cx="567.2" cy="250.4" r="27.1" fill="url(#x0g2)" stroke="#050505" stroke-width="1.8"/>
  <line x1="544.1" y1="255.4" x2="481.2" y2="269.0" stroke="#000000" stroke-width="11.9" stroke-linecap="round"/>
  <line x1="584.3" y1="239.4" x2="616.3" y2="218.9" stroke="#000000" stroke-width="11.9" stroke-linecap="round"/>
  <circle cx="458.2" cy="274.0" r="27.1" fill="url(#x0g1)" stroke="#000000" stroke-width="1.8"/>
  <line x1="455.1" y1="298.2" x2="447.0" y2="362.2" stroke="#000000" stroke-width="11.9" stroke-linecap="round"/>
  <line x1="454.6" y1="266.4" x2="447.8" y2="251.5" stroke="#000000" stroke-width="11.9" stroke-linecap="round"/>
  <circle cx="444.1" cy="385.0" r="25.5" fill="url(#x0g9)" stroke="#000000" stroke-width="1.8"/>
  <line x1="424.7" y1="390.2" x2="391.0" y2="399.2" stroke="#000000" stroke-width="11.9" stroke-linecap="round"/>
  <circle cx="631.7" cy="209.1" r="24.3" fill="url(#x0g3)" stroke="#000000" stroke-width="1.8"/>
  <circle cx="380.2" cy="402.2" r="14.2" fill="url(#x0g11)" stroke="#000000" stroke-width="1.8"/>
  <circle cx="251.7" cy="169.7" r="24.3" fill="url(#x0g12)" stroke="#000000" stroke-width="1.8"/>
  <circle cx="446.0" cy="247.5" r="14.2" fill="url(#x0g0)" stroke="#000000" stroke-width="1.8"/>
  <g opacity="0.25">
    <defs><radialGradient id="x0vgi0" gradientUnits="userSpaceOnUse" cx="391" cy="246" r="94" fx="367" fy="222"><stop offset="0%" stop-color="#fafafa"/><stop offset="1" stop-color="#875e74"/></radialGradient></defs>
    <polygon points="321.3,250.0 322.6,262.8 326.6,275.1 328.8,279.4 332.4,285.4 336.5,291.0 341.2,296.1 346.3,300.8 351.9,305.0 357.9,308.5 364.2,311.5 370.7,313.9 377.5,315.5 384.3,316.6 391.3,316.9 398.2,316.6 405.1,315.5 411.9,313.9 418.4,311.5 424.7,308.5 430.7,305.0 436.3,300.8 441.4,296.1 446.1,291.0 450.2,285.4 453.8,279.4 456.8,273.2 459.1,266.6 460.7,260.3 460.8,259.9 462.1,247.5 460.7,234.7 456.7,222.4 450.2,211.2 441.4,201.4 430.8,193.4 418.6,187.6 405.4,184.1 391.7,183.0 377.9,184.6 364.7,188.5 352.6,194.8 341.9,203.2 333.1,213.3 326.6,224.8 322.6,237.2" fill="url(#x0vgi0)"/>
    <defs><radialGradient id="x0vgi1" gradientUnits="userSpaceOnUse" cx="225" cy="310" r="94" fx="201" fy="286"><stop offset="0%" stop-color="#fafafa"/><stop offset="1" stop-color="#875e74"/></radialGradient></defs>
    <polygon points="158.6,322.4 160.0,334.2 163.8,345.2 170.2,355.1 170.4,355.4 175.1,360.6 180.3,365.2 185.9,369.4 191.8,372.9 198.1,375.9 204.7,378.3 211.4,379.9 218.3,381.0 225.2,381.3 232.2,381.0 239.1,379.9 245.8,378.3 252.4,375.9 258.6,372.9 264.6,369.4 270.2,365.2 275.4,360.6 280.0,355.4 284.2,349.8 287.7,343.8 290.7,337.6 293.1,331.0 294.8,324.3 295.8,317.4 296.1,310.4 295.8,303.5 294.8,296.6 294.3,294.4 290.4,283.3 284.1,273.5 275.5,265.2 265.2,258.8 253.3,254.5 240.5,252.6 227.1,253.0 213.8,255.7 200.9,260.7 189.1,267.8 178.7,276.6 170.2,286.9 163.9,298.3 160.0,310.3" fill="url(#x0vgi1)"/>
    <defs><radialGradient id="x0vgi2" gradientUnits="userSpaceOnUse" cx="664" cy="259" r="94" fx="640" fy="235"><stop offset="0%" stop-color="#fafafa"/><stop offset="1" stop-color="#875e74"/></radialGradient></defs>
    <polygon points="646.6,202.8 647.2,211.7 648.5,222.4 650.6,234.5 653.3,247.5 656.6,261.0 660.2,274.3 664.2,287.0 668.2,298.6 672.2,308.6 676.1,316.7 679.5,322.6 682.6,325.9 685.0,326.7 690.7,324.6 697.0,321.7 703.0,318.1 708.6,313.9 713.7,309.3 718.4,304.1 722.5,298.5 726.1,292.6 729.1,286.3 731.4,279.7 733.1,273.0 734.2,266.1 734.5,259.1 734.2,252.2 733.1,245.3 731.4,238.6 729.1,232.0 726.1,225.7 722.5,219.8 718.4,214.2 713.7,209.0 708.6,204.4 703.0,200.2 697.0,196.6 690.7,193.7 684.2,191.3 677.4,189.6 670.6,188.6 663.6,188.3 656.7,188.6 649.8,189.6 649.5,189.7 647.8,191.5 646.8,196.0" fill="url(#x0vgi2)"/>
    <defs><radialGradient id="x0vgi3" gradientUnits="userSpaceOnUse" cx="595" cy="277" r="137" fx="560" fy="242"><stop offset="0%" stop-color="#ff0d0d"/><stop offset="1" stop-color="#7b0042"/></radialGradient></defs>
    <polygon points="491.1,277.0 491.6,287.1 493.1,297.2 495.6,307.0 499.0,316.6 503.4,325.8 508.6,334.6 514.7,342.7 521.5,350.3 529.0,357.1 537.2,363.2 545.9,368.4 555.1,372.7 564.7,376.2 574.6,378.6 584.6,380.1 594.8,380.6 605.0,380.1 615.0,378.6 624.9,376.2 634.5,372.7 643.7,368.4 652.4,363.2 660.6,357.1 668.1,350.3 674.9,342.7 681.0,334.6 686.2,325.8 686.7,324.9 687.7,320.5 687.9,313.6 687.3,304.7 686.0,294.0 683.9,281.9 681.1,268.9 677.9,255.4 662.2,207.8 658.4,199.7 654.9,193.8 651.9,190.5 643.7,185.5 634.5,181.2 624.9,177.8 615.0,175.3 605.0,173.8 594.8,173.3 584.6,173.8 574.6,175.3 564.7,177.8 555.1,181.2 548.9,184.0 545.9,185.5 537.2,190.8 532.9,193.8 518.9,206.4 508.6,219.4 507.3,221.3 503.4,228.1 499.0,237.3 495.6,246.9 493.1,256.7 491.6,266.8" fill="url(#x0vgi3)"/>
    <defs><radialGradient id="x0vgi4" gradientUnits="userSpaceOnUse" cx="208" cy="275" r="144" fx="171" fy="238"><stop offset="0%" stop-color="#7f7fbf"/><stop offset="1" stop-color="#27276a"/></radialGradient></defs>
    <polygon points="107.4,275.7 107.9,289.5 109.3,302.7 111.4,314.8 114.2,325.5 117.6,334.2 121.3,340.7 123.7,343.6 130.8,351.5 138.8,358.7 147.3,365.0 156.5,370.5 166.1,375.1 176.2,378.7 186.5,381.3 197.1,382.8 207.7,383.3 218.4,382.8 228.9,381.3 239.3,378.7 249.3,375.1 259.0,370.5 268.1,365.0 276.7,358.7 284.6,351.5 291.8,343.6 298.1,335.0 303.6,325.9 306.9,318.8 310.2,308.9 310.8,296.7 309.0,286.2 306.5,277.4 303.5,267.4 296.3,251.5 286.7,235.4 275.3,219.9 262.4,205.5 248.7,192.8 234.6,182.2 220.6,174.3 207.4,169.2 195.4,167.2 186.5,168.0 176.2,170.6 166.1,174.2 156.5,178.7 147.3,184.2 138.8,190.6 130.8,197.7 123.7,205.7 119.9,210.5 116.3,217.1 113.1,225.9 110.6,236.6 108.7,248.8 107.6,262.0" fill="url(#x0vgi4)"/>
    <defs><radialGradient id="x0vgi5" gradientUnits="userSpaceOnUse" cx="413" cy="136" r="94" fx="389" fy="112"><stop offset="0%" stop-color="#fafafa"/><stop offset="1" stop-color="#875e74"/></radialGradient></defs>
    <polygon points="348.4,107.1 349.3,108.4 352.9,110.5 358.8,113.3 366.9,116.7 376.9,120.5 388.3,124.7 400.8,129.1 413.9,133.4 427.0,137.6 439.6,141.4 451.3,144.8 461.7,147.5 470.2,149.5 476.7,150.8 480.8,151.2 482.4,150.7 482.5,150.0 483.5,143.1 483.9,136.2 483.5,129.2 482.5,122.3 480.8,115.6 478.5,109.0 475.5,102.8 471.9,96.8 467.8,91.2 463.1,86.0 457.9,81.4 452.4,77.2 446.4,73.7 440.1,70.7 433.6,68.3 426.8,66.6 419.9,65.6 413.0,65.3 406.0,65.6 399.2,66.6 392.4,68.3 385.9,70.7 379.6,73.7 373.6,77.2 368.0,81.4 362.9,86.0 358.2,91.2 354.0,96.8 350.5,102.8" fill="url(#x0vgi5)"/>
    <defs><radialGradient id="x0vgi6" gradientUnits="userSpaceOnUse" cx="387" cy="216" r="152" fx="348" fy="176"><stop offset="0%" stop-color="#d9d9d9"/><stop offset="1" stop-color="#755165"/></radialGradient></defs>
    <polygon points="298.2,216.1 299.0,235.6 301.1,254.4 303.5,267.4 309.0,286.2 314.2,299.4 320.4,308.6 327.0,314.3 332.6,317.5 342.9,322.4 353.6,326.2 364.6,329.0 375.8,330.6 383.0,331.1 392.1,330.8 411.2,326.8 426.7,319.9 442.0,310.1 456.5,297.8 469.8,283.5 481.2,267.7 488.9,248.6 491.7,235.8 493.9,222.9 495.4,210.4 496.3,198.8 496.4,188.5 495.8,179.8 494.4,173.3 493.8,171.5 488.9,161.2 483.1,151.5 481.4,149.4 477.8,147.3 471.9,144.5 463.8,141.1 453.8,137.2 442.4,133.0 429.9,128.7 416.8,124.3 403.7,120.2 391.1,116.3 379.4,113.0 369.0,110.2 360.5,108.2 354.0,107.0 349.9,106.6 348.4,107.1 342.9,109.0 332.6,113.8 326.2,117.6 319.6,123.3 313.6,132.6 308.3,145.1 303.9,160.3 300.8,177.7 298.8,196.5" fill="url(#x0vgi6)"/>
    <defs><radialGradient id="x0vgi7" gradientUnits="userSpaceOnUse" cx="442" cy="412" r="94" fx="417" fy="388"><stop offset="0%" stop-color="#fafafa"/><stop offset="1" stop-color="#875e74"/></radialGradient></defs>
    <polygon points="370.9,413.6 372.2,426.5 373.7,432.4 376.1,439.0 379.1,445.2 382.6,451.2 386.8,456.8 391.4,462.0 396.6,466.6 402.2,470.8 408.2,474.3 414.4,477.3 421.0,479.7 427.7,481.4 434.6,482.4 441.6,482.7 448.5,482.4 455.4,481.4 462.1,479.7 468.7,477.3 475.0,474.3 480.9,470.8 486.5,466.6 491.7,462.0 496.4,456.8 500.5,451.2 504.1,445.2 506.4,440.4 507.1,439.0 510.4,428.1 511.8,415.3 510.4,402.4 506.4,390.0 499.9,378.5 491.1,368.4 480.5,360.1 468.3,353.9 455.1,350.0 441.3,348.6 427.6,349.7 414.4,353.2 402.2,359.2 391.5,367.2 382.7,377.1 376.2,388.4 372.2,400.7" fill="url(#x0vgi7)"/>
    <defs><radialGradient id="x0vgi8" gradientUnits="userSpaceOnUse" cx="136" cy="275" r="94" fx="112" fy="251"><stop offset="0%" stop-color="#fafafa"/><stop offset="1" stop-color="#875e74"/></radialGradient></defs>
    <polygon points="65.5,275.4 65.8,282.4 66.9,289.2 68.6,296.0 70.9,302.5 73.9,308.8 77.5,314.8 81.6,320.4 86.3,325.5 91.4,330.2 97.0,334.3 103.0,337.9 109.3,340.9 115.8,343.2 122.6,344.9 129.6,345.9 133.8,344.5 137.8,340.5 141.4,333.9 144.6,325.1 147.2,314.4 149.0,302.2 150.1,289.0 150.4,275.3 149.8,261.5 148.4,248.3 146.3,236.2 143.5,225.5 140.2,216.8 136.4,210.3 132.3,206.4 128.1,205.1 122.6,205.9 115.8,207.6 109.3,209.9 103.0,212.9 97.0,216.5 91.4,220.6 86.3,225.3 81.6,230.4 77.5,236.0 73.9,242.0 70.9,248.3 68.6,254.8 66.9,261.6 65.8,268.5" fill="url(#x0vgi8)"/>
    <defs><radialGradient id="x0vgi9" gradientUnits="userSpaceOnUse" cx="280" cy="216" r="152" fx="241" fy="177"><stop offset="0%" stop-color="#d9d9d9"/><stop offset="1" stop-color="#755165"/></radialGradient></defs>
    <polygon points="167.0,202.0 167.9,207.0 174.1,231.3 181.5,247.3 191.1,263.3 202.5,278.9 215.3,293.3 229.1,306.0 243.2,316.5 257.1,324.4 270.4,329.5 282.4,331.5 291.2,331.1 302.4,329.4 313.4,326.7 324.1,322.8 334.3,318.0 340.8,314.3 347.3,308.5 367.4,218.1 368.0,196.2 365.9,177.4 362.6,160.1 358.1,144.9 352.7,132.4 346.6,123.2 340.0,117.5 334.3,114.3 324.1,109.4 313.4,105.6 302.4,102.9 291.2,101.2 279.9,100.6 273.9,100.8 255.5,103.3 237.4,109.0 220.1,117.7 204.5,129.0 191.1,142.4 180.3,157.6 178.0,161.7 173.2,171.9 169.3,182.6 167.5,189.8" fill="url(#x0vgi9)"/>
    <defs><radialGradient id="x0vgi10" gradientUnits="userSpaceOnUse" cx="567" cy="250" r="152" fx="528" fy="211"><stop offset="0%" stop-color="#d9d9d9"/><stop offset="1" stop-color="#755165"/></radialGradient></defs>
    <polygon points="486.7,167.9 487.8,267.6 492.4,286.6 503.7,321.0 510.0,335.2 523.2,350.7 531.2,356.3 538.0,360.5 543.6,363.1 547.5,364.2 555.8,365.3 567.2,365.9 578.5,365.3 589.7,363.7 600.7,360.9 611.4,357.1 621.6,352.2 631.3,346.4 640.4,339.7 648.8,332.1 656.4,323.7 663.2,314.6 669.0,304.8 673.9,294.6 676.0,288.9 679.0,276.2 679.4,261.4 677.0,245.1 675.1,238.5 672.1,228.4 672.0,228.1 664.6,210.8 655.1,194.0 643.9,178.4 631.3,164.5 617.9,152.8 604.1,143.9 590.5,138.0 578.5,135.5 577.7,135.4 567.2,134.9 555.8,135.5 544.6,137.1 533.6,139.9 523.0,143.7 512.7,148.5 503.0,154.4 493.9,161.1 487.0,167.3" fill="url(#x0vgi10)"/>
    <defs><radialGradient id="x0vgi11" gradientUnits="userSpaceOnUse" cx="458" cy="274" r="152" fx="419" fy="235"><stop offset="0%" stop-color="#d9d9d9"/><stop offset="1" stop-color="#755165"/></radialGradient></defs>
    <polygon points="346.4,301.6 347.1,305.7 347.6,307.5 351.5,318.2 354.1,324.1 355.9,324.4 361.4,325.1 413.4,331.9 431.5,334.2 450.3,336.5 469.0,338.9 487.1,341.2 503.7,343.2 539.2,347.3 544.1,340.5 545.2,327.5 545.1,312.0 543.7,294.6 541.2,276.0 537.5,256.8 532.9,237.8 527.5,219.8 521.6,203.4 515.3,189.2 508.9,177.9 502.6,169.8 496.7,165.2 491.7,163.5 480.7,160.7 469.5,159.1 463.1,158.7 458.2,158.5 449.1,159.2 434.0,162.9 418.6,169.8 403.3,179.6 388.7,191.8 375.5,206.1 367.4,218.1 363.1,229.6 358.9,241.8 355.1,254.0 351.9,266.0 349.3,277.1 347.5,286.9 346.5,295.2" fill="url(#x0vgi11)"/>
    <defs><radialGradient id="x0vgi12" gradientUnits="userSpaceOnUse" cx="444" cy="385" r="144" fx="407" fy="348"><stop offset="0%" stop-color="#7f7fbf"/><stop offset="1" stop-color="#27276a"/></radialGradient></defs>
    <polygon points="336.7,373.3 336.9,385.9 338.4,399.1 341.4,412.6 345.6,425.7 350.8,438.0 357.0,448.9 363.8,458.2 367.3,461.9 371.0,465.3 375.2,469.0 383.7,475.4 392.9,480.9 402.5,485.4 412.6,489.0 422.9,491.6 433.5,493.2 444.1,493.7 454.8,493.2 465.3,491.6 475.7,489.0 485.7,485.4 495.4,480.9 504.5,475.4 513.1,469.0 521.0,461.9 528.2,454.0 534.5,445.4 540.0,436.2 544.6,426.6 548.2,416.6 550.8,406.2 552.3,395.7 552.9,385.0 552.3,374.3 550.8,363.8 550.2,361.2 548.8,357.4 545.7,352.1 539.2,347.3 530.3,346.2 518.3,344.6 503.8,342.7 487.1,340.6 469.1,338.3 450.3,335.9 431.6,333.5 413.5,331.3 396.9,329.2 382.3,327.4 370.3,325.9 361.4,324.9 355.9,324.2 354.1,324.1 353.7,324.6 348.2,333.7 343.7,343.4 340.1,353.4 338.0,361.9" fill="url(#x0vgi12)"/>
    <defs><radialGradient id="x0vgi13" gradientUnits="userSpaceOnUse" cx="632" cy="209" r="137" fx="596" fy="174"><stop offset="0%" stop-color="#ff0d0d"/><stop offset="1" stop-color="#7b0042"/></radialGradient></defs>
    <polygon points="539.3,185.4 541.7,201.6 546.6,218.7 554.0,236.0 563.5,252.7 574.8,268.4 587.3,282.3 600.8,293.9 614.5,302.9 628.1,308.8 640.9,311.4 651.9,310.7 652.6,310.6 661.8,308.3 671.3,304.8 680.5,300.5 689.3,295.3 697.4,289.2 705.0,282.4 711.8,274.8 717.9,266.7 723.1,257.9 727.4,248.7 730.9,239.2 733.3,229.3 734.8,219.2 735.3,209.1 734.8,198.9 733.3,188.8 730.9,179.0 727.4,169.4 723.1,160.2 717.9,151.5 711.8,143.3 705.0,135.8 697.4,128.9 689.3,122.9 680.5,117.6 671.3,113.3 661.8,109.9 651.9,107.4 641.8,105.9 631.7,105.4 621.5,105.9 611.4,107.4 601.6,109.9 592.0,113.3 582.8,117.6 574.1,122.9 565.9,128.9 558.4,135.8 551.5,143.3 548.2,147.6 542.6,157.9 539.6,170.6" fill="url(#x0vgi13)"/>
    <defs><radialGradient id="x0vgi14" gradientUnits="userSpaceOnUse" cx="380" cy="402" r="94" fx="356" fy="378"><stop offset="0%" stop-color="#fafafa"/><stop offset="1" stop-color="#875e74"/></radialGradient></defs>
    <polygon points="309.3,402.2 309.6,409.1 310.7,416.0 312.3,422.7 314.7,429.3 317.7,435.6 321.2,441.5 325.4,447.1 330.1,452.3 335.2,457.0 340.8,461.1 346.8,464.7 353.0,467.6 359.6,470.0 366.3,471.7 373.2,472.7 380.2,473.0 387.1,472.7 392.2,471.9 398.2,468.9 403.2,463.4 407.2,455.6 409.8,445.8 411.1,434.4 411.0,421.8 409.4,408.6 406.4,395.1 402.3,382.0 397.0,369.7 390.8,358.8 384.0,349.5 376.8,342.4 369.5,337.6 362.3,335.4 355.6,335.8 353.0,336.7 346.8,339.7 340.8,343.2 335.2,347.4 330.1,352.0 325.4,357.2 321.2,362.8 317.7,368.8 314.7,375.0 312.3,381.6 310.7,388.3 309.6,395.2" fill="url(#x0vgi14)"/>
    <defs><radialGradient id="x0vgi15" gradientUnits="userSpaceOnUse" cx="252" cy="170" r="137" fx="216" fy="134"><stop offset="0%" stop-color="#ff0d0d"/><stop offset="1" stop-color="#7b0042"/></radialGradient></defs>
    <polygon points="148.0,169.7 148.5,179.8 150.0,189.9 152.5,199.8 155.9,209.3 160.3,218.5 165.5,227.3 171.5,235.4 178.4,243.0 185.9,249.8 194.1,255.9 199.5,259.2 202.8,261.1 214.5,266.3 231.2,270.2 249.1,271.0 267.5,268.4 285.7,262.7 302.9,254.1 318.5,242.8 332.0,229.3 342.7,214.2 350.3,198.0 354.5,181.3 355.3,169.7 355.2,164.8 354.8,159.5 353.4,149.4 350.9,139.6 347.5,130.0 343.1,120.8 337.9,112.1 331.8,103.9 325.0,96.4 317.4,89.5 309.3,83.5 300.5,78.2 291.4,73.9 281.8,70.5 271.9,68.0 261.8,66.5 251.7,66.0 241.5,66.5 231.5,68.0 221.6,70.5 212.0,73.9 202.8,78.2 194.1,83.5 185.9,89.5 178.4,96.4 171.5,103.9 165.5,112.1 160.3,120.8 155.9,130.0 152.5,139.6 150.0,149.4 148.5,159.5" fill="url(#x0vgi15)"/>
    <defs><radialGradient id="x0vgi16" gradientUnits="userSpaceOnUse" cx="446" cy="247" r="94" fx="422" fy="223"><stop offset="0%" stop-color="#fafafa"/><stop offset="1" stop-color="#875e74"/></radialGradient></defs>
    <polygon points="375.1,247.5 375.4,254.4 376.5,261.6 380.5,274.0 386.9,285.2 395.6,295.0 406.2,302.8 418.3,308.5 431.4,311.7 445.0,312.3 458.6,310.4 471.7,306.0 483.8,299.3 494.4,290.4 503.1,279.9 509.5,268.0 513.5,255.3 514.8,242.2 513.5,229.2 509.5,216.8 503.1,205.5 496.1,197.4 494.4,195.8 490.9,192.7 485.3,188.5 479.4,185.0 473.1,182.0 466.5,179.6 459.8,178.0 452.9,176.9 446.0,176.6 439.0,176.9 432.1,178.0 425.4,179.6 418.8,182.0 412.5,185.0 406.6,188.5 401.0,192.7 395.8,197.4 391.2,202.5 387.0,208.1 383.4,214.1 380.5,220.3 378.1,226.9 376.4,233.6 375.4,240.5" fill="url(#x0vgi16)"/>
  </g>
</svg>