<svg xmlns="http://www.w3.org/2000/svg" xmlns:xlink="http://www.w3.org/1999/xlink" viewBox="0 0 800 549" width="800" height="549">
  <rect width="100%" height="100%" fill="#ffffff"/>
  <defs>
    <radialGradient id="x0g0" cx=".5" cy=".5" fx=".33" fy=".33" r=".66"><stop offset="0%" stop-color="#ffffff"/><stop offset="40%" stop-color="#ffffff"/><stop offset="100%" stop-color="#9d7b81"/></radialGradient>
    <radialGradient id="x0g1" cx=".5" cy=".5" fx=".33" fy=".33" r=".66"><stop offset="0%" stop-color="#b6b6b6"/><stop offset="40%" stop-color="#aaaaaa"/><stop offset="100%" stop-color="#6b4f55"/></radialGradient>
    <radialGradient id="x0g2" cx=".5" cy=".5" fx=".33" fy=".33" r=".66"><stop offset="0%" stop-color="#b7b7b7"/><stop offset="40%" stop-color="#ababab"/><stop offset="100%" stop-color="#6e5258"/></radialGradient>
    <radialGradient id="x0g3" cx=".5" cy=".5" fx=".33" fy=".33" r=".66"><stop offset="0%" stop-color="#ef5240"/><stop offset="40%" stop-color="#ff0d0d"/><stop offset="100%" stop-color="#93001d"/></radialGradient>
    <radialGradient id="x0g4" cx=".5" cy=".5" fx=".33" fy=".33" r=".66"><stop offset="0%" stop-color="#f4887c"/><stop offset="40%" stop-color="#ff5959"/><stop offset="100%" stop-color="#b55064"/></radialGradient>
    <radialGradient id="x0g5" cx=".5" cy=".5" fx=".33" fy=".33" r=".66"><stop offset="0%" stop-color="#ffffff"/><stop offset="40%" stop-color="#ffffff"/><stop offset="100%" stop-color="#c1acb0"/></radialGradient>
    <radialGradient id="x0g6" cx=".5" cy=".5" fx=".33" fy=".33" r=".66"><stop offset="0%" stop-color="#bdbdbd"/><stop offset="40%" stop-color="#b3b3b3"/><stop offset="100%" stop-color="#7b6267"/></radialGradient>
    <radialGradient id="x0g7" cx=".5" cy=".5" fx=".33" fy=".33" r=".66"><stop offset="0%" stop-color="#b7b7b7"/><stop offset="40%" stop-color="#ababab"/><stop offset="100%" stop-color="#6e5358"/></radialGradient>
    <radialGradient id="x0g8" cx=".5" cy=".5" fx=".33" fy=".33" r=".66"><stop offset="0%" stop-color="#ffffff"/><stop offset="40%" stop-color="#ffffff"/><stop offset="100%" stop-color="#a98b90"/></radialGradient>
    <radialGradient id="x0g9" cx=".5" cy=".5" fx=".33" fy=".33" r=".66"><stop offset="0%" stop-color="#5b9bec"/><stop offset="40%" stop-color="#3050f8"/><stop offset="100%" stop-color="#041a9e"/></radialGradient>
    <radialGradient id="x0g10" cx=".5" cy=".5" fx=".33" fy=".33" r=".66"><stop offset="0%" stop-color="#ffffff"/><stop offset="40%" stop-color="#ffffff"/><stop offset="100%" stop-color="#a7888e"/></radialGradient>
    <radialGradient id="x0g11" cx=".5" cy=".5" fx=".33" fy=".33" r=".66"><stop offset="0%" stop-color="#ffffff"/><stop offset="40%" stop-color="#ffffff"/><stop offset="100%" stop-color="#9d7b81"/></radialGradient>
    <radialGradient id="x0g12" cx=".5" cy=".5" fx=".33" fy=".33" r=".66"><stop offset="0%" stop-color="#ef5240"/><stop offset="40%" stop-color="#ff0d0d"/><stop offset="100%" stop-color="#93001d"/></radialGradient>
    <radialGradient id="x0g13" cx=".5" cy=".5" fx=".33" fy=".33" r=".66"><stop offset="0%" stop-color="#71a8ee"/><stop offset="40%" stop-color="#4c68f8"/><stop offset="100%" stop-color="#2639ab"/></radialGradient>
    <radialGradient id="x0g14" cx=".5" cy=".5" fx=".33" fy=".33" r=".66"><stop offset="0%" stop-color="#ffffff"/><stop offset="40%" stop-color="#ffffff"/><stop offset="100%" stop-color="#c9b6b9"/></radialGradient>
    <radialGradient id="x0g15" cx=".5" cy=".5" fx=".33" fy=".33" r=".66"><stop offset="0%" stop-color="#ffffff"/><stop offset="40%" stop-color="#ffffff"/><stop offset="100%" stop-color="#c6b2b6"/></radialGradient>
    <radialGradient id="x0g16" cx=".5" cy=".5" fx=".33" fy=".33" r=".66"><stop offset="0%" stop-color="#ffffff"/><stop offset="40%" stop-color="#ffffff"/><stop offset="100%" stop-color="#a4848a"/></radialGradient>
  </defs>
  <defs>
    <radialGradient id="x0vg1" cx=".5" cy=".5" fx=".33" fy=".33" r=".66"><stop offset="0%" stop-color="#ffffff"/><stop offset="100%" stop-color="#583641"/></radialGradient>
    <radialGradient id="x0vg8" cx=".5" cy=".5" fx=".33" fy=".33" r=".66"><stop offset="0%" stop-color="#ff0d0d"/><stop offset="100%" stop-color="#4b0018"/></radialGradient>
    <radialGradient id="x0vg7" cx=".5" cy=".5" fx=".33" fy=".33" r=".66"><stop offset="0%" stop-color="#3050f8"/><stop offset="100%" stop-color="#020c50"/></radialGradient>
    <radialGradient id="x0vg6" cx=".5" cy=".5" fx=".33" fy=".33" r=".66"><stop offset="0%" stop-color="#aaaaaa"/><stop offset="100%" stop-color="#3b242b"/></radialGradient>
  </defs>
  <circle cx="391.3" cy="246.6" r="14.2" fill="url(#x0g14)" stroke="#a4a4a4" stroke-width="4.8"/>
  <line x1="390.7" y1="242.0" x2="388.4" y2="225.2" stroke="#333333" stroke-width="11.9" stroke-linecap="round"/>
  <circle cx="225.9" cy="310.8" r="14.2" fill="url(#x0g15)" stroke="#999999" stroke-width="4.8"/>
  <line x1="222.9" y1="304.7" x2="213.8" y2="286.1" stroke="#353535" stroke-width="11.9" stroke-linecap="round"/>
  <circle cx="662.6" cy="259.7" r="14.2" fill="url(#x0g5)" stroke="#888888" stroke-width="4.8"/>
  <line x1="650.4" y1="262.9" x2="614.9" y2="272.1" stroke="#464646" stroke-width="11.9" stroke-linecap="round"/>
  <circle cx="594.0" cy="277.4" r="24.2" fill="url(#x0g4)" stroke="#737373" stroke-width="4.8"/>
  <line x1="588.2" y1="271.8" x2="573.1" y2="257.3" stroke="#191919" stroke-width="11.9" stroke-linecap="round"/>
  <circle cx="208.5" cy="275.1" r="25.4" fill="url(#x0g13)" stroke="#323232" stroke-width="4.8"/>
  <line x1="186.7" y1="275.4" x2="149.6" y2="275.8" stroke="#151515" stroke-width="11.9" stroke-linecap="round"/>
  <line x1="224.1" y1="262.5" x2="263.7" y2="230.3" stroke="#0e0e0e" stroke-width="11.9" stroke-linecap="round"/>
  <circle cx="412.9" cy="137.2" r="14.2" fill="url(#x0g8)" stroke="#2d2d2d" stroke-width="4.8"/>
  <line x1="409.0" y1="149.3" x2="394.6" y2="193.4" stroke="#171717" stroke-width="11.9" stroke-linecap="round"/>
  <circle cx="387.1" cy="216.4" r="27.0" fill="url(#x0g6)" stroke="#272727" stroke-width="4.8"/>
  <line x1="364.4" y1="216.5" x2="303.1" y2="216.8" stroke="#0b0b0b" stroke-width="11.9" stroke-linecap="round"/>
  <line x1="402.0" y1="228.6" x2="443.1" y2="262.3" stroke="#060606" stroke-width="11.9" stroke-linecap="round"/>
  <circle cx="441.4" cy="411.8" r="14.2" fill="url(#x0g10)" stroke="#262626" stroke-width="4.8"/>
  <line x1="441.8" y1="407.3" x2="443.2" y2="393.2" stroke="#050505" stroke-width="11.9" stroke-linecap="round"/>
  <circle cx="137.4" cy="275.9" r="14.2" fill="url(#x0g16)" stroke="#1a1a1a" stroke-width="4.8"/>
  <circle cx="280.3" cy="216.9" r="27.0" fill="url(#x0g7)" stroke="#080808" stroke-width="4.8"/>
  <line x1="266.9" y1="208.4" x2="252.8" y2="185.2" stroke="#010101" stroke-width="8.3" stroke-linecap="round"/>
  <line x1="279.1" y1="201.0" x2="265.0" y2="177.8" stroke="#010101" stroke-width="8.3" stroke-linecap="round"/>
  <circle cx="566.5" cy="251.0" r="27.0" fill="url(#x0g2)" stroke="#070707" stroke-width="4.8"/>
  <line x1="543.6" y1="255.9" x2="480.9" y2="269.5" stroke="#010101" stroke-width="11.9" stroke-linecap="round"/>
  <line x1="579.7" y1="234.1" x2="611.6" y2="213.6" stroke="#010101" stroke-width="8.3" stroke-linecap="round"/>
  <line x1="587.4" y1="246.1" x2="619.3" y2="225.6" stroke="#010101" stroke-width="8.3" stroke-linecap="round"/>
  <circle cx="457.9" cy="274.5" r="27.0" fill="url(#x0g1)" stroke="#000000" stroke-width="4.8"/>
  <line x1="454.9" y1="298.6" x2="446.8" y2="362.4" stroke="#000000" stroke-width="11.9" stroke-linecap="round"/>
  <line x1="454.4" y1="266.9" x2="447.6" y2="252.1" stroke="#000000" stroke-width="11.9" stroke-linecap="round"/>
  <circle cx="444.0" cy="385.1" r="25.4" fill="url(#x0g9)" stroke="#000000" stroke-width="4.8"/>
  <line x1="424.6" y1="390.3" x2="391.1" y2="399.3" stroke="#000000" stroke-width="11.9" stroke-linecap="round"/>
  <circle cx="630.8" cy="209.8" r="24.2" fill="url(#x0g3)" stroke="#000000" stroke-width="4.8"/>
  <circle cx="380.2" cy="402.2" r="14.2" fill="url(#x0g11)" stroke="#000000" stroke-width="4.8"/>
  <circle cx="252.3" cy="170.6" r="24.2" fill="url(#x0g12)" stroke="#000000" stroke-width="4.8"/>
  <circle cx="445.8" cy="248.1" r="14.2" fill="url(#x0g0)" stroke="#000000" stroke-width="4.8"/>
  <g opacity="0.25">
    <defs><radialGradient id="x0vgi0" gradientUnits="userSpaceOnUse" cx="391" cy="247" r="93" fx="367" fy="223"><stop offset="0%" stop-color="#ffffff"/><stop offset="1" stop-color="#583641"/></radialGradient></defs>
    <polygon points="321.6,250.6 322.9,263.4 326.9,275.6 329.1,279.9 332.6,285.9 336.8,291.4 341.4,296.6 346.5,301.2 352.1,305.3 358.0,308.9 364.3,311.9 370.8,314.2 377.6,315.9 384.4,316.9 391.3,317.2 398.2,316.9 405.1,315.9 411.8,314.2 418.3,311.9 424.6,308.9 430.6,305.3 436.1,301.2 441.3,296.6 445.9,291.4 450.0,285.9 453.6,279.9 456.6,273.7 458.9,267.1 460.5,260.9 460.6,260.4 461.8,248.1 460.5,235.3 456.5,223.1 450.0,211.9 441.3,202.2 430.7,194.2 418.5,188.4 405.4,184.9 391.7,183.9 378.0,185.4 364.9,189.4 352.8,195.6 342.1,204.0 333.4,214.0 326.9,225.5 322.9,237.8" fill="url(#x0vgi0)"/>
    <defs><radialGradient id="x0vgi1" gradientUnits="userSpaceOnUse" cx="226" cy="311" r="93" fx="202" fy="287"><stop offset="0%" stop-color="#ffffff"/><stop offset="1" stop-color="#583641"/></radialGradient></defs>
    <polygon points="159.6,322.7 160.9,334.4 164.8,345.4 171.1,355.2 171.3,355.6 176.0,360.7 181.1,365.4 186.7,369.5 192.6,373.1 198.9,376.0 205.4,378.4 212.1,380.0 219.0,381.1 225.9,381.4 232.8,381.1 239.7,380.0 246.4,378.4 252.9,376.0 259.2,373.1 265.1,369.5 270.7,365.4 275.8,360.7 280.5,355.6 284.6,350.0 288.2,344.1 291.1,337.8 293.5,331.3 295.2,324.6 296.2,317.7 296.5,310.8 296.2,303.9 295.2,297.0 294.7,294.8 290.8,283.8 284.5,274.0 276.0,265.7 265.7,259.4 253.9,255.1 241.1,253.1 227.8,253.5 214.5,256.3 201.7,261.3 189.9,268.3 179.6,277.1 171.1,287.4 164.8,298.7 160.9,310.6" fill="url(#x0vgi1)"/>
    <defs><radialGradient id="x0vgi2" gradientUnits="userSpaceOnUse" cx="663" cy="260" r="93" fx="639" fy="236"><stop offset="0%" stop-color="#ffffff"/><stop offset="1" stop-color="#583641"/></radialGradient></defs>
    <polygon points="645.6,203.5 646.2,212.4 647.5,223.1 649.6,235.2 652.3,248.1 655.6,261.5 659.2,274.8 663.1,287.4 667.2,299.0 671.2,309.0 675.0,317.0 678.5,322.9 681.4,326.2 683.9,327.0 689.6,324.9 695.9,322.0 701.8,318.4 707.4,314.3 712.5,309.6 717.2,304.5 721.3,298.9 724.8,293.0 727.8,286.7 730.1,280.2 731.8,273.5 732.8,266.6 733.2,259.7 732.8,252.8 731.8,245.9 730.1,239.2 727.8,232.7 724.8,226.4 721.3,220.5 717.2,214.9 712.5,209.8 707.4,205.1 701.8,201.0 695.9,197.4 689.6,194.5 683.1,192.1 676.4,190.5 669.5,189.4 662.6,189.1 655.7,189.4 648.8,190.5 648.5,190.5 646.8,192.4 645.8,196.8" fill="url(#x0vgi2)"/>
    <defs><radialGradient id="x0vgi3" gradientUnits="userSpaceOnUse" cx="594" cy="277" r="136" fx="559" fy="242"><stop offset="0%" stop-color="#ff0d0d"/><stop offset="1" stop-color="#4b0018"/></radialGradient></defs>
    <polygon points="490.8,277.4 491.3,287.6 492.8,297.6 495.2,307.4 498.6,317.0 503.0,326.1 508.2,334.8 514.2,343.0 521.0,350.5 528.5,357.3 536.7,363.3 545.4,368.5 554.5,372.8 564.1,376.3 573.9,378.7 583.9,380.2 594.0,380.7 604.2,380.2 614.2,378.7 624.0,376.3 633.6,372.8 642.7,368.5 651.4,363.3 659.5,357.3 667.1,350.5 673.9,343.0 679.9,334.8 685.1,326.1 685.6,325.2 686.6,320.8 686.8,314.0 686.2,305.1 684.8,294.4 682.8,282.3 680.0,269.4 676.8,256.0 661.2,208.6 657.4,200.5 653.9,194.7 650.9,191.3 642.7,186.4 633.6,182.0 624.0,178.6 614.2,176.2 604.2,174.7 594.0,174.2 583.9,174.7 573.9,176.2 564.1,178.6 554.5,182.0 548.4,184.9 545.4,186.4 536.7,191.6 532.4,194.6 518.4,207.1 508.2,220.1 506.9,222.0 503.0,228.8 498.6,237.9 495.2,247.5 492.8,257.3 491.3,267.3" fill="url(#x0vgi3)"/>
    <defs><radialGradient id="x0vgi4" gradientUnits="userSpaceOnUse" cx="208" cy="275" r="143" fx="172" fy="238"><stop offset="0%" stop-color="#3050f8"/><stop offset="1" stop-color="#020c50"/></radialGradient></defs>
    <polygon points="108.5,276.2 109.1,289.9 110.4,303.1 112.5,315.2 115.3,325.8 118.7,334.4 122.4,340.9 124.8,343.8 131.9,351.7 139.8,358.8 148.3,365.2 157.4,370.6 167.0,375.2 177.0,378.8 187.3,381.3 197.9,382.9 208.5,383.4 219.1,382.9 229.6,381.3 239.9,378.8 249.9,375.2 259.5,370.6 268.6,365.2 277.2,358.8 285.1,351.7 292.2,343.8 298.5,335.3 304.0,326.2 307.3,319.1 310.6,309.3 311.1,297.1 309.3,286.6 306.9,277.9 303.9,267.9 296.7,252.0 287.1,236.0 275.7,220.6 263.0,206.2 249.3,193.6 235.2,183.1 221.3,175.2 208.2,170.1 196.2,168.2 187.3,168.9 177.0,171.5 167.0,175.1 157.4,179.6 148.3,185.1 139.8,191.4 131.9,198.5 124.8,206.4 121.0,211.3 117.4,217.8 114.2,226.5 111.7,237.2 109.8,249.4 108.8,262.5" fill="url(#x0vgi4)"/>
    <defs><radialGradient id="x0vgi5" gradientUnits="userSpaceOnUse" cx="413" cy="137" r="93" fx="389" fy="113"><stop offset="0%" stop-color="#ffffff"/><stop offset="1" stop-color="#583641"/></radialGradient></defs>
    <polygon points="348.6,108.2 349.5,109.5 353.1,111.6 359.0,114.4 367.1,117.8 377.0,121.6 388.4,125.8 400.8,130.2 413.8,134.5 426.9,138.6 439.5,142.5 451.1,145.8 461.4,148.5 470.0,150.5 476.4,151.8 480.5,152.1 482.0,151.7 482.2,151.0 483.2,144.1 483.5,137.2 483.2,130.3 482.2,123.4 480.5,116.7 478.2,110.2 475.2,103.9 471.6,98.0 467.5,92.4 462.9,87.3 457.7,82.6 452.2,78.5 446.2,74.9 439.9,72.0 433.4,69.6 426.7,68.0 419.8,66.9 412.9,66.6 406.0,66.9 399.2,68.0 392.4,69.6 385.9,72.0 379.6,74.9 373.7,78.5 368.1,82.6 363.0,87.3 358.4,92.4 354.2,98.0 350.7,103.9" fill="url(#x0vgi5)"/>
    <defs><radialGradient id="x0vgi6" gradientUnits="userSpaceOnUse" cx="387" cy="216" r="152" fx="348" fy="177"><stop offset="0%" stop-color="#aaaaaa"/><stop offset="1" stop-color="#3b242b"/></radialGradient></defs>
    <polygon points="298.6,216.8 299.4,236.3 301.5,255.0 303.9,267.9 309.3,286.6 314.6,299.8 320.7,309.0 327.3,314.7 332.9,317.9 343.1,322.7 353.7,326.5 364.7,329.2 375.9,330.9 383.1,331.4 392.2,331.1 411.2,327.1 426.6,320.2 441.8,310.5 456.3,298.3 469.5,284.0 480.9,268.3 488.6,249.2 491.3,236.5 493.5,223.6 495.1,211.2 495.9,199.6 496.0,189.3 495.4,180.7 494.1,174.2 493.4,172.4 488.6,162.2 482.8,152.5 481.0,150.4 477.5,148.3 471.6,145.5 463.5,142.1 453.6,138.3 442.2,134.1 429.8,129.7 416.8,125.4 403.7,121.3 391.1,117.4 379.4,114.1 369.1,111.4 360.6,109.4 354.2,108.1 350.1,107.8 348.6,108.2 343.1,110.1 332.9,115.0 326.5,118.7 319.9,124.4 313.9,133.7 308.6,146.1 304.3,161.3 301.1,178.5 299.2,197.3" fill="url(#x0vgi6)"/>
    <defs><radialGradient id="x0vgi7" gradientUnits="userSpaceOnUse" cx="441" cy="412" r="93" fx="417" fy="388"><stop offset="0%" stop-color="#ffffff"/><stop offset="1" stop-color="#583641"/></radialGradient></defs>
    <polygon points="371.0,413.5 372.3,426.4 373.8,432.3 376.2,438.8 379.1,445.1 382.7,451.0 386.8,456.6 391.5,461.7 396.6,466.4 402.2,470.5 408.1,474.1 414.4,477.0 420.9,479.4 427.6,481.0 434.5,482.1 441.4,482.4 448.3,482.1 455.2,481.0 461.9,479.4 468.4,477.0 474.7,474.1 480.6,470.5 486.2,466.4 491.3,461.7 496.0,456.6 500.1,451.0 503.7,445.1 506.0,440.3 506.6,438.8 510.0,428.0 511.3,415.2 510.0,402.4 506.0,390.1 499.5,378.6 490.8,368.6 480.2,360.3 468.0,354.1 454.9,350.2 441.2,348.8 427.5,349.9 414.3,353.4 402.2,359.3 391.5,367.4 382.8,377.2 376.3,388.5 372.3,400.8" fill="url(#x0vgi7)"/>
    <defs><radialGradient id="x0vgi8" gradientUnits="userSpaceOnUse" cx="137" cy="276" r="93" fx="113" fy="252"><stop offset="0%" stop-color="#ffffff"/><stop offset="1" stop-color="#583641"/></radialGradient></defs>
    <polygon points="66.8,275.9 67.2,282.8 68.2,289.7 69.9,296.4 72.2,302.9 75.2,309.2 78.7,315.1 82.8,320.7 87.5,325.8 92.6,330.5 98.2,334.6 104.1,338.2 110.4,341.1 116.9,343.5 123.6,345.1 130.7,346.1 134.9,344.7 138.8,340.7 142.5,334.2 145.6,325.4 148.1,314.8 150.0,302.6 151.1,289.4 151.3,275.7 150.8,262.1 149.4,248.9 147.3,236.8 144.5,226.2 141.2,217.5 137.4,211.1 133.3,207.1 129.1,205.8 123.6,206.7 116.9,208.3 110.4,210.7 104.1,213.6 98.2,217.2 92.6,221.3 87.5,226.0 82.8,231.1 78.7,236.7 75.2,242.6 72.2,248.9 69.9,255.4 68.2,262.1 67.2,269.0" fill="url(#x0vgi8)"/>
    <defs><radialGradient id="x0vgi9" gradientUnits="userSpaceOnUse" cx="280" cy="217" r="152" fx="241" fy="178"><stop offset="0%" stop-color="#aaaaaa"/><stop offset="1" stop-color="#3b242b"/></radialGradient></defs>
    <polygon points="167.9,202.8 168.8,207.8 175.0,232.0 182.3,247.9 191.9,263.9 203.3,279.3 216.0,293.7 229.7,306.3 243.8,316.8 257.7,324.7 270.9,329.8 282.9,331.8 291.6,331.3 302.8,329.7 313.7,326.9 324.4,323.1 334.6,318.3 341.0,314.6 347.6,308.9 367.6,218.8 368.1,197.0 366.0,178.3 362.7,161.0 358.3,145.9 352.9,133.5 346.8,124.3 340.2,118.6 334.6,115.4 324.4,110.6 313.7,106.8 302.8,104.0 291.6,102.4 280.3,101.8 274.4,102.0 256.1,104.5 238.0,110.2 220.8,118.8 205.3,130.0 191.9,143.4 181.2,158.5 178.9,162.6 174.1,172.8 170.3,183.5 168.4,190.6" fill="url(#x0vgi9)"/>
    <defs><radialGradient id="x0vgi10" gradientUnits="userSpaceOnUse" cx="567" cy="251" r="152" fx="527" fy="212"><stop offset="0%" stop-color="#aaaaaa"/><stop offset="1" stop-color="#3b242b"/></radialGradient></defs>
    <polygon points="486.4,168.8 487.4,268.1 492.0,287.0 503.3,321.3 509.6,335.4 522.7,350.9 530.7,356.5 537.5,360.6 543.0,363.3 546.9,364.3 555.2,365.5 566.5,366.0 577.8,365.5 588.9,363.8 599.9,361.1 610.5,357.3 620.7,352.4 630.4,346.6 639.5,339.9 647.8,332.3 655.4,324.0 662.2,314.9 668.0,305.2 672.8,295.0 674.9,289.4 677.9,276.6 678.3,261.9 675.9,245.7 674.0,239.1 671.1,229.1 671.0,228.7 663.6,211.6 654.2,194.8 642.9,179.3 630.4,165.4 617.0,153.8 603.3,144.9 589.8,139.0 577.8,136.5 577.0,136.4 566.5,135.9 555.2,136.5 544.1,138.2 533.1,140.9 522.5,144.7 512.3,149.5 502.6,155.3 493.5,162.1 486.7,168.2" fill="url(#x0vgi10)"/>
    <defs><radialGradient id="x0vgi11" gradientUnits="userSpaceOnUse" cx="458" cy="274" r="152" fx="419" fy="235"><stop offset="0%" stop-color="#aaaaaa"/><stop offset="1" stop-color="#3b242b"/></radialGradient></defs>
    <polygon points="346.6,302.0 347.3,306.1 347.8,307.9 351.6,318.5 354.3,324.4 356.1,324.7 361.5,325.4 413.4,332.1 431.4,334.4 450.1,336.8 468.8,339.1 486.7,341.4 503.3,343.5 538.6,347.5 543.5,340.8 544.6,327.8 544.5,312.4 543.2,295.1 540.6,276.5 537.0,257.4 532.4,238.5 527.0,220.5 521.1,204.2 514.8,190.1 508.4,178.8 502.2,170.7 496.4,166.1 491.3,164.4 480.4,161.7 469.2,160.0 462.8,159.7 457.9,159.4 448.9,160.1 433.9,163.8 418.5,170.7 403.3,180.4 388.8,192.7 375.6,206.9 367.6,218.8 363.2,230.3 359.1,242.4 355.3,254.6 352.1,266.5 349.5,277.6 347.7,287.4 346.7,295.6" fill="url(#x0vgi11)"/>
    <defs><radialGradient id="x0vgi12" gradientUnits="userSpaceOnUse" cx="444" cy="385" r="143" fx="407" fy="348"><stop offset="0%" stop-color="#3050f8"/><stop offset="1" stop-color="#020c50"/></radialGradient></defs>
    <polygon points="336.9,373.4 337.1,385.9 338.7,399.1 341.6,412.5 345.8,425.6 351.0,437.8 357.2,448.7 364.0,457.9 367.4,461.6 371.1,465.1 375.3,468.8 383.8,475.1 392.9,480.6 402.5,485.1 412.5,488.7 422.8,491.3 433.3,492.8 444.0,493.4 454.6,492.8 465.1,491.3 475.4,488.7 485.4,485.1 495.0,480.6 504.1,475.1 512.7,468.8 520.5,461.6 527.7,453.8 534.0,445.2 539.5,436.1 544.0,426.5 547.6,416.5 550.2,406.2 551.7,395.7 552.3,385.1 551.7,374.4 550.2,363.9 549.6,361.4 548.2,357.5 545.1,352.3 538.6,347.5 529.8,346.4 517.9,344.8 503.4,342.9 486.8,340.8 468.8,338.5 450.1,336.2 431.4,333.8 413.5,331.6 396.9,329.5 382.4,327.7 370.4,326.2 361.6,325.2 356.1,324.5 354.3,324.4 353.9,324.9 348.4,334.0 343.9,343.6 340.3,353.6 338.2,362.0" fill="url(#x0vgi12)"/>
    <defs><radialGradient id="x0vgi13" gradientUnits="userSpaceOnUse" cx="631" cy="210" r="136" fx="596" fy="175"><stop offset="0%" stop-color="#ff0d0d"/><stop offset="1" stop-color="#4b0018"/></radialGradient></defs>
    <polygon points="538.7,186.2 541.1,202.4 546.0,219.4 553.4,236.6 562.9,253.3 574.1,268.9 586.6,282.8 600.0,294.4 613.7,303.3 627.2,309.1 640.0,311.7 650.9,311.1 651.6,311.0 660.7,308.6 670.3,305.2 679.4,300.9 688.1,295.7 696.3,289.6 703.8,282.8 710.6,275.3 716.6,267.2 721.8,258.5 726.2,249.3 729.6,239.8 732.0,230.0 733.5,219.9 734.0,209.8 733.5,199.7 732.0,189.7 729.6,179.8 726.2,170.3 721.8,161.1 716.6,152.5 710.6,144.3 703.8,136.8 696.3,130.0 688.1,124.0 679.4,118.8 670.3,114.4 660.7,111.0 650.9,108.5 640.9,107.1 630.8,106.6 620.6,107.1 610.6,108.5 600.8,111.0 591.2,114.4 582.1,118.8 573.4,124.0 565.3,130.0 557.7,136.8 550.9,144.3 547.6,148.6 542.1,158.8 539.1,171.5" fill="url(#x0vgi13)"/>
    <defs><radialGradient id="x0vgi14" gradientUnits="userSpaceOnUse" cx="380" cy="402" r="93" fx="356" fy="378"><stop offset="0%" stop-color="#ffffff"/><stop offset="1" stop-color="#583641"/></radialGradient></defs>
    <polygon points="309.6,402.2 310.0,409.1 311.0,415.9 312.7,422.7 315.0,429.2 318.0,435.4 321.5,441.4 325.7,447.0 330.3,452.1 335.5,456.7 341.0,460.9 347.0,464.4 353.2,467.4 359.8,469.7 366.5,471.4 373.3,472.4 380.2,472.8 387.2,472.4 392.2,471.7 398.2,468.7 403.2,463.2 407.2,455.4 409.8,445.6 411.1,434.3 410.9,421.8 409.3,408.5 406.4,395.1 402.2,382.1 397.0,369.8 390.8,358.9 384.1,349.7 376.9,342.6 369.6,337.9 362.5,335.6 355.8,336.0 353.2,336.9 347.0,339.9 341.0,343.5 335.5,347.6 330.3,352.2 325.7,357.4 321.5,362.9 318.0,368.9 315.0,375.1 312.7,381.7 311.0,388.4 310.0,395.2" fill="url(#x0vgi14)"/>
    <defs><radialGradient id="x0vgi15" gradientUnits="userSpaceOnUse" cx="252" cy="171" r="136" fx="217" fy="135"><stop offset="0%" stop-color="#ff0d0d"/><stop offset="1" stop-color="#4b0018"/></radialGradient></defs>
    <polygon points="149.0,170.6 149.5,180.7 151.0,190.7 153.4,200.6 156.9,210.1 161.2,219.3 166.4,227.9 172.4,236.1 179.2,243.6 186.8,250.4 194.9,256.4 200.3,259.7 203.6,261.6 215.2,266.8 231.9,270.7 249.7,271.5 268.0,269.0 286.1,263.3 303.3,254.7 318.8,243.4 332.2,230.0 342.9,214.9 350.5,198.8 354.7,182.1 355.5,170.6 355.3,165.7 355.0,160.5 353.5,150.4 351.1,140.6 347.7,131.1 343.3,121.9 338.1,113.2 332.1,105.1 325.3,97.6 317.8,90.8 309.6,84.7 300.9,79.5 291.8,75.2 282.2,71.8 272.4,69.3 262.4,67.8 252.3,67.3 242.1,67.8 232.1,69.3 222.3,71.8 212.7,75.2 203.6,79.5 194.9,84.7 186.8,90.8 179.2,97.6 172.4,105.1 166.4,113.2 161.2,121.9 156.9,131.1 153.4,140.6 151.0,150.4 149.5,160.5" fill="url(#x0vgi15)"/>
    <defs><radialGradient id="x0vgi16" gradientUnits="userSpaceOnUse" cx="446" cy="248" r="93" fx="422" fy="224"><stop offset="0%" stop-color="#ffffff"/><stop offset="1" stop-color="#583641"/></radialGradient></defs>
    <polygon points="375.2,248.1 375.5,255.0 376.6,262.1 380.6,274.5 387.0,285.7 395.6,295.4 406.2,303.2 418.2,308.8 431.2,312.0 444.8,312.7 458.4,310.8 471.4,306.4 483.5,299.7 494.0,290.9 502.7,280.4 509.1,268.5 513.0,255.9 514.4,242.8 513.0,229.8 509.1,217.5 502.7,206.3 495.7,198.2 494.0,196.6 490.6,193.5 485.0,189.4 479.1,185.8 472.8,182.8 466.3,180.5 459.6,178.8 452.7,177.8 445.8,177.5 438.9,177.8 432.0,178.8 425.3,180.5 418.8,182.8 412.5,185.8 406.6,189.4 401.0,193.5 395.9,198.2 391.2,203.3 387.1,208.8 383.5,214.8 380.5,221.1 378.2,227.6 376.5,234.3 375.5,241.2" fill="url(#x0vgi16)"/>
  </g>
</svg>