<svg xmlns="http://www.w3.org/2000/svg" xmlns:xlink="http://www.w3.org/1999/xlink" viewBox="0 0 800 447" width="800" height="447">
  <rect width="100%" height="100%" fill="#ffffff"/>
  <defs>
    <radialGradient id="x0g0" cx=".5" cy=".5" fx=".33" fy=".33" r=".66"><stop offset="0%" stop-color="#5b9bec"/><stop offset="40%" stop-color="#3050f8"/><stop offset="100%" stop-color="#041a9e"/></radialGradient>
    <radialGradient id="x0g1" cx=".5" cy=".5" fx=".33" fy=".33" r=".66"><stop offset="0%" stop-color="#b6b6b6"/><stop offset="40%" stop-color="#aaaaaa"/><stop offset="100%" stop-color="#6b4f55"/></radialGradient>
    <radialGradient id="x0g3" cx=".5" cy=".5" fx=".33" fy=".33" r=".66"><stop offset="0%" stop-color="#5b9bec"/><stop offset="40%" stop-color="#3050f8"/><stop offset="100%" stop-color="#041a9e"/></radialGradient>
    <radialGradient id="x0g4" cx=".5" cy=".5" fx=".33" fy=".33" r=".66"><stop offset="0%" stop-color="#b6b6b6"/><stop offset="40%" stop-color="#aaaaaa"/><stop offset="100%" stop-color="#6b4f55"/></radialGradient>
    <radialGradient id="x0g5" cx=".5" cy=".5" fx=".33" fy=".33" r=".66"><stop offset="0%" stop-color="#b6b6b6"/><stop offset="40%" stop-color="#aaaaaa"/><stop offset="100%" stop-color="#6b4f55"/></radialGradient>
    <radialGradient id="x0g6" cx=".5" cy=".5" fx=".33" fy=".33" r=".66"><stop offset="0%" stop-color="#b6b6b6"/><stop offset="40%" stop-color="#aaaaaa"/><stop offset="100%" stop-color="#6b4f55"/></radialGradient>
    <radialGradient id="x0g7" cx=".5" cy=".5" fx=".33" fy=".33" r=".66"><stop offset="0%" stop-color="#5b9bec"/><stop offset="40%" stop-color="#3050f8"/><stop offset="100%" stop-color="#041a9e"/></radialGradient>
    <radialGradient id="x0g8" cx=".5" cy=".5" fx=".33" fy=".33" r=".66"><stop offset="0%" stop-color="#ffffff"/><stop offset="40%" stop-color="#ffffff"/><stop offset="100%" stop-color="#9d7b81"/></radialGradient>
    <radialGradient id="x0g9" cx=".5" cy=".5" fx=".33" fy=".33" r=".66"><stop offset="0%" stop-color="#ffffff"/><stop offset="40%" stop-color="#ffffff"/><stop offset="100%" stop-color="#9d7b81"/></radialGradient>
    <radialGradient id="x0g10" cx=".5" cy=".5" fx=".33" fy=".33" r=".66"><stop offset="0%" stop-color="#5b9bec"/><stop offset="40%" stop-color="#3050f8"/><stop offset="100%" stop-color="#041a9e"/></radialGradient>
    <radialGradient id="x0g11" cx=".5" cy=".5" fx=".33" fy=".33" r=".66"><stop offset="0%" stop-color="#b6b6b6"/><stop offset="40%" stop-color="#aaaaaa"/><stop offset="100%" stop-color="#6b4f55"/></radialGradient>
    <radialGradient id="x0g13" cx=".5" cy=".5" fx=".33" fy=".33" r=".66"><stop offset="0%" stop-color="#5b9bec"/><stop offset="40%" stop-color="#3050f8"/><stop offset="100%" stop-color="#041a9e"/></radialGradient>
    <radialGradient id="x0g14" cx=".5" cy=".5" fx=".33" fy=".33" r=".66"><stop offset="0%" stop-color="#ffffff"/><stop offset="40%" stop-color="#ffffff"/><stop offset="100%" stop-color="#9d7b81"/></radialGradient>
    <radialGradient id="x0g15" cx=".5" cy=".5" fx=".33" fy=".33" r=".66"><stop offset="0%" stop-color="#5b9bec"/><stop offset="40%" stop-color="#3050f8"/><stop offset="100%" stop-color="#041a9e"/></radialGradient>
    <radialGradient id="x0g16" cx=".5" cy=".5" fx=".33" fy=".33" r=".66"><stop offset="0%" stop-color="#ffffff"/><stop offset="40%" stop-color="#ffffff"/><stop offset="100%" stop-color="#9d7b81"/></radialGradient>
    <radialGradient id="x0g17" cx=".5" cy=".5" fx=".33" fy=".33" r=".66"><stop offset="0%" stop-color="#b6b6b6"/><stop offset="40%" stop-color="#aaaaaa"/><stop offset="100%" stop-color="#6b4f55"/></radialGradient>
    <radialGradient id="x0g18" cx=".5" cy=".5" fx=".33" fy=".33" r=".66"><stop offset="0%" stop-color="#ef5240"/><stop offset="40%" stop-color="#ff0d0d"/><stop offset="100%" stop-color="#93001d"/></radialGradient>
    <radialGradient id="x0g19" cx=".5" cy=".5" fx=".33" fy=".33" r=".66"><stop offset="0%" stop-color="#5b9bec"/><stop offset="40%" stop-color="#3050f8"/><stop offset="100%" stop-color="#041a9e"/></radialGradient>
    <radialGradient id="x0g20" cx=".5" cy=".5" fx=".33" fy=".33" r=".66"><stop offset="0%" stop-color="#ffffff"/><stop offset="40%" stop-color="#ffffff"/><stop offset="100%" stop-color="#9d7b81"/></radialGradient>
    <radialGradient id="x0g21" cx=".5" cy=".5" fx=".33" fy=".33" r=".66"><stop offset="0%" stop-color="#b6b6b6"/><stop offset="40%" stop-color="#aaaaaa"/><stop offset="100%" stop-color="#6b4f55"/></radialGradient>
    <radialGradient id="x0g23" cx=".5" cy=".5" fx=".33" fy=".33" r=".66"><stop offset="0%" stop-color="#b6b6b6"/><stop offset="40%" stop-color="#aaaaaa"/><stop offset="100%" stop-color="#6b4f55"/></radialGradient>
    <radialGradient id="x0g24" cx=".5" cy=".5" fx=".33" fy=".33" r=".66"><stop offset="0%" stop-color="#b6b6b6"/><stop offset="40%" stop-color="#aaaaaa"/><stop offset="100%" stop-color="#6b4f55"/></radialGradient>
    <radialGradient id="x0g28" cx=".5" cy=".5" fx=".33" fy=".33" r=".66"><stop offset="0%" stop-color="#b6b6b6"/><stop offset="40%" stop-color="#aaaaaa"/><stop offset="100%" stop-color="#6b4f55"/></radialGradient>
    <radialGradient id="x0g29" cx=".5" cy=".5" fx=".33" fy=".33" r=".66"><stop offset="0%" stop-color="#ef5240"/><stop offset="40%" stop-color="#ff0d0d"/><stop offset="100%" stop-color="#93001d"/></radialGradient>
  </defs>
  <path d="M 433.2 119.0 C 433.5 119.4 433.7 119.9 433.9 120.4 C 434.1 120.9 434.3 121.4 434.4 121.9 C 434.5 122.5 434.5 123.0 434.5 123.5 C 434.6 124.0 434.6 124.5 434.6 125.0 C 434.6 125.5 434.5 126.0 434.4 126.5 C 434.4 127.0 434.3 127.5 434.1 128.0 C 433.9 128.5 433.6 129.0 433.2 129.5 C 432.8 129.9 432.3 130.4 431.7 130.8 C 431.1 131.2 430.3 131.5 429.5 131.7 C 428.6 131.9 427.7 132.1 426.8 132.3 C 425.9 132.4 425.0 132.4 424.0 132.5 C 423.1 132.5 422.1 132.5 421.2 132.5 C 420.2 132.4 419.3 132.4 418.4 132.2 C 417.5 132.1 416.6 131.9 415.8 131.6 C 415.0 131.4 414.2 131.1 413.6 130.7 C 413.0 130.3 412.6 129.8 412.2 129.3 C 411.8 128.9 411.5 128.4 411.3 127.9 C 411.1 127.4 411.1 126.9 411.0 126.4 C 410.9 125.9 410.9 125.4 410.8 124.8 C 410.8 124.3 410.8 123.8 410.8 123.3 C 410.8 122.8 410.8 122.3 410.8 121.8 C 410.8 121.3 410.8 120.8 410.8 120.3 C 410.8 119.8 410.8 119.2 410.8 118.7 C 410.8 118.2 410.8 117.7 410.8 117.2 C 410.8 116.7 410.8 116.2 410.8 115.7 C 410.8 115.2 410.8 114.7 410.8 114.2 C 410.8 113.6 410.8 113.1 410.8 112.6 C 410.8 112.1 410.8 111.6 410.8 111.1 C 410.8 110.6 410.8 110.1 410.8 109.6 C 410.8 109.1 410.8 108.5 410.8 108.0 C 410.8 107.5 410.8 107.0 410.8 106.5 C 410.8 106.0 410.8 105.5 410.8 105.0 C 410.8 104.5 410.8 104.0 410.8 103.5 C 410.8 102.9 410.8 102.4 410.8 101.9 C 410.8 101.4 410.8 100.9 410.8 100.4 C 410.8 99.9 410.8 99.4 410.8 98.9 C 410.8 98.4 410.8 97.8 410.8 97.3 C 410.8 96.8 410.8 96.3 410.8 95.8 C 410.8 95.3 410.8 94.8 410.9 94.3 C 410.9 93.8 410.9 93.3 411.0 92.8 C 411.0 92.2 411.0 91.7 411.2 91.2 C 411.3 90.7 411.5 90.2 411.8 89.7 C 412.1 89.3 412.6 88.8 413.1 88.4 C 413.6 88.0 414.3 87.6 415.0 87.3 C 415.8 87.0 416.7 86.8 417.6 86.7 C 418.5 86.5 419.4 86.4 420.3 86.4 C 421.3 86.4 422.2 86.7 423.0 86.9 C 423.9 87.1 424.9 87.3 425.6 87.6 C 426.2 88.0 426.6 88.5 427.0 88.9 C 427.4 89.4 427.8 89.9 428.0 90.4 C 428.3 90.8 428.3 91.4 428.4 91.9 C 428.5 92.4 428.6 92.9 428.6 93.4 C 428.6 93.9 428.7 94.4 428.7 94.9 C 428.7 95.4 428.7 95.9 428.7 96.4 C 428.7 97.0 428.7 97.5 428.7 98.0 C 428.7 98.5 428.7 99.0 428.7 99.5 C 428.7 100.0 428.7 100.5 428.7 101.0 C 428.7 101.5 428.7 102.0 428.7 102.6 C 428.7 103.1 428.7 103.6 428.7 104.1 C 428.7 104.6 428.7 105.1 428.7 105.6 C 428.7 106.1 428.7 106.6 428.7 107.1 C 428.7 107.7 428.7 108.2 428.7 108.7 C 428.7 109.2 428.8 109.7 428.8 110.2 C 428.8 110.7 428.8 111.2 428.9 111.7 C 429.0 112.2 429.1 112.7 429.3 113.2 C 429.5 113.7 429.7 114.2 430.0 114.7 C 430.2 115.2 430.5 115.7 430.9 116.2 C 431.2 116.6 431.7 117.1 432.1 117.5 C 432.5 118.0 432.9 118.5 433.2 119.0 Z" fill="#35c42f" fill-rule="evenodd" stroke="none" opacity="1.000"/>
  <circle cx="670.0" cy="324.0" r="19.8" fill="url(#x0g24)" stroke="#000000" stroke-width="3.5"/>
  <line x1="660.2" y1="309.1" x2="634.5" y2="269.7" stroke="#000000" stroke-width="8.7" stroke-linecap="round"/>
  <circle cx="96.3" cy="165.0" r="10.4" fill="url(#x0g14)" stroke="#000000" stroke-width="3.5"/>
  <line x1="102.9" y1="171.7" x2="123.5" y2="192.8" stroke="#000000" stroke-width="8.7" stroke-linecap="round"/>
  <circle cx="135.3" cy="204.8" r="18.7" fill="url(#x0g13)" stroke="#000000" stroke-width="3.5"/>
  <line x1="151.1" y1="197.2" x2="191.5" y2="191.2" stroke="#000000" stroke-width="6.1" stroke-linecap="round"/>
  <line x1="152.6" y1="207.5" x2="193.0" y2="201.6" stroke="#000000" stroke-width="6.1" stroke-linecap="round" stroke-dasharray="6.1,12.2"/>
  <line x1="138.2" y1="222.1" x2="132.6" y2="262.9" stroke="#000000" stroke-width="6.1" stroke-linecap="round" stroke-dasharray="6.1,12.2"/>
  <line x1="127.8" y1="220.7" x2="122.2" y2="261.4" stroke="#000000" stroke-width="6.1" stroke-linecap="round"/>
  <circle cx="496.5" cy="71.7" r="17.8" fill="url(#x0g18)" stroke="#000000" stroke-width="3.5"/>
  <line x1="505.4" y1="85.0" x2="523.8" y2="112.5" stroke="#000000" stroke-width="8.7" stroke-linecap="round"/>
  <circle cx="124.9" cy="279.8" r="19.8" fill="url(#x0g11)" stroke="#000000" stroke-width="3.5"/>
  <line x1="142.9" y1="284.7" x2="174.5" y2="304.0" stroke="#000000" stroke-width="6.1" stroke-linecap="round" stroke-dasharray="6.1,12.2"/>
  <line x1="137.4" y1="293.6" x2="169.1" y2="313.0" stroke="#000000" stroke-width="6.1" stroke-linecap="round"/>
  <circle cx="209.9" cy="193.8" r="19.8" fill="url(#x0g4)" stroke="#000000" stroke-width="3.5"/>
  <line x1="214.5" y1="175.8" x2="234.7" y2="142.1" stroke="#000000" stroke-width="6.1" stroke-linecap="round"/>
  <line x1="223.5" y1="181.2" x2="243.7" y2="147.4" stroke="#000000" stroke-width="6.1" stroke-linecap="round" stroke-dasharray="6.1,12.2"/>
  <line x1="221.9" y1="208.0" x2="238.8" y2="246.5" stroke="#000000" stroke-width="6.1" stroke-linecap="round" stroke-dasharray="6.1,12.2"/>
  <line x1="212.3" y1="212.3" x2="229.2" y2="250.8" stroke="#000000" stroke-width="6.1" stroke-linecap="round"/>
  <circle cx="247.8" cy="130.3" r="18.7" fill="url(#x0g3)" stroke="#000000" stroke-width="3.5"/>
  <line x1="265.2" y1="127.5" x2="302.9" y2="132.9" stroke="#000000" stroke-width="6.1" stroke-linecap="round"/>
  <line x1="263.7" y1="137.9" x2="301.4" y2="143.3" stroke="#000000" stroke-width="6.1" stroke-linecap="round" stroke-dasharray="6.1,12.2"/>
  <circle cx="633.0" cy="73.4" r="10.4" fill="url(#x0g20)" stroke="#000000" stroke-width="3.5"/>
  <line x1="629.2" y1="82.0" x2="617.1" y2="109.1" stroke="#000000" stroke-width="8.7" stroke-linecap="round"/>
  <circle cx="186.1" cy="317.3" r="18.7" fill="url(#x0g10)" stroke="#000000" stroke-width="3.5"/>
  <line x1="194.7" y1="301.9" x2="224.7" y2="273.5" stroke="#000000" stroke-width="6.1" stroke-linecap="round" stroke-dasharray="6.1,12.2"/>
  <line x1="201.9" y1="309.5" x2="231.9" y2="281.1" stroke="#000000" stroke-width="6.1" stroke-linecap="round"/>
  <circle cx="241.2" cy="265.0" r="19.8" fill="url(#x0g5)" stroke="#000000" stroke-width="3.5"/>
  <line x1="259.3" y1="260.7" x2="301.7" y2="262.9" stroke="#000000" stroke-width="6.1" stroke-linecap="round" stroke-dasharray="6.1,12.2"/>
  <line x1="258.8" y1="271.2" x2="301.1" y2="273.4" stroke="#000000" stroke-width="6.1" stroke-linecap="round"/>
  <circle cx="446.0" cy="200.8" r="10.4" fill="url(#x0g16)" stroke="#000000" stroke-width="3.5"/>
  <line x1="455.3" y1="200.3" x2="488.3" y2="198.3" stroke="#000000" stroke-width="8.7" stroke-linecap="round"/>
  <circle cx="319.9" cy="140.6" r="19.8" fill="url(#x0g1)" stroke="#000000" stroke-width="3.5"/>
  <line x1="333.2" y1="153.6" x2="352.5" y2="187.4" stroke="#000000" stroke-width="6.1" stroke-linecap="round"/>
  <line x1="324.1" y1="158.7" x2="343.4" y2="192.6" stroke="#000000" stroke-width="6.1" stroke-linecap="round" stroke-dasharray="6.1,12.2"/>
  <circle cx="319.2" cy="269.1" r="19.8" fill="url(#x0g6)" stroke="#000000" stroke-width="3.5"/>
  <line x1="323.6" y1="251.0" x2="343.3" y2="216.6" stroke="#000000" stroke-width="6.1" stroke-linecap="round" stroke-dasharray="6.1,12.2"/>
  <line x1="332.7" y1="256.3" x2="352.4" y2="221.8" stroke="#000000" stroke-width="6.1" stroke-linecap="round"/>
  <line x1="328.4" y1="284.5" x2="348.3" y2="318.0" stroke="#000000" stroke-width="8.7" stroke-linecap="round"/>
  <circle cx="356.2" cy="204.6" r="18.7" fill="url(#x0g0)" stroke="#000000" stroke-width="3.5"/>
  <circle cx="533.7" cy="127.3" r="19.8" fill="url(#x0g17)" stroke="#000000" stroke-width="3.5"/>
  <line x1="531.8" y1="145.8" x2="516.2" y2="183.8" stroke="#000000" stroke-width="6.1" stroke-linecap="round" stroke-dasharray="6.1,12.2"/>
  <line x1="522.1" y1="141.9" x2="506.5" y2="179.8" stroke="#000000" stroke-width="6.1" stroke-linecap="round"/>
  <line x1="551.3" y1="121.4" x2="593.3" y2="119.8" stroke="#000000" stroke-width="6.1" stroke-linecap="round"/>
  <line x1="551.7" y1="131.9" x2="593.7" y2="130.3" stroke="#000000" stroke-width="6.1" stroke-linecap="round" stroke-dasharray="6.1,12.2"/>
  <circle cx="512.1" cy="322.0" r="17.8" fill="url(#x0g29)" stroke="#000000" stroke-width="3.5"/>
  <line x1="519.7" y1="307.9" x2="535.7" y2="278.1" stroke="#000000" stroke-width="8.7" stroke-linecap="round"/>
  <circle cx="610.3" cy="124.5" r="18.7" fill="url(#x0g19)" stroke="#000000" stroke-width="3.5"/>
  <line x1="624.2" y1="135.2" x2="647.8" y2="168.6" stroke="#000000" stroke-width="6.1" stroke-linecap="round"/>
  <line x1="615.7" y1="141.2" x2="639.2" y2="174.6" stroke="#000000" stroke-width="6.1" stroke-linecap="round" stroke-dasharray="6.1,12.2"/>
  <circle cx="505.0" cy="197.3" r="18.7" fill="url(#x0g15)" stroke="#000000" stroke-width="3.5"/>
  <line x1="518.2" y1="209.0" x2="539.5" y2="244.4" stroke="#000000" stroke-width="6.1" stroke-linecap="round" stroke-dasharray="6.1,12.2"/>
  <line x1="509.2" y1="214.4" x2="530.5" y2="249.8" stroke="#000000" stroke-width="6.1" stroke-linecap="round"/>
  <circle cx="356.9" cy="332.4" r="18.7" fill="url(#x0g7)" stroke="#000000" stroke-width="3.5"/>
  <line x1="348.3" y1="346.9" x2="333.3" y2="372.1" stroke="#000000" stroke-width="8.7" stroke-linecap="round"/>
  <line x1="373.7" y1="332.4" x2="404.1" y2="332.3" stroke="#000000" stroke-width="8.7" stroke-linecap="round"/>
  <circle cx="328.5" cy="380.2" r="10.4" fill="url(#x0g8)" stroke="#000000" stroke-width="3.5"/>
  <circle cx="413.5" cy="332.2" r="10.4" fill="url(#x0g9)" stroke="#000000" stroke-width="3.5"/>
  <circle cx="544.2" cy="262.4" r="19.8" fill="url(#x0g28)" stroke="#000000" stroke-width="3.5"/>
  <line x1="561.5" y1="255.5" x2="606.5" y2="251.3" stroke="#000000" stroke-width="6.1" stroke-linecap="round" stroke-dasharray="6.1,12.2"/>
  <line x1="562.5" y1="266.0" x2="607.4" y2="261.7" stroke="#000000" stroke-width="6.1" stroke-linecap="round"/>
  <circle cx="653.8" cy="186.2" r="19.8" fill="url(#x0g21)" stroke="#000000" stroke-width="3.5"/>
  <line x1="651.7" y1="204.7" x2="636.5" y2="240.4" stroke="#000000" stroke-width="6.1" stroke-linecap="round"/>
  <line x1="642.0" y1="200.6" x2="626.9" y2="236.3" stroke="#000000" stroke-width="6.1" stroke-linecap="round" stroke-dasharray="6.1,12.2"/>
  <circle cx="624.7" cy="254.8" r="19.8" fill="url(#x0g23)" stroke="#000000" stroke-width="3.5"/>
  <path d="M 416.1 186.8 C 416.5 187.3 416.8 187.7 417.0 188.2 C 417.2 188.7 417.2 189.2 417.3 189.7 C 417.3 190.2 417.4 190.7 417.4 191.2 C 417.5 191.7 417.5 192.2 417.5 192.7 C 417.5 193.2 417.5 193.7 417.5 194.2 C 417.5 194.8 417.5 195.3 417.5 195.8 C 417.5 196.3 417.5 196.8 417.5 197.3 C 417.5 197.8 417.5 198.3 417.5 198.8 C 417.5 199.3 417.5 199.8 417.5 200.3 C 417.5 200.8 417.5 201.3 417.5 201.8 C 417.5 202.3 417.5 202.8 417.5 203.3 C 417.5 203.8 417.5 204.3 417.5 204.8 C 417.5 205.3 417.5 205.8 417.5 206.3 C 417.5 206.8 417.5 207.3 417.5 207.8 C 417.5 208.3 417.5 208.8 417.5 209.3 C 417.5 209.8 417.5 210.4 417.5 210.9 C 417.5 211.4 417.5 211.9 417.5 212.4 C 417.4 212.9 417.4 213.4 417.4 213.9 C 417.3 214.4 417.3 214.9 417.2 215.4 C 417.0 215.9 416.9 216.4 416.6 216.9 C 416.4 217.3 415.9 217.8 415.5 218.2 C 415.0 218.6 414.4 219.1 413.7 219.4 C 413.0 219.7 412.1 219.9 411.2 220.0 C 410.3 220.2 409.4 220.5 408.5 220.5 C 407.6 220.5 406.7 220.2 405.9 220.0 C 405.0 219.9 404.0 219.7 403.3 219.4 C 402.6 219.1 402.1 218.6 401.6 218.2 C 401.1 217.8 400.7 217.3 400.4 216.9 C 400.1 216.4 400.0 215.9 399.9 215.4 C 399.8 214.9 399.7 214.4 399.7 213.9 C 399.6 213.4 399.6 212.9 399.6 212.4 C 399.6 211.9 399.6 211.4 399.6 210.9 C 399.6 210.4 399.6 209.9 399.6 209.3 C 399.6 208.8 399.6 208.3 399.6 207.8 C 399.6 207.3 399.6 206.8 399.6 206.3 C 399.6 205.8 399.6 205.3 399.6 204.8 C 399.6 204.3 399.6 203.8 399.6 203.3 C 399.6 202.8 399.6 202.3 399.6 201.8 C 399.6 201.3 399.6 200.8 399.6 200.3 C 399.6 199.8 399.6 199.3 399.6 198.8 C 399.6 198.3 399.6 197.8 399.6 197.3 C 399.6 196.8 399.6 196.3 399.6 195.8 C 399.6 195.3 399.6 194.8 399.6 194.3 C 399.6 193.8 399.6 193.2 399.6 192.7 C 399.6 192.2 399.6 191.7 399.6 191.2 C 399.7 190.7 399.7 190.2 399.8 189.7 C 399.9 189.2 399.9 188.7 400.1 188.2 C 400.3 187.7 400.6 187.3 400.9 186.8 C 401.3 186.3 401.7 185.8 402.3 185.5 C 402.9 185.1 403.7 184.9 404.6 184.6 C 405.4 184.4 406.3 184.2 407.2 184.1 C 408.1 184.0 409.0 184.0 409.9 184.1 C 410.8 184.2 411.7 184.4 412.5 184.6 C 413.3 184.9 414.2 185.1 414.8 185.5 C 415.4 185.8 415.7 186.3 416.1 186.8 Z" fill="#1b296a" fill-rule="evenodd" stroke="none" opacity="1.000"/>
  <path d="M 444.5 267.6 C 444.9 268.1 445.0 268.6 445.2 269.1 C 445.4 269.6 445.7 270.1 445.8 270.6 C 446.0 271.1 445.9 271.6 446.0 272.1 C 446.0 272.6 446.1 273.1 446.1 273.7 C 446.1 274.2 446.0 274.7 445.9 275.2 C 445.9 275.7 445.9 276.2 445.7 276.7 C 445.5 277.2 445.2 277.7 444.9 278.2 C 444.5 278.6 444.1 279.1 443.5 279.5 C 442.9 279.9 442.2 280.2 441.4 280.5 C 440.6 280.7 439.7 280.9 438.8 281.0 C 437.9 281.2 436.9 281.2 436.0 281.1 C 435.1 281.0 434.2 280.8 433.3 280.6 C 432.4 280.4 431.5 280.2 430.8 279.9 C 430.1 279.6 429.6 279.1 429.1 278.7 C 428.5 278.3 428.0 277.9 427.5 277.4 C 427.0 277.0 426.6 276.6 426.1 276.1 C 425.6 275.7 425.1 275.2 424.6 274.8 C 424.2 274.3 423.7 273.9 423.3 273.4 C 422.9 273.0 422.5 272.5 422.1 272.0 C 421.7 271.6 421.3 271.1 420.9 270.7 C 420.5 270.2 420.1 269.7 419.7 269.3 C 419.3 268.8 418.7 268.4 418.4 267.9 C 418.1 267.4 417.9 266.9 417.7 266.4 C 417.6 265.9 417.3 265.4 417.3 264.9 C 417.3 264.4 417.5 263.9 417.8 263.4 C 418.0 263.0 418.4 262.5 419.0 262.0 C 419.5 261.6 420.1 261.3 420.9 261.0 C 421.6 260.7 422.5 260.4 423.4 260.3 C 424.3 260.1 425.2 259.9 426.1 259.9 C 427.1 259.8 428.0 259.9 429.0 259.9 C 429.9 259.9 430.9 259.9 431.8 260.0 C 432.7 260.1 433.6 260.3 434.5 260.5 C 435.4 260.7 436.3 260.9 437.0 261.2 C 437.8 261.5 438.4 261.9 438.9 262.3 C 439.5 262.7 440.0 263.1 440.5 263.6 C 441.0 264.0 441.5 264.5 441.9 264.9 C 442.4 265.4 442.9 265.8 443.3 266.3 C 443.7 266.7 444.2 267.2 444.5 267.6 Z" fill="#40a528" fill-rule="evenodd" stroke="none" opacity="1.000"/>
  <path d="M 287.2 208.5 C 287.8 208.9 288.7 209.3 289.0 209.8 C 289.3 210.2 289.0 210.8 288.9 211.3 C 288.9 211.8 289.0 212.4 288.6 212.8 C 288.2 213.3 287.4 213.6 286.6 214.0 C 285.9 214.3 285.2 214.7 284.3 214.9 C 283.5 215.1 282.6 215.2 281.6 215.3 C 280.7 215.3 279.6 215.4 278.7 215.3 C 277.8 215.2 277.0 215.0 276.1 214.8 C 275.3 214.6 274.4 214.3 273.6 214.0 C 272.8 213.7 271.9 213.4 271.4 213.0 C 270.8 212.7 270.5 212.1 270.2 211.6 C 269.9 211.2 269.3 210.7 269.3 210.2 C 269.3 209.7 269.6 209.2 269.9 208.7 C 270.2 208.2 270.8 207.8 271.3 207.4 C 271.8 206.9 272.4 206.5 272.9 206.1 C 273.4 205.7 273.9 205.2 274.5 204.8 C 275.0 204.4 275.7 203.9 276.3 203.6 C 276.9 203.2 277.4 202.7 278.0 202.7 C 278.6 202.8 279.2 203.6 279.9 203.9 C 280.6 204.3 281.5 204.6 282.1 204.9 C 282.7 205.3 283.2 205.7 283.7 206.1 C 284.3 206.5 284.7 207.0 285.3 207.4 C 285.9 207.8 286.6 208.1 287.2 208.5 Z" fill="#771605" fill-rule="evenodd" stroke="none" opacity="1.000"/>
  <path d="M 582.9 190.8 C 583.5 191.2 584.0 191.6 584.3 192.1 C 584.6 192.5 584.7 193.1 584.6 193.6 C 584.6 194.1 584.5 194.6 584.1 195.1 C 583.7 195.5 583.0 195.9 582.4 196.3 C 581.8 196.7 581.0 197.0 580.5 197.5 C 580.0 197.9 579.9 198.4 579.7 198.9 C 579.4 199.4 579.3 199.9 579.0 200.4 C 578.7 200.9 578.2 201.4 577.7 201.8 C 577.2 202.2 576.5 202.6 575.9 203.0 C 575.2 203.4 574.6 203.9 573.8 204.1 C 573.1 204.3 572.2 204.2 571.3 204.2 C 570.4 204.1 569.3 204.1 568.5 203.9 C 567.6 203.7 567.0 203.4 566.3 203.0 C 565.6 202.7 565.0 202.3 564.3 201.9 C 563.7 201.5 562.9 201.1 562.6 200.7 C 562.3 200.2 562.5 199.7 562.5 199.1 C 562.5 198.6 562.2 198.1 562.5 197.6 C 562.7 197.1 563.5 196.7 563.9 196.3 C 564.4 195.8 564.9 195.3 565.2 194.8 C 565.4 194.4 565.5 193.8 565.7 193.3 C 565.8 192.8 565.8 192.3 566.0 191.8 C 566.2 191.3 566.5 190.8 566.9 190.3 C 567.3 189.9 567.7 189.4 568.4 189.1 C 569.0 188.7 570.0 188.5 570.9 188.3 C 571.7 188.0 572.6 187.5 573.4 187.5 C 574.2 187.6 574.7 188.3 575.6 188.5 C 576.4 188.8 577.5 188.8 578.3 189.0 C 579.2 189.2 580.0 189.5 580.7 189.8 C 581.5 190.1 582.3 190.4 582.9 190.8 Z" fill="#712409" fill-rule="evenodd" stroke="none" opacity="1.000"/>
  <path d="M 461.6 316.4 C 461.9 316.8 462.1 317.3 462.3 317.8 C 462.5 318.3 462.7 318.8 462.8 319.3 C 462.9 319.8 462.9 320.3 463.0 320.8 C 463.0 321.3 463.1 321.8 463.1 322.3 C 463.1 322.8 463.1 323.3 463.1 323.8 C 463.1 324.3 463.1 324.9 463.1 325.4 C 463.1 325.9 463.1 326.4 463.1 326.9 C 463.1 327.4 463.1 327.9 463.1 328.4 C 463.1 328.9 463.1 329.4 463.1 329.9 C 463.1 330.4 463.1 330.9 463.1 331.4 C 463.1 331.9 463.1 332.4 463.1 332.9 C 463.1 333.4 463.1 333.9 463.1 334.4 C 463.1 334.9 463.1 335.4 463.1 335.9 C 463.1 336.5 463.1 337.0 463.1 337.5 C 463.1 338.0 463.0 338.5 462.9 339.0 C 462.9 339.5 462.9 340.0 462.7 340.5 C 462.6 341.0 462.4 341.5 462.1 341.9 C 461.8 342.4 461.4 342.9 460.9 343.3 C 460.3 343.7 459.7 344.1 459.0 344.4 C 458.2 344.7 457.3 344.9 456.4 345.0 C 455.5 345.2 454.6 345.4 453.7 345.3 C 452.8 345.3 451.9 345.0 451.0 344.9 C 450.2 344.7 449.2 344.5 448.5 344.2 C 447.8 343.8 447.4 343.4 446.9 342.9 C 446.4 342.5 446.1 342.0 445.7 341.6 C 445.4 341.1 445.1 340.6 444.8 340.1 C 444.5 339.7 444.3 339.2 444.0 338.7 C 443.7 338.2 443.3 337.8 442.9 337.3 C 442.6 336.8 442.1 336.4 441.7 335.9 C 441.3 335.5 441.0 335.0 440.7 334.5 C 440.4 334.0 440.2 333.5 440.0 333.1 C 439.8 332.6 439.6 332.1 439.5 331.6 C 439.4 331.1 439.4 330.6 439.4 330.1 C 439.3 329.6 439.3 329.0 439.2 328.5 C 439.2 328.0 439.2 327.5 439.2 327.0 C 439.2 326.5 439.2 326.0 439.2 325.5 C 439.2 325.0 439.2 324.5 439.2 324.0 C 439.2 323.5 439.2 323.0 439.2 322.5 C 439.2 322.0 439.2 321.5 439.2 321.0 C 439.2 320.5 439.2 320.0 439.2 319.5 C 439.2 319.0 439.2 318.5 439.2 318.0 C 439.2 317.5 439.2 316.9 439.3 316.4 C 439.3 315.9 439.4 315.4 439.4 314.9 C 439.5 314.4 439.5 313.9 439.6 313.4 C 439.8 312.9 440.1 312.4 440.4 312.0 C 440.7 311.5 441.1 311.0 441.7 310.6 C 442.3 310.2 443.0 309.9 443.7 309.6 C 444.5 309.4 445.4 309.2 446.3 309.0 C 447.2 308.9 448.1 308.8 449.0 308.8 C 449.9 308.9 450.9 309.1 451.7 309.3 C 452.6 309.5 453.5 309.6 454.3 309.9 C 455.0 310.2 455.5 310.7 456.1 311.1 C 456.7 311.5 457.2 311.9 457.7 312.3 C 458.2 312.8 458.6 313.2 459.1 313.7 C 459.5 314.1 460.0 314.5 460.4 315.0 C 460.8 315.4 461.3 315.9 461.6 316.4 Z" fill="#236256" fill-rule="evenodd" stroke="none" opacity="1.000"/>
</svg>