<svg xmlns="http://www.w3.org/2000/svg" xmlns:xlink="http://www.w3.org/1999/xlink" viewBox="0 0 770 800" width="770" height="800">
  <rect width="100%" height="100%" fill="#ffffff"/>
  <defs>
    <radialGradient id="x0g0" cx=".5" cy=".5" fx=".33" fy=".33" r=".66"><stop offset="0%" stop-color="#e6e6e6"/><stop offset="40%" stop-color="#e3e3e3"/><stop offset="100%" stop-color="#cec5c7"/></radialGradient>
    <radialGradient id="x0g1" cx=".5" cy=".5" fx=".33" fy=".33" r=".66"><stop offset="0%" stop-color="#e9e9e9"/><stop offset="40%" stop-color="#e5e5e5"/><stop offset="100%" stop-color="#d2cacc"/></radialGradient>
    <radialGradient id="x0g2" cx=".5" cy=".5" fx=".33" fy=".33" r=".66"><stop offset="0%" stop-color="#d9d9d9"/><stop offset="40%" stop-color="#d3d3d3"/><stop offset="100%" stop-color="#b3a4a7"/></radialGradient>
    <radialGradient id="x0g3" cx=".5" cy=".5" fx=".33" fy=".33" r=".66"><stop offset="0%" stop-color="#dedede"/><stop offset="40%" stop-color="#d9d9d9"/><stop offset="100%" stop-color="#bcb0b3"/></radialGradient>
    <radialGradient id="x0g4" cx=".5" cy=".5" fx=".33" fy=".33" r=".66"><stop offset="0%" stop-color="#d5d5d5"/><stop offset="40%" stop-color="#cecece"/><stop offset="100%" stop-color="#aa9a9d"/></radialGradient>
    <radialGradient id="x0g5" cx=".5" cy=".5" fx=".33" fy=".33" r=".66"><stop offset="0%" stop-color="#e9e9e9"/><stop offset="40%" stop-color="#e5e5e5"/><stop offset="100%" stop-color="#d2cacc"/></radialGradient>
    <radialGradient id="x0g6" cx=".5" cy=".5" fx=".33" fy=".33" r=".66"><stop offset="0%" stop-color="#e1e1e1"/><stop offset="40%" stop-color="#dcdcdc"/><stop offset="100%" stop-color="#c3b7ba"/></radialGradient>
    <radialGradient id="x0g7" cx=".5" cy=".5" fx=".33" fy=".33" r=".66"><stop offset="0%" stop-color="#d6d6d6"/><stop offset="40%" stop-color="#cfcfcf"/><stop offset="100%" stop-color="#ac9da0"/></radialGradient>
    <radialGradient id="x0g8" cx=".5" cy=".5" fx=".33" fy=".33" r=".66"><stop offset="0%" stop-color="#cdcdcd"/><stop offset="40%" stop-color="#c5c5c5"/><stop offset="100%" stop-color="#9b888c"/></radialGradient>
    <radialGradient id="x0g9" cx=".5" cy=".5" fx=".33" fy=".33" r=".66"><stop offset="0%" stop-color="#d9d9d9"/><stop offset="40%" stop-color="#d3d3d3"/><stop offset="100%" stop-color="#b3a4a7"/></radialGradient>
    <radialGradient id="x0g10" cx=".5" cy=".5" fx=".33" fy=".33" r=".66"><stop offset="0%" stop-color="#cdcdcd"/><stop offset="40%" stop-color="#c5c5c5"/><stop offset="100%" stop-color="#9b888c"/></radialGradient>
    <radialGradient id="x0g11" cx=".5" cy=".5" fx=".33" fy=".33" r=".66"><stop offset="0%" stop-color="#e6e6e6"/><stop offset="40%" stop-color="#e3e3e3"/><stop offset="100%" stop-color="#cec5c7"/></radialGradient>
    <radialGradient id="x0g12" cx=".5" cy=".5" fx=".33" fy=".33" r=".66"><stop offset="0%" stop-color="#e9e9e9"/><stop offset="40%" stop-color="#e5e5e5"/><stop offset="100%" stop-color="#d2cacc"/></radialGradient>
    <radialGradient id="x0g13" cx=".5" cy=".5" fx=".33" fy=".33" r=".66"><stop offset="0%" stop-color="#cfcfcf"/><stop offset="40%" stop-color="#c7c7c7"/><stop offset="100%" stop-color="#9f8d90"/></radialGradient>
    <radialGradient id="x0g14" cx=".5" cy=".5" fx=".33" fy=".33" r=".66"><stop offset="0%" stop-color="#d1d1d1"/><stop offset="40%" stop-color="#cacaca"/><stop offset="100%" stop-color="#a39195"/></radialGradient>
    <radialGradient id="x0g15" cx=".5" cy=".5" fx=".33" fy=".33" r=".66"><stop offset="0%" stop-color="#dedede"/><stop offset="40%" stop-color="#d9d9d9"/><stop offset="100%" stop-color="#bcb0b3"/></radialGradient>
    <radialGradient id="x0g16" cx=".5" cy=".5" fx=".33" fy=".33" r=".66"><stop offset="0%" stop-color="#b9b9b9"/><stop offset="40%" stop-color="#adadad"/><stop offset="100%" stop-color="#71565c"/></radialGradient>
    <radialGradient id="x0g17" cx=".5" cy=".5" fx=".33" fy=".33" r=".66"><stop offset="0%" stop-color="#b9b9b9"/><stop offset="40%" stop-color="#adadad"/><stop offset="100%" stop-color="#71565c"/></radialGradient>
    <radialGradient id="x0g18" cx=".5" cy=".5" fx=".33" fy=".33" r=".66"><stop offset="0%" stop-color="#c0c0c0"/><stop offset="40%" stop-color="#b6b6b6"/><stop offset="100%" stop-color="#81696e"/></radialGradient>
    <radialGradient id="x0g19" cx=".5" cy=".5" fx=".33" fy=".33" r=".66"><stop offset="0%" stop-color="#c0c0c0"/><stop offset="40%" stop-color="#b6b6b6"/><stop offset="100%" stop-color="#81696e"/></radialGradient>
    <radialGradient id="x0g20" cx=".5" cy=".5" fx=".33" fy=".33" r=".66"><stop offset="0%" stop-color="#c1c1c1"/><stop offset="40%" stop-color="#b7b7b7"/><stop offset="100%" stop-color="#826b70"/></radialGradient>
    <radialGradient id="x0g21" cx=".5" cy=".5" fx=".33" fy=".33" r=".66"><stop offset="0%" stop-color="#b6b6b6"/><stop offset="40%" stop-color="#aaaaaa"/><stop offset="100%" stop-color="#6b4f55"/></radialGradient>
    <radialGradient id="x0g22" cx=".5" cy=".5" fx=".33" fy=".33" r=".66"><stop offset="0%" stop-color="#b6b6b6"/><stop offset="40%" stop-color="#aaaaaa"/><stop offset="100%" stop-color="#6b4f55"/></radialGradient>
    <radialGradient id="x0g23" cx=".5" cy=".5" fx=".33" fy=".33" r=".66"><stop offset="0%" stop-color="#bababa"/><stop offset="40%" stop-color="#aeaeae"/><stop offset="100%" stop-color="#73595e"/></radialGradient>
    <radialGradient id="x0g24" cx=".5" cy=".5" fx=".33" fy=".33" r=".66"><stop offset="0%" stop-color="#bababa"/><stop offset="40%" stop-color="#aeaeae"/><stop offset="100%" stop-color="#73595e"/></radialGradient>
    <radialGradient id="x0g25" cx=".5" cy=".5" fx=".33" fy=".33" r=".66"><stop offset="0%" stop-color="#b6b6b6"/><stop offset="40%" stop-color="#aaaaaa"/><stop offset="100%" stop-color="#6b4f55"/></radialGradient>
    <radialGradient id="x0g26" cx=".5" cy=".5" fx=".33" fy=".33" r=".66"><stop offset="0%" stop-color="#c1c1c1"/><stop offset="40%" stop-color="#b7b7b7"/><stop offset="100%" stop-color="#826b70"/></radialGradient>
    <radialGradient id="x0g27" cx=".5" cy=".5" fx=".33" fy=".33" r=".66"><stop offset="0%" stop-color="#b6b6b6"/><stop offset="40%" stop-color="#aaaaaa"/><stop offset="100%" stop-color="#6b4f55"/></radialGradient>
    <radialGradient id="x0g28" cx=".5" cy=".5" fx=".33" fy=".33" r=".66"><stop offset="0%" stop-color="#b6b6b6"/><stop offset="40%" stop-color="#aaaaaa"/><stop offset="100%" stop-color="#6b4f55"/></radialGradient>
    <radialGradient id="x0g29" cx=".5" cy=".5" fx=".33" fy=".33" r=".66"><stop offset="0%" stop-color="#b6b6b6"/><stop offset="40%" stop-color="#aaaaaa"/><stop offset="100%" stop-color="#6b4f55"/></radialGradient>
    <radialGradient id="x0g30" cx=".5" cy=".5" fx=".33" fy=".33" r=".66"><stop offset="0%" stop-color="#b6b6b6"/><stop offset="40%" stop-color="#aaaaaa"/><stop offset="100%" stop-color="#6b4f55"/></radialGradient>
    <radialGradient id="x0g31" cx=".5" cy=".5" fx=".33" fy=".33" r=".66"><stop offset="0%" stop-color="#b6b6b6"/><stop offset="40%" stop-color="#aaaaaa"/><stop offset="100%" stop-color="#6b4f55"/></radialGradient>
    <radialGradient id="x0g32" cx=".5" cy=".5" fx=".33" fy=".33" r=".66"><stop offset="0%" stop-color="#d1d1d1"/><stop offset="40%" stop-color="#cacaca"/><stop offset="100%" stop-color="#a39195"/></radialGradient>
    <radialGradient id="x0g33" cx=".5" cy=".5" fx=".33" fy=".33" r=".66"><stop offset="0%" stop-color="#c4c4c4"/><stop offset="40%" stop-color="#bababa"/><stop offset="100%" stop-color="#887276"/></radialGradient>
    <radialGradient id="x0g34" cx=".5" cy=".5" fx=".33" fy=".33" r=".66"><stop offset="0%" stop-color="#cfcfcf"/><stop offset="40%" stop-color="#c7c7c7"/><stop offset="100%" stop-color="#9f8d90"/></radialGradient>
    <radialGradient id="x0g35" cx=".5" cy=".5" fx=".33" fy=".33" r=".66"><stop offset="0%" stop-color="#bbbbbb"/><stop offset="40%" stop-color="#afafaf"/><stop offset="100%" stop-color="#755b60"/></radialGradient>
    <radialGradient id="x0g36" cx=".5" cy=".5" fx=".33" fy=".33" r=".66"><stop offset="0%" stop-color="#b6b6b6"/><stop offset="40%" stop-color="#aaaaaa"/><stop offset="100%" stop-color="#6c5056"/></radialGradient>
    <radialGradient id="x0g37" cx=".5" cy=".5" fx=".33" fy=".33" r=".66"><stop offset="0%" stop-color="#c6c6c6"/><stop offset="40%" stop-color="#bcbcbc"/><stop offset="100%" stop-color="#8b757a"/></radialGradient>
    <radialGradient id="x0g38" cx=".5" cy=".5" fx=".33" fy=".33" r=".66"><stop offset="0%" stop-color="#bdbdbd"/><stop offset="40%" stop-color="#b2b2b2"/><stop offset="100%" stop-color="#795f65"/></radialGradient>
    <radialGradient id="x0g39" cx=".5" cy=".5" fx=".33" fy=".33" r=".66"><stop offset="0%" stop-color="#b6b6b6"/><stop offset="40%" stop-color="#ababab"/><stop offset="100%" stop-color="#6d5157"/></radialGradient>
    <radialGradient id="x0g40" cx=".5" cy=".5" fx=".33" fy=".33" r=".66"><stop offset="0%" stop-color="#b6b6b6"/><stop offset="40%" stop-color="#aaaaaa"/><stop offset="100%" stop-color="#6b4f55"/></radialGradient>
    <radialGradient id="x0g41" cx=".5" cy=".5" fx=".33" fy=".33" r=".66"><stop offset="0%" stop-color="#b6b6b6"/><stop offset="40%" stop-color="#aaaaaa"/><stop offset="100%" stop-color="#6b4f55"/></radialGradient>
    <radialGradient id="x0g42" cx=".5" cy=".5" fx=".33" fy=".33" r=".66"><stop offset="0%" stop-color="#b6b6b6"/><stop offset="40%" stop-color="#aaaaaa"/><stop offset="100%" stop-color="#6b4f55"/></radialGradient>
    <radialGradient id="x0g43" cx=".5" cy=".5" fx=".33" fy=".33" r=".66"><stop offset="0%" stop-color="#b6b6b6"/><stop offset="40%" stop-color="#aaaaaa"/><stop offset="100%" stop-color="#6b4f55"/></radialGradient>
    <radialGradient id="x0g44" cx=".5" cy=".5" fx=".33" fy=".33" r=".66"><stop offset="0%" stop-color="#b6b6b6"/><stop offset="40%" stop-color="#aaaaaa"/><stop offset="100%" stop-color="#6c5056"/></radialGradient>
    <radialGradient id="x0g45" cx=".5" cy=".5" fx=".33" fy=".33" r=".66"><stop offset="0%" stop-color="#b6b6b6"/><stop offset="40%" stop-color="#aaaaaa"/><stop offset="100%" stop-color="#6b4f55"/></radialGradient>
    <radialGradient id="x0g46" cx=".5" cy=".5" fx=".33" fy=".33" r=".66"><stop offset="0%" stop-color="#b6b6b6"/><stop offset="40%" stop-color="#aaaaaa"/><stop offset="100%" stop-color="#6b4f55"/></radialGradient>
    <radialGradient id="x0g47" cx=".5" cy=".5" fx=".33" fy=".33" r=".66"><stop offset="0%" stop-color="#b6b6b6"/><stop offset="40%" stop-color="#ababab"/><stop offset="100%" stop-color="#6d5157"/></radialGradient>
    <radialGradient id="x0g48" cx=".5" cy=".5" fx=".33" fy=".33" r=".66"><stop offset="0%" stop-color="#c6c6c6"/><stop offset="40%" stop-color="#bcbcbc"/><stop offset="100%" stop-color="#8b757a"/></radialGradient>
    <radialGradient id="x0g49" cx=".5" cy=".5" fx=".33" fy=".33" r=".66"><stop offset="0%" stop-color="#c4c4c4"/><stop offset="40%" stop-color="#bababa"/><stop offset="100%" stop-color="#887276"/></radialGradient>
    <radialGradient id="x0g50" cx=".5" cy=".5" fx=".33" fy=".33" r=".66"><stop offset="0%" stop-color="#bbbbbb"/><stop offset="40%" stop-color="#afafaf"/><stop offset="100%" stop-color="#755b60"/></radialGradient>
    <radialGradient id="x0g51" cx=".5" cy=".5" fx=".33" fy=".33" r=".66"><stop offset="0%" stop-color="#bdbdbd"/><stop offset="40%" stop-color="#b2b2b2"/><stop offset="100%" stop-color="#795f65"/></radialGradient>
    <radialGradient id="x0g52" cx=".5" cy=".5" fx=".33" fy=".33" r=".66"><stop offset="0%" stop-color="#c8c8c8"/><stop offset="40%" stop-color="#bfbfbf"/><stop offset="100%" stop-color="#8f7a7f"/></radialGradient>
    <radialGradient id="x0g53" cx=".5" cy=".5" fx=".33" fy=".33" r=".66"><stop offset="0%" stop-color="#d6d6d6"/><stop offset="40%" stop-color="#cfcfcf"/><stop offset="100%" stop-color="#ac9da0"/></radialGradient>
    <radialGradient id="x0g54" cx=".5" cy=".5" fx=".33" fy=".33" r=".66"><stop offset="0%" stop-color="#d5d5d5"/><stop offset="40%" stop-color="#cecece"/><stop offset="100%" stop-color="#aa9a9d"/></radialGradient>
    <radialGradient id="x0g55" cx=".5" cy=".5" fx=".33" fy=".33" r=".66"><stop offset="0%" stop-color="#bdbdbd"/><stop offset="40%" stop-color="#b2b2b2"/><stop offset="100%" stop-color="#7a6166"/></radialGradient>
    <radialGradient id="x0g56" cx=".5" cy=".5" fx=".33" fy=".33" r=".66"><stop offset="0%" stop-color="#b7b7b7"/><stop offset="40%" stop-color="#ababab"/><stop offset="100%" stop-color="#6d5258"/></radialGradient>
    <radialGradient id="x0g57" cx=".5" cy=".5" fx=".33" fy=".33" r=".66"><stop offset="0%" stop-color="#bdbdbd"/><stop offset="40%" stop-color="#b2b2b2"/><stop offset="100%" stop-color="#7a6166"/></radialGradient>
    <radialGradient id="x0g58" cx=".5" cy=".5" fx=".33" fy=".33" r=".66"><stop offset="0%" stop-color="#c8c8c8"/><stop offset="40%" stop-color="#bfbfbf"/><stop offset="100%" stop-color="#8f7a7f"/></radialGradient>
    <radialGradient id="x0g59" cx=".5" cy=".5" fx=".33" fy=".33" r=".66"><stop offset="0%" stop-color="#b7b7b7"/><stop offset="40%" stop-color="#ababab"/><stop offset="100%" stop-color="#6d5258"/></radialGradient>
  </defs>
  <polygon points="520.9,471.8 520.9,328.2 385.3,283.9 301.5,400.0 385.3,516.1" fill="#4682b4" fill-opacity="0.20" stroke="none"/>
  <polygon points="385.3,516.1 341.9,625.4 211.8,625.4 133.0,516.1 179.2,400.0 301.5,400.0" fill="#b22222" fill-opacity="0.20" stroke="none"/>
  <polygon points="301.5,400.0 179.2,400.0 133.0,283.9 211.8,174.6 341.9,174.6 385.3,283.9" fill="#b22222" fill-opacity="0.20" stroke="none"/>
  <polygon points="520.9,471.8 385.3,516.1 341.9,625.4 431.2,697.1 558.8,655.4 605.0,539.3" fill="#b22222" fill-opacity="0.20" stroke="none"/>
  <polygon points="605.0,260.7 558.8,144.6 431.2,102.9 341.9,174.6 385.3,283.9 520.9,328.2" fill="#b22222" fill-opacity="0.20" stroke="none"/>
  <polygon points="520.9,471.8 605.0,539.3 694.4,467.5 694.4,332.5 605.0,260.7 520.9,328.2" fill="#b22222" fill-opacity="0.20" stroke="none"/>
  <polygon points="179.2,400.0 133.0,516.1 58.2,471.8 58.2,328.2 133.0,283.9" fill="#4682b4" fill-opacity="0.20" stroke="none"/>
  <polygon points="341.9,625.4 431.2,697.1 356.4,741.5 220.8,697.1 211.8,625.4" fill="#4682b4" fill-opacity="0.20" stroke="none"/>
  <polygon points="431.2,102.9 341.9,174.6 211.8,174.6 220.8,102.9 356.4,58.5" fill="#4682b4" fill-opacity="0.20" stroke="none"/>
  <polygon points="694.4,332.5 703.4,260.7 619.6,144.6 558.8,144.6 605.0,260.7" fill="#4682b4" fill-opacity="0.20" stroke="none"/>
  <polygon points="605.0,539.3 558.8,655.4 619.6,655.4 703.4,539.3 694.4,467.5" fill="#4682b4" fill-opacity="0.20" stroke="none"/>
  <polygon points="211.8,625.4 220.8,697.1 150.4,655.4 66.6,539.3 58.2,471.8 133.0,516.1" fill="#b22222" fill-opacity="0.20" stroke="none"/>
  <polygon points="220.8,102.9 150.4,144.6 66.6,260.7 58.2,328.2 133.0,283.9 211.8,174.6" fill="#b22222" fill-opacity="0.20" stroke="none"/>
  <polygon points="558.8,144.6 619.6,144.6 549.2,102.9 413.6,58.5 356.4,58.5 431.2,102.9" fill="#b22222" fill-opacity="0.20" stroke="none"/>
  <polygon points="549.2,697.1 413.6,741.5 356.4,741.5 431.2,697.1 558.8,655.4 619.6,655.4" fill="#b22222" fill-opacity="0.20" stroke="none"/>
  <polygon points="694.4,332.5 694.4,467.5 703.4,539.3 711.8,471.8 711.8,328.2 703.4,260.7" fill="#b22222" fill-opacity="0.20" stroke="none"/>
  <polygon points="58.2,328.2 58.2,471.8 66.6,539.3 75.6,467.5 75.6,332.5 66.6,260.7" fill="#b22222" fill-opacity="0.20" stroke="none"/>
  <polygon points="356.4,741.5 413.6,741.5 338.8,697.1 211.2,655.4 150.4,655.4 220.8,697.1" fill="#b22222" fill-opacity="0.20" stroke="none"/>
  <polygon points="338.8,102.9 211.2,144.6 150.4,144.6 220.8,102.9 356.4,58.5 413.6,58.5" fill="#b22222" fill-opacity="0.20" stroke="none"/>
  <polygon points="711.8,328.2 637.0,283.9 558.2,174.6 549.2,102.9 619.6,144.6 703.4,260.7" fill="#b22222" fill-opacity="0.20" stroke="none"/>
  <polygon points="711.8,471.8 637.0,516.1 558.2,625.4 549.2,697.1 619.6,655.4 703.4,539.3" fill="#b22222" fill-opacity="0.20" stroke="none"/>
  <polygon points="150.4,655.4 211.2,655.4 165.0,539.3 75.6,467.5 66.6,539.3" fill="#4682b4" fill-opacity="0.20" stroke="none"/>
  <polygon points="165.0,260.7 211.2,144.6 150.4,144.6 66.6,260.7 75.6,332.5" fill="#4682b4" fill-opacity="0.20" stroke="none"/>
  <polygon points="549.2,697.1 413.6,741.5 338.8,697.1 428.1,625.4 558.2,625.4" fill="#4682b4" fill-opacity="0.20" stroke="none"/>
  <polygon points="558.2,174.6 428.1,174.6 338.8,102.9 413.6,58.5 549.2,102.9" fill="#4682b4" fill-opacity="0.20" stroke="none"/>
  <polygon points="711.8,471.8 637.0,516.1 590.8,400.0 637.0,283.9 711.8,328.2" fill="#4682b4" fill-opacity="0.20" stroke="none"/>
  <polygon points="249.1,328.2 165.0,260.7 75.6,332.5 75.6,467.5 165.0,539.3 249.1,471.8" fill="#b22222" fill-opacity="0.20" stroke="none"/>
  <polygon points="428.1,625.4 384.7,516.1 249.1,471.8 165.0,539.3 211.2,655.4 338.8,697.1" fill="#b22222" fill-opacity="0.20" stroke="none"/>
  <polygon points="249.1,328.2 384.7,283.9 428.1,174.6 338.8,102.9 211.2,144.6 165.0,260.7" fill="#b22222" fill-opacity="0.20" stroke="none"/>
  <polygon points="637.0,283.9 590.8,400.0 468.5,400.0 384.7,283.9 428.1,174.6 558.2,174.6" fill="#b22222" fill-opacity="0.20" stroke="none"/>
  <polygon points="558.2,625.4 428.1,625.4 384.7,516.1 468.5,400.0 590.8,400.0 637.0,516.1" fill="#b22222" fill-opacity="0.20" stroke="none"/>
  <polygon points="384.7,516.1 468.5,400.0 384.7,283.9 249.1,328.2 249.1,471.8" fill="#4682b4" fill-opacity="0.20" stroke="none"/>
  <circle cx="301.5" cy="400.0" r="35.4" fill="url(#x0g5)" stroke="#b2b2b2" stroke-width="6.2"/>
  <line x1="320.1" y1="425.8" x2="366.8" y2="490.4" stroke="#949494" stroke-width="15.6" stroke-linecap="round"/>
  <line x1="320.1" y1="374.2" x2="366.8" y2="309.6" stroke="#949494" stroke-width="15.6" stroke-linecap="round"/>
  <line x1="272.7" y1="400.0" x2="208.1" y2="400.0" stroke="#888888" stroke-width="15.6" stroke-linecap="round"/>
  <circle cx="385.3" cy="516.1" r="35.4" fill="url(#x0g1)" stroke="#b2b2b2" stroke-width="6.2"/>
  <line x1="415.4" y1="506.3" x2="490.9" y2="481.6" stroke="#8d8d8d" stroke-width="15.6" stroke-linecap="round"/>
  <line x1="375.1" y1="541.9" x2="352.1" y2="599.6" stroke="#808080" stroke-width="15.6" stroke-linecap="round"/>
  <circle cx="385.3" cy="283.9" r="35.4" fill="url(#x0g12)" stroke="#b2b2b2" stroke-width="6.2"/>
  <line x1="415.4" y1="293.7" x2="490.9" y2="318.4" stroke="#8d8d8d" stroke-width="15.6" stroke-linecap="round"/>
  <line x1="375.1" y1="258.1" x2="352.1" y2="200.4" stroke="#808080" stroke-width="15.6" stroke-linecap="round"/>
  <circle cx="520.9" cy="471.8" r="35.4" fill="url(#x0g0)" stroke="#b2b2b2" stroke-width="6.2"/>
  <line x1="520.9" y1="439.9" x2="520.9" y2="360.1" stroke="#898989" stroke-width="15.6" stroke-linecap="round"/>
  <line x1="540.8" y1="487.7" x2="585.2" y2="523.4" stroke="#757575" stroke-width="15.6" stroke-linecap="round"/>
  <circle cx="520.9" cy="328.2" r="35.4" fill="url(#x0g11)" stroke="#b2b2b2" stroke-width="6.2"/>
  <line x1="540.8" y1="312.3" x2="585.2" y2="276.6" stroke="#757575" stroke-width="15.6" stroke-linecap="round"/>
  <circle cx="179.2" cy="400.0" r="35.4" fill="url(#x0g6)" stroke="#b2b2b2" stroke-width="6.2"/>
  <line x1="169.0" y1="425.8" x2="143.2" y2="490.4" stroke="#6a6a6a" stroke-width="15.6" stroke-linecap="round"/>
  <line x1="169.0" y1="374.2" x2="143.2" y2="309.6" stroke="#6a6a6a" stroke-width="15.6" stroke-linecap="round"/>
  <circle cx="341.9" cy="625.4" r="35.4" fill="url(#x0g3)" stroke="#b2b2b2" stroke-width="6.2"/>
  <line x1="313.0" y1="625.4" x2="240.7" y2="625.4" stroke="#646464" stroke-width="15.6" stroke-linecap="round"/>
  <line x1="361.7" y1="641.3" x2="411.4" y2="681.2" stroke="#5e5e5e" stroke-width="15.6" stroke-linecap="round"/>
  <circle cx="341.9" cy="174.6" r="35.4" fill="url(#x0g15)" stroke="#b2b2b2" stroke-width="6.2"/>
  <line x1="313.0" y1="174.6" x2="240.7" y2="174.6" stroke="#646464" stroke-width="15.6" stroke-linecap="round"/>
  <line x1="361.7" y1="158.7" x2="411.4" y2="118.8" stroke="#5e5e5e" stroke-width="15.6" stroke-linecap="round"/>
  <circle cx="605.0" cy="539.3" r="35.4" fill="url(#x0g2)" stroke="#b1b1b1" stroke-width="6.2"/>
  <line x1="594.8" y1="565.0" x2="569.0" y2="629.7" stroke="#555555" stroke-width="15.6" stroke-linecap="round"/>
  <line x1="624.8" y1="523.4" x2="674.6" y2="483.4" stroke="#525252" stroke-width="15.6" stroke-linecap="round"/>
  <circle cx="605.0" cy="260.7" r="35.4" fill="url(#x0g9)" stroke="#b1b1b1" stroke-width="6.2"/>
  <line x1="594.8" y1="235.0" x2="569.0" y2="170.3" stroke="#555555" stroke-width="15.6" stroke-linecap="round"/>
  <line x1="624.8" y1="276.6" x2="674.6" y2="316.6" stroke="#525252" stroke-width="15.6" stroke-linecap="round"/>
  <circle cx="133.0" cy="516.1" r="35.4" fill="url(#x0g7)" stroke="#a2a2a2" stroke-width="6.2"/>
  <line x1="151.6" y1="541.9" x2="193.2" y2="599.6" stroke="#595959" stroke-width="15.6" stroke-linecap="round"/>
  <line x1="116.4" y1="506.3" x2="74.8" y2="481.6" stroke="#454545" stroke-width="15.6" stroke-linecap="round"/>
  <circle cx="133.0" cy="283.9" r="35.4" fill="url(#x0g53)" stroke="#a2a2a2" stroke-width="6.2"/>
  <line x1="151.6" y1="258.1" x2="193.2" y2="200.4" stroke="#595959" stroke-width="15.6" stroke-linecap="round"/>
  <line x1="116.4" y1="293.7" x2="74.8" y2="318.4" stroke="#454545" stroke-width="15.6" stroke-linecap="round"/>
  <circle cx="211.8" cy="174.6" r="35.4" fill="url(#x0g54)" stroke="#9b9b9b" stroke-width="6.2"/>
  <line x1="213.8" y1="158.7" x2="218.8" y2="118.8" stroke="#404040" stroke-width="15.6" stroke-linecap="round"/>
  <circle cx="211.8" cy="625.4" r="35.4" fill="url(#x0g4)" stroke="#9b9b9b" stroke-width="6.2"/>
  <line x1="213.8" y1="641.3" x2="218.8" y2="681.2" stroke="#404040" stroke-width="15.6" stroke-linecap="round"/>
  <circle cx="431.2" cy="102.9" r="35.4" fill="url(#x0g14)" stroke="#8a8a8a" stroke-width="6.2"/>
  <line x1="461.3" y1="112.7" x2="528.7" y2="134.7" stroke="#4a4a4a" stroke-width="15.6" stroke-linecap="round"/>
  <line x1="414.6" y1="93.0" x2="373.0" y2="68.3" stroke="#393939" stroke-width="15.6" stroke-linecap="round"/>
  <circle cx="431.2" cy="697.1" r="35.4" fill="url(#x0g32)" stroke="#8a8a8a" stroke-width="6.2"/>
  <line x1="461.3" y1="687.3" x2="528.7" y2="665.3" stroke="#4a4a4a" stroke-width="15.6" stroke-linecap="round"/>
  <line x1="414.6" y1="707.0" x2="373.0" y2="731.7" stroke="#393939" stroke-width="15.6" stroke-linecap="round"/>
  <circle cx="558.8" cy="655.4" r="35.4" fill="url(#x0g34)" stroke="#808080" stroke-width="6.2"/>
  <line x1="572.3" y1="655.4" x2="606.1" y2="655.4" stroke="#323232" stroke-width="15.6" stroke-linecap="round"/>
  <circle cx="558.8" cy="144.6" r="35.4" fill="url(#x0g13)" stroke="#808080" stroke-width="6.2"/>
  <line x1="572.3" y1="144.6" x2="606.1" y2="144.6" stroke="#323232" stroke-width="15.6" stroke-linecap="round"/>
  <circle cx="694.4" cy="467.5" r="35.4" fill="url(#x0g10)" stroke="#767676" stroke-width="6.2"/>
  <line x1="694.4" y1="435.7" x2="694.4" y2="364.3" stroke="#424242" stroke-width="15.6" stroke-linecap="round"/>
  <line x1="696.4" y1="483.4" x2="701.4" y2="523.4" stroke="#2e2e2e" stroke-width="15.6" stroke-linecap="round"/>
  <circle cx="694.4" cy="332.5" r="35.4" fill="url(#x0g8)" stroke="#767676" stroke-width="6.2"/>
  <line x1="696.4" y1="316.6" x2="701.4" y2="276.6" stroke="#2e2e2e" stroke-width="15.6" stroke-linecap="round"/>
  <circle cx="58.2" cy="328.2" r="35.4" fill="url(#x0g52)" stroke="#5a5a5a" stroke-width="6.2"/>
  <line x1="58.2" y1="360.1" x2="58.2" y2="439.9" stroke="#323232" stroke-width="15.6" stroke-linecap="round"/>
  <line x1="60.2" y1="312.3" x2="64.6" y2="276.6" stroke="#222222" stroke-width="15.6" stroke-linecap="round"/>
  <circle cx="58.2" cy="471.8" r="35.4" fill="url(#x0g58)" stroke="#5a5a5a" stroke-width="6.2"/>
  <line x1="60.2" y1="487.7" x2="64.6" y2="523.4" stroke="#222222" stroke-width="15.6" stroke-linecap="round"/>
  <circle cx="220.8" cy="102.9" r="35.4" fill="url(#x0g48)" stroke="#505050" stroke-width="6.2"/>
  <line x1="250.9" y1="93.0" x2="326.3" y2="68.3" stroke="#2a2a2a" stroke-width="15.6" stroke-linecap="round"/>
  <line x1="204.2" y1="112.7" x2="167.0" y2="134.7" stroke="#1f1f1f" stroke-width="15.6" stroke-linecap="round"/>
  <circle cx="220.8" cy="697.1" r="35.4" fill="url(#x0g37)" stroke="#505050" stroke-width="6.2"/>
  <line x1="250.9" y1="707.0" x2="326.3" y2="731.7" stroke="#2a2a2a" stroke-width="15.6" stroke-linecap="round"/>
  <line x1="204.2" y1="687.3" x2="167.0" y2="665.3" stroke="#1f1f1f" stroke-width="15.6" stroke-linecap="round"/>
  <circle cx="356.4" cy="741.5" r="35.4" fill="url(#x0g33)" stroke="#484848" stroke-width="6.2"/>
  <line x1="369.9" y1="741.5" x2="400.1" y2="741.5" stroke="#191919" stroke-width="15.6" stroke-linecap="round"/>
  <circle cx="356.4" cy="58.5" r="35.4" fill="url(#x0g49)" stroke="#484848" stroke-width="6.2"/>
  <line x1="369.9" y1="58.5" x2="400.1" y2="58.5" stroke="#191919" stroke-width="15.6" stroke-linecap="round"/>
  <circle cx="619.6" cy="144.6" r="35.4" fill="url(#x0g20)" stroke="#3a3a3a" stroke-width="6.2"/>
  <line x1="638.1" y1="170.3" x2="684.8" y2="235.0" stroke="#1f1f1f" stroke-width="15.6" stroke-linecap="round"/>
  <line x1="603.0" y1="134.7" x2="565.8" y2="112.7" stroke="#151515" stroke-width="15.6" stroke-linecap="round"/>
  <circle cx="619.6" cy="655.4" r="35.4" fill="url(#x0g26)" stroke="#3a3a3a" stroke-width="6.2"/>
  <line x1="638.1" y1="629.7" x2="684.8" y2="565.0" stroke="#1f1f1f" stroke-width="15.6" stroke-linecap="round"/>
  <line x1="603.0" y1="665.3" x2="565.8" y2="687.3" stroke="#151515" stroke-width="15.6" stroke-linecap="round"/>
  <circle cx="703.4" cy="539.3" r="35.4" fill="url(#x0g18)" stroke="#363636" stroke-width="6.2"/>
  <line x1="705.4" y1="523.4" x2="709.8" y2="487.7" stroke="#121212" stroke-width="15.6" stroke-linecap="round"/>
  <circle cx="703.4" cy="260.7" r="35.4" fill="url(#x0g19)" stroke="#363636" stroke-width="6.2"/>
  <line x1="705.4" y1="276.6" x2="709.8" y2="312.3" stroke="#121212" stroke-width="15.6" stroke-linecap="round"/>
  <circle cx="66.6" cy="539.3" r="35.4" fill="url(#x0g57)" stroke="#262626" stroke-width="6.2"/>
  <line x1="85.2" y1="565.0" x2="131.9" y2="629.7" stroke="#141414" stroke-width="15.6" stroke-linecap="round"/>
  <line x1="68.6" y1="523.4" x2="73.6" y2="483.4" stroke="#0b0b0b" stroke-width="15.6" stroke-linecap="round"/>
  <circle cx="66.6" cy="260.7" r="35.4" fill="url(#x0g55)" stroke="#262626" stroke-width="6.2"/>
  <line x1="85.2" y1="235.0" x2="131.9" y2="170.3" stroke="#141414" stroke-width="15.6" stroke-linecap="round"/>
  <line x1="68.6" y1="276.6" x2="73.6" y2="316.6" stroke="#0b0b0b" stroke-width="15.6" stroke-linecap="round"/>
  <circle cx="150.4" cy="655.4" r="35.4" fill="url(#x0g38)" stroke="#232323" stroke-width="6.2"/>
  <line x1="163.9" y1="655.4" x2="197.7" y2="655.4" stroke="#090909" stroke-width="15.6" stroke-linecap="round"/>
  <circle cx="150.4" cy="144.6" r="35.4" fill="url(#x0g51)" stroke="#232323" stroke-width="6.2"/>
  <line x1="163.9" y1="144.6" x2="197.7" y2="144.6" stroke="#090909" stroke-width="15.6" stroke-linecap="round"/>
  <circle cx="413.6" cy="58.5" r="35.4" fill="url(#x0g50)" stroke="#191919" stroke-width="6.2"/>
  <line x1="443.7" y1="68.3" x2="519.1" y2="93.0" stroke="#0d0d0d" stroke-width="15.6" stroke-linecap="round"/>
  <line x1="397.0" y1="68.3" x2="355.4" y2="93.0" stroke="#060606" stroke-width="15.6" stroke-linecap="round"/>
  <circle cx="413.6" cy="741.5" r="35.4" fill="url(#x0g35)" stroke="#191919" stroke-width="6.2"/>
  <line x1="443.7" y1="731.7" x2="519.1" y2="707.0" stroke="#0d0d0d" stroke-width="15.6" stroke-linecap="round"/>
  <line x1="397.0" y1="731.7" x2="355.4" y2="707.0" stroke="#060606" stroke-width="15.6" stroke-linecap="round"/>
  <circle cx="549.2" cy="102.9" r="35.4" fill="url(#x0g23)" stroke="#151515" stroke-width="6.2"/>
  <line x1="551.2" y1="118.8" x2="556.2" y2="158.7" stroke="#040404" stroke-width="15.6" stroke-linecap="round"/>
  <circle cx="549.2" cy="697.1" r="35.4" fill="url(#x0g24)" stroke="#151515" stroke-width="6.2"/>
  <line x1="551.2" y1="681.2" x2="556.2" y2="641.3" stroke="#040404" stroke-width="15.6" stroke-linecap="round"/>
  <circle cx="711.8" cy="328.2" r="35.4" fill="url(#x0g17)" stroke="#101010" stroke-width="6.2"/>
  <line x1="711.8" y1="360.1" x2="711.8" y2="439.9" stroke="#090909" stroke-width="15.6" stroke-linecap="round"/>
  <line x1="695.2" y1="318.4" x2="653.6" y2="293.7" stroke="#030303" stroke-width="15.6" stroke-linecap="round"/>
  <circle cx="711.8" cy="471.8" r="35.4" fill="url(#x0g16)" stroke="#101010" stroke-width="6.2"/>
  <line x1="695.2" y1="481.6" x2="653.6" y2="506.3" stroke="#030303" stroke-width="15.6" stroke-linecap="round"/>
  <circle cx="75.6" cy="467.5" r="35.4" fill="url(#x0g56)" stroke="#070707" stroke-width="6.2"/>
  <line x1="75.6" y1="435.7" x2="75.6" y2="364.3" stroke="#040404" stroke-width="15.6" stroke-linecap="round"/>
  <line x1="95.4" y1="483.4" x2="145.2" y2="523.4" stroke="#010101" stroke-width="15.6" stroke-linecap="round"/>
  <circle cx="75.6" cy="332.5" r="35.4" fill="url(#x0g59)" stroke="#070707" stroke-width="6.2"/>
  <line x1="95.4" y1="316.6" x2="145.2" y2="276.6" stroke="#010101" stroke-width="15.6" stroke-linecap="round"/>
  <circle cx="211.2" cy="144.6" r="35.4" fill="url(#x0g47)" stroke="#040404" stroke-width="6.2"/>
  <line x1="241.3" y1="134.7" x2="308.7" y2="112.7" stroke="#020202" stroke-width="15.6" stroke-linecap="round"/>
  <line x1="201.0" y1="170.3" x2="175.2" y2="235.0" stroke="#000000" stroke-width="15.6" stroke-linecap="round"/>
  <circle cx="211.2" cy="655.4" r="35.4" fill="url(#x0g39)" stroke="#040404" stroke-width="6.2"/>
  <line x1="241.3" y1="665.3" x2="308.7" y2="687.3" stroke="#020202" stroke-width="15.6" stroke-linecap="round"/>
  <line x1="201.0" y1="629.7" x2="175.2" y2="565.0" stroke="#000000" stroke-width="15.6" stroke-linecap="round"/>
  <circle cx="338.8" cy="102.9" r="35.4" fill="url(#x0g44)" stroke="#030303" stroke-width="6.2"/>
  <line x1="358.6" y1="118.8" x2="408.3" y2="158.7" stroke="#000000" stroke-width="15.6" stroke-linecap="round"/>
  <circle cx="338.8" cy="697.1" r="35.4" fill="url(#x0g36)" stroke="#030303" stroke-width="6.2"/>
  <line x1="358.6" y1="681.2" x2="408.3" y2="641.3" stroke="#000000" stroke-width="15.6" stroke-linecap="round"/>
  <circle cx="558.2" cy="174.6" r="35.4" fill="url(#x0g22)" stroke="#010101" stroke-width="6.2"/>
  <line x1="576.8" y1="200.4" x2="618.4" y2="258.1" stroke="#000000" stroke-width="15.6" stroke-linecap="round"/>
  <line x1="529.3" y1="174.6" x2="457.0" y2="174.6" stroke="#000000" stroke-width="15.6" stroke-linecap="round"/>
  <circle cx="558.2" cy="625.4" r="35.4" fill="url(#x0g25)" stroke="#010101" stroke-width="6.2"/>
  <line x1="576.8" y1="599.6" x2="618.4" y2="541.9" stroke="#000000" stroke-width="15.6" stroke-linecap="round"/>
  <line x1="529.3" y1="625.4" x2="457.0" y2="625.4" stroke="#000000" stroke-width="15.6" stroke-linecap="round"/>
  <circle cx="637.0" cy="516.1" r="35.4" fill="url(#x0g27)" stroke="#000000" stroke-width="6.2"/>
  <line x1="626.8" y1="490.4" x2="601.0" y2="425.8" stroke="#000000" stroke-width="15.6" stroke-linecap="round"/>
  <circle cx="637.0" cy="283.9" r="35.4" fill="url(#x0g21)" stroke="#000000" stroke-width="6.2"/>
  <line x1="626.8" y1="309.6" x2="601.0" y2="374.2" stroke="#000000" stroke-width="15.6" stroke-linecap="round"/>
  <circle cx="165.0" cy="539.3" r="35.4" fill="url(#x0g42)" stroke="#000000" stroke-width="6.2"/>
  <line x1="184.8" y1="523.4" x2="229.2" y2="487.7" stroke="#000000" stroke-width="15.6" stroke-linecap="round"/>
  <circle cx="165.0" cy="260.7" r="35.4" fill="url(#x0g43)" stroke="#000000" stroke-width="6.2"/>
  <line x1="184.8" y1="276.6" x2="229.2" y2="312.3" stroke="#000000" stroke-width="15.6" stroke-linecap="round"/>
  <circle cx="428.1" cy="174.6" r="35.4" fill="url(#x0g45)" stroke="#000000" stroke-width="6.2"/>
  <line x1="417.9" y1="200.4" x2="394.9" y2="258.1" stroke="#000000" stroke-width="15.6" stroke-linecap="round"/>
  <circle cx="428.1" cy="625.4" r="35.4" fill="url(#x0g29)" stroke="#000000" stroke-width="6.2"/>
  <line x1="417.9" y1="599.6" x2="394.9" y2="541.9" stroke="#000000" stroke-width="15.6" stroke-linecap="round"/>
  <circle cx="590.8" cy="400.0" r="35.4" fill="url(#x0g28)" stroke="#000000" stroke-width="6.2"/>
  <line x1="561.9" y1="400.0" x2="497.3" y2="400.0" stroke="#000000" stroke-width="15.6" stroke-linecap="round"/>
  <circle cx="249.1" cy="471.8" r="35.4" fill="url(#x0g41)" stroke="#000000" stroke-width="6.2"/>
  <line x1="249.1" y1="439.9" x2="249.1" y2="360.1" stroke="#000000" stroke-width="15.6" stroke-linecap="round"/>
  <line x1="279.1" y1="481.6" x2="354.6" y2="506.3" stroke="#000000" stroke-width="15.6" stroke-linecap="round"/>
  <circle cx="249.1" cy="328.2" r="35.4" fill="url(#x0g40)" stroke="#000000" stroke-width="6.2"/>
  <line x1="279.1" y1="318.4" x2="354.6" y2="293.7" stroke="#000000" stroke-width="15.6" stroke-linecap="round"/>
  <circle cx="384.7" cy="516.1" r="35.4" fill="url(#x0g30)" stroke="#000000" stroke-width="6.2"/>
  <line x1="403.2" y1="490.4" x2="449.9" y2="425.8" stroke="#000000" stroke-width="15.6" stroke-linecap="round"/>
  <circle cx="384.7" cy="283.9" r="35.4" fill="url(#x0g46)" stroke="#000000" stroke-width="6.2"/>
  <line x1="403.2" y1="309.6" x2="449.9" y2="374.2" stroke="#000000" stroke-width="15.6" stroke-linecap="round"/>
  <circle cx="468.5" cy="400.0" r="35.4" fill="url(#x0g31)" stroke="#000000" stroke-width="6.2"/>
</svg>