<svg xmlns="http://www.w3.org/2000/svg" xmlns:xlink="http://www.w3.org/1999/xlink" viewBox="0 0 800 642" width="800" height="642">
  <rect width="100%" height="100%" fill="#ffffff"/>
  <defs>
    <radialGradient id="x0g0" cx=".5" cy=".5" fx=".33" fy=".33" r=".66"><stop offset="0%" stop-color="#bebebe"/><stop offset="40%" stop-color="#b3b3b3"/><stop offset="100%" stop-color="#7b6268"/></radialGradient>
    <radialGradient id="x0g1" cx=".5" cy=".5" fx=".33" fy=".33" r=".66"><stop offset="0%" stop-color="#c1c1c1"/><stop offset="40%" stop-color="#b7b7b7"/><stop offset="100%" stop-color="#826a6f"/></radialGradient>
    <radialGradient id="x0g2" cx=".5" cy=".5" fx=".33" fy=".33" r=".66"><stop offset="0%" stop-color="#b9b9b9"/><stop offset="40%" stop-color="#adadad"/><stop offset="100%" stop-color="#71565c"/></radialGradient>
    <radialGradient id="x0g3" cx=".5" cy=".5" fx=".33" fy=".33" r=".66"><stop offset="0%" stop-color="#b6b6b6"/><stop offset="40%" stop-color="#aaaaaa"/><stop offset="100%" stop-color="#6b4f55"/></radialGradient>
    <radialGradient id="x0g4" cx=".5" cy=".5" fx=".33" fy=".33" r=".66"><stop offset="0%" stop-color="#b7b7b7"/><stop offset="40%" stop-color="#ababab"/><stop offset="100%" stop-color="#6e5258"/></radialGradient>
    <radialGradient id="x0g5" cx=".5" cy=".5" fx=".33" fy=".33" r=".66"><stop offset="0%" stop-color="#bcbcbc"/><stop offset="40%" stop-color="#b1b1b1"/><stop offset="100%" stop-color="#785f64"/></radialGradient>
    <radialGradient id="x0g6" cx=".5" cy=".5" fx=".33" fy=".33" r=".66"><stop offset="0%" stop-color="#c6c6c6"/><stop offset="40%" stop-color="#bdbdbd"/><stop offset="100%" stop-color="#8c767b"/></radialGradient>
    <radialGradient id="x0g7" cx=".5" cy=".5" fx=".33" fy=".33" r=".66"><stop offset="0%" stop-color="#cfcfcf"/><stop offset="40%" stop-color="#c7c7c7"/><stop offset="100%" stop-color="#9d8b8f"/></radialGradient>
    <radialGradient id="x0g8" cx=".5" cy=".5" fx=".33" fy=".33" r=".66"><stop offset="0%" stop-color="#629fec"/><stop offset="40%" stop-color="#3957f8"/><stop offset="100%" stop-color="#0e23a2"/></radialGradient>
    <radialGradient id="x0g9" cx=".5" cy=".5" fx=".33" fy=".33" r=".66"><stop offset="0%" stop-color="#69a4ed"/><stop offset="40%" stop-color="#425ff8"/><stop offset="100%" stop-color="#1a2ea6"/></radialGradient>
    <radialGradient id="x0g10" cx=".5" cy=".5" fx=".33" fy=".33" r=".66"><stop offset="0%" stop-color="#5c9bec"/><stop offset="40%" stop-color="#3151f8"/><stop offset="100%" stop-color="#051b9e"/></radialGradient>
    <radialGradient id="x0g11" cx=".5" cy=".5" fx=".33" fy=".33" r=".66"><stop offset="0%" stop-color="#7fb1f0"/><stop offset="40%" stop-color="#5e77f9"/><stop offset="100%" stop-color="#3c4db3"/></radialGradient>
    <radialGradient id="x0g12" cx=".5" cy=".5" fx=".33" fy=".33" r=".66"><stop offset="0%" stop-color="#f05d4c"/><stop offset="40%" stop-color="#ff1c1c"/><stop offset="100%" stop-color="#9a102b"/></radialGradient>
    <radialGradient id="x0g13" cx=".5" cy=".5" fx=".33" fy=".33" r=".66"><stop offset="0%" stop-color="#f48e83"/><stop offset="40%" stop-color="#ff6262"/><stop offset="100%" stop-color="#b8596c"/></radialGradient>
  </defs>
  <g opacity="0.54">
    <path d="M 424.5 123.0 C 426.1 126.6 425.9 130.9 426.5 134.9 C 427.0 138.9 428.4 143.0 427.8 146.9 C 427.3 150.8 425.2 154.6 423.2 158.2 C 421.3 161.8 419.0 165.5 416.0 168.5 C 413.1 171.4 409.3 173.9 405.4 176.1 C 401.6 178.2 397.4 180.3 393.1 181.4 C 388.8 182.4 384.2 182.3 379.7 182.3 C 375.1 182.3 370.3 182.2 365.9 181.3 C 361.6 180.4 357.3 178.8 353.6 176.7 C 349.8 174.6 346.5 171.6 343.3 168.7 C 340.1 165.9 337.1 162.7 334.4 159.5 C 331.6 156.3 328.3 153.1 326.8 149.4 C 325.3 145.8 325.6 141.6 325.2 137.6 C 324.9 133.6 323.8 129.3 324.6 125.5 C 325.4 121.7 327.9 118.1 330.2 114.7 C 332.4 111.2 335.4 108.0 338.3 104.9 C 341.2 101.8 344.2 98.7 347.6 96.1 C 351.0 93.4 354.7 90.4 358.8 89.2 C 362.9 87.9 367.7 88.7 372.2 88.9 C 376.7 89.0 381.7 88.8 385.9 89.9 C 390.2 91.0 394.2 93.2 397.9 95.5 C 401.5 97.9 404.7 100.9 407.9 103.8 C 411.0 106.7 414.1 109.8 416.9 113.0 C 419.6 116.2 422.9 119.3 424.5 123.0 Z" fill="none" fill-rule="evenodd" stroke="#305f8d" stroke-width="4.3"/>
    <path d="M 424.5 131.7 C 425.3 135.5 426.1 139.6 425.9 143.4 C 425.8 147.3 425.0 151.1 423.5 154.7 C 422.0 158.3 419.5 161.8 416.9 164.9 C 414.2 168.0 411.0 170.8 407.5 173.2 C 404.0 175.5 399.9 177.7 395.9 179.0 C 391.8 180.4 387.4 181.0 383.0 181.2 C 378.7 181.4 374.0 180.9 369.7 180.2 C 365.4 179.5 361.0 178.9 357.1 177.2 C 353.3 175.5 349.9 172.6 346.7 169.9 C 343.5 167.2 340.5 164.3 337.7 161.2 C 334.9 158.2 331.8 155.1 330.0 151.6 C 328.2 148.2 327.5 144.4 326.9 140.5 C 326.3 136.7 325.8 132.6 326.3 128.8 C 326.8 125.0 327.9 121.3 329.7 117.8 C 331.5 114.4 334.4 111.2 337.0 108.0 C 339.7 104.9 342.5 101.8 345.7 99.1 C 348.9 96.4 352.3 93.3 356.1 91.7 C 359.9 90.2 364.4 90.0 368.7 89.9 C 373.1 89.7 377.8 90.1 382.1 90.9 C 386.3 91.7 390.5 92.9 394.3 94.8 C 398.0 96.7 401.3 99.7 404.5 102.4 C 407.7 105.1 410.6 108.1 413.4 111.1 C 416.2 114.2 419.4 117.2 421.3 120.6 C 423.1 124.1 423.8 127.9 424.5 131.7 Z" fill="none" stroke="#305f8d" stroke-width="2.5"/>
    <path d="M 415.5 123.0 C 417.1 126.6 416.9 130.9 417.4 134.9 C 418.0 138.9 419.6 143.2 418.8 147.0 C 418.0 150.8 415.2 154.4 412.6 157.7 C 410.0 160.9 406.7 163.9 403.3 166.6 C 399.8 169.2 396.0 172.1 391.9 173.4 C 387.8 174.6 383.1 174.2 378.5 174.1 C 374.0 174.1 369.0 174.1 364.7 173.0 C 360.5 171.8 356.6 169.6 353.0 167.2 C 349.5 164.8 346.3 161.6 343.4 158.5 C 340.5 155.4 337.1 152.2 335.5 148.5 C 334.0 144.8 334.6 140.5 334.3 136.5 C 333.9 132.5 332.4 128.1 333.4 124.3 C 334.4 120.6 337.6 117.1 340.2 113.8 C 342.7 110.5 345.7 107.3 348.9 104.4 C 352.1 101.5 355.4 97.9 359.4 96.6 C 363.4 95.3 368.3 96.3 372.8 96.5 C 377.4 96.7 382.4 96.4 386.6 97.7 C 390.8 99.0 394.5 101.7 397.9 104.3 C 401.4 106.9 404.6 110.0 407.5 113.1 C 410.4 116.2 413.8 119.4 415.5 123.0 Z" fill="none" stroke="#305f8d" stroke-width="2.5"/>
    <path d="M 406.4 120.1 C 408.5 123.5 409.2 127.5 409.9 131.4 C 410.6 135.3 411.4 139.6 410.8 143.4 C 410.2 147.3 408.7 151.0 406.4 154.3 C 404.1 157.6 400.5 160.8 396.9 163.0 C 393.3 165.2 389.2 167.1 384.9 167.7 C 380.6 168.3 375.6 167.3 371.2 166.6 C 366.7 165.9 362.0 165.6 358.3 163.8 C 354.5 161.9 351.1 158.5 348.4 155.3 C 345.7 152.2 343.2 148.8 341.9 145.0 C 340.7 141.3 340.8 136.9 340.8 133.0 C 340.8 129.0 340.3 124.9 341.8 121.4 C 343.3 117.8 346.8 114.6 349.7 111.5 C 352.7 108.5 355.8 104.6 359.6 103.2 C 363.5 101.7 368.3 102.8 372.8 103.0 C 377.3 103.1 382.4 102.7 386.5 104.1 C 390.7 105.4 394.2 108.2 397.5 110.9 C 400.8 113.6 404.4 116.7 406.4 120.1 Z" fill="none" stroke="#305f8d" stroke-width="2.5"/>
    <path d="M 397.4 117.9 C 400.0 120.9 401.8 124.6 402.8 128.3 C 403.7 132.0 403.5 136.4 403.0 140.3 C 402.5 144.1 402.2 148.1 400.0 151.3 C 397.9 154.6 394.0 158.1 390.2 159.6 C 386.4 161.1 381.6 160.2 377.1 160.1 C 372.7 160.0 367.5 160.5 363.5 159.1 C 359.5 157.8 355.6 155.0 353.1 152.0 C 350.7 149.0 349.5 145.0 348.5 141.2 C 347.6 137.4 346.8 133.1 347.2 129.3 C 347.6 125.5 348.7 121.7 350.8 118.4 C 353.0 115.2 356.4 111.2 360.2 109.7 C 363.9 108.2 368.9 109.5 373.4 109.6 C 377.9 109.7 383.0 109.0 387.0 110.4 C 391.0 111.8 394.7 114.9 397.4 117.9 Z" fill="none" stroke="#305f8d" stroke-width="2.5"/>
    <path d="M 388.3 116.8 C 391.8 118.5 394.6 122.6 395.8 126.1 C 396.9 129.6 395.7 134.0 395.4 137.9 C 395.0 141.7 395.7 146.6 393.5 149.1 C 391.3 151.7 386.3 152.7 382.2 153.2 C 378.0 153.7 372.9 153.2 368.8 152.3 C 364.6 151.4 359.5 150.7 357.2 148.1 C 354.9 145.4 355.8 140.3 355.1 136.5 C 354.5 132.6 352.4 128.2 353.4 124.7 C 354.5 121.3 357.9 117.1 361.4 115.7 C 365.0 114.3 370.4 116.1 374.9 116.3 C 379.3 116.5 384.8 115.2 388.3 116.8 Z" fill="none" stroke="#305f8d" stroke-width="2.5"/>
  </g>
  <g opacity="0.54">
    <path d="M 451.7 417.2 C 452.7 421.0 453.5 425.1 453.6 429.0 C 453.8 432.9 453.7 436.8 452.7 440.6 C 451.7 444.4 449.6 448.1 447.6 451.6 C 445.6 455.1 443.4 458.6 440.7 461.8 C 438.1 464.9 434.9 467.8 431.6 470.5 C 428.3 473.1 424.7 475.7 420.9 477.7 C 417.0 479.6 412.7 480.9 408.5 482.2 C 404.2 483.4 399.8 484.4 395.4 485.2 C 391.0 486.0 386.6 486.5 382.1 486.8 C 377.6 487.0 373.1 486.9 368.5 486.9 C 364.0 486.9 359.5 487.0 355.0 486.8 C 350.5 486.6 345.5 486.8 341.6 485.6 C 337.7 484.4 333.6 482.7 331.7 479.7 C 329.9 476.8 330.8 471.9 330.4 467.9 C 330.0 464.0 329.8 460.0 329.4 456.1 C 329.1 452.1 328.8 448.2 328.3 444.2 C 327.9 440.3 327.5 436.3 326.6 432.5 C 325.7 428.6 324.2 424.8 323.0 421.0 C 321.7 417.2 320.8 413.3 319.0 409.7 C 317.2 406.1 314.5 402.8 312.3 399.4 C 310.0 395.9 307.7 392.5 305.5 389.1 C 303.2 385.7 300.8 382.3 298.8 378.8 C 296.8 375.2 295.0 371.6 293.4 367.9 C 291.9 364.2 290.6 360.4 289.5 356.5 C 288.4 352.7 287.4 348.8 286.7 344.9 C 285.9 341.0 285.4 337.1 285.1 333.2 C 284.8 329.2 284.8 325.2 284.9 321.3 C 285.0 317.3 285.1 313.3 285.9 309.5 C 286.6 305.6 288.0 301.8 289.5 298.1 C 291.1 294.4 292.8 290.6 295.2 287.3 C 297.6 284.0 300.7 281.0 303.9 278.3 C 307.1 275.6 310.7 273.2 314.4 270.9 C 318.1 268.6 321.9 266.4 326.0 264.7 C 330.0 263.1 334.3 261.9 338.7 261.0 C 343.0 260.1 347.6 259.7 352.1 259.5 C 356.5 259.2 361.0 259.1 365.4 259.5 C 369.8 260.0 374.3 261.2 378.6 262.4 C 382.8 263.6 387.2 264.7 391.1 266.5 C 395.0 268.4 398.6 271.0 402.0 273.6 C 405.4 276.1 408.8 278.9 411.6 281.9 C 414.4 285.0 417.0 288.3 419.0 291.8 C 421.1 295.3 422.5 299.1 423.8 302.9 C 425.2 306.7 426.5 310.5 427.3 314.4 C 428.1 318.3 428.2 322.3 428.6 326.2 C 429.0 330.1 429.5 334.1 429.7 338.0 C 429.9 342.0 429.7 346.0 429.8 349.9 C 429.9 353.9 429.6 357.9 430.1 361.8 C 430.5 365.7 431.5 369.6 432.3 373.5 C 433.1 377.4 433.4 381.4 434.8 385.2 C 436.3 388.9 438.7 392.3 440.8 395.8 C 442.9 399.2 445.7 402.5 447.6 406.1 C 449.4 409.6 450.7 413.4 451.7 417.2 Z" fill="none" fill-rule="evenodd" stroke="#61000f" stroke-width="4.3"/>
    <path d="M 451.7 427.1 C 452.0 431.0 452.4 434.9 451.6 438.7 C 450.7 442.5 448.7 446.2 446.8 449.8 C 444.9 453.3 442.7 456.8 440.1 460.0 C 437.5 463.2 434.4 466.1 431.1 468.8 C 427.9 471.5 424.4 474.2 420.6 476.1 C 416.8 478.1 412.5 479.3 408.2 480.5 C 404.0 481.8 399.6 482.8 395.2 483.5 C 390.8 484.3 386.3 484.7 381.9 484.9 C 377.4 485.2 372.9 485.0 368.4 484.9 C 363.9 484.8 359.4 484.7 354.9 484.2 C 350.5 483.6 345.4 483.5 342.0 481.5 C 338.5 479.5 335.7 475.6 334.1 472.0 C 332.5 468.5 332.8 464.2 332.3 460.3 C 331.7 456.4 331.3 452.5 330.8 448.5 C 330.4 444.6 330.2 440.6 329.4 436.8 C 328.6 432.9 327.3 429.1 326.2 425.3 C 325.0 421.5 324.1 417.6 322.5 413.9 C 320.9 410.2 318.8 406.8 316.7 403.3 C 314.6 399.8 312.2 396.4 309.9 393.0 C 307.7 389.6 305.3 386.2 303.2 382.8 C 301.0 379.3 298.8 375.9 297.0 372.3 C 295.1 368.7 293.6 365.0 292.2 361.2 C 290.9 357.4 289.9 353.6 289.0 349.7 C 288.0 345.8 287.0 342.0 286.5 338.1 C 286.0 334.2 286.1 330.2 286.0 326.2 C 286.0 322.3 285.5 318.3 286.0 314.4 C 286.5 310.5 287.7 306.6 288.9 302.9 C 290.2 299.1 291.7 295.3 293.8 291.8 C 295.8 288.3 298.3 285.0 301.3 282.1 C 304.2 279.1 307.8 276.6 311.3 274.2 C 314.9 271.8 318.8 269.7 322.7 267.8 C 326.6 265.9 330.5 263.8 334.8 262.7 C 339.1 261.6 343.7 261.7 348.2 261.2 C 352.6 260.8 357.2 259.8 361.6 260.1 C 366.0 260.4 370.3 261.9 374.7 262.9 C 379.0 264.0 383.6 264.7 387.6 266.3 C 391.6 268.0 395.3 270.4 398.8 272.9 C 402.3 275.3 405.7 278.0 408.6 280.9 C 411.6 283.9 414.3 287.1 416.5 290.6 C 418.6 294.0 420.1 297.8 421.6 301.5 C 423.1 305.2 424.5 309.0 425.4 312.8 C 426.3 316.7 426.5 320.7 427.0 324.6 C 427.5 328.5 427.9 332.4 428.1 336.4 C 428.4 340.3 428.3 344.3 428.4 348.2 C 428.5 352.2 428.2 356.1 428.6 360.1 C 428.9 364.0 429.7 367.9 430.4 371.8 C 431.1 375.7 431.6 379.7 432.9 383.4 C 434.2 387.1 436.2 390.6 438.2 394.2 C 440.2 397.7 442.9 401.0 444.8 404.5 C 446.7 408.0 448.5 411.6 449.7 415.4 C 450.8 419.1 451.4 423.2 451.7 427.1 Z" fill="none" stroke="#61000f" stroke-width="2.5"/>
    <path d="M 433.6 406.9 C 435.3 410.6 436.5 414.4 437.4 418.3 C 438.4 422.2 439.5 426.3 439.5 430.2 C 439.4 434.1 438.7 438.0 437.1 441.7 C 435.6 445.3 432.9 448.8 430.3 452.1 C 427.8 455.4 425.2 458.8 421.8 461.3 C 418.5 463.8 414.4 465.7 410.2 467.1 C 406.1 468.6 401.4 469.4 397.0 470.1 C 392.5 470.7 388.1 471.3 383.6 471.0 C 379.1 470.7 374.5 469.7 370.3 468.4 C 366.1 467.1 361.6 465.7 358.4 463.2 C 355.2 460.7 352.9 456.9 350.9 453.4 C 348.9 449.8 347.8 445.8 346.5 442.0 C 345.2 438.2 344.3 434.2 343.2 430.4 C 342.0 426.5 341.1 422.5 339.6 418.8 C 338.1 415.0 336.4 411.3 334.3 407.8 C 332.2 404.3 329.5 401.0 327.2 397.6 C 324.9 394.1 322.7 390.6 320.3 387.2 C 317.9 383.8 315.2 380.6 312.8 377.2 C 310.5 373.7 308.1 370.3 306.1 366.7 C 304.1 363.2 302.4 359.4 300.8 355.7 C 299.3 351.9 297.8 348.1 296.8 344.2 C 295.8 340.3 295.1 336.4 294.7 332.4 C 294.3 328.4 294.2 324.4 294.5 320.4 C 294.7 316.4 294.9 312.4 296.1 308.6 C 297.3 304.8 299.4 301.1 301.5 297.6 C 303.7 294.1 306.2 290.7 309.2 287.7 C 312.1 284.8 315.7 282.1 319.3 279.7 C 322.9 277.3 326.8 274.9 330.9 273.5 C 335.1 272.1 339.7 271.8 344.2 271.2 C 348.7 270.6 353.3 269.8 357.8 270.0 C 362.2 270.2 366.7 271.2 371.0 272.3 C 375.3 273.4 379.8 274.6 383.9 276.4 C 387.9 278.1 391.9 280.2 395.2 282.8 C 398.5 285.5 401.4 288.8 403.8 292.1 C 406.3 295.4 408.2 299.2 409.9 302.8 C 411.7 306.5 413.4 310.3 414.4 314.1 C 415.4 318.0 415.6 322.1 416.1 326.0 C 416.7 330.0 417.3 334.0 417.5 338.0 C 417.7 342.0 417.4 346.0 417.3 350.0 C 417.3 354.0 416.9 358.0 417.1 362.0 C 417.4 366.0 418.2 369.9 418.8 373.9 C 419.5 377.8 419.5 382.0 420.9 385.7 C 422.3 389.5 425.1 392.8 427.2 396.3 C 429.3 399.9 431.9 403.3 433.6 406.9 Z" fill="none" stroke="#61000f" stroke-width="2.5"/>
    <path d="M 424.5 417.8 C 425.5 421.6 426.5 425.7 426.3 429.5 C 426.2 433.3 425.5 437.2 423.7 440.6 C 421.9 444.1 418.9 447.8 415.4 449.9 C 411.9 452.1 406.9 452.5 402.6 453.7 C 398.4 454.9 393.9 457.5 389.8 457.2 C 385.7 457.0 381.7 454.3 378.1 452.2 C 374.4 450.1 370.8 447.4 367.9 444.5 C 364.9 441.6 362.0 438.4 360.3 434.9 C 358.6 431.3 358.6 427.1 357.7 423.3 C 356.8 419.4 356.3 415.4 354.9 411.7 C 353.4 408.0 351.5 404.4 349.3 401.0 C 347.1 397.6 344.5 394.3 341.6 391.3 C 338.7 388.3 335.0 386.0 332.0 383.1 C 328.9 380.3 326.1 377.1 323.5 373.9 C 320.9 370.7 318.5 367.3 316.4 363.9 C 314.2 360.5 312.3 356.9 310.4 353.3 C 308.6 349.7 306.7 346.0 305.5 342.3 C 304.3 338.5 303.8 334.6 303.4 330.7 C 303.0 326.8 302.8 322.7 303.2 318.8 C 303.6 314.9 304.3 310.9 305.9 307.4 C 307.5 303.8 310.4 300.5 313.0 297.4 C 315.7 294.2 318.5 291.0 321.8 288.4 C 325.0 285.8 328.7 283.0 332.7 281.6 C 336.7 280.1 341.5 280.3 345.9 279.9 C 350.4 279.4 355.0 278.4 359.4 278.9 C 363.7 279.3 368.0 280.9 372.1 282.4 C 376.2 283.9 380.5 285.6 384.0 287.9 C 387.6 290.1 390.7 293.0 393.4 296.0 C 396.1 299.1 398.6 302.6 400.4 306.1 C 402.3 309.7 403.6 313.5 404.5 317.3 C 405.5 321.1 405.8 325.1 406.2 329.1 C 406.6 333.0 407.0 336.9 406.9 340.9 C 406.7 344.8 405.9 348.7 405.5 352.6 C 405.1 356.6 404.5 360.5 404.2 364.4 C 403.9 368.3 403.8 372.3 403.8 376.2 C 403.8 380.1 402.8 384.3 404.3 387.8 C 405.8 391.3 410.0 393.9 412.7 397.0 C 415.3 400.2 418.3 403.2 420.3 406.7 C 422.3 410.2 423.5 414.0 424.5 417.8 Z" fill="none" stroke="#61000f" stroke-width="2.5"/>
    <path d="M 388.3 305.1 C 391.0 308.3 392.6 312.3 393.9 316.1 C 395.1 320.0 395.2 324.1 395.6 328.2 C 396.1 332.2 396.6 336.2 396.3 340.2 C 396.0 344.2 394.6 348.1 393.6 352.1 C 392.7 356.0 392.0 360.2 390.5 363.9 C 388.9 367.5 387.5 371.4 384.5 374.1 C 381.6 376.8 376.8 378.6 372.6 379.9 C 368.4 381.1 363.6 382.2 359.4 381.5 C 355.2 380.7 351.5 377.4 347.4 375.5 C 343.4 373.5 338.7 372.3 335.2 369.8 C 331.7 367.4 329.0 364.0 326.4 360.7 C 323.8 357.4 321.8 353.7 319.8 350.1 C 317.7 346.5 315.2 342.9 314.0 339.1 C 312.9 335.3 313.1 331.1 312.9 327.1 C 312.7 323.0 311.7 318.8 312.7 315.0 C 313.7 311.1 316.3 307.5 318.8 304.2 C 321.3 300.9 324.3 297.4 327.7 295.0 C 331.2 292.6 335.3 291.0 339.6 289.9 C 343.8 288.8 348.8 288.5 353.3 288.6 C 357.8 288.7 362.3 289.1 366.5 290.5 C 370.6 291.9 374.3 294.8 377.9 297.2 C 381.6 299.6 385.6 302.0 388.3 305.1 Z" fill="none" stroke="#61000f" stroke-width="2.5"/>
    <path d="M 379.2 313.3 C 381.2 316.6 381.6 320.7 382.4 324.5 C 383.2 328.3 384.6 332.4 384.1 336.1 C 383.6 339.8 381.5 343.4 379.4 346.7 C 377.2 350.0 374.2 353.2 371.1 355.8 C 367.9 358.5 364.4 362.3 360.6 362.7 C 356.8 363.1 352.4 359.8 348.3 358.3 C 344.2 356.8 339.5 356.0 336.1 353.7 C 332.6 351.5 330.0 348.1 327.8 344.9 C 325.7 341.6 324.1 337.9 323.2 334.2 C 322.4 330.4 322.5 326.3 322.7 322.5 C 322.9 318.6 322.9 314.5 324.6 311.2 C 326.4 307.8 329.5 304.1 333.1 302.3 C 336.7 300.4 341.6 300.6 346.0 300.1 C 350.3 299.5 355.2 298.1 359.2 298.9 C 363.3 299.6 367.1 302.2 370.4 304.6 C 373.7 307.0 377.2 310.0 379.2 313.3 Z" fill="none" stroke="#61000f" stroke-width="2.5"/>
  </g>
  <g opacity="0.54">
    <path d="M 777.9 328.1 C 778.7 332.0 780.3 335.9 780.0 339.7 C 779.7 343.5 777.5 347.3 776.0 351.0 C 774.5 354.8 773.3 358.7 771.1 362.1 C 769.0 365.6 766.2 368.7 763.2 371.7 C 760.3 374.6 757.0 377.4 753.4 379.8 C 749.9 382.2 746.1 384.6 741.9 386.0 C 737.8 387.4 733.1 387.4 728.6 388.1 C 724.2 388.8 719.5 390.5 715.3 389.9 C 711.1 389.4 707.3 386.6 703.3 384.7 C 699.4 382.9 695.3 381.1 691.5 379.0 C 687.8 376.8 684.1 374.4 680.9 371.7 C 677.7 368.9 674.7 365.9 672.3 362.5 C 670.0 359.2 668.4 355.4 666.8 351.8 C 665.1 348.1 662.8 344.4 662.2 340.6 C 661.6 336.8 662.8 332.8 663.3 329.0 C 663.9 325.1 664.5 321.1 665.7 317.3 C 666.8 313.5 668.4 309.7 670.5 306.3 C 672.5 302.8 675.1 299.4 677.9 296.4 C 680.8 293.4 684.0 290.4 687.6 288.2 C 691.3 285.9 695.6 284.4 699.7 282.9 C 703.8 281.3 708.1 279.2 712.4 278.7 C 716.7 278.3 721.1 279.5 725.5 280.3 C 729.9 281.0 734.4 281.8 738.6 283.2 C 742.7 284.7 746.6 286.7 750.2 289.0 C 753.9 291.3 757.2 294.1 760.3 296.9 C 763.3 299.8 766.1 303.0 768.6 306.2 C 771.1 309.5 773.7 312.8 775.2 316.5 C 776.8 320.1 777.2 324.2 777.9 328.1 Z" fill="none" fill-rule="evenodd" stroke="#61000f" stroke-width="4.3"/>
    <path d="M 777.9 334.9 C 778.1 338.8 777.3 342.7 776.2 346.5 C 775.1 350.3 773.4 354.1 771.4 357.7 C 769.5 361.3 767.3 364.9 764.6 368.1 C 761.9 371.2 758.7 374.2 755.3 376.8 C 751.8 379.4 748.1 382.0 744.0 383.6 C 740.0 385.2 735.3 385.5 730.9 386.3 C 726.4 387.0 721.7 388.5 717.4 388.2 C 713.0 387.9 709.0 385.9 704.9 384.3 C 700.9 382.6 696.8 380.6 693.0 378.4 C 689.2 376.2 685.3 373.9 682.1 371.2 C 678.8 368.4 675.9 365.2 673.5 361.9 C 671.1 358.5 669.5 354.7 667.7 351.0 C 666.0 347.3 663.5 343.5 663.1 339.7 C 662.6 335.8 664.1 331.8 664.8 327.9 C 665.4 323.9 665.8 319.8 667.1 316.0 C 668.5 312.3 670.4 308.6 672.7 305.1 C 675.0 301.7 677.8 298.4 680.9 295.6 C 684.0 292.7 687.6 290.1 691.4 288.0 C 695.2 285.9 699.5 284.2 703.7 282.8 C 707.9 281.4 712.2 279.8 716.6 279.7 C 721.0 279.7 725.5 281.5 729.9 282.6 C 734.3 283.6 738.9 284.3 742.9 286.1 C 746.9 287.9 750.4 290.7 753.8 293.3 C 757.2 296.0 760.4 298.9 763.3 301.9 C 766.2 305.0 769.1 308.3 771.1 311.8 C 773.1 315.3 774.2 319.2 775.3 323.1 C 776.4 326.9 777.8 331.0 777.9 334.9 Z" fill="none" stroke="#61000f" stroke-width="2.5"/>
    <path d="M 768.9 335.9 C 768.9 339.8 767.5 343.6 766.1 347.4 C 764.8 351.2 763.0 355.0 760.7 358.5 C 758.5 361.9 755.9 365.3 752.7 368.2 C 749.6 371.0 746.1 374.0 742.1 375.7 C 738.1 377.4 733.3 377.7 728.8 378.5 C 724.3 379.3 719.6 381.2 715.3 380.7 C 711.0 380.2 707.1 377.4 703.2 375.3 C 699.3 373.3 695.3 371.2 691.8 368.6 C 688.4 366.1 685.1 363.2 682.4 360.0 C 679.7 356.8 677.7 353.1 675.7 349.5 C 673.7 345.9 670.9 342.3 670.4 338.4 C 670.0 334.6 672.1 330.5 672.9 326.6 C 673.8 322.6 673.9 318.4 675.6 314.8 C 677.2 311.1 680.0 307.6 682.9 304.6 C 685.8 301.6 689.4 299.0 693.1 296.7 C 696.8 294.4 701.0 292.3 705.1 290.9 C 709.2 289.4 713.4 287.8 717.7 287.9 C 722.1 287.9 726.6 290.0 730.9 291.2 C 735.3 292.4 739.9 293.3 743.7 295.3 C 747.6 297.3 751.0 300.2 754.1 303.1 C 757.2 306.0 760.4 309.2 762.4 312.7 C 764.4 316.2 765.1 320.2 766.2 324.1 C 767.3 328.0 768.9 332.1 768.9 335.9 Z" fill="none" stroke="#61000f" stroke-width="2.5"/>
    <path d="M 759.8 331.8 C 760.3 335.7 760.4 339.7 759.3 343.5 C 758.3 347.3 755.7 351.0 753.3 354.5 C 751.0 358.0 748.6 361.8 745.2 364.3 C 741.8 366.8 737.1 368.1 732.8 369.4 C 728.5 370.8 723.7 372.5 719.3 372.5 C 715.0 372.5 710.8 371.1 706.8 369.4 C 702.9 367.6 699.1 364.8 695.7 362.0 C 692.4 359.2 689.4 356.0 686.8 352.7 C 684.1 349.4 681.1 345.7 679.9 342.0 C 678.8 338.3 679.5 334.3 680.0 330.4 C 680.5 326.4 681.4 322.1 683.0 318.4 C 684.7 314.7 687.0 311.1 690.0 308.2 C 693.0 305.3 697.3 303.2 701.2 301.0 C 705.1 298.8 709.2 295.6 713.4 295.1 C 717.7 294.5 722.3 296.7 726.7 297.7 C 731.1 298.8 736.0 299.6 740.0 301.5 C 743.9 303.4 747.8 306.1 750.6 309.1 C 753.4 312.2 755.2 316.1 756.8 319.8 C 758.3 323.6 759.4 327.8 759.8 331.8 Z" fill="none" stroke="#61000f" stroke-width="2.5"/>
    <path d="M 750.8 328.4 C 751.7 332.1 753.7 336.1 753.0 339.6 C 752.3 343.2 749.1 346.7 746.5 349.8 C 743.9 352.8 741.0 355.7 737.5 357.9 C 734.1 360.1 729.7 361.7 725.6 362.9 C 721.5 364.1 716.9 366.0 713.1 365.0 C 709.4 364.1 706.4 360.1 703.3 357.3 C 700.2 354.6 697.3 351.6 694.5 348.6 C 691.7 345.6 687.3 342.8 686.5 339.3 C 685.6 335.9 688.2 331.9 689.4 328.2 C 690.6 324.5 691.5 320.4 693.7 317.2 C 695.8 313.9 699.2 311.3 702.5 308.8 C 705.8 306.4 709.6 303.0 713.5 302.4 C 717.4 301.8 721.8 304.0 726.0 305.1 C 730.1 306.2 734.9 307.2 738.4 309.2 C 741.9 311.2 745.1 314.0 747.2 317.2 C 749.2 320.4 749.8 324.6 750.8 328.4 Z" fill="none" stroke="#61000f" stroke-width="2.5"/>
    <path d="M 741.7 328.7 C 743.4 332.2 745.3 337.0 744.0 340.1 C 742.6 343.3 737.4 345.5 733.6 347.7 C 729.9 349.9 725.4 352.7 721.5 353.5 C 717.6 354.3 713.7 354.3 710.3 352.6 C 706.9 351.0 703.1 346.8 701.2 343.6 C 699.2 340.4 698.3 336.9 698.7 333.3 C 699.0 329.7 701.4 325.5 703.4 321.9 C 705.3 318.4 707.4 313.7 710.6 312.1 C 713.8 310.5 718.8 311.1 722.7 312.2 C 726.5 313.3 730.4 316.2 733.6 318.9 C 736.8 321.7 740.0 325.2 741.7 328.7 Z" fill="none" stroke="#61000f" stroke-width="2.5"/>
  </g>
  <g opacity="0.54">
    <path d="M 614.8 426.2 C 616.0 430.0 617.1 433.8 617.4 437.7 C 617.8 441.7 617.3 445.7 616.9 449.7 C 616.6 453.6 616.4 457.6 615.5 461.4 C 614.5 465.3 612.9 469.0 611.3 472.7 C 609.6 476.4 607.9 480.1 605.7 483.6 C 603.6 487.1 601.1 490.4 598.3 493.6 C 595.6 496.7 592.4 499.6 589.1 502.3 C 585.8 505.0 582.3 507.6 578.5 509.7 C 574.8 511.9 570.6 513.6 566.5 515.2 C 562.3 516.8 558.2 518.5 553.8 519.4 C 549.5 520.3 544.9 520.3 540.4 520.5 C 535.9 520.8 531.3 521.3 526.8 521.0 C 522.3 520.7 517.9 519.8 513.6 518.7 C 509.2 517.7 504.9 516.5 500.8 514.8 C 496.7 513.2 492.7 511.2 489.0 508.9 C 485.4 506.6 482.0 503.9 478.9 501.1 C 475.8 498.2 473.0 495.0 470.5 491.7 C 467.9 488.5 465.2 485.1 463.6 481.5 C 462.1 477.8 461.8 473.7 461.1 469.8 C 460.3 465.9 458.8 461.9 459.0 458.0 C 459.3 454.1 461.4 450.3 462.4 446.5 C 463.5 442.6 464.3 438.7 465.6 434.9 C 466.8 431.1 468.5 427.4 469.9 423.6 C 471.2 419.8 472.2 415.9 473.6 412.1 C 475.1 408.4 476.5 404.6 478.6 401.1 C 480.7 397.6 483.3 394.2 486.2 391.2 C 489.1 388.2 492.5 385.4 496.2 383.2 C 499.9 381.0 504.2 379.5 508.3 377.9 C 512.4 376.3 516.7 374.5 521.0 373.7 C 525.4 373.0 529.9 373.2 534.4 373.2 C 538.9 373.1 543.6 373.0 548.0 373.6 C 552.4 374.1 556.8 375.2 561.0 376.5 C 565.3 377.8 569.4 379.5 573.4 381.3 C 577.4 383.2 581.3 385.3 584.9 387.6 C 588.6 389.9 592.2 392.4 595.3 395.3 C 598.4 398.1 601.3 401.3 603.8 404.6 C 606.2 407.8 608.4 411.4 610.2 415.0 C 612.1 418.6 613.6 422.4 614.8 426.2 Z" fill="none" fill-rule="evenodd" stroke="#305f8d" stroke-width="4.3"/>
    <path d="M 614.8 430.8 C 615.7 434.6 615.6 438.7 615.7 442.6 C 615.7 446.6 615.7 450.7 615.2 454.7 C 614.6 458.6 613.6 462.5 612.3 466.4 C 611.0 470.2 609.2 473.9 607.3 477.6 C 605.5 481.2 603.4 484.8 601.0 488.2 C 598.5 491.5 595.7 494.7 592.5 497.6 C 589.4 500.5 585.9 503.2 582.3 505.6 C 578.7 508.0 574.7 510.1 570.7 512.0 C 566.7 513.9 562.5 515.7 558.2 516.9 C 553.9 518.1 549.4 518.7 544.9 519.2 C 540.4 519.7 535.7 519.8 531.2 519.7 C 526.7 519.6 522.1 519.4 517.7 518.5 C 513.3 517.7 508.9 516.3 504.7 514.8 C 500.5 513.3 496.3 511.6 492.5 509.5 C 488.7 507.3 485.2 504.6 481.9 501.9 C 478.7 499.1 475.7 496.0 473.0 492.8 C 470.3 489.6 467.5 486.3 465.7 482.6 C 464.0 479.0 463.5 474.9 462.7 470.9 C 461.8 467.0 460.5 463.0 460.6 459.0 C 460.8 455.1 462.4 451.2 463.4 447.3 C 464.4 443.4 465.4 439.5 466.6 435.6 C 467.8 431.7 469.3 428.0 470.6 424.1 C 471.9 420.3 472.9 416.4 474.5 412.6 C 476.0 408.8 477.5 405.0 479.7 401.5 C 481.8 398.0 484.3 394.5 487.3 391.5 C 490.3 388.6 493.9 385.9 497.7 383.7 C 501.5 381.6 505.9 380.1 510.1 378.5 C 514.3 377.0 518.5 375.1 522.9 374.4 C 527.3 373.7 532.0 374.3 536.5 374.4 C 541.1 374.5 545.8 374.1 550.2 374.8 C 554.7 375.5 559.0 377.1 563.2 378.6 C 567.4 380.1 571.6 381.8 575.5 383.8 C 579.5 385.8 583.4 387.9 587.0 390.4 C 590.5 392.9 594.0 395.6 596.9 398.6 C 599.9 401.6 602.6 405.0 604.8 408.4 C 607.1 411.9 609.0 415.6 610.6 419.3 C 612.3 423.0 614.0 426.9 614.8 430.8 Z" fill="none" stroke="#305f8d" stroke-width="2.5"/>
    <path d="M 596.7 424.7 C 598.4 428.3 600.1 432.0 600.6 435.8 C 601.2 439.6 600.3 443.7 600.0 447.6 C 599.8 451.5 600.0 455.5 599.0 459.3 C 598.0 463.1 595.9 466.7 594.0 470.2 C 592.1 473.8 590.3 477.4 587.8 480.7 C 585.3 483.9 582.4 487.0 579.2 489.7 C 576.0 492.4 572.3 494.7 568.6 496.9 C 564.9 499.1 561.1 501.3 557.0 502.7 C 552.9 504.1 548.5 504.9 544.2 505.5 C 539.8 506.1 535.2 506.5 530.8 506.4 C 526.4 506.3 522.0 505.8 517.7 504.8 C 513.5 503.8 509.3 502.1 505.3 500.4 C 501.4 498.6 497.4 496.7 493.9 494.3 C 490.5 491.9 487.3 489.0 484.7 485.8 C 482.2 482.7 480.3 479.1 478.7 475.4 C 477.1 471.8 475.7 467.9 475.1 464.1 C 474.4 460.3 474.4 456.4 474.6 452.5 C 474.9 448.6 475.8 444.7 476.5 440.8 C 477.3 437.0 478.0 433.1 479.1 429.3 C 480.3 425.5 481.8 421.8 483.6 418.2 C 485.3 414.6 487.1 410.9 489.5 407.6 C 491.8 404.4 494.6 401.1 497.9 398.5 C 501.1 395.9 505.2 394.0 509.1 392.1 C 513.0 390.3 517.1 388.3 521.4 387.4 C 525.6 386.6 530.2 387.0 534.6 387.0 C 539.0 387.1 543.7 387.1 548.0 387.8 C 552.3 388.5 556.6 389.7 560.7 391.3 C 564.7 392.9 568.5 395.1 572.1 397.4 C 575.7 399.6 579.2 402.2 582.3 405.0 C 585.4 407.8 588.1 411.0 590.5 414.2 C 592.9 417.5 595.0 421.1 596.7 424.7 Z" fill="none" stroke="#305f8d" stroke-width="2.5"/>
    <path d="M 578.6 420.1 C 581.1 423.4 583.9 426.8 585.3 430.4 C 586.6 434.0 586.7 437.9 586.8 441.8 C 586.9 445.7 586.8 449.8 585.9 453.6 C 585.1 457.5 583.7 461.2 581.8 464.7 C 579.9 468.2 577.3 471.6 574.6 474.7 C 571.8 477.8 568.9 480.8 565.5 483.5 C 562.2 486.1 558.7 488.9 554.7 490.5 C 550.8 492.2 546.2 492.6 541.8 493.3 C 537.5 494.0 532.8 494.9 528.4 494.7 C 524.1 494.4 519.8 493.3 515.7 491.8 C 511.6 490.4 507.6 488.2 504.1 485.8 C 500.6 483.5 497.2 480.8 494.5 477.7 C 491.9 474.7 489.8 470.9 488.1 467.3 C 486.5 463.7 485.1 459.8 484.8 456.0 C 484.4 452.1 485.6 448.1 486.1 444.2 C 486.6 440.3 486.6 436.2 487.8 432.5 C 488.9 428.7 491.1 425.1 493.1 421.6 C 495.2 418.1 497.3 414.5 500.0 411.5 C 502.8 408.4 506.3 405.7 509.9 403.4 C 513.4 401.0 517.3 398.4 521.4 397.3 C 525.5 396.3 530.1 396.8 534.6 397.0 C 539.0 397.2 543.7 397.3 548.0 398.3 C 552.2 399.3 556.4 401.0 560.1 403.0 C 563.9 405.1 567.4 407.8 570.5 410.6 C 573.6 413.5 576.1 416.8 578.6 420.1 Z" fill="none" stroke="#305f8d" stroke-width="2.5"/>
    <path d="M 569.5 427.0 C 571.7 430.4 573.4 434.1 574.0 437.9 C 574.5 441.7 573.4 446.0 572.6 449.9 C 571.8 453.8 571.2 457.8 569.2 461.3 C 567.3 464.8 564.0 468.0 561.0 470.9 C 557.9 473.9 554.8 477.3 550.9 479.0 C 547.0 480.7 541.9 480.6 537.4 481.3 C 532.9 482.0 528.0 483.9 523.9 483.1 C 519.8 482.2 516.1 478.8 512.6 476.2 C 509.2 473.6 505.8 470.7 503.0 467.6 C 500.3 464.5 497.0 461.1 496.0 457.4 C 494.9 453.7 496.3 449.4 496.6 445.4 C 496.8 441.4 496.2 437.2 497.5 433.5 C 498.9 429.7 502.0 426.4 504.7 423.2 C 507.3 419.9 510.0 416.5 513.2 413.7 C 516.4 410.9 519.8 407.2 523.8 406.1 C 527.8 405.1 532.8 407.1 537.3 407.6 C 541.8 408.2 546.8 408.0 550.8 409.6 C 554.8 411.2 557.9 414.6 561.1 417.5 C 564.2 420.4 567.4 423.6 569.5 427.0 Z" fill="none" stroke="#305f8d" stroke-width="2.5"/>
    <path d="M 560.5 432.6 C 561.9 436.1 560.4 440.3 560.0 444.2 C 559.5 448.2 559.4 452.7 557.6 456.1 C 555.8 459.5 552.6 462.8 549.0 464.6 C 545.3 466.5 540.0 466.8 535.6 467.5 C 531.2 468.1 526.4 469.7 522.6 468.5 C 518.8 467.3 514.9 463.4 512.8 460.1 C 510.7 456.8 510.7 452.5 510.1 448.6 C 509.5 444.7 508.4 440.3 509.3 436.6 C 510.2 432.8 512.7 429.2 515.3 426.1 C 517.9 423.0 521.1 418.9 524.9 418.0 C 528.8 417.0 533.9 419.6 538.4 420.5 C 542.8 421.4 548.0 421.3 551.7 423.3 C 555.4 425.3 559.1 429.1 560.5 432.6 Z" fill="none" stroke="#305f8d" stroke-width="2.5"/>
  </g>
  <g opacity="0.54">
    <path d="M 261.4 432.0 C 261.6 435.9 261.1 439.9 260.7 443.9 C 260.3 447.9 260.2 451.9 259.2 455.8 C 258.2 459.6 256.5 463.3 254.7 467.0 C 252.9 470.6 250.5 474.0 248.3 477.6 C 246.2 481.1 244.2 484.7 241.7 488.0 C 239.3 491.4 236.7 494.8 233.6 497.6 C 230.4 500.4 226.9 503.0 222.9 504.7 C 218.9 506.4 214.1 507.0 209.7 507.8 C 205.3 508.7 200.9 510.3 196.5 509.9 C 192.2 509.6 188.0 507.3 183.8 505.7 C 179.7 504.1 175.1 502.8 171.6 500.4 C 168.0 498.1 165.1 494.8 162.4 491.6 C 159.7 488.5 157.6 484.9 155.4 481.4 C 153.3 477.9 151.3 474.3 149.5 470.6 C 147.7 466.9 145.5 463.3 144.7 459.4 C 143.9 455.6 144.6 451.5 144.8 447.5 C 145.0 443.6 144.8 439.5 145.8 435.6 C 146.8 431.8 149.0 428.2 150.7 424.5 C 152.4 420.8 154.7 417.3 156.2 413.6 C 157.8 409.8 158.8 406.0 159.9 402.1 C 161.0 398.2 162.2 394.3 162.8 390.4 C 163.5 386.5 163.8 382.5 163.9 378.6 C 164.0 374.6 163.6 370.6 163.6 366.6 C 163.6 362.6 163.6 358.6 163.7 354.6 C 163.7 350.6 163.6 346.6 164.1 342.7 C 164.5 338.7 165.1 334.7 166.4 330.9 C 167.7 327.2 169.9 323.5 172.2 320.1 C 174.5 316.7 177.1 313.3 180.3 310.6 C 183.5 307.9 187.5 305.5 191.5 303.9 C 195.5 302.3 200.0 301.6 204.4 301.1 C 208.8 300.6 213.6 300.6 218.0 300.9 C 222.5 301.3 227.0 301.8 231.1 303.3 C 235.1 304.7 238.8 307.4 242.4 309.9 C 245.9 312.3 249.2 315.1 252.4 317.9 C 255.6 320.8 259.0 323.6 261.5 326.8 C 264.0 330.1 266.2 333.8 267.4 337.5 C 268.7 341.3 268.5 345.4 268.8 349.4 C 269.0 353.3 269.5 357.4 269.1 361.3 C 268.7 365.3 267.3 369.1 266.3 373.0 C 265.2 376.9 263.5 380.6 262.6 384.5 C 261.7 388.4 261.2 392.4 260.6 396.3 C 260.0 400.3 259.0 404.2 258.9 408.2 C 258.8 412.2 259.5 416.1 260.0 420.1 C 260.4 424.0 261.3 428.0 261.4 432.0 Z" fill="none" fill-rule="evenodd" stroke="#305f8d" stroke-width="4.3"/>
    <path d="M 261.4 328.7 C 263.8 332.1 265.6 335.9 266.7 339.8 C 267.7 343.6 267.4 347.8 267.6 351.8 C 267.7 355.8 268.0 359.8 267.4 363.8 C 266.8 367.7 265.2 371.6 263.9 375.4 C 262.7 379.3 260.9 383.0 260.0 386.9 C 259.1 390.8 258.8 394.9 258.3 398.9 C 257.7 402.9 256.6 406.8 256.7 410.8 C 256.7 414.8 257.9 418.8 258.4 422.7 C 259.0 426.7 259.9 430.7 259.9 434.7 C 259.9 438.7 259.1 442.7 258.6 446.7 C 258.2 450.7 258.2 454.8 257.0 458.6 C 255.8 462.4 253.3 466.0 251.3 469.6 C 249.3 473.2 247.3 476.8 245.1 480.3 C 242.8 483.8 240.7 487.4 238.0 490.6 C 235.3 493.8 232.4 497.2 228.8 499.5 C 225.3 501.8 220.9 503.1 216.7 504.4 C 212.4 505.7 207.8 507.2 203.4 507.5 C 199.0 507.8 194.7 507.2 190.4 506.2 C 186.2 505.1 181.8 503.2 177.9 501.2 C 174.0 499.2 170.3 496.9 167.1 494.1 C 164.0 491.3 161.5 487.8 159.2 484.4 C 156.8 481.0 154.8 477.3 152.9 473.7 C 151.0 470.0 148.7 466.4 147.6 462.6 C 146.5 458.8 146.4 454.8 146.3 450.8 C 146.3 446.8 146.4 442.7 147.2 438.8 C 148.0 434.9 149.5 431.1 151.1 427.4 C 152.6 423.6 154.9 420.1 156.6 416.4 C 158.3 412.6 159.8 408.9 161.0 405.0 C 162.2 401.2 163.2 397.2 164.0 393.3 C 164.8 389.4 165.6 385.4 165.8 381.4 C 166.0 377.4 165.6 373.4 165.5 369.4 C 165.4 365.4 165.3 361.4 165.4 357.4 C 165.4 353.4 165.4 349.3 165.7 345.3 C 166.1 341.3 166.3 337.3 167.5 333.5 C 168.7 329.6 170.6 325.9 172.8 322.4 C 175.0 318.9 177.5 315.4 180.6 312.6 C 183.7 309.8 187.5 307.1 191.5 305.4 C 195.4 303.7 200.0 302.9 204.4 302.4 C 208.8 301.9 213.7 301.8 218.1 302.2 C 222.6 302.6 227.1 303.1 231.2 304.7 C 235.2 306.2 238.8 309.0 242.4 311.5 C 245.9 314.0 249.3 316.8 252.4 319.7 C 255.6 322.5 259.1 325.4 261.4 328.7 Z" fill="none" stroke="#305f8d" stroke-width="2.5"/>
    <path d="M 252.4 432.5 C 252.7 436.4 252.0 440.5 251.7 444.5 C 251.4 448.5 251.4 452.6 250.4 456.5 C 249.4 460.3 247.5 464.0 245.7 467.7 C 243.8 471.3 241.6 474.9 239.3 478.4 C 237.0 481.8 234.9 485.6 231.9 488.5 C 228.9 491.4 225.4 494.0 221.5 495.7 C 217.5 497.5 212.7 498.4 208.3 499.2 C 203.9 500.0 199.5 501.2 195.2 500.6 C 191.0 499.9 186.9 497.2 182.9 495.3 C 178.9 493.3 174.5 491.6 171.3 488.9 C 168.1 486.2 165.9 482.4 163.6 479.0 C 161.2 475.6 159.1 472.0 157.3 468.3 C 155.6 464.6 153.7 460.8 153.1 456.9 C 152.5 453.0 153.5 448.9 153.9 444.9 C 154.3 440.9 154.4 436.8 155.7 433.0 C 156.9 429.2 159.3 425.6 161.2 422.0 C 163.2 418.4 165.7 414.9 167.3 411.2 C 168.8 407.4 169.4 403.4 170.6 399.5 C 171.8 395.6 173.9 391.9 174.5 388.0 C 175.1 384.1 174.4 380.0 174.1 376.0 C 173.8 372.0 173.1 368.0 172.9 364.0 C 172.7 360.0 172.8 356.0 172.9 352.0 C 172.9 348.0 172.4 343.8 173.2 339.9 C 173.9 336.0 175.4 332.1 177.3 328.6 C 179.3 325.0 181.9 321.5 184.8 318.5 C 187.7 315.5 190.9 312.1 194.7 310.3 C 198.5 308.5 203.2 308.3 207.6 307.8 C 212.0 307.4 217.0 306.8 221.3 307.5 C 225.7 308.1 229.9 309.8 233.6 311.8 C 237.4 313.9 240.7 317.0 244.0 319.7 C 247.4 322.4 251.0 325.0 253.7 328.2 C 256.5 331.3 259.2 334.8 260.6 338.5 C 261.9 342.3 261.5 346.5 261.7 350.5 C 261.9 354.5 262.6 358.7 261.9 362.6 C 261.2 366.5 259.1 370.2 257.5 374.0 C 255.9 377.7 253.8 381.4 252.5 385.2 C 251.3 389.0 250.6 393.0 249.8 396.9 C 249.0 400.9 247.6 404.9 247.7 408.8 C 247.7 412.8 249.2 416.7 250.0 420.6 C 250.8 424.6 252.1 428.5 252.4 432.5 Z" fill="none" stroke="#305f8d" stroke-width="2.5"/>
    <path d="M 243.3 428.1 C 244.1 431.9 244.6 435.8 244.7 439.7 C 244.8 443.6 244.5 447.6 244.0 451.4 C 243.4 455.3 242.8 459.2 241.4 462.8 C 240.0 466.5 237.7 470.0 235.5 473.4 C 233.3 476.8 231.4 480.7 228.4 483.4 C 225.3 486.0 221.3 487.8 217.3 489.4 C 213.4 491.0 208.8 492.5 204.6 492.9 C 200.4 493.4 196.1 493.2 192.2 492.0 C 188.2 490.8 184.5 488.0 180.9 485.6 C 177.4 483.3 173.7 480.8 170.9 477.8 C 168.2 474.8 166.1 471.1 164.4 467.6 C 162.6 464.0 160.8 460.3 160.2 456.5 C 159.7 452.7 160.7 448.6 161.2 444.7 C 161.6 440.9 161.7 436.8 163.0 433.2 C 164.3 429.5 166.7 425.9 168.9 422.6 C 171.2 419.2 174.5 416.4 176.6 413.0 C 178.7 409.6 180.3 406.0 181.7 402.3 C 183.1 398.6 184.4 394.7 184.9 390.9 C 185.3 387.0 184.9 383.2 184.4 379.3 C 183.9 375.5 182.5 371.6 181.9 367.8 C 181.2 363.9 180.8 360.0 180.6 356.1 C 180.3 352.2 180.0 348.2 180.4 344.3 C 180.8 340.4 181.2 336.4 182.7 332.9 C 184.2 329.3 187.0 325.9 189.7 322.9 C 192.4 319.9 195.2 316.2 199.0 314.7 C 202.8 313.2 207.9 314.1 212.4 313.9 C 216.8 313.7 221.7 312.3 225.7 313.4 C 229.7 314.5 233.0 317.9 236.5 320.4 C 239.9 322.9 243.3 325.5 246.2 328.5 C 249.1 331.4 252.4 334.5 253.9 338.0 C 255.4 341.6 254.9 345.8 255.2 349.7 C 255.4 353.6 256.1 357.7 255.4 361.5 C 254.6 365.2 252.4 368.8 250.5 372.3 C 248.5 375.8 245.5 379.0 243.7 382.5 C 242.0 386.1 240.9 389.8 240.0 393.6 C 239.1 397.4 238.2 401.4 238.2 405.3 C 238.2 409.1 238.9 412.9 239.8 416.7 C 240.6 420.5 242.5 424.2 243.3 428.1 Z" fill="none" stroke="#305f8d" stroke-width="2.5"/>
    <path d="M 234.3 425.8 C 235.7 429.6 236.7 433.5 237.2 437.5 C 237.6 441.5 237.3 445.6 237.0 449.6 C 236.7 453.6 236.7 457.7 235.3 461.5 C 233.9 465.2 231.5 469.0 228.8 472.1 C 226.1 475.2 222.8 477.8 219.0 479.9 C 215.3 482.0 210.5 483.8 206.3 484.6 C 202.1 485.4 197.7 486.1 193.9 484.9 C 190.1 483.6 186.8 479.8 183.5 477.1 C 180.1 474.3 176.5 471.6 173.9 468.4 C 171.3 465.1 168.5 461.6 167.7 457.8 C 166.8 454.0 168.3 449.7 168.8 445.7 C 169.3 441.7 168.9 437.3 170.6 433.8 C 172.4 430.2 176.4 427.5 179.2 424.3 C 182.1 421.2 185.6 418.3 188.0 415.0 C 190.4 411.6 192.3 408.1 193.6 404.3 C 194.9 400.6 195.7 396.3 196.0 392.4 C 196.2 388.4 195.7 384.5 194.9 380.6 C 194.0 376.8 191.9 373.0 190.8 369.1 C 189.8 365.2 188.9 361.2 188.4 357.2 C 187.9 353.2 187.5 349.1 187.8 345.1 C 188.0 341.2 188.3 337.0 189.9 333.4 C 191.6 329.8 194.2 325.6 197.7 323.5 C 201.2 321.5 206.6 321.9 211.1 321.2 C 215.6 320.5 220.6 318.6 224.7 319.5 C 228.8 320.4 232.5 323.8 235.8 326.6 C 239.1 329.3 242.6 332.3 244.6 335.8 C 246.5 339.2 246.8 343.4 247.3 347.3 C 247.8 351.2 248.2 355.5 247.4 359.4 C 246.5 363.2 244.1 366.7 241.9 370.3 C 239.8 373.8 236.8 377.0 234.6 380.5 C 232.5 384.0 230.1 387.3 228.9 391.1 C 227.7 394.9 227.3 399.2 227.2 403.1 C 227.2 407.1 227.6 410.9 228.8 414.7 C 229.9 418.5 232.9 422.0 234.3 425.8 Z" fill="none" stroke="#305f8d" stroke-width="2.5"/>
    <path d="M 225.2 427.1 C 227.9 429.7 228.2 434.4 228.9 438.2 C 229.6 442.0 229.6 446.1 229.4 450.0 C 229.2 453.8 229.6 458.2 227.8 461.4 C 226.1 464.6 222.3 466.9 218.8 469.1 C 215.3 471.3 210.7 473.2 206.8 474.3 C 202.9 475.5 198.9 477.1 195.5 476.0 C 192.0 474.9 188.9 470.7 186.0 467.7 C 183.1 464.8 179.2 461.7 178.2 458.2 C 177.2 454.7 179.3 450.5 180.1 446.7 C 180.9 442.8 181.2 438.7 183.0 435.2 C 184.8 431.7 188.1 428.6 191.0 425.9 C 193.8 423.2 196.5 419.4 200.2 418.9 C 203.8 418.3 208.7 421.2 212.9 422.6 C 217.0 423.9 222.5 424.5 225.2 427.1 Z" fill="none" stroke="#305f8d" stroke-width="2.5"/>
    <path d="M 234.3 332.7 C 236.8 335.5 238.0 339.7 238.8 343.6 C 239.5 347.4 239.4 351.7 238.7 355.6 C 237.9 359.5 236.6 363.4 234.5 366.9 C 232.3 370.3 229.3 375.2 225.8 376.2 C 222.2 377.2 217.3 374.5 213.2 373.0 C 209.1 371.5 204.0 369.8 201.2 367.1 C 198.3 364.4 197.2 360.5 196.2 356.7 C 195.1 353.0 194.9 348.6 195.1 344.7 C 195.3 340.8 195.0 335.8 197.5 333.1 C 200.0 330.5 205.6 330.0 209.9 328.8 C 214.2 327.7 219.3 325.7 223.3 326.4 C 227.4 327.0 231.7 329.8 234.3 332.7 Z" fill="none" stroke="#305f8d" stroke-width="2.5"/>
  </g>
  <circle cx="388.0" cy="108.3" r="29.2" fill="url(#x0g13)" stroke="#808080" stroke-width="5.7"/>
  <line x1="406.0" y1="126.2" x2="427.6" y2="171.7" stroke="#3a3a3a" stroke-width="10.0" stroke-linecap="round"/>
  <line x1="390.5" y1="133.6" x2="412.0" y2="179.1" stroke="#3a3a3a" stroke-width="10.0" stroke-linecap="round"/>
  <circle cx="641.0" cy="118.3" r="32.6" fill="url(#x0g7)" stroke="#7c7c7c" stroke-width="5.7"/>
  <line x1="623.7" y1="139.8" x2="577.4" y2="196.9" stroke="#393939" stroke-width="14.4" stroke-linecap="round"/>
  <circle cx="431.2" cy="199.5" r="32.6" fill="url(#x0g6)" stroke="#525252" stroke-width="5.7"/>
  <line x1="460.2" y1="203.4" x2="533.7" y2="213.4" stroke="#2e2e2e" stroke-width="14.4" stroke-linecap="round"/>
  <line x1="416.1" y1="221.4" x2="378.4" y2="276.3" stroke="#212121" stroke-width="14.4" stroke-linecap="round"/>
  <circle cx="561.1" cy="217.1" r="30.7" fill="url(#x0g11)" stroke="#515151" stroke-width="5.7"/>
  <line x1="572.9" y1="237.6" x2="604.7" y2="292.9" stroke="#1e1e1e" stroke-width="14.4" stroke-linecap="round"/>
  <circle cx="140.9" cy="233.7" r="32.6" fill="url(#x0g1)" stroke="#393939" stroke-width="5.7"/>
  <line x1="162.1" y1="252.0" x2="217.2" y2="299.4" stroke="#181818" stroke-width="14.4" stroke-linecap="round"/>
  <circle cx="363.3" cy="298.2" r="32.6" fill="url(#x0g0)" stroke="#292929" stroke-width="5.7"/>
  <line x1="335.8" y1="311.0" x2="265.5" y2="321.2" stroke="#141414" stroke-width="10.0" stroke-linecap="round" stroke-dasharray="10.0,20.1"/>
  <line x1="333.3" y1="293.9" x2="263.0" y2="304.1" stroke="#141414" stroke-width="10.0" stroke-linecap="round"/>
  <line x1="383.6" y1="317.5" x2="413.5" y2="372.4" stroke="#0e0e0e" stroke-width="10.0" stroke-linecap="round"/>
  <line x1="368.5" y1="325.8" x2="398.4" y2="380.7" stroke="#0e0e0e" stroke-width="10.0" stroke-linecap="round" stroke-dasharray="10.0,20.1"/>
  <circle cx="617.2" cy="314.7" r="32.6" fill="url(#x0g5)" stroke="#212121" stroke-width="5.7"/>
  <line x1="646.0" y1="305.8" x2="700.8" y2="305.1" stroke="#0f0f0f" stroke-width="10.0" stroke-linecap="round"/>
  <line x1="646.2" y1="323.0" x2="701.0" y2="322.4" stroke="#0f0f0f" stroke-width="10.0" stroke-linecap="round"/>
  <line x1="601.3" y1="337.8" x2="560.9" y2="396.4" stroke="#0d0d0d" stroke-width="14.4" stroke-linecap="round"/>
  <circle cx="237.2" cy="316.6" r="30.7" fill="url(#x0g9)" stroke="#202020" stroke-width="5.7"/>
  <line x1="241.9" y1="341.8" x2="232.6" y2="401.9" stroke="#0a0a0a" stroke-width="10.0" stroke-linecap="round" stroke-dasharray="10.0,20.1"/>
  <line x1="224.9" y1="339.2" x2="215.6" y2="399.3" stroke="#0a0a0a" stroke-width="10.0" stroke-linecap="round"/>
  <circle cx="726.8" cy="313.5" r="29.2" fill="url(#x0g12)" stroke="#171717" stroke-width="5.7"/>
  <circle cx="545.9" cy="418.2" r="30.7" fill="url(#x0g8)" stroke="#0f0f0f" stroke-width="5.7"/>
  <line x1="518.6" y1="414.3" x2="447.7" y2="404.1" stroke="#080808" stroke-width="14.4" stroke-linecap="round"/>
  <line x1="557.2" y1="437.0" x2="588.7" y2="489.6" stroke="#020202" stroke-width="14.4" stroke-linecap="round"/>
  <circle cx="418.7" cy="400.0" r="32.6" fill="url(#x0g2)" stroke="#0f0f0f" stroke-width="5.7"/>
  <line x1="403.8" y1="424.4" x2="354.9" y2="467.1" stroke="#040404" stroke-width="10.0" stroke-linecap="round"/>
  <line x1="392.5" y1="411.4" x2="343.6" y2="454.1" stroke="#040404" stroke-width="10.0" stroke-linecap="round" stroke-dasharray="10.0,20.1"/>
  <circle cx="220.1" cy="426.0" r="32.6" fill="url(#x0g4)" stroke="#080808" stroke-width="5.7"/>
  <line x1="249.8" y1="430.4" x2="309.0" y2="458.2" stroke="#020202" stroke-width="10.0" stroke-linecap="round" stroke-dasharray="10.0,20.1"/>
  <line x1="242.5" y1="446.0" x2="301.7" y2="473.8" stroke="#020202" stroke-width="10.0" stroke-linecap="round"/>
  <circle cx="329.9" cy="477.5" r="30.7" fill="url(#x0g10)" stroke="#020202" stroke-width="5.7"/>
  <circle cx="600.7" cy="509.5" r="32.6" fill="url(#x0g3)" stroke="#000000" stroke-width="5.7"/>
  <g opacity="0.60">
    <path d="M 424.5 86.7 C 426.7 90.2 428.9 94.0 429.7 97.9 C 430.6 101.8 429.9 105.9 429.7 109.9 C 429.5 114.0 429.8 118.3 428.5 122.1 C 427.3 125.9 424.9 129.4 422.3 132.7 C 419.7 136.0 416.3 138.9 413.0 141.7 C 409.7 144.6 406.2 147.3 402.6 149.8 C 398.9 152.2 395.3 155.2 391.1 156.5 C 386.9 157.7 382.2 157.2 377.6 157.2 C 373.0 157.2 368.1 157.6 363.8 156.5 C 359.4 155.5 355.4 153.4 351.7 151.1 C 348.0 148.8 344.7 145.8 341.5 142.8 C 338.4 139.8 335.4 136.7 332.8 133.4 C 330.3 130.0 327.2 126.6 326.2 122.9 C 325.2 119.1 326.4 114.7 326.7 110.7 C 327.0 106.7 326.6 102.5 328.1 98.8 C 329.5 95.1 332.8 91.8 335.5 88.5 C 338.1 85.2 340.9 81.9 343.9 78.9 C 347.0 75.9 350.3 72.7 354.0 70.5 C 357.7 68.3 361.9 66.6 366.3 65.5 C 370.6 64.3 375.4 63.7 380.0 63.5 C 384.5 63.3 389.1 63.1 393.4 64.0 C 397.8 64.9 402.1 67.0 406.0 69.1 C 409.9 71.2 413.8 73.6 416.9 76.5 C 420.0 79.5 422.4 83.1 424.5 86.7 Z" fill="none" fill-rule="evenodd" stroke="#61000f" stroke-width="4.3"/>
    <path d="M 424.5 89.5 C 426.5 93.0 428.6 96.7 429.2 100.6 C 429.8 104.4 428.5 108.4 428.1 112.4 C 427.7 116.3 428.3 120.5 426.8 124.1 C 425.4 127.7 422.2 130.9 419.4 134.0 C 416.6 137.1 413.4 139.9 410.1 142.6 C 406.9 145.3 403.5 147.9 399.9 150.2 C 396.2 152.5 392.5 155.5 388.4 156.4 C 384.2 157.3 379.4 156.0 374.9 155.8 C 370.4 155.5 365.6 156.3 361.5 155.1 C 357.4 153.9 353.8 151.0 350.3 148.5 C 346.9 146.1 343.6 143.2 340.7 140.3 C 337.7 137.3 334.7 134.2 332.5 130.8 C 330.4 127.5 328.6 123.9 327.9 120.2 C 327.2 116.4 327.9 112.2 328.4 108.3 C 328.9 104.5 329.3 100.6 330.9 97.0 C 332.5 93.5 335.6 90.3 338.3 87.1 C 340.9 83.9 343.7 80.8 346.8 78.0 C 349.9 75.2 353.2 72.2 356.9 70.2 C 360.7 68.3 365.1 67.3 369.4 66.3 C 373.6 65.4 378.3 64.4 382.7 64.4 C 387.0 64.3 391.5 64.8 395.6 66.0 C 399.7 67.2 403.8 69.4 407.4 71.6 C 411.0 73.9 414.5 76.5 417.3 79.5 C 420.2 82.5 422.6 86.0 424.5 89.5 Z" fill="none" stroke="#61000f" stroke-width="2.5"/>
    <path d="M 415.5 88.7 C 418.0 91.9 420.7 95.4 421.6 99.1 C 422.5 102.7 421.3 106.7 421.0 110.6 C 420.7 114.4 421.1 118.6 419.7 122.2 C 418.4 125.7 415.6 129.0 413.0 132.0 C 410.3 135.0 406.9 137.7 403.6 140.2 C 400.3 142.8 396.9 145.7 393.0 147.3 C 389.2 148.8 384.9 149.2 380.7 149.4 C 376.4 149.6 371.6 149.4 367.4 148.6 C 363.2 147.8 359.1 146.6 355.5 144.6 C 351.9 142.6 348.7 139.6 345.8 136.7 C 342.8 133.8 339.6 130.8 337.9 127.4 C 336.2 124.0 336.1 120.1 335.8 116.3 C 335.6 112.6 335.6 108.4 336.4 104.7 C 337.3 101.0 338.7 97.4 340.8 94.0 C 342.9 90.7 345.9 87.7 348.8 84.8 C 351.8 81.9 354.7 78.7 358.4 76.7 C 362.0 74.8 366.5 74.0 370.7 73.0 C 374.9 72.0 379.5 70.7 383.7 70.7 C 387.9 70.7 392.2 71.6 396.0 73.2 C 399.9 74.7 403.4 77.4 406.7 80.0 C 409.9 82.6 413.0 85.6 415.5 88.7 Z" fill="none" stroke="#61000f" stroke-width="2.5"/>
    <path d="M 406.4 89.4 C 409.4 92.5 413.1 95.7 414.3 99.4 C 415.5 103.1 413.8 107.4 413.5 111.4 C 413.1 115.4 413.8 119.9 412.2 123.5 C 410.5 127.1 406.8 130.0 403.6 132.9 C 400.4 135.8 396.9 139.1 393.0 140.8 C 389.1 142.5 384.6 142.8 380.2 143.0 C 375.7 143.3 370.6 143.1 366.4 142.1 C 362.1 141.0 358.0 139.3 354.5 136.9 C 351.0 134.5 347.4 131.2 345.4 127.8 C 343.5 124.4 343.1 120.4 342.8 116.4 C 342.5 112.5 342.5 108.1 343.6 104.3 C 344.6 100.5 346.5 96.8 348.9 93.5 C 351.3 90.2 354.6 86.8 358.2 84.5 C 361.8 82.3 366.4 81.3 370.7 80.1 C 375.1 78.9 379.9 77.1 384.2 77.3 C 388.5 77.4 392.7 79.0 396.4 81.1 C 400.1 83.1 403.4 86.3 406.4 89.4 Z" fill="none" stroke="#61000f" stroke-width="2.5"/>
    <path d="M 406.4 99.8 C 407.7 103.3 405.9 107.7 405.7 111.7 C 405.4 115.7 406.4 120.2 404.7 123.7 C 403.0 127.2 399.0 130.3 395.5 132.6 C 392.0 134.8 388.0 136.5 383.7 137.1 C 379.5 137.6 374.4 136.7 370.1 136.0 C 365.7 135.2 361.1 134.6 357.6 132.5 C 354.1 130.3 350.6 126.7 349.3 123.2 C 348.1 119.6 349.8 115.1 350.2 111.1 C 350.6 107.2 349.9 102.8 351.6 99.3 C 353.3 95.8 356.8 92.2 360.5 90.2 C 364.2 88.1 369.2 87.9 373.6 86.9 C 378.0 85.9 382.8 83.5 386.9 84.0 C 390.9 84.6 394.7 87.7 397.9 90.4 C 401.2 93.0 405.1 96.2 406.4 99.8 Z" fill="none" stroke="#61000f" stroke-width="2.5"/>
    <path d="M 397.4 98.8 C 399.1 101.9 398.0 106.3 398.0 110.2 C 398.0 114.0 398.8 118.5 397.3 121.9 C 395.9 125.3 392.7 129.2 389.1 130.6 C 385.6 131.9 380.5 130.3 376.1 130.0 C 371.7 129.6 366.0 130.3 362.8 128.5 C 359.6 126.8 357.7 123.1 356.9 119.6 C 356.1 116.2 357.1 111.6 357.9 107.9 C 358.7 104.2 358.9 99.6 361.7 97.3 C 364.5 95.0 370.3 95.2 374.6 94.2 C 378.9 93.2 383.8 90.4 387.6 91.2 C 391.4 92.0 395.6 95.6 397.4 98.8 Z" fill="none" stroke="#61000f" stroke-width="2.5"/>
  </g>
  <g opacity="0.60">
    <path d="M 451.7 359.3 C 452.8 363.1 453.4 367.1 453.9 371.0 C 454.5 375.0 455.0 379.0 455.0 382.9 C 454.9 386.9 454.6 390.9 453.7 394.8 C 452.9 398.6 451.6 402.5 450.0 406.2 C 448.4 409.9 446.6 413.7 444.2 417.0 C 441.9 420.3 438.8 423.4 435.7 426.3 C 432.6 429.2 429.3 432.0 425.7 434.3 C 422.0 436.7 418.2 438.9 414.0 440.2 C 409.8 441.5 405.0 441.7 400.5 442.2 C 396.1 442.7 391.5 443.8 387.1 443.3 C 382.7 442.8 378.5 440.7 374.3 439.2 C 370.2 437.7 365.7 436.4 362.0 434.2 C 358.2 432.1 354.9 429.2 351.8 426.4 C 348.6 423.5 345.5 420.5 343.1 417.2 C 340.7 413.9 338.9 410.2 337.1 406.5 C 335.4 402.8 334.1 399.0 332.6 395.2 C 331.1 391.5 329.7 387.7 328.3 383.9 C 326.8 380.1 325.5 376.3 324.0 372.6 C 322.4 368.8 321.0 365.0 319.0 361.5 C 316.9 358.0 314.0 354.9 311.6 351.5 C 309.1 348.1 306.7 344.7 304.5 341.3 C 302.3 337.8 300.1 334.3 298.2 330.7 C 296.4 327.1 294.6 323.3 293.3 319.6 C 292.0 315.8 291.1 311.9 290.4 307.9 C 289.6 304.0 289.1 300.0 288.8 296.1 C 288.4 292.1 288.4 288.1 288.5 284.2 C 288.7 280.2 289.1 276.2 289.8 272.3 C 290.4 268.3 291.1 264.4 292.4 260.6 C 293.7 256.8 295.5 253.1 297.6 249.6 C 299.7 246.1 302.1 242.6 304.9 239.5 C 307.7 236.4 310.8 233.5 314.1 230.8 C 317.4 228.1 320.9 225.4 324.7 223.2 C 328.4 221.1 332.6 219.3 336.8 218.0 C 341.0 216.6 345.6 215.9 350.0 215.2 C 354.5 214.5 358.9 213.6 363.4 213.8 C 367.8 214.1 372.2 215.6 376.6 216.7 C 380.9 217.8 385.5 218.6 389.5 220.4 C 393.5 222.1 397.0 224.8 400.5 227.3 C 404.0 229.9 407.3 232.6 410.4 235.5 C 413.4 238.5 416.2 241.6 418.8 244.9 C 421.3 248.2 423.5 251.7 425.5 255.3 C 427.6 258.8 429.3 262.5 430.9 266.3 C 432.4 270.0 433.4 273.9 434.6 277.8 C 435.7 281.6 437.1 285.5 437.6 289.4 C 438.2 293.3 437.8 297.3 437.8 301.3 C 437.8 305.3 437.4 309.3 437.7 313.3 C 438.1 317.2 439.1 321.1 439.9 325.0 C 440.8 328.9 441.7 332.8 442.9 336.7 C 444.2 340.5 446.0 344.2 447.4 347.9 C 448.9 351.7 450.6 355.4 451.7 359.3 Z" fill="none" fill-rule="evenodd" stroke="#305f8d" stroke-width="4.3"/>
    <path d="M 451.7 366.5 C 452.5 370.5 452.8 374.5 453.0 378.5 C 453.2 382.5 453.5 386.5 453.0 390.4 C 452.5 394.3 451.1 398.3 449.8 402.1 C 448.4 405.9 447.0 409.8 444.9 413.2 C 442.8 416.7 439.9 419.9 437.0 422.9 C 434.0 426.0 430.7 428.8 427.2 431.4 C 423.7 433.9 420.1 436.7 416.0 438.2 C 411.9 439.7 407.1 439.7 402.6 440.4 C 398.1 441.1 393.5 442.5 389.1 442.1 C 384.7 441.7 380.4 439.7 376.2 438.2 C 372.0 436.7 367.6 435.3 363.8 433.2 C 360.0 431.1 356.5 428.4 353.3 425.6 C 350.1 422.8 347.1 419.7 344.6 416.3 C 342.2 413.0 340.4 409.3 338.7 405.6 C 336.9 401.9 335.7 398.0 334.2 394.2 C 332.7 390.4 331.3 386.6 329.8 382.9 C 328.3 379.1 327.1 375.2 325.5 371.5 C 323.8 367.7 322.1 364.0 320.0 360.5 C 317.8 357.0 314.9 353.8 312.5 350.5 C 310.1 347.1 307.7 343.7 305.5 340.2 C 303.3 336.7 301.1 333.1 299.2 329.5 C 297.4 325.8 295.5 322.1 294.2 318.3 C 293.0 314.5 292.2 310.5 291.5 306.6 C 290.7 302.7 290.1 298.7 289.8 294.7 C 289.6 290.7 289.6 286.7 289.9 282.7 C 290.1 278.7 290.5 274.7 291.3 270.8 C 292.0 266.8 292.9 262.8 294.4 259.1 C 295.9 255.4 298.0 251.7 300.3 248.3 C 302.5 244.8 305.1 241.4 307.9 238.4 C 310.8 235.3 314.1 232.5 317.6 229.9 C 321.0 227.3 324.7 224.7 328.6 222.8 C 332.6 221.0 337.0 219.8 341.3 218.7 C 345.6 217.5 350.2 216.4 354.6 216.0 C 359.1 215.6 363.6 215.8 368.0 216.4 C 372.4 217.0 377.0 218.2 381.2 219.6 C 385.4 220.9 389.6 222.4 393.4 224.5 C 397.2 226.6 400.7 229.4 404.0 232.2 C 407.3 234.9 410.4 237.8 413.3 240.9 C 416.1 244.1 418.7 247.4 421.0 250.8 C 423.3 254.3 425.3 257.9 427.1 261.6 C 428.9 265.2 430.2 269.1 431.5 272.9 C 432.8 276.7 434.2 280.6 435.0 284.5 C 435.8 288.4 436.2 292.4 436.4 296.4 C 436.6 300.4 436.1 304.4 436.2 308.4 C 436.4 312.4 436.7 316.4 437.3 320.3 C 437.9 324.3 438.9 328.2 440.0 332.1 C 441.0 336.0 442.3 339.8 443.7 343.6 C 445.1 347.4 447.0 351.1 448.3 354.9 C 449.7 358.8 451.0 362.6 451.7 366.5 Z" fill="none" stroke="#305f8d" stroke-width="2.5"/>
    <path d="M 433.6 353.0 C 435.1 356.8 436.9 360.5 438.0 364.3 C 439.1 368.1 439.7 372.1 440.3 376.0 C 440.9 379.9 442.0 383.9 441.6 387.8 C 441.3 391.7 439.6 395.5 438.3 399.3 C 437.0 403.1 435.8 407.0 433.8 410.5 C 431.7 414.0 429.0 417.3 425.8 420.1 C 422.7 422.9 419.0 425.6 415.0 427.1 C 410.9 428.6 406.1 428.5 401.6 429.1 C 397.2 429.8 392.5 431.4 388.2 430.8 C 384.0 430.2 380.0 427.4 376.1 425.5 C 372.2 423.5 367.9 421.7 364.6 419.2 C 361.2 416.7 358.1 413.6 355.8 410.3 C 353.5 406.9 352.4 402.9 350.8 399.2 C 349.2 395.5 347.6 391.8 346.2 388.0 C 344.8 384.3 343.8 380.4 342.4 376.6 C 340.9 372.9 339.7 368.9 337.6 365.5 C 335.6 362.0 332.5 359.0 329.9 355.8 C 327.3 352.6 324.6 349.4 322.1 346.1 C 319.6 342.8 317.2 339.4 315.0 336.0 C 312.7 332.5 310.6 329.0 308.6 325.5 C 306.7 321.9 304.4 318.4 303.1 314.6 C 301.8 310.9 301.4 306.8 300.7 302.9 C 300.0 299.0 298.7 295.1 298.6 291.1 C 298.5 287.2 299.4 283.2 299.9 279.3 C 300.5 275.4 300.7 271.3 301.9 267.5 C 303.2 263.8 305.1 260.1 307.3 256.7 C 309.5 253.2 312.1 249.9 314.9 246.8 C 317.7 243.7 320.7 240.6 324.1 238.1 C 327.4 235.5 331.2 233.1 335.2 231.5 C 339.3 229.9 344.0 229.5 348.4 228.7 C 352.8 227.9 357.3 226.3 361.7 226.5 C 366.0 226.7 370.3 228.8 374.6 230.1 C 378.9 231.3 383.5 232.1 387.4 234.0 C 391.2 235.9 394.5 238.9 397.7 241.6 C 400.9 244.4 403.7 247.6 406.4 250.7 C 409.1 253.9 411.7 257.2 413.9 260.7 C 416.0 264.1 417.6 267.9 419.2 271.6 C 420.8 275.3 422.3 279.1 423.3 282.9 C 424.3 286.8 425.0 290.7 425.3 294.6 C 425.6 298.5 425.0 302.5 425.0 306.5 C 424.9 310.5 424.9 314.4 425.1 318.4 C 425.4 322.3 425.9 326.3 426.6 330.2 C 427.2 334.1 427.8 338.0 429.0 341.8 C 430.2 345.7 432.1 349.3 433.6 353.0 Z" fill="none" stroke="#305f8d" stroke-width="2.5"/>
    <path d="M 424.5 365.9 C 425.9 369.6 426.9 373.5 427.6 377.3 C 428.4 381.2 429.5 385.1 429.2 388.9 C 428.8 392.7 427.1 396.6 425.5 400.2 C 424.0 403.9 422.7 408.2 419.8 410.8 C 417.0 413.5 412.7 415.0 408.6 416.3 C 404.6 417.6 399.7 418.6 395.5 418.6 C 391.2 418.6 386.9 418.0 383.2 416.2 C 379.6 414.5 376.4 411.1 373.6 408.1 C 370.9 405.1 368.8 401.5 366.7 398.0 C 364.5 394.6 362.1 391.2 360.6 387.5 C 359.1 383.9 358.8 379.8 357.7 376.0 C 356.6 372.2 355.9 368.2 354.0 364.7 C 352.1 361.2 349.2 358.1 346.4 355.1 C 343.6 352.1 340.1 349.5 337.1 346.6 C 334.1 343.7 331.2 340.8 328.5 337.7 C 325.8 334.5 323.2 331.3 320.9 327.9 C 318.6 324.6 316.1 321.2 314.5 317.6 C 312.8 314.0 311.9 310.1 310.9 306.3 C 309.9 302.5 308.8 298.6 308.5 294.7 C 308.1 290.8 308.3 286.9 308.8 283.0 C 309.3 279.1 310.2 275.2 311.5 271.5 C 312.7 267.7 314.3 264.0 316.4 260.6 C 318.5 257.2 321.3 253.9 324.3 251.1 C 327.3 248.2 330.6 245.2 334.4 243.4 C 338.3 241.6 343.0 241.3 347.4 240.3 C 351.7 239.4 356.2 237.5 360.5 237.7 C 364.8 238.0 368.9 240.2 373.1 241.6 C 377.2 243.1 381.6 244.4 385.3 246.5 C 389.0 248.6 392.2 251.4 395.1 254.3 C 398.1 257.2 400.7 260.5 402.9 263.8 C 405.2 267.2 406.9 270.9 408.5 274.5 C 410.2 278.1 411.9 281.9 412.8 285.7 C 413.7 289.5 414.0 293.4 414.1 297.3 C 414.2 301.2 413.6 305.1 413.4 309.0 C 413.2 313.0 413.0 316.9 412.9 320.8 C 412.7 324.8 412.2 328.8 412.5 332.6 C 412.8 336.5 413.6 340.2 414.9 343.9 C 416.1 347.6 418.1 351.2 419.7 354.9 C 421.3 358.5 423.2 362.1 424.5 365.9 Z" fill="none" stroke="#305f8d" stroke-width="2.5"/>
    <path d="M 415.5 385.5 C 415.8 388.1 410.2 391.4 406.6 393.5 C 403.0 395.6 397.7 397.9 394.0 397.9 C 390.3 397.8 386.5 395.9 384.4 393.3 C 382.4 390.6 381.9 385.7 381.7 381.9 C 381.6 378.0 383.5 373.9 383.5 370.0 C 383.6 366.1 384.1 361.8 382.2 358.7 C 380.3 355.6 375.8 353.3 372.1 351.5 C 368.3 349.7 363.3 349.9 359.6 347.9 C 355.9 345.8 353.5 341.9 350.1 339.3 C 346.7 336.7 342.4 334.9 339.0 332.4 C 335.5 329.9 332.2 327.2 329.4 324.1 C 326.6 321.0 324.0 317.6 322.3 314.0 C 320.7 310.3 320.3 306.2 319.3 302.3 C 318.4 298.4 316.8 294.5 316.8 290.6 C 316.8 286.6 318.4 282.7 319.4 278.8 C 320.5 275.0 321.2 270.8 323.2 267.3 C 325.2 263.8 328.0 260.2 331.3 257.8 C 334.7 255.4 339.3 254.3 343.5 253.0 C 347.7 251.7 352.3 250.0 356.6 249.9 C 361.0 249.8 365.2 251.0 369.3 252.3 C 373.5 253.7 377.7 255.7 381.4 257.9 C 385.1 260.1 388.8 262.6 391.5 265.6 C 394.2 268.7 395.8 272.6 397.6 276.3 C 399.4 279.9 401.5 283.7 402.3 287.5 C 403.2 291.3 402.9 295.3 402.7 299.3 C 402.5 303.2 402.0 307.2 401.3 311.2 C 400.7 315.1 400.0 319.1 398.8 322.9 C 397.6 326.7 395.3 330.3 394.1 334.1 C 392.9 337.9 391.8 341.7 391.5 345.6 C 391.2 349.5 391.3 353.7 392.1 357.5 C 393.0 361.4 394.4 365.1 396.6 368.5 C 398.8 371.9 401.9 375.0 405.0 377.9 C 408.2 380.7 415.2 382.9 415.5 385.5 Z" fill="none" stroke="#305f8d" stroke-width="2.5"/>
    <path d="M 388.3 281.2 C 390.5 284.4 392.0 288.4 392.3 292.1 C 392.7 295.8 391.1 299.8 390.5 303.6 C 389.8 307.4 390.2 311.8 388.2 315.0 C 386.3 318.2 382.2 320.7 378.7 323.0 C 375.2 325.3 371.1 327.9 367.2 328.7 C 363.3 329.5 359.2 329.0 355.4 327.8 C 351.6 326.6 348.0 323.6 344.4 321.5 C 340.7 319.3 335.9 317.9 333.5 315.0 C 331.1 312.0 330.9 307.6 329.7 303.9 C 328.6 300.1 326.5 296.4 326.4 292.6 C 326.2 288.9 327.6 285.1 328.8 281.4 C 330.0 277.8 331.1 273.4 333.8 270.7 C 336.6 268.0 341.3 266.7 345.2 265.1 C 349.2 263.6 353.7 261.4 357.8 261.4 C 361.8 261.4 365.8 263.2 369.4 265.1 C 373.0 266.9 376.2 270.0 379.3 272.6 C 382.5 275.3 386.1 277.9 388.3 281.2 Z" fill="none" stroke="#305f8d" stroke-width="2.5"/>
  </g>
  <g opacity="0.60">
    <path d="M 759.8 308.6 C 760.5 312.4 760.7 316.3 760.4 320.2 C 760.1 324.1 759.1 328.1 757.9 331.9 C 756.8 335.7 755.6 339.6 753.4 342.9 C 751.3 346.3 748.1 349.3 744.9 352.1 C 741.8 354.8 738.1 357.2 734.6 359.6 C 731.0 362.0 727.3 364.5 723.4 366.3 C 719.5 368.1 715.3 369.6 711.0 370.4 C 706.6 371.2 701.9 371.0 697.5 371.1 C 693.0 371.1 688.4 371.5 684.2 370.6 C 679.9 369.7 675.8 367.6 671.9 365.6 C 668.0 363.7 664.0 361.6 660.8 358.9 C 657.6 356.2 654.9 352.9 652.5 349.6 C 650.2 346.2 648.0 342.6 646.8 338.8 C 645.7 335.1 646.1 331.0 645.8 327.0 C 645.4 323.1 644.3 319.0 644.8 315.2 C 645.3 311.3 647.1 307.5 648.6 303.8 C 650.0 300.1 651.3 296.2 653.4 292.7 C 655.4 289.2 658.1 286.0 661.0 282.9 C 663.8 279.9 667.0 277.0 670.4 274.4 C 673.8 271.8 677.4 269.2 681.2 267.4 C 685.1 265.5 689.2 264.2 693.5 263.3 C 697.8 262.4 702.6 262.0 707.0 262.1 C 711.3 262.2 715.7 262.7 719.7 264.0 C 723.8 265.4 727.5 268.0 731.2 270.3 C 734.9 272.5 738.6 274.8 741.9 277.5 C 745.2 280.2 748.5 283.1 750.9 286.3 C 753.3 289.6 754.8 293.4 756.3 297.1 C 757.8 300.8 759.1 304.7 759.8 308.6 Z" fill="none" fill-rule="evenodd" stroke="#305f8d" stroke-width="4.3"/>
    <path d="M 759.8 313.1 C 760.1 317.0 759.0 321.0 758.2 324.9 C 757.5 328.9 757.0 333.0 755.4 336.7 C 753.8 340.4 751.5 344.0 748.8 347.1 C 746.1 350.2 742.5 352.9 739.0 355.4 C 735.5 358.0 731.6 360.1 727.8 362.3 C 723.9 364.5 720.2 367.2 716.0 368.4 C 711.7 369.6 707.0 369.2 702.5 369.5 C 697.9 369.8 693.2 370.7 688.8 370.1 C 684.4 369.5 680.1 367.8 676.1 366.1 C 672.1 364.3 668.1 362.1 664.7 359.5 C 661.2 357.0 658.0 354.0 655.4 350.8 C 652.8 347.6 650.3 344.0 649.0 340.3 C 647.6 336.5 647.7 332.4 647.3 328.4 C 646.8 324.4 645.8 320.3 646.2 316.4 C 646.6 312.5 648.2 308.7 649.6 304.9 C 651.0 301.1 652.5 297.2 654.6 293.7 C 656.7 290.2 659.3 286.8 662.1 283.7 C 664.9 280.6 668.2 277.7 671.6 275.1 C 675.0 272.4 678.7 269.8 682.7 268.0 C 686.7 266.3 691.1 265.4 695.5 264.6 C 699.9 263.9 704.7 263.1 709.1 263.4 C 713.5 263.7 717.7 264.9 721.7 266.5 C 725.7 268.0 729.6 270.5 733.3 272.9 C 736.9 275.3 740.5 277.8 743.7 280.7 C 746.8 283.5 749.9 286.7 752.0 290.1 C 754.1 293.6 755.1 297.6 756.4 301.5 C 757.7 305.3 759.5 309.2 759.8 313.1 Z" fill="none" stroke="#305f8d" stroke-width="2.5"/>
    <path d="M 750.8 308.4 C 751.7 312.2 752.1 316.1 751.7 320.0 C 751.3 323.9 749.8 327.9 748.3 331.7 C 746.9 335.4 745.3 339.3 742.8 342.5 C 740.3 345.7 736.7 348.5 733.2 351.0 C 729.7 353.6 726.0 356.2 722.0 357.9 C 718.0 359.6 713.6 360.8 709.2 361.4 C 704.8 362.1 700.0 362.0 695.5 361.7 C 691.0 361.4 686.4 361.2 682.3 359.8 C 678.2 358.4 674.3 355.9 670.8 353.3 C 667.4 350.8 663.9 347.8 661.6 344.5 C 659.3 341.2 658.0 337.2 657.0 333.4 C 656.0 329.6 655.5 325.4 655.5 321.4 C 655.4 317.5 655.7 313.6 656.9 309.8 C 658.0 306.0 660.2 302.3 662.2 298.7 C 664.2 295.1 666.3 291.5 669.0 288.3 C 671.8 285.1 675.0 282.1 678.6 279.7 C 682.1 277.3 686.0 275.1 690.2 273.8 C 694.4 272.6 699.4 272.5 703.8 272.3 C 708.3 272.1 713.0 271.3 717.1 272.5 C 721.2 273.6 725.0 276.6 728.6 279.0 C 732.2 281.4 735.9 284.0 738.8 287.0 C 741.6 290.0 743.9 293.6 745.9 297.1 C 747.9 300.7 749.8 304.6 750.8 308.4 Z" fill="none" stroke="#305f8d" stroke-width="2.5"/>
    <path d="M 741.7 306.3 C 743.3 310.0 744.7 313.9 744.6 317.8 C 744.4 321.7 742.2 325.7 740.6 329.5 C 739.0 333.3 737.7 337.3 735.1 340.6 C 732.5 343.8 728.7 346.6 725.0 349.0 C 721.3 351.3 717.3 353.8 713.0 354.7 C 708.7 355.7 703.7 354.8 699.1 354.6 C 694.5 354.3 689.6 354.8 685.5 353.4 C 681.4 352.0 677.4 349.1 674.3 346.2 C 671.2 343.3 668.5 339.8 666.9 336.2 C 665.3 332.5 665.0 328.1 664.6 324.1 C 664.1 320.1 663.4 316.0 664.3 312.2 C 665.3 308.4 668.1 304.7 670.2 301.1 C 672.4 297.5 674.4 293.7 677.3 290.6 C 680.2 287.5 683.7 284.2 687.7 282.6 C 691.7 280.9 696.8 281.1 701.4 280.5 C 706.0 280.0 710.9 278.2 715.1 279.1 C 719.2 280.0 723.0 283.5 726.3 286.2 C 729.7 288.9 732.7 292.1 735.2 295.5 C 737.8 298.8 740.1 302.6 741.7 306.3 Z" fill="none" stroke="#305f8d" stroke-width="2.5"/>
    <path d="M 732.6 306.4 C 734.5 309.9 736.7 313.4 736.6 317.1 C 736.5 320.7 733.8 324.5 732.2 328.1 C 730.7 331.8 729.8 335.9 727.3 339.0 C 724.8 342.1 721.1 345.2 717.2 346.7 C 713.4 348.1 708.8 347.7 704.4 347.8 C 700.0 347.8 695.1 348.2 691.0 347.1 C 687.0 346.0 682.8 344.0 680.1 341.3 C 677.4 338.6 676.3 334.5 675.0 330.9 C 673.6 327.2 672.2 323.1 672.2 319.4 C 672.1 315.7 673.2 312.0 674.8 308.5 C 676.4 305.0 678.9 301.4 681.6 298.5 C 684.3 295.5 687.2 292.5 690.9 290.8 C 694.7 289.1 699.7 288.8 704.0 288.4 C 708.3 287.9 713.0 286.6 716.6 288.0 C 720.3 289.3 723.1 293.3 725.7 296.4 C 728.4 299.5 730.8 303.0 732.6 306.4 Z" fill="none" stroke="#305f8d" stroke-width="2.5"/>
    <path d="M 723.6 306.6 C 725.7 309.8 728.2 313.2 728.2 316.7 C 728.2 320.2 725.3 324.0 723.6 327.5 C 721.9 331.1 721.0 335.9 718.1 338.0 C 715.3 340.2 710.6 340.2 706.5 340.4 C 702.4 340.5 697.0 340.5 693.4 339.1 C 689.9 337.8 687.1 335.2 685.1 332.2 C 683.1 329.2 681.7 324.8 681.3 321.2 C 680.8 317.6 680.7 313.7 682.3 310.6 C 684.0 307.5 687.5 304.6 691.1 302.7 C 694.6 300.8 699.5 300.1 703.6 299.2 C 707.7 298.3 712.3 296.2 715.6 297.4 C 718.9 298.6 721.5 303.3 723.6 306.6 Z" fill="none" stroke="#305f8d" stroke-width="2.5"/>
  </g>
  <g opacity="0.60">
    <path d="M 596.7 366.5 C 598.2 370.3 599.8 374.1 600.9 378.0 C 602.0 381.8 603.0 385.7 603.2 389.7 C 603.5 393.7 602.8 397.7 602.5 401.7 C 602.2 405.7 602.0 409.7 601.3 413.7 C 600.7 417.7 599.7 421.6 598.7 425.5 C 597.6 429.4 596.6 433.4 595.0 437.1 C 593.4 440.8 591.4 444.5 589.0 447.9 C 586.5 451.2 583.6 454.4 580.4 457.2 C 577.2 460.1 573.5 462.6 569.7 464.8 C 565.9 466.9 561.8 469.0 557.5 470.2 C 553.3 471.5 548.7 472.1 544.2 472.5 C 539.7 472.9 535.0 473.2 530.5 472.8 C 526.1 472.5 521.6 471.9 517.4 470.5 C 513.2 469.2 509.2 466.9 505.3 464.8 C 501.4 462.7 497.6 460.4 494.0 458.0 C 490.3 455.7 486.4 453.4 483.3 450.6 C 480.1 447.7 477.3 444.4 475.2 440.9 C 473.2 437.4 472.1 433.4 470.7 429.6 C 469.3 425.7 467.7 421.9 467.0 418.0 C 466.3 414.1 465.9 410.1 466.4 406.2 C 466.9 402.3 468.8 398.4 470.0 394.6 C 471.2 390.7 472.1 386.7 473.6 383.0 C 475.0 379.2 476.8 375.5 479.0 371.9 C 481.1 368.4 483.6 364.9 486.3 361.7 C 489.0 358.5 492.1 355.5 495.4 352.7 C 498.7 350.0 502.4 347.6 506.1 345.2 C 509.7 342.8 513.6 340.6 517.4 338.5 C 521.3 336.3 525.1 334.2 529.2 332.4 C 533.2 330.6 537.5 329.0 541.7 327.6 C 545.9 326.1 550.0 323.9 554.2 324.0 C 558.4 324.1 563.0 326.4 567.1 328.0 C 571.2 329.7 575.7 331.4 578.9 334.1 C 582.0 336.8 583.9 340.8 586.1 344.3 C 588.3 347.8 590.1 351.5 591.9 355.2 C 593.7 358.9 595.2 362.7 596.7 366.5 Z" fill="none" fill-rule="evenodd" stroke="#61000f" stroke-width="4.3"/>
    <path d="M 596.7 370.2 C 598.2 373.9 599.8 377.7 600.6 381.5 C 601.5 385.3 601.7 389.2 601.8 393.1 C 601.9 397.0 601.6 401.0 601.2 404.9 C 600.9 408.8 600.4 412.7 599.7 416.6 C 598.9 420.5 598.0 424.3 596.8 428.1 C 595.6 431.9 594.5 435.7 592.7 439.3 C 590.9 442.9 588.8 446.5 586.2 449.6 C 583.6 452.8 580.5 455.7 577.1 458.3 C 573.8 460.9 570.1 463.2 566.2 465.2 C 562.4 467.2 558.3 469.2 554.1 470.2 C 549.9 471.3 545.3 471.2 540.9 471.5 C 536.4 471.8 531.8 472.4 527.4 471.9 C 523.1 471.3 518.9 470.0 514.8 468.4 C 510.8 466.8 507.0 464.5 503.2 462.4 C 499.5 460.3 495.7 458.2 492.1 455.8 C 488.6 453.4 485.0 450.9 482.1 448.0 C 479.3 445.0 476.8 441.6 474.9 438.1 C 473.1 434.6 472.2 430.7 471.0 426.9 C 469.8 423.1 468.2 419.3 467.7 415.4 C 467.3 411.6 467.8 407.8 468.4 404.0 C 469.1 400.1 470.4 396.3 471.6 392.5 C 472.7 388.7 473.9 384.9 475.5 381.2 C 477.1 377.6 478.9 374.0 481.2 370.6 C 483.4 367.2 486.0 363.9 488.8 360.8 C 491.6 357.8 494.7 354.9 498.0 352.3 C 501.4 349.7 505.1 347.4 508.7 345.1 C 512.3 342.8 516.1 340.6 519.9 338.6 C 523.8 336.6 527.8 335.0 531.8 333.3 C 535.8 331.6 540.0 329.7 544.1 328.6 C 548.2 327.5 552.4 326.4 556.5 326.8 C 560.6 327.3 565.0 329.5 568.8 331.4 C 572.7 333.3 576.6 335.5 579.6 338.3 C 582.6 341.1 584.6 344.9 586.6 348.3 C 588.7 351.8 590.3 355.5 592.0 359.2 C 593.6 362.8 595.3 366.5 596.7 370.2 Z" fill="none" stroke="#61000f" stroke-width="2.5"/>
    <path d="M 587.7 381.5 C 589.0 385.3 589.5 389.3 589.9 393.3 C 590.4 397.3 590.5 401.4 590.3 405.4 C 590.0 409.4 589.5 413.4 588.6 417.3 C 587.7 421.3 586.4 425.2 584.8 429.0 C 583.2 432.7 581.6 436.5 579.2 439.9 C 576.8 443.3 573.8 446.5 570.5 449.3 C 567.3 452.1 563.5 454.7 559.6 456.6 C 555.7 458.6 551.3 460.0 546.9 460.8 C 542.5 461.7 537.7 461.8 533.2 461.7 C 528.7 461.7 524.2 461.6 519.9 460.4 C 515.7 459.3 511.6 456.9 507.7 454.9 C 503.7 452.8 499.6 450.8 496.1 448.3 C 492.6 445.7 489.2 442.9 486.7 439.6 C 484.1 436.3 482.6 432.4 481.1 428.6 C 479.6 424.9 478.3 420.8 477.8 416.9 C 477.3 413.0 477.4 409.0 478.0 405.0 C 478.6 401.1 480.1 397.1 481.5 393.3 C 482.9 389.5 484.3 385.6 486.4 382.1 C 488.5 378.5 491.1 375.1 494.0 372.0 C 496.9 368.9 500.4 366.3 503.8 363.6 C 507.3 360.9 510.8 358.3 514.5 356.0 C 518.3 353.7 522.0 351.2 526.2 349.8 C 530.4 348.4 535.3 348.1 539.7 347.4 C 544.2 346.6 548.8 344.7 553.0 345.5 C 557.1 346.3 560.9 349.6 564.5 352.1 C 568.0 354.6 571.4 357.5 574.3 360.5 C 577.2 363.6 579.8 367.0 582.0 370.5 C 584.2 374.0 586.3 377.7 587.7 381.5 Z" fill="none" stroke="#61000f" stroke-width="2.5"/>
    <path d="M 578.6 398.4 C 579.1 402.4 580.3 406.4 579.9 410.3 C 579.5 414.2 577.6 418.0 576.3 421.8 C 575.0 425.6 573.9 429.6 571.9 433.1 C 569.8 436.6 567.1 440.0 564.1 442.8 C 561.0 445.7 557.3 448.5 553.4 450.2 C 549.4 451.8 544.7 452.0 540.2 452.6 C 535.8 453.2 531.0 454.5 526.7 454.0 C 522.4 453.6 518.2 451.7 514.2 450.0 C 510.3 448.2 506.4 445.9 502.9 443.4 C 499.4 440.9 495.8 438.1 493.5 434.8 C 491.2 431.5 490.4 427.4 489.1 423.6 C 487.8 419.8 485.9 415.8 485.9 412.0 C 485.9 408.1 487.6 404.3 488.9 400.5 C 490.2 396.7 491.6 392.8 493.6 389.3 C 495.7 385.8 498.4 382.6 501.4 379.7 C 504.3 376.7 507.9 374.1 511.4 371.6 C 514.9 369.0 518.3 366.0 522.4 364.6 C 526.4 363.1 531.1 363.3 535.6 362.9 C 540.0 362.4 545.0 361.2 549.1 361.9 C 553.3 362.7 557.1 365.2 560.5 367.6 C 563.9 370.1 566.9 373.3 569.7 376.5 C 572.4 379.6 575.3 382.9 576.8 386.6 C 578.3 390.3 578.1 394.5 578.6 398.4 Z" fill="none" stroke="#61000f" stroke-width="2.5"/>
    <path d="M 569.5 408.9 C 569.5 412.8 567.8 416.6 566.5 420.4 C 565.1 424.2 563.8 428.2 561.5 431.6 C 559.3 435.0 556.6 438.7 553.1 440.8 C 549.5 442.9 544.7 443.4 540.4 444.4 C 536.0 445.3 531.2 446.9 527.0 446.5 C 522.7 446.2 518.4 444.3 514.7 442.3 C 511.0 440.2 507.2 437.4 504.6 434.2 C 502.0 431.1 500.8 427.0 499.3 423.2 C 497.7 419.5 495.2 415.6 495.3 411.8 C 495.3 408.1 497.7 404.3 499.6 400.7 C 501.4 397.2 503.6 393.5 506.2 390.3 C 508.8 387.1 511.8 383.8 515.1 381.3 C 518.5 378.8 522.2 376.1 526.3 375.2 C 530.5 374.2 535.5 375.2 540.0 375.5 C 544.4 375.8 549.3 375.4 553.0 377.1 C 556.8 378.8 560.1 382.5 562.3 385.9 C 564.5 389.2 565.3 393.4 566.5 397.2 C 567.7 401.1 569.5 405.0 569.5 408.9 Z" fill="none" stroke="#61000f" stroke-width="2.5"/>
    <path d="M 551.4 391.9 C 554.5 394.1 555.6 399.0 556.8 402.6 C 558.0 406.3 559.1 410.1 558.6 413.8 C 558.0 417.4 556.0 421.5 553.7 424.7 C 551.4 427.9 548.4 430.9 544.9 432.9 C 541.3 435.0 536.5 436.4 532.4 437.0 C 528.3 437.6 523.6 438.1 520.3 436.4 C 517.1 434.7 515.1 430.3 513.1 426.9 C 511.1 423.5 508.7 419.6 508.1 416.0 C 507.5 412.4 508.1 408.7 509.5 405.2 C 510.9 401.8 513.9 398.3 516.5 395.3 C 519.2 392.3 521.6 388.1 525.3 387.0 C 528.9 386.0 534.1 388.3 538.4 389.1 C 542.8 389.9 548.4 389.6 551.4 391.9 Z" fill="none" stroke="#61000f" stroke-width="2.5"/>
  </g>
  <g opacity="0.60">
    <path d="M 261.4 397.3 C 261.9 401.2 262.9 405.1 263.0 409.1 C 263.1 413.0 262.5 416.9 261.9 420.8 C 261.3 424.7 261.0 428.7 259.7 432.4 C 258.3 436.1 256.3 439.7 253.8 442.9 C 251.3 446.1 248.0 448.9 244.8 451.7 C 241.6 454.4 238.3 457.2 234.7 459.5 C 231.1 461.7 227.2 463.8 223.0 465.1 C 218.9 466.3 214.2 466.5 209.8 467.0 C 205.4 467.5 200.8 468.7 196.6 468.0 C 192.3 467.4 188.3 465.0 184.3 463.2 C 180.4 461.3 176.3 459.5 172.9 457.0 C 169.5 454.6 166.5 451.5 163.9 448.3 C 161.3 445.2 159.1 441.7 157.1 438.2 C 155.1 434.7 153.7 430.9 152.2 427.2 C 150.6 423.6 148.7 419.9 147.8 416.1 C 146.9 412.3 146.7 408.4 146.9 404.5 C 147.0 400.6 147.7 396.6 148.6 392.8 C 149.5 389.0 150.8 385.2 152.3 381.6 C 153.9 377.9 156.1 374.4 157.8 370.8 C 159.4 367.1 161.2 363.5 162.1 359.7 C 163.1 355.9 163.1 351.9 163.5 348.0 C 163.8 344.1 164.2 340.1 164.4 336.2 C 164.5 332.3 164.3 328.3 164.4 324.4 C 164.5 320.5 164.2 316.5 164.9 312.7 C 165.6 308.8 167.1 305.0 168.5 301.3 C 169.9 297.6 171.2 293.7 173.4 290.3 C 175.5 286.9 178.4 283.8 181.4 280.9 C 184.4 278.1 187.8 275.3 191.4 273.1 C 195.0 270.8 198.9 269.0 203.0 267.6 C 207.2 266.3 211.8 265.5 216.1 264.9 C 220.5 264.3 224.9 263.6 229.2 264.0 C 233.6 264.5 237.9 266.1 242.0 267.6 C 246.1 269.0 250.5 270.5 253.9 272.8 C 257.4 275.2 260.4 278.4 262.8 281.7 C 265.1 285.0 266.5 288.8 267.8 292.6 C 269.0 296.3 269.6 300.3 270.2 304.2 C 270.9 308.0 271.5 312.0 271.4 315.9 C 271.4 319.8 270.4 323.7 269.8 327.6 C 269.2 331.5 268.7 335.4 267.9 339.3 C 267.0 343.1 265.9 346.9 264.7 350.7 C 263.6 354.5 261.6 358.2 260.9 362.1 C 260.2 365.9 260.5 369.9 260.3 373.8 C 260.2 377.7 259.8 381.7 260.0 385.6 C 260.2 389.5 260.9 393.4 261.4 397.3 Z" fill="none" fill-rule="evenodd" stroke="#61000f" stroke-width="4.3"/>
    <path d="M 261.4 409.7 C 261.5 413.7 260.7 417.6 260.1 421.5 C 259.4 425.4 259.2 429.5 257.7 433.2 C 256.3 436.9 253.9 440.3 251.2 443.5 C 248.6 446.6 245.3 449.4 242.0 452.1 C 238.7 454.8 235.3 457.6 231.6 459.6 C 227.8 461.6 223.6 463.0 219.3 464.1 C 215.1 465.2 210.4 465.8 206.0 466.0 C 201.6 466.2 197.2 466.3 193.0 465.3 C 188.8 464.3 184.8 461.9 181.0 459.8 C 177.2 457.8 173.3 455.6 170.2 452.8 C 167.0 450.1 164.3 446.8 161.9 443.4 C 159.6 440.1 157.8 436.4 156.1 432.8 C 154.3 429.1 152.9 425.3 151.6 421.6 C 150.2 417.8 148.3 414.0 147.9 410.2 C 147.6 406.3 149.0 402.3 149.6 398.4 C 150.3 394.5 150.6 390.5 151.8 386.7 C 153.1 382.9 155.5 379.5 157.3 375.8 C 159.1 372.2 161.4 368.7 162.7 365.0 C 164.0 361.2 164.3 357.3 164.9 353.4 C 165.4 349.5 165.7 345.5 166.0 341.6 C 166.2 337.6 166.2 333.7 166.2 329.7 C 166.3 325.8 165.8 321.8 166.1 317.8 C 166.5 313.9 167.3 310.0 168.5 306.2 C 169.6 302.4 171.2 298.6 173.1 295.1 C 175.0 291.5 177.1 288.0 179.7 284.8 C 182.4 281.7 185.8 278.9 189.2 276.4 C 192.6 273.9 196.3 271.5 200.3 269.9 C 204.4 268.4 209.1 268.0 213.5 267.2 C 217.8 266.4 222.3 264.9 226.6 265.1 C 231.0 265.4 235.3 267.2 239.5 268.6 C 243.7 269.9 248.3 271.1 251.9 273.3 C 255.5 275.6 258.7 278.7 261.1 281.9 C 263.5 285.2 265.0 289.1 266.3 292.8 C 267.6 296.6 268.3 300.6 268.9 304.5 C 269.6 308.4 270.2 312.3 270.1 316.2 C 270.0 320.2 269.0 324.1 268.4 328.0 C 267.7 331.9 267.2 335.9 266.3 339.7 C 265.4 343.6 264.2 347.4 263.0 351.2 C 261.7 355.0 259.5 358.6 258.8 362.5 C 258.0 366.3 258.5 370.4 258.4 374.3 C 258.2 378.3 257.8 382.3 258.0 386.2 C 258.2 390.1 259.1 394.0 259.7 398.0 C 260.3 401.9 261.4 405.8 261.4 409.7 Z" fill="none" stroke="#61000f" stroke-width="2.5"/>
    <path d="M 252.4 398.5 C 253.2 402.4 254.5 406.3 254.5 410.2 C 254.6 414.1 253.6 418.0 252.9 421.9 C 252.2 425.8 252.0 429.9 250.4 433.6 C 248.8 437.2 246.2 440.6 243.4 443.6 C 240.6 446.6 237.2 449.5 233.6 451.8 C 230.1 454.1 226.2 456.1 222.0 457.4 C 217.9 458.7 213.1 459.0 208.8 459.5 C 204.4 459.9 199.8 461.0 195.7 460.1 C 191.6 459.2 187.8 456.2 184.1 454.0 C 180.5 451.8 176.6 449.5 173.6 446.7 C 170.5 443.9 167.8 440.7 165.6 437.3 C 163.5 433.9 162.1 430.0 160.6 426.3 C 159.1 422.6 157.2 418.9 156.6 415.0 C 155.9 411.2 156.2 407.3 156.6 403.4 C 157.0 399.5 157.9 395.6 159.0 391.8 C 160.2 388.0 161.7 384.3 163.4 380.6 C 165.1 377.0 167.3 373.5 169.0 369.9 C 170.6 366.2 172.5 362.7 173.3 358.9 C 174.1 355.1 173.7 351.0 173.8 347.1 C 173.8 343.1 173.9 339.2 173.9 335.2 C 173.8 331.3 173.5 327.3 173.5 323.4 C 173.6 319.5 173.4 315.5 174.3 311.7 C 175.1 307.8 176.9 304.1 178.6 300.5 C 180.3 296.8 181.9 293.1 184.4 289.8 C 186.9 286.6 189.9 283.3 193.3 281.0 C 196.8 278.7 200.9 277.1 205.1 275.8 C 209.2 274.4 213.8 273.3 218.1 272.8 C 222.5 272.3 226.9 272.1 231.2 272.9 C 235.4 273.6 239.7 275.6 243.6 277.5 C 247.4 279.4 251.6 281.3 254.4 284.2 C 257.2 287.1 259.0 291.0 260.6 294.6 C 262.1 298.3 263.1 302.3 263.8 306.1 C 264.4 310.0 264.7 314.0 264.5 317.9 C 264.3 321.8 263.3 325.7 262.5 329.6 C 261.7 333.5 260.9 337.4 259.7 341.2 C 258.5 345.0 256.9 348.7 255.3 352.4 C 253.7 356.0 250.9 359.4 250.0 363.2 C 249.1 367.0 249.9 371.1 249.9 375.0 C 249.8 379.0 249.4 383.0 249.8 386.9 C 250.2 390.8 251.6 394.6 252.4 398.5 Z" fill="none" stroke="#61000f" stroke-width="2.5"/>
    <path d="M 243.3 395.6 C 244.3 399.4 246.0 403.2 246.5 407.1 C 247.0 411.0 246.8 414.9 246.3 418.8 C 245.9 422.7 245.2 426.8 243.8 430.5 C 242.4 434.2 240.6 437.9 238.0 441.0 C 235.4 444.0 231.8 447.0 228.0 448.9 C 224.3 450.7 219.7 451.3 215.4 452.2 C 211.0 453.1 206.3 454.6 202.1 454.3 C 197.9 454.0 193.9 452.3 190.1 450.5 C 186.3 448.7 182.6 446.0 179.4 443.2 C 176.2 440.5 173.1 437.5 170.9 434.1 C 168.8 430.7 167.9 426.6 166.6 422.8 C 165.3 419.1 163.2 415.2 163.0 411.4 C 162.8 407.6 164.4 403.7 165.4 399.8 C 166.3 396.0 167.2 392.0 168.8 388.3 C 170.4 384.7 172.8 381.4 175.0 377.9 C 177.1 374.4 180.2 371.2 181.6 367.6 C 183.1 364.0 183.6 360.2 183.8 356.4 C 183.9 352.6 182.9 348.6 182.5 344.6 C 182.2 340.7 181.9 336.7 181.6 332.8 C 181.3 328.8 180.7 324.9 180.8 320.9 C 180.9 317.0 181.2 313.1 182.3 309.3 C 183.4 305.6 185.4 301.9 187.5 298.4 C 189.5 294.9 191.4 291.0 194.5 288.3 C 197.5 285.7 201.7 284.0 205.7 282.5 C 209.7 281.0 214.4 279.7 218.7 279.3 C 223.0 278.8 227.5 278.7 231.6 279.7 C 235.7 280.7 239.9 283.0 243.4 285.3 C 246.9 287.7 250.5 290.3 252.8 293.6 C 255.1 296.8 256.1 301.0 257.2 304.8 C 258.2 308.6 259.2 312.5 259.1 316.4 C 259.0 320.3 257.4 324.2 256.5 328.1 C 255.6 331.9 255.0 335.9 253.5 339.6 C 252.0 343.3 249.7 346.8 247.7 350.3 C 245.6 353.8 242.3 357.0 241.0 360.6 C 239.8 364.3 240.2 368.2 240.1 372.1 C 240.0 376.0 240.0 380.1 240.6 384.0 C 241.1 387.9 242.3 391.7 243.3 395.6 Z" fill="none" stroke="#61000f" stroke-width="2.5"/>
    <path d="M 234.3 393.7 C 235.5 397.5 237.3 401.2 238.2 405.1 C 239.0 408.9 239.5 412.8 239.2 416.7 C 239.0 420.5 238.2 424.6 237.0 428.3 C 235.7 432.0 234.4 436.0 231.7 438.8 C 229.1 441.7 225.0 443.8 221.0 445.1 C 217.0 446.5 212.1 446.8 207.7 447.1 C 203.4 447.4 198.9 448.1 195.1 446.7 C 191.3 445.4 187.8 442.0 185.0 439.0 C 182.1 436.1 180.1 432.6 178.1 429.1 C 176.0 425.6 173.9 421.9 172.9 418.2 C 171.9 414.5 171.2 410.5 171.9 406.8 C 172.6 403.1 175.1 399.4 176.9 395.8 C 178.8 392.2 180.9 388.8 183.0 385.3 C 185.1 381.8 187.4 378.4 189.5 374.9 C 191.5 371.4 194.6 367.9 195.2 364.2 C 195.8 360.6 193.9 356.7 193.2 352.9 C 192.4 349.1 191.3 345.2 190.6 341.3 C 189.9 337.4 189.5 333.5 189.0 329.6 C 188.6 325.6 187.6 321.6 187.9 317.8 C 188.2 313.9 189.3 310.1 190.8 306.4 C 192.3 302.8 194.1 298.7 197.0 295.9 C 199.9 293.1 204.1 291.4 208.1 289.7 C 212.0 288.0 216.5 286.1 220.7 285.7 C 224.9 285.4 229.4 286.0 233.1 287.7 C 236.7 289.4 239.9 292.7 242.8 295.7 C 245.6 298.7 248.4 302.1 250.0 305.6 C 251.7 309.2 252.9 313.1 252.7 316.9 C 252.6 320.7 250.3 324.5 249.0 328.3 C 247.7 332.0 246.5 335.9 244.8 339.5 C 243.0 343.1 240.6 346.4 238.2 349.8 C 235.9 353.2 232.3 356.2 230.8 359.7 C 229.4 363.1 229.4 366.9 229.4 370.7 C 229.4 374.5 229.9 378.6 230.7 382.4 C 231.5 386.3 233.0 390.0 234.3 393.7 Z" fill="none" stroke="#61000f" stroke-width="2.5"/>
    <path d="M 225.2 395.3 C 228.0 398.0 229.2 402.4 230.2 406.0 C 231.3 409.7 231.7 413.6 231.5 417.3 C 231.2 421.1 230.4 425.4 228.8 428.7 C 227.3 432.0 225.3 435.4 222.1 437.3 C 218.8 439.2 213.4 439.3 209.2 439.9 C 205.0 440.6 200.2 442.4 196.8 441.1 C 193.4 439.8 190.9 435.4 188.8 432.0 C 186.8 428.7 185.6 424.8 184.4 421.1 C 183.2 417.4 181.1 413.5 181.6 409.9 C 182.1 406.3 185.2 402.8 187.2 399.4 C 189.3 395.9 191.4 391.8 193.8 389.3 C 196.2 386.8 198.5 384.4 201.8 384.5 C 205.1 384.6 209.6 388.1 213.5 389.9 C 217.4 391.7 222.4 392.6 225.2 395.3 Z" fill="none" stroke="#61000f" stroke-width="2.5"/>
    <path d="M 243.3 312.6 C 244.0 316.3 242.1 320.3 241.1 324.2 C 240.0 328.1 238.9 332.1 237.1 335.8 C 235.2 339.5 233.1 343.8 230.2 346.2 C 227.4 348.7 223.8 350.7 220.0 350.5 C 216.2 350.4 211.1 347.7 207.4 345.5 C 203.7 343.2 199.8 340.4 197.9 337.0 C 196.0 333.6 196.5 329.0 196.1 325.0 C 195.7 321.0 194.3 316.6 195.5 313.0 C 196.7 309.5 200.0 306.4 203.2 303.8 C 206.5 301.1 211.1 299.1 215.0 297.4 C 219.0 295.7 223.3 292.9 226.9 293.6 C 230.5 294.4 234.0 298.9 236.7 302.0 C 239.5 305.2 242.6 308.9 243.3 312.6 Z" fill="none" stroke="#61000f" stroke-width="2.5"/>
  </g>
</svg>