<svg xmlns="http://www.w3.org/2000/svg" xmlns:xlink="http://www.w3.org/1999/xlink" viewBox="0 0 800 729" width="800" height="729">
  <rect width="100%" height="100%" fill="#ffffff"/>
  <line x1="532.1" y1="475.3" x2="429.5" y2="463.3" stroke="#050505" stroke-width="6.2" stroke-linecap="round"/>
  <line x1="575.6" y1="455.2" x2="633.4" y2="367.3" stroke="#040404" stroke-width="6.2" stroke-linecap="round"/>
  <line x1="571.7" y1="503.9" x2="616.4" y2="601.9" stroke="#030303" stroke-width="6.2" stroke-linecap="round"/>
  <text x="560.2" y="478.6" font-family="Helvetica,Arial,sans-serif" font-size="36.9px" font-weight="bold" text-anchor="middle" dominant-baseline="central" fill="#3b5af8">N</text>
  <line x1="532.1" y1="475.3" x2="429.5" y2="463.3" stroke="#050505" stroke-width="6.2" stroke-linecap="round"/>
  <line x1="575.6" y1="455.2" x2="633.4" y2="367.3" stroke="#040404" stroke-width="6.2" stroke-linecap="round"/>
  <line x1="571.7" y1="503.9" x2="616.4" y2="601.9" stroke="#030303" stroke-width="6.2" stroke-linecap="round"/>
  <line x1="547.7" y1="242.2" x2="442.3" y2="229.3" stroke="#020202" stroke-width="6.2" stroke-linecap="round"/>
  <line x1="587.8" y1="271.2" x2="633.4" y2="367.3" stroke="#020202" stroke-width="6.2" stroke-linecap="round"/>
  <line x1="592.6" y1="222.9" x2="657.9" y2="134.7" stroke="#020202" stroke-width="6.2" stroke-linecap="round"/>
  <text x="575.7" y="245.6" font-family="Helvetica,Arial,sans-serif" font-size="36.9px" font-weight="bold" text-anchor="middle" dominant-baseline="central" fill="#3655f8">N</text>
  <line x1="547.7" y1="242.2" x2="442.3" y2="229.3" stroke="#020202" stroke-width="6.2" stroke-linecap="round"/>
  <line x1="587.8" y1="271.2" x2="633.4" y2="367.3" stroke="#020202" stroke-width="6.2" stroke-linecap="round"/>
  <line x1="592.6" y1="222.9" x2="657.9" y2="134.7" stroke="#020202" stroke-width="6.2" stroke-linecap="round"/>
  <line x1="429.5" y1="463.3" x2="358.2" y2="535.7" stroke="#030303" stroke-width="6.2" stroke-linecap="round"/>
  <line x1="409.8" y1="465.6" x2="360.2" y2="515.9" stroke="#030303" stroke-width="6.2" stroke-linecap="round" stroke-dasharray="6.2,12.4"/>
  <line x1="429.5" y1="463.3" x2="372.6" y2="345.7" stroke="#020202" stroke-width="6.2" stroke-linecap="round"/>
  <line x1="411.6" y1="454.8" x2="368.2" y2="365.0" stroke="#020202" stroke-width="6.2" stroke-linecap="round" stroke-dasharray="6.2,12.4"/>
  <line x1="429.5" y1="463.3" x2="358.2" y2="535.7" stroke="#030303" stroke-width="6.2" stroke-linecap="round"/>
  <line x1="409.8" y1="465.6" x2="360.2" y2="515.9" stroke="#030303" stroke-width="6.2" stroke-linecap="round" stroke-dasharray="6.2,12.4"/>
  <line x1="429.5" y1="463.3" x2="372.6" y2="345.7" stroke="#020202" stroke-width="6.2" stroke-linecap="round"/>
  <line x1="411.6" y1="454.8" x2="368.2" y2="365.0" stroke="#020202" stroke-width="6.2" stroke-linecap="round" stroke-dasharray="6.2,12.4"/>
  <line x1="313.1" y1="542.9" x2="225.5" y2="497.9" stroke="#020202" stroke-width="6.2" stroke-linecap="round"/>
  <line x1="305.0" y1="524.8" x2="245.0" y2="494.0" stroke="#020202" stroke-width="6.2" stroke-linecap="round" stroke-dasharray="6.2,12.4"/>
  <text x="338.3" y="555.8" font-family="Helvetica,Arial,sans-serif" font-size="36.9px" font-weight="bold" text-anchor="middle" dominant-baseline="central" fill="#3454f8">N</text>
  <line x1="313.1" y1="542.9" x2="225.5" y2="497.9" stroke="#020202" stroke-width="6.2" stroke-linecap="round"/>
  <line x1="305.0" y1="524.8" x2="245.0" y2="494.0" stroke="#020202" stroke-width="6.2" stroke-linecap="round" stroke-dasharray="6.2,12.4"/>
  <line x1="372.6" y1="345.7" x2="442.3" y2="229.3" stroke="#010101" stroke-width="6.2" stroke-linecap="round"/>
  <line x1="372.6" y1="345.7" x2="270.9" y2="364.4" stroke="#010101" stroke-width="6.2" stroke-linecap="round"/>
  <line x1="359.6" y1="360.7" x2="288.4" y2="373.8" stroke="#010101" stroke-width="6.2" stroke-linecap="round" stroke-dasharray="6.2,12.4"/>
  <line x1="372.6" y1="345.7" x2="442.3" y2="229.3" stroke="#010101" stroke-width="6.2" stroke-linecap="round"/>
  <line x1="372.6" y1="345.7" x2="270.9" y2="364.4" stroke="#010101" stroke-width="6.2" stroke-linecap="round"/>
  <line x1="359.6" y1="360.7" x2="288.4" y2="373.8" stroke="#010101" stroke-width="6.2" stroke-linecap="round" stroke-dasharray="6.2,12.4"/>
  <line x1="225.5" y1="497.9" x2="239.2" y2="397.6" stroke="#010101" stroke-width="6.2" stroke-linecap="round"/>
  <line x1="239.9" y1="484.2" x2="249.4" y2="414.6" stroke="#010101" stroke-width="6.2" stroke-linecap="round" stroke-dasharray="6.2,12.4"/>
  <line x1="225.5" y1="497.9" x2="239.2" y2="397.6" stroke="#010101" stroke-width="6.2" stroke-linecap="round"/>
  <line x1="239.9" y1="484.2" x2="249.4" y2="414.6" stroke="#010101" stroke-width="6.2" stroke-linecap="round" stroke-dasharray="6.2,12.4"/>
  <line x1="436.6" y1="231.7" x2="402.8" y2="151.6" stroke="#010101" stroke-width="6.2" stroke-linecap="round"/>
  <line x1="448.0" y1="226.9" x2="414.2" y2="146.8" stroke="#010101" stroke-width="6.2" stroke-linecap="round"/>
  <line x1="436.6" y1="231.7" x2="402.8" y2="151.6" stroke="#010101" stroke-width="6.2" stroke-linecap="round"/>
  <line x1="448.0" y1="226.9" x2="414.2" y2="146.8" stroke="#010101" stroke-width="6.2" stroke-linecap="round"/>
  <line x1="222.5" y1="350.0" x2="144.2" y2="275.7" stroke="#000000" stroke-width="6.2" stroke-linecap="round"/>
  <text x="243.0" y="369.5" font-family="Helvetica,Arial,sans-serif" font-size="36.9px" font-weight="bold" text-anchor="middle" dominant-baseline="central" fill="#3151f8">N</text>
  <line x1="222.5" y1="350.0" x2="144.2" y2="275.7" stroke="#000000" stroke-width="6.2" stroke-linecap="round"/>
  <line x1="633.9" y1="361.1" x2="719.8" y2="367.8" stroke="#000000" stroke-width="6.2" stroke-linecap="round"/>
  <line x1="632.9" y1="373.5" x2="718.8" y2="380.1" stroke="#000000" stroke-width="6.2" stroke-linecap="round"/>
  <line x1="633.9" y1="361.1" x2="719.8" y2="367.8" stroke="#000000" stroke-width="6.2" stroke-linecap="round"/>
  <line x1="632.9" y1="373.5" x2="718.8" y2="380.1" stroke="#000000" stroke-width="6.2" stroke-linecap="round"/>
  <text x="398.0" y="124.3" font-family="Helvetica,Arial,sans-serif" font-size="36.9px" font-weight="bold" text-anchor="middle" dominant-baseline="central" fill="#ff0e0e">O</text>
  <text x="745.9" y="376.0" font-family="Helvetica,Arial,sans-serif" font-size="36.9px" font-weight="bold" text-anchor="middle" dominant-baseline="central" fill="#ff0d0d">O</text>
</svg>