<svg xmlns="http://www.w3.org/2000/svg" xmlns:xlink="http://www.w3.org/1999/xlink" viewBox="0 0 800 633" width="800" height="633">
  <rect width="100%" height="100%" fill="#ffffff"/>
  <defs>
    <radialGradient id="x0g0" cx=".5" cy=".5" fx=".33" fy=".33" r=".66"><stop offset="0%" stop-color="#bebebe"/><stop offset="40%" stop-color="#b3b3b3"/><stop offset="100%" stop-color="#7b6268"/></radialGradient>
    <radialGradient id="x0g1" cx=".5" cy=".5" fx=".33" fy=".33" r=".66"><stop offset="0%" stop-color="#c1c1c1"/><stop offset="40%" stop-color="#b7b7b7"/><stop offset="100%" stop-color="#826a6f"/></radialGradient>
    <radialGradient id="x0g2" cx=".5" cy=".5" fx=".33" fy=".33" r=".66"><stop offset="0%" stop-color="#b9b9b9"/><stop offset="40%" stop-color="#adadad"/><stop offset="100%" stop-color="#71565c"/></radialGradient>
    <radialGradient id="x0g3" cx=".5" cy=".5" fx=".33" fy=".33" r=".66"><stop offset="0%" stop-color="#b6b6b6"/><stop offset="40%" stop-color="#aaaaaa"/><stop offset="100%" stop-color="#6b4f55"/></radialGradient>
    <radialGradient id="x0g4" cx=".5" cy=".5" fx=".33" fy=".33" r=".66"><stop offset="0%" stop-color="#b7b7b7"/><stop offset="40%" stop-color="#ababab"/><stop offset="100%" stop-color="#6e5258"/></radialGradient>
    <radialGradient id="x0g5" cx=".5" cy=".5" fx=".33" fy=".33" r=".66"><stop offset="0%" stop-color="#bcbcbc"/><stop offset="40%" stop-color="#b1b1b1"/><stop offset="100%" stop-color="#785f64"/></radialGradient>
    <radialGradient id="x0g6" cx=".5" cy=".5" fx=".33" fy=".33" r=".66"><stop offset="0%" stop-color="#c6c6c6"/><stop offset="40%" stop-color="#bdbdbd"/><stop offset="100%" stop-color="#8c767b"/></radialGradient>
    <radialGradient id="x0g7" cx=".5" cy=".5" fx=".33" fy=".33" r=".66"><stop offset="0%" stop-color="#cfcfcf"/><stop offset="40%" stop-color="#c7c7c7"/><stop offset="100%" stop-color="#9d8b8f"/></radialGradient>
    <radialGradient id="x0g8" cx=".5" cy=".5" fx=".33" fy=".33" r=".66"><stop offset="0%" stop-color="#629fec"/><stop offset="40%" stop-color="#3957f8"/><stop offset="100%" stop-color="#0e23a2"/></radialGradient>
    <radialGradient id="x0g9" cx=".5" cy=".5" fx=".33" fy=".33" r=".66"><stop offset="0%" stop-color="#69a4ed"/><stop offset="40%" stop-color="#425ff8"/><stop offset="100%" stop-color="#1a2ea6"/></radialGradient>
    <radialGradient id="x0g10" cx=".5" cy=".5" fx=".33" fy=".33" r=".66"><stop offset="0%" stop-color="#5c9bec"/><stop offset="40%" stop-color="#3151f8"/><stop offset="100%" stop-color="#051b9e"/></radialGradient>
    <radialGradient id="x0g11" cx=".5" cy=".5" fx=".33" fy=".33" r=".66"><stop offset="0%" stop-color="#7fb1f0"/><stop offset="40%" stop-color="#5e77f9"/><stop offset="100%" stop-color="#3c4db3"/></radialGradient>
    <radialGradient id="x0g12" cx=".5" cy=".5" fx=".33" fy=".33" r=".66"><stop offset="0%" stop-color="#f05d4c"/><stop offset="40%" stop-color="#ff1c1c"/><stop offset="100%" stop-color="#9a102b"/></radialGradient>
    <radialGradient id="x0g13" cx=".5" cy=".5" fx=".33" fy=".33" r=".66"><stop offset="0%" stop-color="#f48e83"/><stop offset="40%" stop-color="#ff6262"/><stop offset="100%" stop-color="#b8596c"/></radialGradient>
    <radialGradient id="x0g14" cx=".5" cy=".5" fx=".33" fy=".33" r=".66"><stop offset="0%" stop-color="#ffffff"/><stop offset="40%" stop-color="#ffffff"/><stop offset="100%" stop-color="#c3afb3"/></radialGradient>
    <radialGradient id="x0g15" cx=".5" cy=".5" fx=".33" fy=".33" r=".66"><stop offset="0%" stop-color="#ffffff"/><stop offset="40%" stop-color="#ffffff"/><stop offset="100%" stop-color="#a28388"/></radialGradient>
    <radialGradient id="x0g16" cx=".5" cy=".5" fx=".33" fy=".33" r=".66"><stop offset="0%" stop-color="#ffffff"/><stop offset="40%" stop-color="#ffffff"/><stop offset="100%" stop-color="#9d7c82"/></radialGradient>
    <radialGradient id="x0g17" cx=".5" cy=".5" fx=".33" fy=".33" r=".66"><stop offset="0%" stop-color="#ffffff"/><stop offset="40%" stop-color="#ffffff"/><stop offset="100%" stop-color="#9d7b81"/></radialGradient>
    <radialGradient id="x0g18" cx=".5" cy=".5" fx=".33" fy=".33" r=".66"><stop offset="0%" stop-color="#ffffff"/><stop offset="40%" stop-color="#ffffff"/><stop offset="100%" stop-color="#ac8f94"/></radialGradient>
    <radialGradient id="x0g19" cx=".5" cy=".5" fx=".33" fy=".33" r=".66"><stop offset="0%" stop-color="#ffffff"/><stop offset="40%" stop-color="#ffffff"/><stop offset="100%" stop-color="#9d7b81"/></radialGradient>
    <radialGradient id="x0g20" cx=".5" cy=".5" fx=".33" fy=".33" r=".66"><stop offset="0%" stop-color="#ffffff"/><stop offset="40%" stop-color="#ffffff"/><stop offset="100%" stop-color="#9d7b81"/></radialGradient>
    <radialGradient id="x0g21" cx=".5" cy=".5" fx=".33" fy=".33" r=".66"><stop offset="0%" stop-color="#ffffff"/><stop offset="40%" stop-color="#ffffff"/><stop offset="100%" stop-color="#c8b6b9"/></radialGradient>
    <radialGradient id="x0g22" cx=".5" cy=".5" fx=".33" fy=".33" r=".66"><stop offset="0%" stop-color="#ffffff"/><stop offset="40%" stop-color="#ffffff"/><stop offset="100%" stop-color="#d7cacc"/></radialGradient>
    <radialGradient id="x0g23" cx=".5" cy=".5" fx=".33" fy=".33" r=".66"><stop offset="0%" stop-color="#ffffff"/><stop offset="40%" stop-color="#ffffff"/><stop offset="100%" stop-color="#ac9095"/></radialGradient>
  </defs>
  <circle cx="586.0" cy="71.7" r="16.7" fill="url(#x0g22)" stroke="#b2b2b2" stroke-width="5.6"/>
  <line x1="592.6" y1="79.0" x2="616.2" y2="104.9" stroke="#5e5e5e" stroke-width="14.0" stroke-linecap="round"/>
  <circle cx="713.0" cy="155.5" r="16.7" fill="url(#x0g21)" stroke="#a3a3a3" stroke-width="5.6"/>
  <line x1="700.0" y1="149.8" x2="653.5" y2="129.5" stroke="#505050" stroke-width="14.0" stroke-linecap="round"/>
  <circle cx="157.8" cy="198.9" r="16.7" fill="url(#x0g14)" stroke="#909090" stroke-width="5.6"/>
  <line x1="155.2" y1="203.9" x2="145.8" y2="221.8" stroke="#363636" stroke-width="14.0" stroke-linecap="round"/>
  <g opacity="0.60">
    <path d="M 435.2 134.2 C 436.0 138.0 438.0 141.9 438.0 145.7 C 438.0 149.5 436.3 153.2 435.1 157.0 C 433.9 160.7 432.6 164.5 431.0 168.2 C 429.4 171.8 427.6 175.5 425.3 178.8 C 423.0 182.2 420.3 185.4 417.3 188.2 C 414.2 191.0 410.5 193.4 406.8 195.5 C 403.0 197.6 398.8 199.1 394.7 200.6 C 390.6 202.2 386.4 204.1 382.1 204.6 C 377.8 205.1 373.2 204.0 368.7 203.7 C 364.3 203.4 359.5 203.8 355.4 202.6 C 351.2 201.5 347.5 198.9 343.8 196.7 C 340.1 194.6 336.4 192.3 332.9 189.8 C 329.5 187.4 326.0 184.9 323.0 182.0 C 320.0 179.1 317.3 175.9 315.1 172.5 C 312.8 169.2 311.1 165.5 309.5 161.8 C 307.9 158.2 306.4 154.4 305.4 150.6 C 304.4 146.8 304.0 142.9 303.5 139.0 C 302.9 135.1 301.8 131.1 302.0 127.3 C 302.2 123.5 303.2 119.7 304.5 116.0 C 305.8 112.3 307.6 108.6 309.8 105.1 C 311.9 101.7 314.3 98.4 317.3 95.5 C 320.2 92.6 323.7 90.0 327.4 87.8 C 331.0 85.5 335.0 83.6 339.0 82.0 C 343.0 80.4 347.3 78.9 351.6 78.0 C 355.9 77.1 360.3 76.8 364.8 76.6 C 369.2 76.3 373.8 75.8 378.2 76.3 C 382.5 76.7 386.8 77.8 390.9 79.2 C 395.0 80.6 399.1 82.6 402.8 84.7 C 406.5 86.9 409.9 89.5 413.1 92.3 C 416.2 95.0 419.0 98.2 421.5 101.4 C 424.0 104.6 426.2 108.1 428.1 111.6 C 430.0 115.1 431.8 118.8 433.0 122.6 C 434.1 126.3 434.4 130.3 435.2 134.2 Z" fill="#85accd" fill-rule="evenodd" stroke="none"/>
  </g>
  <circle cx="381.9" cy="109.0" r="28.5" fill="url(#x0g13)" stroke="#808080" stroke-width="5.6"/>
  <line x1="399.4" y1="126.4" x2="420.5" y2="170.9" stroke="#3a3a3a" stroke-width="9.8" stroke-linecap="round"/>
  <line x1="384.2" y1="133.6" x2="405.3" y2="178.1" stroke="#3a3a3a" stroke-width="9.8" stroke-linecap="round"/>
  <g opacity="0.60">
    <path d="M 444.0 94.9 C 444.7 98.6 445.0 102.4 444.8 106.2 C 444.5 110.0 443.6 113.9 442.5 117.6 C 441.5 121.4 440.4 125.1 438.7 128.6 C 437.0 132.1 434.6 135.5 432.2 138.7 C 429.8 141.9 427.3 145.1 424.4 148.0 C 421.5 151.0 418.4 153.8 415.0 156.2 C 411.5 158.5 407.7 160.6 403.8 162.4 C 399.9 164.1 395.7 165.6 391.5 166.6 C 387.3 167.7 383.0 168.5 378.7 168.7 C 374.3 168.9 369.8 168.3 365.5 167.8 C 361.1 167.4 356.6 167.2 352.5 166.1 C 348.3 164.9 344.3 163.1 340.7 160.9 C 337.1 158.8 333.9 156.0 330.7 153.4 C 327.6 150.7 324.5 147.9 321.7 144.9 C 318.8 142.0 316.0 138.9 313.8 135.6 C 311.5 132.3 309.4 128.8 308.3 125.1 C 307.2 121.4 307.5 117.4 307.2 113.6 C 306.9 109.7 306.2 105.8 306.4 102.0 C 306.6 98.1 307.5 94.3 308.3 90.5 C 309.0 86.7 309.8 82.8 311.0 79.1 C 312.2 75.4 313.7 71.7 315.5 68.3 C 317.4 64.8 319.6 61.3 322.2 58.3 C 324.9 55.3 328.2 52.6 331.7 50.3 C 335.2 48.1 339.3 46.4 343.4 44.9 C 347.4 43.4 351.6 41.9 355.9 41.3 C 360.2 40.6 364.7 41.1 369.1 41.0 C 373.5 41.0 378.1 40.3 382.3 40.9 C 386.6 41.5 390.8 43.2 394.9 44.5 C 399.0 45.9 403.3 47.2 407.1 49.0 C 410.9 50.9 414.5 53.2 417.9 55.7 C 421.3 58.1 424.5 60.8 427.4 63.7 C 430.3 66.7 432.8 69.9 435.0 73.2 C 437.2 76.5 439.0 80.1 440.5 83.7 C 442.0 87.3 443.3 91.1 444.0 94.9 Z" fill="#952b2b" fill-rule="evenodd" stroke="none"/>
  </g>
  <circle cx="628.7" cy="118.7" r="31.8" fill="url(#x0g7)" stroke="#7c7c7c" stroke-width="5.6"/>
  <line x1="611.8" y1="139.7" x2="566.7" y2="195.4" stroke="#393939" stroke-width="14.0" stroke-linecap="round"/>
  <line x1="634.4" y1="99.9" x2="645.2" y2="64.4" stroke="#323232" stroke-width="14.0" stroke-linecap="round"/>
  <g opacity="0.60">
    <path d="M 452.9 366.9 C 453.4 370.7 453.8 374.6 454.5 378.4 C 455.1 382.2 456.0 386.0 456.8 389.8 C 457.5 393.7 458.3 397.5 458.8 401.3 C 459.2 405.2 459.3 409.0 459.5 412.9 C 459.6 416.8 459.9 420.7 459.6 424.5 C 459.3 428.4 458.7 432.2 457.8 436.0 C 456.9 439.8 455.7 443.6 454.2 447.2 C 452.6 450.8 450.9 454.4 448.6 457.6 C 446.2 460.9 443.1 463.7 440.1 466.6 C 437.1 469.4 433.7 471.9 430.5 474.6 C 427.3 477.2 424.3 480.1 420.9 482.5 C 417.5 485.0 414.0 487.3 410.3 489.4 C 406.6 491.5 402.5 493.1 398.7 495.1 C 394.9 497.1 391.3 499.2 387.5 501.3 C 383.8 503.3 380.0 505.3 376.2 507.3 C 372.4 509.3 368.7 511.4 364.9 513.3 C 361.1 515.3 357.5 517.5 353.5 519.1 C 349.5 520.7 345.2 521.7 341.0 522.9 C 336.8 524.0 332.6 526.1 328.4 526.2 C 324.2 526.2 319.8 524.4 315.6 523.2 C 311.5 522.0 306.8 521.1 303.4 518.9 C 300.0 516.6 297.3 513.1 295.2 509.8 C 293.1 506.5 291.6 502.7 290.8 499.0 C 290.0 495.3 290.3 491.3 290.4 487.4 C 290.4 483.6 290.5 479.7 291.2 475.9 C 291.8 472.1 293.3 468.4 294.5 464.7 C 295.7 460.9 297.3 457.3 298.4 453.6 C 299.5 449.8 300.4 446.0 301.0 442.2 C 301.7 438.4 302.9 434.4 302.5 430.7 C 302.1 426.9 300.2 423.4 298.8 419.8 C 297.3 416.2 295.5 412.6 293.8 409.0 C 292.0 405.5 290.1 402.0 288.3 398.5 C 286.5 394.9 284.6 391.4 282.9 387.9 C 281.2 384.3 279.8 380.6 278.0 377.1 C 276.3 373.5 274.0 370.2 272.2 366.7 C 270.3 363.1 268.4 359.6 267.0 356.0 C 265.5 352.4 264.4 348.6 263.3 344.8 C 262.3 341.1 260.8 337.3 260.5 333.5 C 260.2 329.7 261.0 325.8 261.4 321.9 C 261.7 318.0 261.6 314.1 262.7 310.3 C 263.7 306.6 265.8 303.1 267.5 299.5 C 269.2 296.0 271.0 292.4 272.9 288.9 C 274.7 285.4 276.6 281.9 278.7 278.5 C 280.8 275.1 282.9 271.7 285.5 268.6 C 288.2 265.6 291.3 262.7 294.6 260.1 C 297.8 257.6 301.4 255.3 305.1 253.2 C 308.8 251.1 312.7 249.2 316.7 247.5 C 320.7 245.9 324.8 244.6 329.0 243.3 C 333.2 242.0 337.5 241.2 341.7 240.0 C 345.8 238.7 349.8 237.0 354.1 235.9 C 358.3 234.8 362.7 234.3 367.0 233.4 C 371.3 232.5 375.5 231.2 379.8 230.6 C 384.1 230.0 388.6 229.9 392.9 229.7 C 397.3 229.5 402.0 228.8 406.2 229.5 C 410.4 230.3 414.6 231.8 418.1 234.0 C 421.6 236.1 424.5 239.4 427.1 242.4 C 429.7 245.5 431.9 249.0 433.8 252.4 C 435.7 255.9 437.3 259.5 438.6 263.2 C 440.0 266.9 440.8 270.7 441.7 274.5 C 442.6 278.3 443.3 282.1 444.0 286.0 C 444.7 289.8 445.2 293.6 445.7 297.5 C 446.2 301.3 446.7 305.2 447.1 309.0 C 447.6 312.9 447.9 316.7 448.3 320.6 C 448.6 324.5 449.0 328.3 449.3 332.2 C 449.6 336.0 450.0 339.9 450.3 343.8 C 450.6 347.6 450.8 351.5 451.2 355.4 C 451.6 359.2 452.3 363.0 452.9 366.9 Z" fill="#902020" fill-rule="evenodd" stroke="none"/>
  </g>
  <circle cx="424.0" cy="197.9" r="31.8" fill="url(#x0g6)" stroke="#525252" stroke-width="5.6"/>
  <line x1="452.3" y1="201.8" x2="524.1" y2="211.5" stroke="#2e2e2e" stroke-width="14.0" stroke-linecap="round"/>
  <line x1="409.3" y1="219.3" x2="372.5" y2="272.9" stroke="#212121" stroke-width="14.0" stroke-linecap="round"/>
  <circle cx="550.7" cy="215.1" r="29.9" fill="url(#x0g11)" stroke="#515151" stroke-width="5.6"/>
  <line x1="562.2" y1="235.1" x2="593.3" y2="289.1" stroke="#1e1e1e" stroke-width="14.0" stroke-linecap="round"/>
  <circle cx="648.2" cy="54.4" r="16.7" fill="url(#x0g23)" stroke="#3b3b3b" stroke-width="5.6"/>
  <circle cx="140.8" cy="231.3" r="31.8" fill="url(#x0g1)" stroke="#393939" stroke-width="5.6"/>
  <line x1="115.5" y1="244.6" x2="67.9" y2="269.7" stroke="#202020" stroke-width="14.0" stroke-linecap="round"/>
  <line x1="161.5" y1="249.1" x2="215.2" y2="295.4" stroke="#181818" stroke-width="14.0" stroke-linecap="round"/>
  <line x1="139.3" y1="208.6" x2="136.7" y2="165.7" stroke="#151515" stroke-width="14.0" stroke-linecap="round"/>
  <circle cx="54.6" cy="276.7" r="16.7" fill="url(#x0g18)" stroke="#383838" stroke-width="5.6"/>
  <circle cx="357.8" cy="294.3" r="31.8" fill="url(#x0g0)" stroke="#292929" stroke-width="5.6"/>
  <line x1="330.9" y1="306.7" x2="262.4" y2="316.7" stroke="#141414" stroke-width="9.8" stroke-linecap="round" stroke-dasharray="9.8,19.6"/>
  <line x1="328.5" y1="290.1" x2="259.9" y2="300.0" stroke="#141414" stroke-width="9.8" stroke-linecap="round"/>
  <line x1="377.6" y1="313.1" x2="406.8" y2="366.7" stroke="#0e0e0e" stroke-width="9.8" stroke-linecap="round"/>
  <line x1="362.8" y1="321.2" x2="392.0" y2="374.7" stroke="#0e0e0e" stroke-width="9.8" stroke-linecap="round" stroke-dasharray="9.8,19.6"/>
  <g opacity="0.60">
    <path d="M 620.9 417.7 C 622.2 421.4 624.1 424.9 624.7 428.7 C 625.3 432.4 624.5 436.4 624.3 440.2 C 624.1 444.0 624.3 447.9 623.5 451.6 C 622.6 455.3 620.7 458.9 619.2 462.5 C 617.8 466.2 616.5 469.8 614.9 473.4 C 613.4 477.0 611.7 480.6 609.8 484.0 C 607.8 487.4 605.7 490.8 603.4 494.1 C 601.0 497.3 598.3 500.3 595.6 503.4 C 593.0 506.4 590.3 509.5 587.2 512.2 C 584.2 515.0 580.8 517.5 577.3 519.8 C 573.9 522.1 570.3 524.4 566.4 526.2 C 562.6 527.9 558.4 529.1 554.3 530.4 C 550.1 531.8 546.0 533.3 541.8 534.0 C 537.5 534.7 533.0 534.3 528.7 534.5 C 524.3 534.6 519.9 535.1 515.6 534.8 C 511.2 534.5 506.9 533.5 502.7 532.5 C 498.5 531.6 494.2 530.6 490.1 529.2 C 486.1 527.8 482.2 526.0 478.5 524.0 C 474.8 521.9 471.4 519.5 468.1 517.0 C 464.8 514.5 461.5 511.9 458.6 509.1 C 455.6 506.2 452.8 503.2 450.5 500.0 C 448.1 496.8 446.2 493.3 444.6 489.8 C 442.9 486.2 441.6 482.5 440.6 478.8 C 439.6 475.1 439.1 471.2 438.6 467.4 C 438.1 463.6 437.7 459.8 437.6 455.9 C 437.5 452.1 437.7 448.3 438.1 444.5 C 438.4 440.6 439.0 436.8 439.7 433.0 C 440.5 429.2 441.3 425.5 442.6 421.8 C 444.0 418.2 445.8 414.7 447.7 411.2 C 449.7 407.8 452.1 404.6 454.2 401.2 C 456.3 397.8 458.1 394.3 460.3 391.0 C 462.5 387.7 464.8 384.4 467.4 381.3 C 470.0 378.3 472.6 375.1 475.7 372.5 C 478.9 369.9 482.5 367.6 486.3 365.7 C 490.1 363.9 494.3 362.6 498.4 361.3 C 502.5 360.0 506.8 359.2 511.0 358.1 C 515.2 357.1 519.5 356.2 523.7 355.1 C 527.9 354.0 532.0 352.5 536.2 351.6 C 540.4 350.7 544.7 350.2 549.0 349.7 C 553.4 349.2 557.9 348.3 562.1 348.5 C 566.3 348.7 570.6 349.2 574.5 350.7 C 578.3 352.1 582.0 354.6 585.4 357.1 C 588.7 359.5 592.0 362.1 594.7 365.1 C 597.4 368.1 599.3 371.7 601.4 375.0 C 603.5 378.4 605.5 381.8 607.3 385.3 C 609.2 388.8 611.0 392.3 612.6 395.9 C 614.2 399.4 615.5 403.1 616.9 406.8 C 618.2 410.4 619.6 414.1 620.9 417.7 Z" fill="#558cba" fill-rule="evenodd" stroke="none"/>
  </g>
  <circle cx="605.5" cy="310.3" r="31.8" fill="url(#x0g5)" stroke="#212121" stroke-width="5.6"/>
  <line x1="633.6" y1="301.6" x2="687.0" y2="301.0" stroke="#0f0f0f" stroke-width="9.8" stroke-linecap="round"/>
  <line x1="633.7" y1="318.4" x2="687.2" y2="317.8" stroke="#0f0f0f" stroke-width="9.8" stroke-linecap="round"/>
  <line x1="589.9" y1="332.9" x2="550.6" y2="390.1" stroke="#0d0d0d" stroke-width="14.0" stroke-linecap="round"/>
  <g opacity="0.60">
    <path d="M 276.1 326.1 C 277.1 329.9 277.7 333.7 278.0 337.6 C 278.4 341.5 278.2 345.4 278.0 349.3 C 277.8 353.2 277.4 357.1 276.8 361.0 C 276.2 364.8 275.2 368.6 274.5 372.5 C 273.8 376.3 273.0 380.2 272.5 384.1 C 272.0 387.9 271.8 391.8 271.5 395.7 C 271.3 399.6 271.0 403.5 271.1 407.4 C 271.2 411.3 271.7 415.2 271.9 419.1 C 272.1 423.0 272.4 426.9 272.5 430.8 C 272.5 434.7 272.6 438.6 272.5 442.5 C 272.4 446.4 272.4 450.3 272.0 454.2 C 271.6 458.1 270.9 462.0 270.1 465.8 C 269.3 469.6 268.6 473.5 267.4 477.2 C 266.1 481.0 264.5 484.6 262.5 488.1 C 260.6 491.6 258.3 495.0 255.7 498.2 C 253.2 501.3 250.2 504.3 247.2 507.1 C 244.1 509.9 240.8 512.6 237.3 515.0 C 233.8 517.4 230.1 519.8 226.2 521.4 C 222.2 523.0 217.8 523.8 213.5 524.6 C 209.2 525.5 204.7 526.6 200.4 526.7 C 196.0 526.8 191.6 526.1 187.3 525.4 C 183.0 524.7 178.5 523.8 174.4 522.4 C 170.3 521.1 166.3 519.4 162.5 517.4 C 158.7 515.4 155.1 513.0 151.7 510.5 C 148.3 508.1 144.9 505.4 141.9 502.6 C 138.8 499.8 135.9 496.9 133.1 493.8 C 130.4 490.7 127.8 487.5 125.6 484.1 C 123.4 480.7 121.2 477.2 120.0 473.5 C 118.8 469.8 118.8 465.8 118.4 461.9 C 118.0 458.0 117.3 454.1 117.7 450.2 C 118.2 446.4 120.0 442.7 121.0 438.9 C 122.1 435.1 123.1 431.3 124.1 427.5 C 125.0 423.7 125.9 419.8 126.9 416.0 C 127.9 412.2 129.2 408.5 130.0 404.6 C 130.9 400.8 131.2 396.9 131.9 393.0 C 132.5 389.2 133.0 385.3 133.8 381.4 C 134.5 377.6 135.4 373.8 136.3 370.0 C 137.2 366.1 137.9 362.2 139.1 358.5 C 140.3 354.7 142.1 351.2 143.4 347.4 C 144.7 343.7 145.7 339.9 146.9 336.1 C 148.0 332.4 149.1 328.6 150.4 324.8 C 151.7 321.1 152.9 317.3 154.7 313.7 C 156.4 310.2 158.2 306.5 160.7 303.3 C 163.2 300.2 166.5 297.3 169.9 294.9 C 173.3 292.5 177.3 290.6 181.2 288.7 C 185.1 286.9 189.1 284.8 193.3 283.8 C 197.5 282.8 202.0 282.9 206.4 282.9 C 210.8 282.8 215.3 282.9 219.7 283.5 C 224.1 284.1 228.4 285.1 232.6 286.2 C 236.8 287.4 240.9 288.9 245.0 290.6 C 249.0 292.3 253.1 293.9 256.6 296.3 C 260.1 298.6 263.3 301.5 265.9 304.6 C 268.4 307.7 270.2 311.4 271.9 315.0 C 273.6 318.6 275.0 322.3 276.1 326.1 Z" fill="#548bb9" fill-rule="evenodd" stroke="none"/>
  </g>
  <circle cx="234.7" cy="312.2" r="29.9" fill="url(#x0g9)" stroke="#202020" stroke-width="5.6"/>
  <line x1="239.3" y1="336.8" x2="230.2" y2="395.5" stroke="#0a0a0a" stroke-width="9.8" stroke-linecap="round" stroke-dasharray="9.8,19.6"/>
  <line x1="222.7" y1="334.2" x2="213.6" y2="392.9" stroke="#0a0a0a" stroke-width="9.8" stroke-linecap="round"/>
  <g opacity="0.60">
    <path d="M 780.0 333.0 C 780.0 336.9 778.8 340.7 777.9 344.5 C 777.1 348.4 776.2 352.3 774.8 356.0 C 773.5 359.7 771.7 363.4 769.7 366.8 C 767.6 370.3 765.2 373.7 762.4 376.7 C 759.6 379.7 756.4 382.6 752.9 385.0 C 749.4 387.4 745.5 389.4 741.6 391.2 C 737.6 393.0 733.5 394.8 729.3 395.8 C 725.0 396.9 720.5 397.1 716.0 397.5 C 711.6 398.0 707.1 398.8 702.7 398.7 C 698.3 398.6 693.9 397.7 689.5 396.9 C 685.2 396.0 680.8 395.0 676.7 393.5 C 672.6 392.0 668.6 390.1 665.0 387.8 C 661.5 385.5 658.3 382.6 655.2 379.8 C 652.2 376.9 649.3 373.9 646.6 370.8 C 643.9 367.7 641.2 364.5 639.1 361.1 C 636.9 357.7 635.3 354.0 633.8 350.3 C 632.3 346.6 630.8 342.8 630.2 339.0 C 629.5 335.2 629.6 331.3 629.8 327.4 C 630.0 323.5 630.5 319.5 631.5 315.7 C 632.5 311.9 633.9 308.2 635.9 304.8 C 637.8 301.3 640.6 298.1 643.2 295.0 C 645.9 291.8 648.8 288.8 651.6 285.8 C 654.5 282.8 657.2 279.6 660.4 277.0 C 663.7 274.3 667.3 271.9 671.1 269.9 C 674.9 267.9 679.2 266.5 683.2 264.9 C 687.3 263.2 691.2 261.0 695.4 260.0 C 699.6 259.0 704.0 259.0 708.3 259.2 C 712.7 259.3 717.3 259.9 721.6 260.9 C 725.9 261.9 730.0 263.3 733.9 265.1 C 737.8 266.8 741.7 269.0 745.1 271.5 C 748.6 274.0 751.6 276.9 754.6 279.9 C 757.6 282.8 760.4 285.8 763.0 289.0 C 765.6 292.2 768.0 295.5 770.1 299.0 C 772.1 302.5 773.9 306.1 775.2 309.8 C 776.5 313.6 776.9 317.5 777.7 321.4 C 778.5 325.2 780.0 329.1 780.0 333.0 Z" fill="#8c1818" fill-rule="evenodd" stroke="none"/>
  </g>
  <circle cx="712.4" cy="309.2" r="28.5" fill="url(#x0g12)" stroke="#171717" stroke-width="5.6"/>
  <g opacity="0.60">
    <path d="M 762.3 300.7 C 762.7 304.5 763.7 308.4 763.2 312.1 C 762.7 315.8 760.8 319.5 759.5 323.2 C 758.2 326.8 756.9 330.5 755.3 334.1 C 753.8 337.7 752.2 341.3 750.4 344.8 C 748.5 348.2 746.6 351.7 744.2 354.9 C 741.7 358.1 739.0 361.2 735.8 363.8 C 732.6 366.4 729.0 368.7 725.2 370.5 C 721.3 372.3 717.0 373.4 712.9 374.6 C 708.7 375.7 704.5 377.0 700.2 377.5 C 695.9 377.9 691.4 377.4 687.0 377.3 C 682.7 377.3 678.2 377.6 673.9 377.1 C 669.6 376.7 665.3 375.6 661.1 374.5 C 657.0 373.3 652.7 372.2 648.9 370.4 C 645.0 368.6 641.3 366.4 638.2 363.7 C 635.2 361.1 632.6 357.8 630.4 354.5 C 628.3 351.2 626.7 347.5 625.3 343.9 C 624.0 340.2 623.0 336.4 622.4 332.7 C 621.8 328.9 622.0 325.0 621.8 321.1 C 621.7 317.3 621.3 313.4 621.6 309.6 C 621.8 305.8 622.7 302.0 623.3 298.2 C 624.0 294.4 624.4 290.5 625.5 286.8 C 626.6 283.1 628.0 279.4 629.8 275.9 C 631.5 272.4 633.7 269.0 636.1 265.8 C 638.5 262.6 641.2 259.5 644.3 256.8 C 647.3 254.1 650.9 251.7 654.5 249.6 C 658.1 247.5 662.0 245.4 666.0 244.2 C 670.1 242.9 674.5 242.4 678.8 242.2 C 683.1 242.0 687.5 242.5 691.9 242.9 C 696.2 243.3 700.6 243.6 704.8 244.5 C 709.0 245.5 713.1 246.9 717.1 248.4 C 721.2 250.0 725.2 251.6 728.8 253.7 C 732.5 255.7 735.9 258.2 739.1 260.9 C 742.2 263.5 745.1 266.4 747.8 269.4 C 750.5 272.4 753.0 275.7 755.2 279.0 C 757.3 282.3 759.6 285.6 760.8 289.3 C 761.9 292.9 761.9 296.9 762.3 300.7 Z" fill="#4883b5" fill-rule="evenodd" stroke="none"/>
  </g>
  <circle cx="135.9" cy="153.7" r="16.7" fill="url(#x0g15)" stroke="#161616" stroke-width="5.6"/>
  <circle cx="535.9" cy="411.3" r="29.9" fill="url(#x0g8)" stroke="#0f0f0f" stroke-width="5.6"/>
  <line x1="509.3" y1="407.5" x2="440.1" y2="397.6" stroke="#080808" stroke-width="14.0" stroke-linecap="round"/>
  <line x1="546.9" y1="429.7" x2="577.7" y2="481.0" stroke="#020202" stroke-width="14.0" stroke-linecap="round"/>
  <g opacity="0.60">
    <path d="M 612.0 369.4 C 612.3 373.3 612.7 377.2 612.8 381.1 C 612.9 384.9 612.6 388.8 612.5 392.7 C 612.4 396.6 612.5 400.5 612.1 404.3 C 611.8 408.2 611.1 412.0 610.4 415.9 C 609.8 419.7 609.4 423.7 608.2 427.4 C 607.1 431.1 605.3 434.7 603.3 438.2 C 601.4 441.6 599.2 445.1 596.7 448.2 C 594.1 451.3 591.2 454.4 588.0 457.0 C 584.7 459.5 580.9 461.7 577.1 463.6 C 573.3 465.5 569.1 467.0 565.0 468.4 C 560.9 469.8 556.7 471.0 552.5 472.1 C 548.2 473.2 544.0 474.2 539.6 475.0 C 535.3 475.8 530.9 476.3 526.5 476.7 C 522.1 477.2 517.7 478.2 513.4 477.8 C 509.1 477.3 505.0 475.3 500.9 474.0 C 496.7 472.7 492.4 471.7 488.4 470.1 C 484.4 468.4 480.6 466.4 477.1 464.0 C 473.7 461.6 470.7 458.7 467.8 455.8 C 464.8 452.9 462.2 449.8 459.4 446.7 C 456.7 443.7 453.7 440.8 451.3 437.6 C 448.9 434.4 446.5 431.0 445.0 427.4 C 443.5 423.8 443.1 419.8 442.4 416.0 C 441.6 412.2 440.6 408.3 440.5 404.5 C 440.5 400.6 441.6 396.8 442.2 392.9 C 442.9 389.1 443.2 385.1 444.5 381.5 C 445.7 377.8 447.8 374.3 449.9 370.9 C 451.9 367.4 454.5 364.2 456.7 360.9 C 459.0 357.6 461.2 354.2 463.4 350.8 C 465.6 347.5 467.5 343.9 470.0 340.8 C 472.5 337.6 475.6 334.7 478.5 331.8 C 481.4 328.9 484.5 326.1 487.7 323.4 C 490.8 320.7 494.1 318.1 497.5 315.6 C 500.8 313.1 504.3 310.6 507.8 308.2 C 511.2 305.8 514.7 303.4 518.2 301.1 C 521.8 298.8 525.5 296.6 529.1 294.4 C 532.8 292.3 536.2 289.6 540.2 288.0 C 544.2 286.5 548.7 286.0 553.0 285.2 C 557.3 284.3 561.8 282.9 566.0 283.0 C 570.3 283.1 574.7 284.4 578.6 285.9 C 582.5 287.5 586.3 289.9 589.6 292.5 C 592.8 295.0 595.9 297.9 598.3 301.1 C 600.6 304.3 602.3 308.0 603.6 311.7 C 604.9 315.4 605.2 319.3 605.9 323.2 C 606.7 327.0 607.4 330.8 608.0 334.7 C 608.6 338.5 609.1 342.4 609.7 346.2 C 610.2 350.1 610.7 353.9 611.1 357.8 C 611.5 361.7 611.7 365.6 612.0 369.4 Z" fill="#810202" fill-rule="evenodd" stroke="none"/>
  </g>
  <circle cx="411.8" cy="393.5" r="31.8" fill="url(#x0g2)" stroke="#0f0f0f" stroke-width="5.6"/>
  <line x1="397.3" y1="417.4" x2="349.6" y2="459.1" stroke="#040404" stroke-width="9.8" stroke-linecap="round"/>
  <line x1="386.2" y1="404.7" x2="338.5" y2="446.4" stroke="#040404" stroke-width="9.8" stroke-linecap="round" stroke-dasharray="9.8,19.6"/>
  <circle cx="218.0" cy="419.0" r="31.8" fill="url(#x0g4)" stroke="#080808" stroke-width="5.6"/>
  <line x1="247.0" y1="423.3" x2="304.8" y2="450.4" stroke="#020202" stroke-width="9.8" stroke-linecap="round" stroke-dasharray="9.8,19.6"/>
  <line x1="239.9" y1="438.5" x2="297.7" y2="465.6" stroke="#020202" stroke-width="9.8" stroke-linecap="round"/>
  <line x1="193.0" y1="430.6" x2="146.1" y2="452.4" stroke="#020202" stroke-width="14.0" stroke-linecap="round"/>
  <g opacity="0.60">
    <path d="M 276.1 396.4 C 276.6 400.1 277.5 403.9 277.4 407.7 C 277.2 411.5 276.1 415.3 275.4 419.1 C 274.7 422.9 274.2 426.8 273.0 430.5 C 271.9 434.2 270.4 437.9 268.6 441.4 C 266.8 444.9 264.8 448.4 262.4 451.6 C 260.0 454.7 257.2 457.8 254.1 460.5 C 251.0 463.2 247.5 465.6 243.9 467.7 C 240.3 469.9 236.4 471.9 232.5 473.5 C 228.5 475.1 224.5 476.7 220.3 477.4 C 216.0 478.2 211.5 477.9 207.1 477.8 C 202.7 477.8 198.3 478.2 194.1 477.4 C 189.9 476.6 185.9 474.5 181.9 473.1 C 177.8 471.6 173.6 470.5 169.6 468.8 C 165.6 467.2 161.7 465.4 158.1 463.3 C 154.5 461.1 150.9 458.7 147.8 456.1 C 144.7 453.4 141.9 450.4 139.3 447.3 C 136.7 444.2 134.3 440.9 132.2 437.6 C 130.0 434.2 128.2 430.7 126.5 427.2 C 124.8 423.6 123.5 419.9 122.1 416.3 C 120.7 412.6 118.9 409.0 118.2 405.2 C 117.6 401.4 118.2 397.5 118.3 393.7 C 118.4 389.9 118.3 385.9 119.1 382.2 C 119.9 378.4 121.6 374.8 123.0 371.2 C 124.4 367.5 126.2 364.0 127.6 360.3 C 128.9 356.6 129.9 352.9 130.9 349.2 C 131.9 345.4 132.7 341.6 133.6 337.8 C 134.6 334.1 135.4 330.3 136.3 326.5 C 137.2 322.7 137.9 318.9 139.0 315.2 C 140.1 311.5 141.5 307.8 142.9 304.2 C 144.3 300.5 145.8 296.9 147.4 293.3 C 148.9 289.7 150.4 286.0 152.2 282.6 C 154.1 279.1 156.1 275.6 158.6 272.4 C 161.0 269.2 163.7 266.1 166.8 263.4 C 169.9 260.7 173.4 258.3 177.1 256.2 C 180.7 254.1 184.7 252.3 188.7 250.9 C 192.8 249.5 197.0 248.5 201.3 247.8 C 205.6 247.2 210.1 247.0 214.4 246.9 C 218.8 246.7 223.2 246.5 227.5 247.0 C 231.9 247.4 236.2 248.3 240.4 249.4 C 244.6 250.5 248.9 251.6 252.6 253.5 C 256.2 255.5 259.5 258.3 262.3 261.2 C 265.1 264.1 267.5 267.5 269.5 270.9 C 271.4 274.3 272.9 278.0 274.1 281.7 C 275.2 285.4 275.7 289.2 276.3 293.1 C 277.0 296.9 277.8 300.7 278.0 304.5 C 278.2 308.3 278.0 312.2 277.6 316.0 C 277.3 319.9 276.5 323.7 276.0 327.5 C 275.5 331.3 275.1 335.2 274.5 339.0 C 274.0 342.8 273.1 346.6 272.6 350.4 C 272.1 354.3 271.7 358.1 271.7 361.9 C 271.7 365.8 272.1 369.6 272.5 373.5 C 272.8 377.3 273.2 381.1 273.8 385.0 C 274.4 388.8 275.5 392.6 276.1 396.4 Z" fill="#800101" fill-rule="evenodd" stroke="none"/>
  </g>
  <circle cx="675.6" cy="528.4" r="16.7" fill="url(#x0g16)" stroke="#030303" stroke-width="5.6"/>
  <line x1="662.3" y1="524.1" x2="614.6" y2="508.7" stroke="#000000" stroke-width="14.0" stroke-linecap="round"/>
  <circle cx="325.2" cy="469.2" r="29.9" fill="url(#x0g10)" stroke="#020202" stroke-width="5.6"/>
  <g opacity="0.60">
    <path d="M 452.9 286.0 C 453.1 289.9 453.1 293.8 453.2 297.7 C 453.3 301.6 453.3 305.5 453.5 309.4 C 453.7 313.3 454.2 317.1 454.5 321.0 C 454.8 324.9 455.1 328.8 455.5 332.7 C 456.0 336.6 456.7 340.4 457.3 344.3 C 457.8 348.1 458.5 352.0 458.8 355.9 C 459.2 359.8 459.2 363.7 459.4 367.6 C 459.6 371.5 459.9 375.4 459.8 379.3 C 459.7 383.1 459.1 387.0 458.6 390.9 C 458.1 394.8 457.7 398.7 456.7 402.5 C 455.8 406.3 454.6 410.1 452.9 413.6 C 451.2 417.2 449.0 420.7 446.7 424.0 C 444.3 427.2 441.7 430.4 438.8 433.4 C 436.0 436.3 432.8 439.2 429.5 441.7 C 426.1 444.2 422.5 446.5 418.7 448.6 C 415.0 450.7 411.1 452.6 407.1 454.1 C 403.0 455.7 398.7 456.7 394.5 458.1 C 390.4 459.5 386.2 460.9 382.2 462.6 C 378.2 464.2 374.3 466.1 370.6 468.2 C 366.8 470.3 363.4 472.7 359.9 475.2 C 356.5 477.6 353.3 480.4 349.9 482.9 C 346.5 485.4 343.1 487.9 339.6 490.3 C 336.2 492.8 333.1 496.7 329.2 497.6 C 325.3 498.6 320.4 496.9 316.1 496.1 C 311.8 495.2 306.9 494.6 303.4 492.6 C 299.9 490.5 297.2 486.9 295.3 483.5 C 293.3 480.1 292.4 476.2 291.9 472.4 C 291.5 468.6 292.0 464.6 292.4 460.7 C 292.8 456.8 293.3 452.9 294.5 449.2 C 295.7 445.5 297.9 442.0 299.6 438.4 C 301.3 434.8 303.4 431.3 304.8 427.7 C 306.3 424.0 307.6 420.2 308.6 416.4 C 309.5 412.6 310.5 408.8 310.6 404.9 C 310.7 401.1 309.7 397.2 309.1 393.3 C 308.5 389.5 308.3 385.5 307.1 381.8 C 305.9 378.0 303.8 374.6 301.9 371.1 C 299.9 367.6 297.5 364.3 295.4 360.8 C 293.4 357.4 291.2 354.0 289.5 350.4 C 287.7 346.8 286.1 343.2 284.7 339.5 C 283.4 335.8 282.3 332.0 281.4 328.2 C 280.4 324.4 279.6 320.5 278.8 316.7 C 278.1 312.9 277.5 309.0 276.8 305.1 C 276.1 301.3 275.2 297.5 274.6 293.6 C 273.9 289.8 273.1 285.9 272.6 282.1 C 272.2 278.2 271.8 274.3 271.7 270.4 C 271.6 266.5 271.5 262.6 272.2 258.8 C 273.0 255.0 274.9 251.4 276.3 247.7 C 277.7 244.0 278.9 240.2 280.6 236.6 C 282.2 233.0 284.0 229.4 286.1 226.0 C 288.2 222.6 290.7 219.3 293.4 216.2 C 296.1 213.2 299.2 210.3 302.4 207.6 C 305.6 204.9 309.1 202.5 312.7 200.2 C 316.3 197.9 320.0 195.7 323.9 194.0 C 327.9 192.2 332.1 190.9 336.3 189.8 C 340.5 188.6 344.8 187.7 349.2 186.9 C 353.5 186.2 357.9 185.7 362.3 185.4 C 366.7 185.2 371.2 185.2 375.6 185.3 C 380.1 185.3 384.5 185.5 388.9 185.9 C 393.3 186.3 397.8 186.8 402.0 187.7 C 406.3 188.6 410.7 189.6 414.6 191.2 C 418.6 192.9 422.2 195.3 425.6 197.8 C 428.9 200.3 432.1 203.2 434.6 206.4 C 437.0 209.6 438.9 213.2 440.5 216.8 C 442.0 220.4 442.9 224.3 443.9 228.1 C 444.9 231.9 445.7 235.8 446.5 239.6 C 447.3 243.4 448.1 247.3 448.7 251.1 C 449.4 255.0 450.1 258.8 450.6 262.7 C 451.1 266.6 451.5 270.4 451.9 274.3 C 452.2 278.2 452.7 282.1 452.9 286.0 Z" fill="#4883b4" fill-rule="evenodd" stroke="none"/>
  </g>
  <circle cx="132.9" cy="458.5" r="16.7" fill="url(#x0g20)" stroke="#020202" stroke-width="5.6"/>
  <circle cx="589.3" cy="500.5" r="31.8" fill="url(#x0g3)" stroke="#000000" stroke-width="5.6"/>
  <line x1="572.3" y1="523.4" x2="540.4" y2="566.5" stroke="#000000" stroke-width="14.0" stroke-linecap="round"/>
  <line x1="593.4" y1="490.2" x2="601.1" y2="471.0" stroke="#000000" stroke-width="14.0" stroke-linecap="round"/>
  <circle cx="531.4" cy="578.6" r="16.7" fill="url(#x0g19)" stroke="#000000" stroke-width="5.6"/>
  <g opacity="0.60">
    <path d="M 638.5 471.2 C 639.3 475.0 638.3 478.9 637.9 482.8 C 637.4 486.7 637.0 490.7 635.9 494.5 C 634.8 498.2 633.2 502.0 631.4 505.5 C 629.5 509.0 627.3 512.6 624.7 515.7 C 622.1 518.8 619.0 521.7 615.6 524.1 C 612.1 526.6 608.2 528.8 604.3 530.5 C 600.3 532.2 596.3 534.1 592.0 534.5 C 587.8 534.9 583.1 533.3 578.7 532.6 C 574.3 531.9 569.8 531.6 565.6 530.3 C 561.5 528.9 557.5 526.8 553.9 524.6 C 550.3 522.3 546.8 519.7 544.1 516.7 C 541.3 513.8 539.1 510.2 537.2 506.6 C 535.4 503.1 533.4 499.4 533.0 495.6 C 532.5 491.8 534.0 487.8 534.6 483.9 C 535.3 480.0 535.3 476.0 536.8 472.3 C 538.3 468.7 541.2 465.5 543.4 462.1 C 545.7 458.7 547.9 455.2 550.3 451.9 C 552.7 448.6 555.0 445.2 557.9 442.2 C 560.7 439.2 563.7 435.8 567.5 434.0 C 571.3 432.3 576.3 432.4 580.7 431.7 C 585.1 431.0 589.8 429.1 593.9 429.8 C 598.1 430.4 601.8 433.5 605.6 435.5 C 609.3 437.6 613.2 439.7 616.7 442.1 C 620.2 444.6 623.6 447.2 626.4 450.3 C 629.1 453.3 631.0 457.0 633.1 460.5 C 635.1 464.0 637.7 467.5 638.5 471.2 Z" fill="#4682b4" fill-rule="evenodd" stroke="none"/>
  </g>
  <circle cx="603.3" cy="465.6" r="16.7" fill="url(#x0g17)" stroke="#000000" stroke-width="5.6"/>
</svg>