<svg xmlns="http://www.w3.org/2000/svg" xmlns:xlink="http://www.w3.org/1999/xlink" viewBox="0 0 800 744" width="800" height="744">
  <rect width="100%" height="100%" fill="#ffffff"/>
  <defs>
    <radialGradient id="x0g0" cx=".5" cy=".5" fx=".33" fy=".33" r=".66"><stop offset="0%" stop-color="#b6b6b6"/><stop offset="40%" stop-color="#aaaaaa"/><stop offset="100%" stop-color="#6c5056"/></radialGradient>
    <radialGradient id="x0g1" cx=".5" cy=".5" fx=".33" fy=".33" r=".66"><stop offset="0%" stop-color="#b6b6b6"/><stop offset="40%" stop-color="#aaaaaa"/><stop offset="100%" stop-color="#6b4f55"/></radialGradient>
    <radialGradient id="x0g2" cx=".5" cy=".5" fx=".33" fy=".33" r=".66"><stop offset="0%" stop-color="#b7b7b7"/><stop offset="40%" stop-color="#ababab"/><stop offset="100%" stop-color="#6d5258"/></radialGradient>
    <radialGradient id="x0g3" cx=".5" cy=".5" fx=".33" fy=".33" r=".66"><stop offset="0%" stop-color="#b6b6b6"/><stop offset="40%" stop-color="#aaaaaa"/><stop offset="100%" stop-color="#6b4f55"/></radialGradient>
    <radialGradient id="x0g4" cx=".5" cy=".5" fx=".33" fy=".33" r=".66"><stop offset="0%" stop-color="#b6b6b6"/><stop offset="40%" stop-color="#aaaaaa"/><stop offset="100%" stop-color="#6c5056"/></radialGradient>
    <radialGradient id="x0g5" cx=".5" cy=".5" fx=".33" fy=".33" r=".66"><stop offset="0%" stop-color="#b6b6b6"/><stop offset="40%" stop-color="#aaaaaa"/><stop offset="100%" stop-color="#6b5056"/></radialGradient>
    <radialGradient id="x0g6" cx=".5" cy=".5" fx=".33" fy=".33" r=".66"><stop offset="0%" stop-color="#b6b6b6"/><stop offset="40%" stop-color="#aaaaaa"/><stop offset="100%" stop-color="#6c5056"/></radialGradient>
    <radialGradient id="x0g7" cx=".5" cy=".5" fx=".33" fy=".33" r=".66"><stop offset="0%" stop-color="#b6b6b6"/><stop offset="40%" stop-color="#aaaaaa"/><stop offset="100%" stop-color="#6b5055"/></radialGradient>
    <radialGradient id="x0g8" cx=".5" cy=".5" fx=".33" fy=".33" r=".66"><stop offset="0%" stop-color="#619fec"/><stop offset="40%" stop-color="#3857f8"/><stop offset="100%" stop-color="#0e23a1"/></radialGradient>
    <radialGradient id="x0g9" cx=".5" cy=".5" fx=".33" fy=".33" r=".66"><stop offset="0%" stop-color="#5c9bec"/><stop offset="40%" stop-color="#3151f8"/><stop offset="100%" stop-color="#051b9e"/></radialGradient>
    <radialGradient id="x0g10" cx=".5" cy=".5" fx=".33" fy=".33" r=".66"><stop offset="0%" stop-color="#5d9cec"/><stop offset="40%" stop-color="#3352f8"/><stop offset="100%" stop-color="#081d9f"/></radialGradient>
    <radialGradient id="x0g11" cx=".5" cy=".5" fx=".33" fy=".33" r=".66"><stop offset="0%" stop-color="#5e9dec"/><stop offset="40%" stop-color="#3453f8"/><stop offset="100%" stop-color="#091e9f"/></radialGradient>
    <radialGradient id="x0g12" cx=".5" cy=".5" fx=".33" fy=".33" r=".66"><stop offset="0%" stop-color="#ef5240"/><stop offset="40%" stop-color="#ff0d0d"/><stop offset="100%" stop-color="#93001d"/></radialGradient>
    <radialGradient id="x0g13" cx=".5" cy=".5" fx=".33" fy=".33" r=".66"><stop offset="0%" stop-color="#ef5240"/><stop offset="40%" stop-color="#ff0d0d"/><stop offset="100%" stop-color="#93001d"/></radialGradient>
    <radialGradient id="x0g14" cx=".5" cy=".5" fx=".33" fy=".33" r=".66"><stop offset="0%" stop-color="#ffffff"/><stop offset="40%" stop-color="#ffffff"/><stop offset="100%" stop-color="#af9398"/></radialGradient>
    <radialGradient id="x0g15" cx=".5" cy=".5" fx=".33" fy=".33" r=".66"><stop offset="0%" stop-color="#ffffff"/><stop offset="40%" stop-color="#ffffff"/><stop offset="100%" stop-color="#9d7b81"/></radialGradient>
    <radialGradient id="x0g16" cx=".5" cy=".5" fx=".33" fy=".33" r=".66"><stop offset="0%" stop-color="#ffffff"/><stop offset="40%" stop-color="#ffffff"/><stop offset="100%" stop-color="#a7898e"/></radialGradient>
    <radialGradient id="x0g17" cx=".5" cy=".5" fx=".33" fy=".33" r=".66"><stop offset="0%" stop-color="#ffffff"/><stop offset="40%" stop-color="#ffffff"/><stop offset="100%" stop-color="#9d7b81"/></radialGradient>
    <radialGradient id="x0g18" cx=".5" cy=".5" fx=".33" fy=".33" r=".66"><stop offset="0%" stop-color="#ffffff"/><stop offset="40%" stop-color="#ffffff"/><stop offset="100%" stop-color="#9f7e84"/></radialGradient>
    <radialGradient id="x0g19" cx=".5" cy=".5" fx=".33" fy=".33" r=".66"><stop offset="0%" stop-color="#ffffff"/><stop offset="40%" stop-color="#ffffff"/><stop offset="100%" stop-color="#a38489"/></radialGradient>
    <radialGradient id="x0g20" cx=".5" cy=".5" fx=".33" fy=".33" r=".66"><stop offset="0%" stop-color="#ffffff"/><stop offset="40%" stop-color="#ffffff"/><stop offset="100%" stop-color="#9d7b81"/></radialGradient>
    <radialGradient id="x0g21" cx=".5" cy=".5" fx=".33" fy=".33" r=".66"><stop offset="0%" stop-color="#ffffff"/><stop offset="40%" stop-color="#ffffff"/><stop offset="100%" stop-color="#aa8d92"/></radialGradient>
    <radialGradient id="x0g22" cx=".5" cy=".5" fx=".33" fy=".33" r=".66"><stop offset="0%" stop-color="#ffffff"/><stop offset="40%" stop-color="#ffffff"/><stop offset="100%" stop-color="#a8898f"/></radialGradient>
    <radialGradient id="x0g23" cx=".5" cy=".5" fx=".33" fy=".33" r=".66"><stop offset="0%" stop-color="#ffffff"/><stop offset="40%" stop-color="#ffffff"/><stop offset="100%" stop-color="#9d7b81"/></radialGradient>
  </defs>
  <defs><radialGradient id="x0p14" gradientUnits="userSpaceOnUse" cx="213" cy="241" r="85" fx="191" fy="219"><stop offset="0%" stop-color="#ffffff"/><stop offset=".4" stop-color="#ffffff"/><stop offset="1" stop-color="#af9398"/></radialGradient></defs>
  <polygon points="149.4,232.9 151.2,241.3 155.4,249.6 161.8,257.5 170.2,264.7 180.2,271.0 191.5,276.0 203.6,279.6 216.1,281.7 228.4,282.2 240.2,281.0 250.9,278.3 260.1,274.0 267.6,268.4 272.9,261.7 275.9,254.2 276.9,247.6 277.3,241.3 276.9,234.9 276.0,228.7 274.5,222.5 272.3,216.5 269.6,210.8 266.3,205.3 262.6,200.2 258.3,195.5 253.6,191.3 248.5,187.5 243.1,184.2 237.3,181.5 231.3,179.4 225.2,177.8 218.9,176.9 212.6,176.6 206.2,176.9 199.9,177.8 193.8,179.4 187.8,181.5 182.0,184.2 176.6,187.5 171.5,191.3 166.8,195.5 162.5,200.2 158.8,205.3 155.5,210.8 152.8,216.5 150.6,222.5 150.0,224.8" fill="url(#x0p14)" stroke="#444444" stroke-width="2.9"/>
  <defs><radialGradient id="x0p21" gradientUnits="userSpaceOnUse" cx="673" cy="204" r="85" fx="651" fy="182"><stop offset="0%" stop-color="#ffffff"/><stop offset=".4" stop-color="#ffffff"/><stop offset="1" stop-color="#aa8d92"/></radialGradient></defs>
  <polygon points="642.7,223.4 643.4,234.9 645.4,245.3 648.5,254.0 652.7,260.9 657.7,265.6 663.4,267.9 666.8,268.3 673.1,268.6 679.5,268.3 685.7,267.4 691.9,265.8 697.9,263.7 703.6,261.0 709.1,257.7 714.2,253.9 718.9,249.7 723.1,245.0 726.9,239.9 730.2,234.4 732.9,228.7 735.0,222.7 736.6,216.5 737.5,210.3 737.8,203.9 737.5,197.6 736.6,191.3 735.0,185.1 732.9,179.2 730.2,173.4 726.9,168.0 723.1,162.9 718.9,158.2 714.2,153.9 709.1,150.1 703.6,146.9 697.9,144.1 691.9,142.0 687.0,140.7 680.9,140.9 674.5,143.4 668.2,148.3 662.1,155.4 656.6,164.3 651.7,174.8 647.8,186.4 644.9,198.7 643.2,211.2" fill="url(#x0p21)" stroke="#333333" stroke-width="2.9"/>
  <defs><radialGradient id="x0p22" gradientUnits="userSpaceOnUse" cx="568" cy="127" r="85" fx="546" fy="105"><stop offset="0%" stop-color="#ffffff"/><stop offset=".4" stop-color="#ffffff"/><stop offset="1" stop-color="#a8898f"/></radialGradient></defs>
  <polygon points="503.0,126.5 503.4,132.9 504.3,139.1 505.8,145.3 508.0,151.3 510.0,155.8 513.7,159.8 519.3,162.4 526.8,163.6 535.8,163.3 546.0,161.5 557.0,158.3 568.4,153.8 579.6,148.1 590.4,141.6 600.3,134.4 608.9,126.8 615.9,119.2 621.0,111.7 624.0,104.8 624.8,98.6 623.3,93.4 621.5,90.6 617.8,85.5 613.5,80.8 608.8,76.5 603.7,72.7 598.2,69.5 592.5,66.7 586.5,64.6 580.4,63.1 574.1,62.1 567.7,61.8 561.4,62.1 555.1,63.1 549.0,64.6 543.0,66.7 537.2,69.5 531.8,72.7 526.7,76.5 522.0,80.8 517.7,85.5 513.9,90.6 510.7,96.0 508.0,101.8 505.8,107.7 504.3,113.9 503.4,120.2" fill="url(#x0p22)" stroke="#292929" stroke-width="2.9"/>
  <defs><radialGradient id="x0p16" gradientUnits="userSpaceOnUse" cx="642" cy="564" r="85" fx="620" fy="542"><stop offset="0%" stop-color="#ffffff"/><stop offset=".4" stop-color="#ffffff"/><stop offset="1" stop-color="#a7898e"/></radialGradient></defs>
  <polygon points="614.1,574.9 614.9,587.1 616.8,598.5 619.8,608.5 623.8,616.9 628.5,623.2 633.8,627.3 639.5,629.0 642.1,629.0 648.4,628.7 654.7,627.8 660.9,626.2 666.8,624.1 672.6,621.4 678.0,618.1 683.1,614.3 687.8,610.1 692.1,605.4 695.9,600.3 699.1,594.8 701.8,589.1 704.0,583.1 705.5,576.9 706.5,570.7 706.8,564.3 706.5,558.0 705.5,551.7 704.0,545.5 701.8,539.5 699.1,533.8 695.9,528.4 692.1,523.3 687.8,518.6 683.1,514.3 678.0,510.5 672.6,507.2 666.8,504.5 660.9,502.4 654.7,500.8 648.9,500.0 643.1,500.8 637.2,504.1 631.6,509.6 626.5,517.3 622.1,526.8 618.5,537.8 616.0,549.7 614.5,562.3" fill="url(#x0p16)" stroke="#282828" stroke-width="2.9"/>
  <defs><radialGradient id="x0p19" gradientUnits="userSpaceOnUse" cx="522" cy="617" r="85" fx="500" fy="595"><stop offset="0%" stop-color="#ffffff"/><stop offset=".4" stop-color="#ffffff"/><stop offset="1" stop-color="#a38489"/></radialGradient></defs>
  <polygon points="457.8,617.5 458.1,623.8 459.0,630.1 460.6,636.3 462.7,642.2 465.4,648.0 468.7,653.4 472.5,658.5 476.7,663.2 481.5,667.5 486.6,671.3 492.0,674.5 497.7,677.3 503.7,679.4 509.9,680.9 516.2,681.9 522.5,682.2 528.8,681.9 535.1,680.9 541.3,679.4 547.3,677.3 553.0,674.5 558.4,671.3 563.5,667.5 568.3,663.2 571.0,660.3 572.8,656.1 572.7,650.5 570.6,643.7 566.6,635.9 560.8,627.5 553.5,618.8 544.9,610.1 535.5,601.7 525.5,594.0 515.3,587.3 505.3,581.9 495.9,577.8 487.5,575.4 480.4,574.6 474.9,575.6 471.1,578.2 468.7,581.5 465.4,587.0 462.7,592.7 460.6,598.7 459.0,604.9 458.1,611.1" fill="url(#x0p19)" stroke="#191919" stroke-width="2.9"/>
  <defs><radialGradient id="x0p8" gradientUnits="userSpaceOnUse" cx="526" cy="462" r="131" fx="492" fy="428"><stop offset="0%" stop-color="#619fec"/><stop offset=".4" stop-color="#3857f8"/><stop offset="1" stop-color="#0e23a1"/></radialGradient></defs>
  <polygon points="468.2,528.8 468.5,537.0 469.3,542.1 470.1,543.4 475.8,544.2 484.3,543.4 495.1,541.2 507.9,537.5 522.1,532.7 537.3,526.8 552.7,520.1 568.0,512.8 582.4,505.2 595.4,497.6 606.5,490.3 615.2,483.6 621.4,477.7 624.6,472.9 624.8,468.0 622.0,463.2 616.4,456.9 608.4,449.3 598.3,440.7 586.3,431.4 573.0,421.8 558.9,412.2 544.5,403.1 530.4,394.7 517.2,387.4 505.2,381.5 495.1,377.1 487.4,375.6 485.2,383.5 482.9,394.2 480.4,407.4 478.0,422.4 475.6,438.7 473.5,455.8 471.6,472.8 470.1,489.3 469.0,504.4 468.4,517.8" fill="url(#x0p8)" stroke="#0e0e0e" stroke-width="2.9"/>
  <defs><radialGradient id="x0p18" gradientUnits="userSpaceOnUse" cx="127" cy="335" r="85" fx="105" fy="313"><stop offset="0%" stop-color="#ffffff"/><stop offset=".4" stop-color="#ffffff"/><stop offset="1" stop-color="#9f7e84"/></radialGradient></defs>
  <polygon points="62.2,335.2 62.5,341.5 63.4,347.8 65.0,354.0 67.1,359.9 69.8,365.7 73.1,371.1 76.9,376.2 81.1,380.9 85.8,385.2 90.9,389.0 96.4,392.2 102.1,395.0 108.1,397.1 114.3,398.6 120.5,399.6 126.9,399.9 133.2,399.6 139.5,398.6 145.7,397.1 151.6,395.0 151.9,394.9 153.9,392.6 154.8,388.1 154.5,381.6 153.1,373.4 150.6,363.8 147.1,353.1 142.7,341.7 137.7,330.2 132.1,318.9 126.3,308.2 120.4,298.6 114.6,290.5 109.3,284.1 104.5,279.7 100.6,277.5 97.5,277.5 96.4,278.1 90.9,281.4 85.8,285.2 81.1,289.4 76.9,294.1 73.1,299.2 69.8,304.7 67.1,310.4 65.0,316.4 63.4,322.6 62.5,328.8" fill="url(#x0p18)" stroke="#0a0a0a" stroke-width="2.9"/>
  <defs><radialGradient id="x0p11" gradientUnits="userSpaceOnUse" cx="539" cy="278" r="131" fx="505" fy="245"><stop offset="0%" stop-color="#5e9dec"/><stop offset=".4" stop-color="#3453f8"/><stop offset="1" stop-color="#091e9f"/></radialGradient></defs>
  <polygon points="480.1,352.5 481.6,357.9 486.9,357.7 494.7,355.3 504.9,351.6 517.2,346.6 531.1,340.7 546.1,334.1 561.5,326.9 576.8,319.5 591.5,312.1 604.9,305.1 616.5,298.7 625.8,293.2 632.6,288.7 633.2,284.7 627.4,279.0 619.4,271.8 609.4,263.3 597.7,253.9 584.9,244.0 571.5,233.8 557.8,223.9 544.6,214.5 532.2,206.2 521.2,199.0 511.9,193.5 504.8,189.7 499.7,192.3 497.8,200.2 495.7,210.9 493.5,223.9 491.2,238.9 488.9,255.1 486.7,272.0 484.8,288.9 483.1,305.2 481.7,320.3 480.7,333.5 480.2,344.4" fill="url(#x0p11)" stroke="#070707" stroke-width="2.9"/>
  <defs><radialGradient id="x0p2" gradientUnits="userSpaceOnUse" cx="423" cy="450" r="139" fx="387" fy="414"><stop offset="0%" stop-color="#b7b7b7"/><stop offset=".4" stop-color="#ababab"/><stop offset="1" stop-color="#6d5258"/></radialGradient></defs>
  <polygon points="336.7,438.6 338.1,447.1 347.6,456.6 358.5,467.4 370.3,479.0 382.5,491.2 394.8,503.3 406.7,514.9 417.6,525.6 427.2,535.0 435.1,542.6 441.0,548.3 444.7,551.7 446.0,552.8 453.9,550.8 463.6,547.3 467.2,545.6 469.4,543.6 478.7,519.0 481.1,505.9 483.5,490.8 485.9,474.5 488.0,457.5 489.9,440.4 491.4,424.0 492.5,408.8 493.1,395.4 487.4,375.6 484.6,368.8 482.0,364.3 476.7,365.3 468.8,368.4 458.3,372.9 445.5,378.5 431.0,385.1 415.4,392.4 399.2,400.2 383.1,408.1 367.7,415.8 353.5,423.0 341.1,429.5" fill="url(#x0p2)" stroke="#060606" stroke-width="2.9"/>
  <defs><radialGradient id="x0p10" gradientUnits="userSpaceOnUse" cx="351" cy="523" r="131" fx="318" fy="489"><stop offset="0%" stop-color="#5d9cec"/><stop offset=".4" stop-color="#3352f8"/><stop offset="1" stop-color="#081d9f"/></radialGradient></defs>
  <polygon points="271.8,582.1 274.6,585.8 281.2,593.0 288.4,599.5 296.2,605.3 304.6,610.3 313.4,614.5 322.6,617.8 332.0,620.1 341.6,621.6 351.4,622.0 361.1,621.6 370.7,620.1 380.2,617.8 389.3,614.5 398.2,610.3 406.5,605.3 414.3,599.5 421.5,593.0 428.1,585.8 433.9,577.9 438.9,569.6 443.1,560.8 446.0,552.8 444.8,551.5 441.3,547.9 435.6,542.1 427.8,534.3 418.3,524.9 407.5,514.1 395.7,502.4 383.4,490.3 371.1,478.2 359.3,466.6 348.3,455.9 338.1,447.1 332.3,457.3 325.0,470.9 317.1,485.7 309.1,501.1 301.2,516.6 293.8,531.6 287.1,545.4 281.3,557.7 276.8,567.8 273.6,575.4 271.9,580.3" fill="url(#x0p10)" stroke="#060606" stroke-width="2.9"/>
  <defs><radialGradient id="x0p0" gradientUnits="userSpaceOnUse" cx="378" cy="357" r="139" fx="343" fy="321"><stop offset="0%" stop-color="#b6b6b6"/><stop offset=".4" stop-color="#aaaaaa"/><stop offset="1" stop-color="#6c5056"/></radialGradient></defs>
  <polygon points="305.3,282.8 305.8,287.8 306.9,295.9 308.5,306.7 310.6,319.9 313.2,334.9 316.0,351.2 319.1,368.1 322.2,385.0 325.3,401.2 328.3,416.1 334.3,428.6 338.4,434.1 343.4,434.2 356.2,428.5 370.6,421.9 386.3,414.6 402.5,406.9 418.6,399.0 434.0,391.3 448.2,384.1 460.5,377.6 470.6,372.1 478.0,367.8 480.9,365.7 481.8,361.4 481.6,357.3 478.1,354.2 471.0,349.7 461.3,343.8 449.6,336.7 436.1,328.5 421.5,319.7 406.3,310.6 391.1,301.5 376.5,292.8 362.9,284.8 351.1,277.8 341.3,272.1 334.0,267.9 329.5,265.4 327.9,264.6 319.9,269.5 311.6,275.7 305.5,281.1" fill="url(#x0p0)" stroke="#030303" stroke-width="2.9"/>
  <defs><radialGradient id="x0p4" gradientUnits="userSpaceOnUse" cx="262" cy="477" r="139" fx="227" fy="441"><stop offset="0%" stop-color="#b6b6b6"/><stop offset=".4" stop-color="#aaaaaa"/><stop offset="1" stop-color="#6c5056"/></radialGradient></defs>
  <polygon points="158.4,460.5 158.8,461.7 160.4,465.0 163.1,470.3 166.8,477.4 171.4,486.1 176.7,496.0 182.5,506.6 188.5,517.7 194.6,528.7 200.5,539.3 205.9,549.1 210.8,557.6 214.8,564.6 217.8,569.7 219.8,572.9 220.5,573.9 222.2,574.5 231.9,578.0 241.9,580.5 252.2,582.1 262.5,582.6 271.8,582.1 273.3,580.9 276.2,576.8 280.6,569.7 286.2,560.2 292.8,548.4 300.1,534.8 308.0,520.0 316.0,504.6 323.9,489.1 331.3,474.1 338.0,460.3 342.7,450.3 340.5,438.0 338.4,434.1 332.1,430.0 319.1,425.7 304.0,423.5 287.6,421.2 270.5,418.8 253.3,416.5 236.9,414.4 221.7,412.4 208.4,410.8 197.4,409.6 189.3,408.7 184.3,408.4 182.5,408.4 181.0,410.3 174.8,418.6 169.5,427.4 165.1,436.8 161.6,446.5 159.1,456.6" fill="url(#x0p4)" stroke="#030303" stroke-width="2.9"/>
  <defs><radialGradient id="x0p6" gradientUnits="userSpaceOnUse" cx="433" cy="265" r="139" fx="398" fy="230"><stop offset="0%" stop-color="#b6b6b6"/><stop offset=".4" stop-color="#aaaaaa"/><stop offset="1" stop-color="#6c5056"/></radialGradient></defs>
  <polygon points="327.9,264.6 329.3,265.7 333.7,268.5 340.8,272.9 350.5,278.8 362.2,286.0 375.7,294.1 390.3,302.9 405.5,312.1 420.7,321.2 435.3,329.9 448.8,337.9 460.7,344.9 470.5,350.5 477.8,354.7 484.0,353.0 485.8,345.1 487.9,334.4 490.2,321.3 492.5,306.4 494.8,290.2 496.9,273.2 498.9,256.3 500.6,240.0 502.0,225.0 502.9,211.7 503.5,200.9 501.2,190.2 499.9,185.7 498.7,183.1 498.2,182.3 492.9,178.5 491.1,178.4 486.1,179.7 478.3,182.2 467.9,185.9 455.3,190.6 441.0,196.2 425.6,202.5 409.6,209.1 393.7,215.9 378.4,222.6 364.5,229.0 352.3,234.7 342.4,239.6 335.1,243.4 330.8,246.1 329.5,247.5 328.4,255.1" fill="url(#x0p6)" stroke="#030303" stroke-width="2.9"/>
  <defs><radialGradient id="x0p20" gradientUnits="userSpaceOnUse" cx="192" cy="516" r="85" fx="170" fy="494"><stop offset="0%" stop-color="#ffffff"/><stop offset=".4" stop-color="#ffffff"/><stop offset="1" stop-color="#9d7b81"/></radialGradient></defs>
  <polygon points="127.2,515.8 127.5,522.2 128.4,528.5 130.0,534.6 132.1,540.6 134.8,546.3 138.1,551.8 141.9,556.9 146.1,561.6 150.8,565.9 155.9,569.6 161.4,572.9 167.1,575.6 173.1,577.8 179.3,579.3 185.5,580.2 191.9,580.5 198.2,580.2 204.5,579.3 210.7,577.8 216.6,575.6 220.5,573.9 220.1,572.7 218.5,569.3 215.8,564.0 212.1,556.9 207.5,548.2 202.3,538.4 196.5,527.7 190.4,516.6 184.4,505.6 178.5,495.0 173.0,485.2 168.2,476.7 164.2,469.7 161.1,464.6 159.2,461.5 158.4,460.5 155.9,462.0 150.8,465.8 146.1,470.1 141.9,474.8 138.1,479.9 134.8,485.3 132.1,491.1 130.0,497.1 128.4,503.2 127.5,509.5" fill="url(#x0p20)" stroke="#020202" stroke-width="2.9"/>
  <defs><radialGradient id="x0p9" gradientUnits="userSpaceOnUse" cx="276" cy="376" r="131" fx="243" fy="342"><stop offset="0%" stop-color="#5c9bec"/><stop offset=".4" stop-color="#3151f8"/><stop offset="1" stop-color="#051b9e"/></radialGradient></defs>
  <polygon points="181.8,406.1 182.5,408.4 184.2,409.0 189.1,410.0 197.2,411.3 208.1,413.1 221.3,415.1 236.5,417.3 252.9,419.6 270.0,422.0 287.1,424.3 303.6,426.5 318.8,428.4 332.1,430.0 334.3,428.6 332.1,415.4 329.6,400.4 326.7,384.1 323.7,367.2 320.5,350.4 317.4,334.1 314.5,319.2 311.8,306.1 309.4,295.4 307.6,287.5 306.2,282.7 305.5,281.1 305.1,281.0 301.4,280.0 299.6,280.5 295.5,283.4 289.3,288.7 281.3,296.0 271.8,305.1 261.1,315.7 249.7,327.3 237.9,339.6 226.3,351.9 215.3,364.0 205.3,375.2 196.7,385.2 189.8,393.5 184.9,400.0 182.2,404.2" fill="url(#x0p9)" stroke="#020202" stroke-width="2.9"/>
  <defs><radialGradient id="x0p5" gradientUnits="userSpaceOnUse" cx="584" cy="374" r="139" fx="548" fy="338"><stop offset="0%" stop-color="#b6b6b6"/><stop offset=".4" stop-color="#aaaaaa"/><stop offset="1" stop-color="#6b5056"/></radialGradient></defs>
  <polygon points="480.9,365.7 482.4,369.9 485.1,376.4 488.5,384.3 492.5,393.3 495.2,396.7 505.4,405.3 517.4,414.5 530.7,424.2 544.8,433.7 559.1,442.9 573.2,451.3 586.5,458.6 598.4,464.5 612.7,468.3 626.3,470.4 627.3,470.3 633.6,467.2 636.0,465.5 639.0,460.6 642.0,452.6 644.9,441.8 647.6,428.5 650.0,413.3 652.1,396.8 653.7,379.6 654.8,362.3 655.3,345.7 655.2,330.3 654.5,316.8 653.3,305.6 651.6,297.3 649.5,292.0 644.5,287.9 643.5,287.8 640.7,287.5 635.9,286.9 629.6,286.4 622.7,286.5 612.4,290.2 600.1,295.2 586.2,301.1 571.3,307.7 555.8,314.9 540.5,322.3 525.9,329.7 512.5,336.7 500.9,343.1 491.5,348.7 484.7,353.1 481.6,357.3 481.2,361.4" fill="url(#x0p5)" stroke="#020202" stroke-width="2.9"/>
  <defs><radialGradient id="x0p7" gradientUnits="userSpaceOnUse" cx="603" cy="191" r="139" fx="567" fy="155"><stop offset="0%" stop-color="#b6b6b6"/><stop offset=".4" stop-color="#aaaaaa"/><stop offset="1" stop-color="#6b5055"/></radialGradient></defs>
  <polygon points="498.2,182.3 498.4,183.2 499.5,185.9 501.2,190.2 507.4,199.5 515.4,206.8 525.5,215.2 537.1,224.6 549.9,234.6 563.4,244.7 577.0,254.7 590.3,264.0 602.7,272.4 613.7,279.5 622.9,285.1 629.6,286.4 635.9,287.1 640.6,287.6 643.5,287.8 644.5,287.9 652.9,283.9 661.8,278.6 670.1,272.4 677.8,265.5 684.7,257.8 688.3,253.2 693.8,244.3 698.7,233.8 702.6,222.2 705.5,209.9 707.2,197.4 707.7,185.2 707.0,173.7 705.0,163.3 704.1,160.3 700.6,150.6 696.2,141.2 690.9,132.3 684.7,124.0 677.8,116.4 670.1,109.4 661.8,103.3 652.9,97.9 643.6,93.5 633.8,90.0 623.8,87.5 613.6,86.0 606.6,85.6 597.6,85.9 587.4,87.7 576.4,90.9 565.0,95.4 553.7,101.0 542.9,107.6 533.0,114.8 524.4,122.3 517.5,130.0 512.4,137.4 510.2,141.2 505.8,150.6 502.3,160.3 499.8,170.3 498.3,180.6" fill="url(#x0p7)" stroke="#020202" stroke-width="2.9"/>
  <defs><radialGradient id="x0p13" gradientUnits="userSpaceOnUse" cx="398" cy="183" r="125" fx="366" fy="151"><stop offset="0%" stop-color="#ef5240"/><stop offset=".4" stop-color="#ff0d0d"/><stop offset="1" stop-color="#93001d"/></radialGradient></defs>
  <polygon points="303.8,182.7 304.2,192.0 305.6,201.2 307.9,210.2 311.0,218.9 315.0,227.3 319.7,235.3 325.3,242.7 329.5,247.5 331.4,247.6 336.4,246.4 344.2,243.9 354.6,240.2 367.2,235.4 381.5,229.8 396.9,223.6 412.9,216.9 428.8,210.1 444.0,203.4 458.0,197.1 470.2,191.4 480.1,186.5 487.4,182.6 491.7,180.0 492.9,178.5 492.6,173.4 491.2,164.2 489.0,155.2 485.8,146.5 481.9,138.1 477.1,130.1 471.6,122.7 465.3,115.8 458.5,109.5 451.0,104.0 443.0,99.2 434.6,95.3 425.9,92.1 416.9,89.9 407.7,88.5 398.4,88.1 389.1,88.5 380.0,89.9 370.9,92.1 362.2,95.3 353.8,99.2 345.8,104.0 338.4,109.5 331.5,115.8 325.3,122.7 319.7,130.1 315.0,138.1 311.0,146.5 307.9,155.2 305.6,164.2 304.2,173.4" fill="url(#x0p13)" stroke="#010101" stroke-width="2.9"/>
  <defs><radialGradient id="x0p3" gradientUnits="userSpaceOnUse" cx="571" cy="559" r="139" fx="535" fy="523"><stop offset="0%" stop-color="#b6b6b6"/><stop offset=".4" stop-color="#aaaaaa"/><stop offset="1" stop-color="#6b4f55"/></radialGradient></defs>
  <polygon points="465.1,559.1 465.6,569.4 467.1,579.6 469.6,589.7 471.5,594.9 475.5,602.7 481.3,611.1 488.6,619.8 497.1,628.5 506.6,636.8 516.6,644.5 526.8,651.2 536.8,656.7 546.1,660.7 554.5,663.2 560.2,664.0 570.5,664.5 580.9,664.0 591.1,662.5 601.1,659.9 610.9,656.5 620.2,652.0 629.1,646.7 637.4,640.6 645.1,633.6 652.0,625.9 658.2,617.6 661.9,611.6 666.3,602.1 669.9,591.2 672.5,579.2 674.0,566.6 674.3,554.0 673.5,541.8 671.6,530.5 668.6,520.4 663.5,509.4 658.2,500.5 652.0,492.2 645.1,484.5 637.4,477.6 629.1,471.4 627.3,470.3 626.4,469.9 623.5,469.5 618.9,468.9 612.7,468.3 596.9,469.4 584.2,473.1 569.9,477.9 554.8,483.8 539.3,490.5 524.0,497.8 509.6,505.4 496.6,513.0 485.5,520.3 473.2,532.5 469.8,537.9 467.4,542.1 466.2,544.8 465.6,548.7" fill="url(#x0p3)" stroke="#000000" stroke-width="2.9"/>
  <defs><radialGradient id="x0p1" gradientUnits="userSpaceOnUse" cx="198" cy="302" r="139" fx="163" fy="266"><stop offset="0%" stop-color="#b6b6b6"/><stop offset=".4" stop-color="#aaaaaa"/><stop offset="1" stop-color="#6b4f55"/></radialGradient></defs>
  <polygon points="94.6,284.3 94.9,290.8 96.3,299.0 98.8,308.6 102.3,319.3 106.7,330.6 111.7,342.2 117.3,353.5 123.1,364.2 129.0,373.8 134.8,381.9 140.1,388.3 144.9,392.7 148.7,395.0 158.0,399.4 167.8,402.9 177.8,405.4 181.8,406.1 183.6,405.6 187.7,402.6 193.9,397.4 201.9,390.1 211.4,380.9 222.1,370.4 233.5,358.7 245.3,346.5 256.9,334.1 267.9,322.1 277.9,310.9 286.5,300.9 293.4,292.5 298.3,286.1 301.0,281.8 301.4,280.0 299.3,271.4 295.8,261.7 291.4,252.3 286.0,243.5 279.9,235.2 272.9,227.5 265.3,220.5 257.0,214.4 248.1,209.1 238.7,204.6 234.4,203.0 229.0,201.1 222.3,199.4 218.9,198.6 208.7,197.1 198.4,196.6 188.0,197.1 177.8,198.6 167.8,201.1 158.0,204.6 148.7,209.1 139.8,214.4 131.5,220.5 123.8,227.5 116.9,235.2 110.7,243.5 105.4,252.3 101.0,261.7 97.5,271.4 95.0,281.5" fill="url(#x0p1)" stroke="#000000" stroke-width="2.9"/>
  <defs><radialGradient id="x0p12" gradientUnits="userSpaceOnUse" cx="673" cy="381" r="125" fx="640" fy="349"><stop offset="0%" stop-color="#ef5240"/><stop offset=".4" stop-color="#ff0d0d"/><stop offset="1" stop-color="#93001d"/></radialGradient></defs>
  <polygon points="624.9,411.4 625.0,426.8 625.6,440.3 626.9,451.5 628.6,459.8 630.7,465.1 633.3,467.0 636.4,468.5 645.2,471.6 654.2,473.9 663.4,475.2 672.6,475.7 681.9,475.2 691.1,473.9 700.1,471.6 708.8,468.5 717.2,464.5 725.2,459.7 732.7,454.2 739.5,448.0 745.8,441.1 751.3,433.6 756.1,425.7 760.1,417.3 763.2,408.5 765.4,399.5 766.8,390.3 767.3,381.1 766.8,371.8 765.4,362.6 763.2,353.6 760.1,344.8 756.1,336.4 751.3,328.5 745.8,321.0 739.5,314.1 732.7,307.9 725.2,302.4 717.2,297.6 708.8,293.6 700.1,290.5 691.1,288.2 681.9,286.9 672.6,286.4 663.4,286.9 654.2,288.2 646.9,290.1 644.2,291.6 641.2,296.4 638.2,304.4 635.3,315.3 632.6,328.5 630.2,343.7 628.1,360.3 626.5,377.5 625.4,394.8" fill="url(#x0p12)" stroke="#000000" stroke-width="2.9"/>
  <defs><radialGradient id="x0p23" gradientUnits="userSpaceOnUse" cx="619" cy="174" r="85" fx="597" fy="152"><stop offset="0%" stop-color="#ffffff"/><stop offset=".4" stop-color="#ffffff"/><stop offset="1" stop-color="#9d7b81"/></radialGradient></defs>
  <polygon points="556.5,170.8 557.7,183.2 561.3,195.2 567.2,206.3 575.0,216.3 584.6,224.5 595.6,230.8 607.5,235.0 619.8,236.7 632.2,236.0 644.1,232.9 655.0,227.6 664.6,220.1 672.5,210.9 673.2,210.0 676.4,204.5 679.1,198.8 681.3,192.8 682.8,186.7 683.8,180.4 684.1,174.0 683.8,167.7 682.8,161.4 681.3,155.2 679.1,149.3 676.4,143.5 673.2,138.1 669.4,133.0 665.1,128.3 660.4,124.0 655.3,120.2 649.9,117.0 644.1,114.3 638.1,112.1 632.0,110.6 625.7,109.6 619.4,109.3 613.0,109.6 606.7,110.6 600.6,112.1 594.6,114.3 588.9,117.0 584.6,119.5 583.4,120.2 575.0,126.9 567.2,136.1 561.3,146.8 557.7,158.5" fill="url(#x0p23)" stroke="#000000" stroke-width="2.9"/>
  <defs><radialGradient id="x0p15" gradientUnits="userSpaceOnUse" cx="194" cy="271" r="85" fx="172" fy="249"><stop offset="0%" stop-color="#ffffff"/><stop offset=".4" stop-color="#ffffff"/><stop offset="1" stop-color="#9d7b81"/></radialGradient></defs>
  <polygon points="129.7,270.8 129.7,271.1 130.9,282.7 134.6,293.8 140.6,304.0 148.6,312.9 158.4,320.1 169.6,325.4 181.7,328.6 194.3,329.5 206.9,328.1 219.0,324.5 230.1,318.8 239.9,311.2 248.0,302.0 253.9,291.6 257.6,280.3 258.8,268.6 257.6,257.0 256.3,252.0 254.2,246.0 251.4,240.3 248.2,234.8 244.4,229.7 240.1,225.0 235.4,220.8 230.3,217.0 224.9,213.7 219.1,211.0 213.2,208.9 207.0,207.3 200.7,206.4 194.4,206.1 188.0,206.4 181.8,207.3 175.6,208.9 169.6,211.0 163.9,213.7 158.4,217.0 153.3,220.8 148.6,225.0 144.4,229.7 140.6,234.8 137.3,240.3 134.6,246.0 132.5,252.0 130.9,258.2 130.0,264.4" fill="url(#x0p15)" stroke="#000000" stroke-width="2.9"/>
  <defs><radialGradient id="x0p17" gradientUnits="userSpaceOnUse" cx="582" cy="571" r="85" fx="560" fy="549"><stop offset="0%" stop-color="#ffffff"/><stop offset=".4" stop-color="#ffffff"/><stop offset="1" stop-color="#9d7b81"/></radialGradient></defs>
  <polygon points="518.5,573.1 519.7,585.5 523.3,597.4 529.3,608.4 537.2,617.9 546.2,625.1 546.9,625.6 551.6,628.4 557.4,631.1 563.3,633.2 569.5,634.8 575.8,635.7 582.1,636.0 588.5,635.7 594.7,634.8 600.9,633.2 606.9,631.1 612.6,628.4 618.1,625.1 623.2,621.3 627.9,617.1 632.1,612.4 635.9,607.3 639.2,601.8 641.9,596.1 644.0,590.1 645.6,583.9 646.5,577.7 646.8,571.3 646.5,565.0 645.6,558.7 644.0,552.5 641.9,546.6 639.2,540.8 635.7,535.0 627.7,525.5 618.0,517.8 606.9,512.1 594.9,508.7 582.5,507.8 570.0,509.3 558.0,513.2 546.9,519.3 537.2,527.5 529.3,537.4 523.3,548.5 519.7,560.6" fill="url(#x0p17)" stroke="#000000" stroke-width="2.9"/>
</svg>