<svg xmlns="http://www.w3.org/2000/svg" xmlns:xlink="http://www.w3.org/1999/xlink" viewBox="0 0 800 645" width="800" height="645">
  <rect width="100%" height="100%" fill="#ffffff"/>
  <defs>
    <radialGradient id="x0g0" cx=".5" cy=".5" fx=".33" fy=".33" r=".66"><stop offset="0%" stop-color="#bebebe"/><stop offset="40%" stop-color="#b3b3b3"/><stop offset="100%" stop-color="#7b6268"/></radialGradient>
    <radialGradient id="x0g1" cx=".5" cy=".5" fx=".33" fy=".33" r=".66"><stop offset="0%" stop-color="#c1c1c1"/><stop offset="40%" stop-color="#b7b7b7"/><stop offset="100%" stop-color="#826a6f"/></radialGradient>
    <radialGradient id="x0g2" cx=".5" cy=".5" fx=".33" fy=".33" r=".66"><stop offset="0%" stop-color="#b9b9b9"/><stop offset="40%" stop-color="#adadad"/><stop offset="100%" stop-color="#71565c"/></radialGradient>
    <radialGradient id="x0g3" cx=".5" cy=".5" fx=".33" fy=".33" r=".66"><stop offset="0%" stop-color="#b6b6b6"/><stop offset="40%" stop-color="#aaaaaa"/><stop offset="100%" stop-color="#6b4f55"/></radialGradient>
    <radialGradient id="x0g4" cx=".5" cy=".5" fx=".33" fy=".33" r=".66"><stop offset="0%" stop-color="#b7b7b7"/><stop offset="40%" stop-color="#ababab"/><stop offset="100%" stop-color="#6e5258"/></radialGradient>
    <radialGradient id="x0g5" cx=".5" cy=".5" fx=".33" fy=".33" r=".66"><stop offset="0%" stop-color="#bcbcbc"/><stop offset="40%" stop-color="#b1b1b1"/><stop offset="100%" stop-color="#785f64"/></radialGradient>
    <radialGradient id="x0g6" cx=".5" cy=".5" fx=".33" fy=".33" r=".66"><stop offset="0%" stop-color="#c6c6c6"/><stop offset="40%" stop-color="#bdbdbd"/><stop offset="100%" stop-color="#8c767b"/></radialGradient>
    <radialGradient id="x0g7" cx=".5" cy=".5" fx=".33" fy=".33" r=".66"><stop offset="0%" stop-color="#cfcfcf"/><stop offset="40%" stop-color="#c7c7c7"/><stop offset="100%" stop-color="#9d8b8f"/></radialGradient>
    <radialGradient id="x0g8" cx=".5" cy=".5" fx=".33" fy=".33" r=".66"><stop offset="0%" stop-color="#629fec"/><stop offset="40%" stop-color="#3957f8"/><stop offset="100%" stop-color="#0e23a2"/></radialGradient>
    <radialGradient id="x0g9" cx=".5" cy=".5" fx=".33" fy=".33" r=".66"><stop offset="0%" stop-color="#69a4ed"/><stop offset="40%" stop-color="#425ff8"/><stop offset="100%" stop-color="#1a2ea6"/></radialGradient>
    <radialGradient id="x0g10" cx=".5" cy=".5" fx=".33" fy=".33" r=".66"><stop offset="0%" stop-color="#5c9bec"/><stop offset="40%" stop-color="#3151f8"/><stop offset="100%" stop-color="#051b9e"/></radialGradient>
    <radialGradient id="x0g11" cx=".5" cy=".5" fx=".33" fy=".33" r=".66"><stop offset="0%" stop-color="#7fb1f0"/><stop offset="40%" stop-color="#5e77f9"/><stop offset="100%" stop-color="#3c4db3"/></radialGradient>
    <radialGradient id="x0g12" cx=".5" cy=".5" fx=".33" fy=".33" r=".66"><stop offset="0%" stop-color="#f05d4c"/><stop offset="40%" stop-color="#ff1c1c"/><stop offset="100%" stop-color="#9a102b"/></radialGradient>
    <radialGradient id="x0g13" cx=".5" cy=".5" fx=".33" fy=".33" r=".66"><stop offset="0%" stop-color="#f48e83"/><stop offset="40%" stop-color="#ff6262"/><stop offset="100%" stop-color="#b8596c"/></radialGradient>
  </defs>
  <g opacity="0.60">
    <path d="M 425.9 125.2 C 427.5 128.9 427.2 133.1 427.8 137.1 C 428.3 141.1 429.7 145.2 429.2 149.1 C 428.6 152.9 426.5 156.7 424.6 160.3 C 422.6 163.9 420.3 167.6 417.4 170.5 C 414.4 173.5 410.7 176.0 406.8 178.1 C 403.0 180.3 398.8 182.4 394.5 183.4 C 390.3 184.4 385.7 184.3 381.2 184.3 C 376.7 184.3 371.8 184.2 367.5 183.3 C 363.2 182.4 358.9 180.8 355.2 178.8 C 351.4 176.7 348.1 173.7 344.9 170.8 C 341.7 168.0 338.8 164.8 336.0 161.6 C 333.3 158.4 330.0 155.2 328.5 151.6 C 327.0 147.9 327.3 143.8 326.9 139.8 C 326.6 135.8 325.5 131.6 326.3 127.7 C 327.2 123.9 329.6 120.4 331.9 116.9 C 334.1 113.5 337.0 110.3 339.9 107.2 C 342.8 104.1 345.8 101.0 349.2 98.4 C 352.6 95.8 356.3 92.7 360.4 91.5 C 364.5 90.3 369.2 91.1 373.7 91.2 C 378.2 91.4 383.2 91.2 387.4 92.3 C 391.7 93.4 395.7 95.6 399.3 97.9 C 402.9 100.2 406.1 103.2 409.3 106.1 C 412.4 109.0 415.5 112.1 418.2 115.3 C 421.0 118.5 424.3 121.6 425.9 125.2 Z" fill="#81aacc" fill-rule="evenodd" stroke="none"/>
  </g>
  <circle cx="389.5" cy="110.6" r="29.1" fill="url(#x0g13)" stroke="#808080" stroke-width="5.7"/>
  <line x1="407.4" y1="128.4" x2="428.9" y2="173.8" stroke="#3a3a3a" stroke-width="10.0" stroke-linecap="round"/>
  <line x1="391.9" y1="135.8" x2="413.4" y2="181.1" stroke="#3a3a3a" stroke-width="10.0" stroke-linecap="round"/>
  <g opacity="0.60">
    <path d="M 425.9 89.0 C 428.0 92.6 430.2 96.4 431.1 100.3 C 431.9 104.1 431.2 108.2 431.0 112.2 C 430.8 116.2 431.1 120.5 429.9 124.3 C 428.6 128.1 426.2 131.7 423.6 134.9 C 421.1 138.2 417.6 141.1 414.4 143.9 C 411.1 146.7 407.7 149.5 404.0 151.9 C 400.4 154.4 396.7 157.4 392.6 158.6 C 388.4 159.8 383.6 159.3 379.1 159.3 C 374.6 159.4 369.6 159.7 365.3 158.7 C 361.0 157.6 357.0 155.5 353.3 153.2 C 349.6 151.0 346.3 147.9 343.2 145.0 C 340.1 142.0 337.0 138.9 334.5 135.6 C 332.0 132.3 329.0 128.9 327.9 125.1 C 326.9 121.3 328.1 117.0 328.4 113.0 C 328.7 109.0 328.3 104.8 329.8 101.1 C 331.2 97.4 334.5 94.2 337.2 90.9 C 339.8 87.6 342.5 84.3 345.6 81.3 C 348.7 78.3 351.9 75.2 355.6 72.9 C 359.3 70.7 363.5 69.1 367.8 67.9 C 372.1 66.8 377.0 66.2 381.5 66.0 C 386.0 65.7 390.6 65.5 394.9 66.5 C 399.2 67.4 403.5 69.5 407.4 71.6 C 411.3 73.6 415.2 76.0 418.2 79.0 C 421.3 81.9 423.8 85.5 425.9 89.0 Z" fill="#962d2d" fill-rule="evenodd" stroke="none"/>
  </g>
  <circle cx="641.6" cy="120.5" r="32.4" fill="url(#x0g7)" stroke="#7c7c7c" stroke-width="5.7"/>
  <line x1="624.2" y1="142.0" x2="578.2" y2="198.8" stroke="#393939" stroke-width="14.3" stroke-linecap="round"/>
  <circle cx="432.5" cy="201.4" r="32.4" fill="url(#x0g6)" stroke="#525252" stroke-width="5.7"/>
  <line x1="461.4" y1="205.4" x2="534.7" y2="215.3" stroke="#2e2e2e" stroke-width="14.3" stroke-linecap="round"/>
  <line x1="417.5" y1="223.3" x2="379.9" y2="278.0" stroke="#212121" stroke-width="14.3" stroke-linecap="round"/>
  <circle cx="561.9" cy="219.0" r="30.5" fill="url(#x0g11)" stroke="#515151" stroke-width="5.7"/>
  <line x1="573.6" y1="239.4" x2="605.3" y2="294.5" stroke="#1e1e1e" stroke-width="14.3" stroke-linecap="round"/>
  <circle cx="143.3" cy="235.5" r="32.4" fill="url(#x0g1)" stroke="#393939" stroke-width="5.7"/>
  <line x1="164.4" y1="253.7" x2="219.3" y2="301.0" stroke="#181818" stroke-width="14.3" stroke-linecap="round"/>
  <g opacity="0.60">
    <path d="M 453.0 418.3 C 454.0 422.1 454.7 426.2 454.9 430.0 C 455.0 433.9 454.9 437.9 453.9 441.7 C 452.9 445.4 450.9 449.1 448.9 452.6 C 446.9 456.1 444.7 459.6 442.0 462.7 C 439.3 465.9 436.2 468.8 432.9 471.4 C 429.6 474.1 426.1 476.7 422.2 478.6 C 418.4 480.5 414.1 481.8 409.9 483.1 C 405.7 484.3 401.2 485.3 396.9 486.1 C 392.5 486.8 388.0 487.3 383.6 487.6 C 379.1 487.9 374.6 487.8 370.1 487.8 C 365.6 487.8 361.1 487.9 356.6 487.7 C 352.1 487.4 347.1 487.7 343.2 486.5 C 339.4 485.3 335.3 483.6 333.4 480.6 C 331.6 477.7 332.5 472.8 332.1 468.9 C 331.7 464.9 331.5 461.0 331.1 457.1 C 330.8 453.1 330.5 449.2 330.0 445.3 C 329.6 441.3 329.2 437.4 328.3 433.5 C 327.4 429.7 326.0 425.9 324.7 422.1 C 323.4 418.4 322.5 414.4 320.8 410.8 C 319.0 407.3 316.3 404.0 314.1 400.6 C 311.8 397.2 309.5 393.8 307.3 390.3 C 305.0 386.9 302.6 383.6 300.6 380.1 C 298.6 376.5 296.8 372.9 295.3 369.2 C 293.7 365.5 292.5 361.7 291.4 357.9 C 290.2 354.1 289.3 350.2 288.5 346.3 C 287.8 342.4 287.3 338.5 287.0 334.6 C 286.7 330.7 286.6 326.7 286.7 322.8 C 286.9 318.8 286.9 314.9 287.7 311.0 C 288.5 307.2 289.8 303.3 291.4 299.7 C 293.0 296.0 294.7 292.2 297.1 289.0 C 299.4 285.7 302.5 282.7 305.7 280.0 C 308.8 277.2 312.5 274.9 316.2 272.6 C 319.8 270.3 323.6 268.1 327.7 266.4 C 331.7 264.8 336.0 263.6 340.3 262.7 C 344.7 261.9 349.2 261.5 353.7 261.2 C 358.1 261.0 362.6 260.8 367.0 261.3 C 371.4 261.7 375.8 262.9 380.1 264.1 C 384.3 265.3 388.7 266.4 392.6 268.3 C 396.5 270.1 400.0 272.7 403.4 275.2 C 406.9 277.8 410.2 280.5 413.0 283.6 C 415.8 286.6 418.4 289.9 420.4 293.4 C 422.4 296.9 423.8 300.7 425.2 304.5 C 426.5 308.2 427.8 312.0 428.6 315.9 C 429.4 319.8 429.6 323.7 429.9 327.7 C 430.3 331.6 430.8 335.5 431.0 339.5 C 431.2 343.4 431.1 347.4 431.1 351.3 C 431.2 355.2 431.0 359.2 431.4 363.1 C 431.8 367.1 432.8 370.9 433.6 374.8 C 434.4 378.7 434.7 382.7 436.1 386.4 C 437.6 390.1 440.0 393.5 442.1 397.0 C 444.2 400.5 447.0 403.7 448.8 407.2 C 450.6 410.8 452.0 414.5 453.0 418.3 Z" fill="#8e1d1d" fill-rule="evenodd" stroke="none"/>
  </g>
  <circle cx="364.9" cy="299.8" r="32.4" fill="url(#x0g0)" stroke="#292929" stroke-width="5.7"/>
  <line x1="337.4" y1="312.5" x2="267.5" y2="322.7" stroke="#141414" stroke-width="10.0" stroke-linecap="round" stroke-dasharray="10.0,20.0"/>
  <line x1="335.0" y1="295.5" x2="265.0" y2="305.7" stroke="#141414" stroke-width="10.0" stroke-linecap="round"/>
  <line x1="385.1" y1="319.1" x2="414.9" y2="373.7" stroke="#0e0e0e" stroke-width="10.0" stroke-linecap="round"/>
  <line x1="370.1" y1="327.3" x2="399.8" y2="381.9" stroke="#0e0e0e" stroke-width="10.0" stroke-linecap="round" stroke-dasharray="10.0,20.0"/>
  <circle cx="617.8" cy="316.2" r="32.4" fill="url(#x0g5)" stroke="#212121" stroke-width="5.7"/>
  <line x1="646.5" y1="307.3" x2="701.1" y2="306.7" stroke="#0f0f0f" stroke-width="10.0" stroke-linecap="round"/>
  <line x1="646.7" y1="324.5" x2="701.3" y2="323.9" stroke="#0f0f0f" stroke-width="10.0" stroke-linecap="round"/>
  <line x1="601.9" y1="339.2" x2="561.7" y2="397.7" stroke="#0d0d0d" stroke-width="14.3" stroke-linecap="round"/>
  <g opacity="0.60">
    <path d="M 263.4 433.1 C 263.5 437.0 263.0 441.0 262.7 444.9 C 262.3 448.9 262.2 452.9 261.2 456.8 C 260.2 460.6 258.5 464.3 256.7 467.9 C 254.8 471.5 252.5 475.0 250.3 478.5 C 248.2 482.0 246.2 485.6 243.8 488.9 C 241.3 492.2 238.8 495.7 235.6 498.4 C 232.5 501.2 228.9 503.8 225.0 505.5 C 221.0 507.2 216.2 507.8 211.9 508.6 C 207.5 509.5 203.0 511.1 198.7 510.7 C 194.4 510.4 190.2 508.1 186.1 506.5 C 181.9 504.9 177.4 503.6 173.9 501.3 C 170.3 498.9 167.4 495.7 164.7 492.5 C 162.1 489.3 159.9 485.8 157.8 482.3 C 155.6 478.8 153.7 475.2 151.9 471.5 C 150.1 467.9 147.9 464.2 147.1 460.4 C 146.3 456.6 147.0 452.5 147.2 448.6 C 147.4 444.6 147.2 440.5 148.2 436.7 C 149.2 432.9 151.3 429.3 153.1 425.6 C 154.8 422.0 157.0 418.4 158.6 414.7 C 160.1 411.0 161.1 407.1 162.2 403.3 C 163.3 399.5 164.5 395.6 165.1 391.7 C 165.8 387.7 166.1 383.8 166.2 379.8 C 166.4 375.9 166.0 371.9 165.9 367.9 C 165.9 364.0 165.9 360.0 166.0 356.0 C 166.1 352.0 166.0 348.0 166.4 344.1 C 166.9 340.2 167.4 336.1 168.7 332.4 C 170.1 328.7 172.1 325.0 174.5 321.6 C 176.8 318.2 179.3 314.9 182.6 312.2 C 185.8 309.5 189.7 307.1 193.7 305.5 C 197.7 303.9 202.2 303.2 206.6 302.7 C 211.0 302.2 215.7 302.2 220.1 302.5 C 224.6 302.9 229.1 303.4 233.1 304.8 C 237.2 306.3 240.8 309.0 244.4 311.4 C 247.9 313.8 251.2 316.6 254.4 319.4 C 257.6 322.3 261.0 325.1 263.5 328.3 C 266.0 331.6 268.2 335.2 269.4 338.9 C 270.6 342.7 270.4 346.8 270.7 350.8 C 271.0 354.7 271.5 358.8 271.0 362.7 C 270.6 366.6 269.3 370.4 268.2 374.3 C 267.1 378.1 265.5 381.9 264.5 385.8 C 263.6 389.7 263.2 393.6 262.6 397.5 C 262.0 401.5 261.0 405.4 260.9 409.4 C 260.8 413.3 261.5 417.3 261.9 421.2 C 262.3 425.2 263.3 429.1 263.4 433.1 Z" fill="#538ab9" fill-rule="evenodd" stroke="none"/>
  </g>
  <circle cx="239.2" cy="318.1" r="30.5" fill="url(#x0g9)" stroke="#202020" stroke-width="5.7"/>
  <line x1="244.0" y1="343.3" x2="234.6" y2="403.1" stroke="#0a0a0a" stroke-width="10.0" stroke-linecap="round" stroke-dasharray="10.0,20.0"/>
  <line x1="227.0" y1="340.6" x2="217.7" y2="400.5" stroke="#0a0a0a" stroke-width="10.0" stroke-linecap="round"/>
  <g opacity="0.60">
    <path d="M 778.0 329.6 C 778.7 333.4 780.3 337.3 780.0 341.2 C 779.7 345.0 777.5 348.7 776.0 352.4 C 774.5 356.2 773.3 360.0 771.2 363.5 C 769.1 366.9 766.2 370.1 763.3 373.0 C 760.3 375.9 757.1 378.7 753.5 381.1 C 750.0 383.5 746.2 385.9 742.1 387.3 C 738.0 388.6 733.3 388.7 728.8 389.3 C 724.4 390.0 719.7 391.7 715.5 391.2 C 711.3 390.6 707.6 387.8 703.6 386.0 C 699.7 384.2 695.6 382.4 691.8 380.3 C 688.1 378.1 684.4 375.7 681.3 373.0 C 678.1 370.3 675.1 367.2 672.7 363.9 C 670.4 360.6 668.9 356.8 667.2 353.1 C 665.5 349.5 663.2 345.8 662.6 342.0 C 662.1 338.2 663.2 334.3 663.8 330.4 C 664.4 326.6 664.9 322.6 666.1 318.8 C 667.3 315.0 668.8 311.3 670.9 307.8 C 672.9 304.3 675.5 301.0 678.3 298.0 C 681.2 295.0 684.4 292.0 688.0 289.8 C 691.6 287.5 695.9 286.1 700.0 284.5 C 704.1 282.9 708.4 280.8 712.6 280.4 C 716.9 280.0 721.4 281.2 725.7 281.9 C 730.1 282.7 734.6 283.4 738.7 284.9 C 742.8 286.3 746.7 288.4 750.4 290.6 C 754.0 292.9 757.3 295.7 760.3 298.5 C 763.4 301.4 766.2 304.6 768.7 307.8 C 771.2 311.0 773.7 314.4 775.3 318.0 C 776.8 321.6 777.2 325.7 778.0 329.6 Z" fill="#8b1616" fill-rule="evenodd" stroke="none"/>
  </g>
  <circle cx="727.0" cy="315.0" r="29.1" fill="url(#x0g12)" stroke="#171717" stroke-width="5.7"/>
  <g opacity="0.60">
    <path d="M 759.9 310.1 C 760.6 314.0 760.8 317.9 760.5 321.7 C 760.1 325.6 759.2 329.6 758.0 333.4 C 756.9 337.1 755.7 341.0 753.5 344.3 C 751.4 347.7 748.2 350.7 745.1 353.4 C 741.9 356.2 738.3 358.6 734.7 361.0 C 731.2 363.3 727.5 365.8 723.6 367.6 C 719.7 369.4 715.5 371.0 711.2 371.7 C 706.9 372.5 702.2 372.4 697.8 372.4 C 693.3 372.4 688.8 372.8 684.5 371.9 C 680.3 371.0 676.2 368.9 672.3 367.0 C 668.4 365.0 664.5 362.9 661.2 360.3 C 658.0 357.6 655.3 354.3 653.0 350.9 C 650.7 347.6 648.5 344.0 647.3 340.3 C 646.2 336.5 646.6 332.4 646.3 328.5 C 645.9 324.6 644.8 320.5 645.3 316.7 C 645.8 312.8 647.6 309.1 649.1 305.4 C 650.5 301.6 651.8 297.8 653.9 294.3 C 655.9 290.9 658.6 287.6 661.4 284.6 C 664.2 281.6 667.4 278.7 670.8 276.1 C 674.2 273.5 677.7 270.9 681.6 269.1 C 685.4 267.2 689.6 265.9 693.8 265.0 C 698.1 264.2 702.9 263.7 707.2 263.8 C 711.6 264.0 715.9 264.4 720.0 265.7 C 724.0 267.1 727.7 269.7 731.4 271.9 C 735.1 274.2 738.8 276.5 742.1 279.1 C 745.3 281.8 748.6 284.7 751.0 288.0 C 753.4 291.2 754.9 295.0 756.4 298.7 C 757.9 302.4 759.2 306.3 759.9 310.1 Z" fill="#4984b5" fill-rule="evenodd" stroke="none"/>
  </g>
  <g opacity="0.60">
    <path d="M 615.5 427.3 C 616.7 431.1 617.7 434.9 618.0 438.8 C 618.4 442.7 617.9 446.7 617.6 450.7 C 617.2 454.6 617.0 458.6 616.1 462.4 C 615.1 466.2 613.5 470.0 611.9 473.7 C 610.3 477.4 608.5 481.0 606.4 484.5 C 604.2 487.9 601.8 491.3 599.0 494.4 C 596.3 497.5 593.1 500.4 589.8 503.1 C 586.5 505.8 583.1 508.4 579.3 510.5 C 575.5 512.7 571.4 514.3 567.3 515.9 C 563.2 517.5 559.0 519.3 554.7 520.2 C 550.3 521.1 545.8 521.0 541.3 521.3 C 536.8 521.6 532.2 522.1 527.8 521.8 C 523.3 521.5 518.9 520.5 514.6 519.5 C 510.3 518.5 505.9 517.2 501.8 515.6 C 497.8 514.0 493.8 512.0 490.1 509.7 C 486.5 507.4 483.1 504.7 480.0 501.9 C 476.9 499.0 474.2 495.8 471.6 492.6 C 469.1 489.3 466.4 486.0 464.8 482.4 C 463.3 478.7 463.0 474.6 462.3 470.7 C 461.5 466.8 460.0 462.9 460.2 459.0 C 460.5 455.1 462.6 451.3 463.6 447.5 C 464.7 443.7 465.5 439.8 466.8 436.0 C 468.0 432.2 469.7 428.5 471.0 424.7 C 472.4 420.9 473.3 417.0 474.8 413.3 C 476.2 409.6 477.7 405.7 479.8 402.3 C 481.8 398.8 484.4 395.4 487.3 392.5 C 490.2 389.5 493.6 386.7 497.3 384.5 C 500.9 382.3 505.2 380.8 509.3 379.2 C 513.4 377.6 517.7 375.8 522.0 375.0 C 526.3 374.3 530.9 374.5 535.4 374.5 C 539.8 374.4 544.4 374.3 548.9 374.9 C 553.3 375.4 557.7 376.5 561.9 377.8 C 566.1 379.0 570.2 380.8 574.2 382.6 C 578.2 384.5 582.0 386.5 585.7 388.9 C 589.3 391.2 592.9 393.7 596.0 396.5 C 599.1 399.3 601.9 402.5 604.4 405.7 C 606.9 409.0 609.0 412.5 610.9 416.1 C 612.7 419.7 614.3 423.5 615.5 427.3 Z" fill="#538bb9" fill-rule="evenodd" stroke="none"/>
  </g>
  <circle cx="546.8" cy="419.3" r="30.5" fill="url(#x0g8)" stroke="#0f0f0f" stroke-width="5.7"/>
  <line x1="519.6" y1="415.4" x2="449.0" y2="405.3" stroke="#080808" stroke-width="14.3" stroke-linecap="round"/>
  <line x1="558.0" y1="438.0" x2="589.4" y2="490.5" stroke="#020202" stroke-width="14.3" stroke-linecap="round"/>
  <g opacity="0.60">
    <path d="M 597.4 367.8 C 598.9 371.6 600.5 375.4 601.5 379.2 C 602.6 383.1 603.6 387.0 603.9 390.9 C 604.2 394.9 603.5 398.9 603.1 402.9 C 602.8 406.9 602.6 410.9 602.0 414.9 C 601.4 418.8 600.4 422.7 599.3 426.6 C 598.3 430.5 597.3 434.5 595.7 438.2 C 594.1 441.9 592.1 445.6 589.7 448.9 C 587.3 452.2 584.3 455.4 581.1 458.2 C 578.0 461.0 574.3 463.6 570.5 465.7 C 566.7 467.9 562.6 469.9 558.4 471.2 C 554.1 472.5 549.6 473.0 545.1 473.4 C 540.7 473.9 535.9 474.1 531.5 473.8 C 527.0 473.4 522.5 472.8 518.4 471.5 C 514.2 470.1 510.3 467.8 506.4 465.7 C 502.5 463.7 498.7 461.4 495.0 459.0 C 491.4 456.7 487.5 454.4 484.4 451.6 C 481.3 448.7 478.5 445.4 476.4 441.9 C 474.3 438.4 473.2 434.4 471.9 430.6 C 470.5 426.8 468.9 423.0 468.2 419.1 C 467.5 415.2 467.1 411.3 467.6 407.4 C 468.1 403.5 470.0 399.7 471.2 395.8 C 472.4 391.9 473.2 388.0 474.7 384.2 C 476.2 380.5 478.0 376.7 480.1 373.2 C 482.2 369.7 484.7 366.3 487.4 363.1 C 490.1 359.9 493.2 356.9 496.4 354.1 C 499.7 351.4 503.4 349.0 507.1 346.6 C 510.8 344.2 514.6 342.0 518.4 339.9 C 522.3 337.8 526.1 335.7 530.1 333.9 C 534.1 332.0 538.4 330.4 542.6 329.0 C 546.8 327.6 550.8 325.4 555.1 325.5 C 559.3 325.6 563.8 327.8 567.9 329.5 C 572.0 331.2 576.5 332.8 579.6 335.5 C 582.8 338.2 584.6 342.2 586.8 345.7 C 589.0 349.2 590.8 352.9 592.6 356.6 C 594.4 360.3 595.9 364.0 597.4 367.8 Z" fill="#810202" fill-rule="evenodd" stroke="none"/>
  </g>
  <circle cx="420.1" cy="401.2" r="32.4" fill="url(#x0g2)" stroke="#0f0f0f" stroke-width="5.7"/>
  <line x1="405.2" y1="425.5" x2="356.5" y2="468.1" stroke="#040404" stroke-width="10.0" stroke-linecap="round"/>
  <line x1="393.9" y1="412.6" x2="345.2" y2="455.1" stroke="#040404" stroke-width="10.0" stroke-linecap="round" stroke-dasharray="10.0,20.0"/>
  <g opacity="0.60">
    <path d="M 453.0 360.6 C 454.0 364.5 454.6 368.4 455.2 372.3 C 455.7 376.3 456.2 380.3 456.2 384.2 C 456.1 388.1 455.8 392.1 455.0 396.0 C 454.1 399.9 452.8 403.7 451.2 407.4 C 449.7 411.1 447.9 414.8 445.5 418.1 C 443.1 421.5 440.1 424.5 437.0 427.4 C 433.9 430.3 430.6 433.1 427.0 435.4 C 423.4 437.7 419.5 440.0 415.3 441.3 C 411.2 442.6 406.4 442.7 402.0 443.3 C 397.5 443.8 392.9 444.9 388.6 444.4 C 384.2 443.9 380.0 441.8 375.9 440.3 C 371.7 438.8 367.3 437.4 363.6 435.3 C 359.8 433.2 356.5 430.3 353.4 427.5 C 350.2 424.7 347.2 421.6 344.7 418.3 C 342.3 415.0 340.5 411.3 338.8 407.7 C 337.0 404.0 335.8 400.2 334.3 396.5 C 332.8 392.7 331.4 388.9 330.0 385.2 C 328.5 381.4 327.2 377.6 325.7 373.9 C 324.2 370.2 322.8 366.4 320.7 362.9 C 318.6 359.4 315.7 356.2 313.3 352.9 C 310.9 349.5 308.5 346.2 306.3 342.7 C 304.1 339.2 301.9 335.7 300.1 332.1 C 298.2 328.5 296.4 324.8 295.1 321.1 C 293.8 317.3 293.0 313.4 292.2 309.5 C 291.5 305.6 290.9 301.6 290.6 297.7 C 290.3 293.7 290.2 289.8 290.4 285.8 C 290.6 281.9 291.0 277.9 291.6 274.0 C 292.3 270.0 293.0 266.1 294.3 262.3 C 295.6 258.6 297.4 254.8 299.4 251.3 C 301.5 247.8 303.9 244.4 306.7 241.3 C 309.4 238.2 312.6 235.3 315.9 232.6 C 319.2 229.9 322.6 227.2 326.4 225.1 C 330.1 223.0 334.2 221.2 338.5 219.9 C 342.7 218.5 347.2 217.8 351.6 217.1 C 356.1 216.4 360.5 215.5 364.9 215.7 C 369.3 216.0 373.8 217.5 378.1 218.6 C 382.4 219.7 387.0 220.5 390.9 222.2 C 394.9 224.0 398.5 226.7 401.9 229.2 C 405.4 231.7 408.7 234.4 411.8 237.4 C 414.8 240.3 417.6 243.4 420.1 246.7 C 422.6 250.0 424.9 253.5 426.9 257.0 C 428.9 260.6 430.7 264.2 432.2 268.0 C 433.7 271.7 434.7 275.6 435.9 279.4 C 437.0 283.3 438.4 287.1 438.9 291.0 C 439.4 294.9 439.1 298.9 439.1 302.9 C 439.1 306.8 438.6 310.8 439.0 314.8 C 439.3 318.7 440.3 322.6 441.2 326.5 C 442.1 330.4 443.0 334.3 444.2 338.1 C 445.5 341.9 447.2 345.6 448.7 349.3 C 450.1 353.1 451.9 356.8 453.0 360.6 Z" fill="#4984b5" fill-rule="evenodd" stroke="none"/>
  </g>
  <circle cx="222.2" cy="427.1" r="32.4" fill="url(#x0g4)" stroke="#080808" stroke-width="5.7"/>
  <line x1="251.8" y1="431.5" x2="310.8" y2="459.2" stroke="#020202" stroke-width="10.0" stroke-linecap="round" stroke-dasharray="10.0,20.0"/>
  <line x1="244.5" y1="447.1" x2="303.5" y2="474.8" stroke="#020202" stroke-width="10.0" stroke-linecap="round"/>
  <g opacity="0.60">
    <path d="M 263.4 398.5 C 263.9 402.4 264.9 406.3 264.9 410.2 C 265.0 414.1 264.4 418.0 263.8 421.9 C 263.3 425.8 263.0 429.8 261.6 433.5 C 260.3 437.2 258.3 440.8 255.8 444.0 C 253.3 447.2 250.0 449.9 246.8 452.7 C 243.6 455.4 240.4 458.2 236.8 460.5 C 233.2 462.7 229.3 464.8 225.1 466.0 C 221.0 467.3 216.3 467.4 211.9 467.9 C 207.5 468.4 203.0 469.6 198.8 469.0 C 194.5 468.4 190.5 466.0 186.6 464.1 C 182.7 462.3 178.6 460.5 175.2 458.0 C 171.8 455.6 168.8 452.5 166.2 449.4 C 163.6 446.2 161.4 442.8 159.4 439.3 C 157.5 435.8 156.1 432.0 154.5 428.3 C 153.0 424.7 151.1 421.0 150.2 417.2 C 149.3 413.5 149.1 409.6 149.3 405.7 C 149.4 401.8 150.0 397.8 151.0 394.0 C 151.9 390.2 153.2 386.5 154.7 382.8 C 156.2 379.2 158.5 375.7 160.1 372.1 C 161.7 368.5 163.5 364.9 164.5 361.1 C 165.4 357.3 165.4 353.3 165.8 349.4 C 166.1 345.5 166.5 341.6 166.7 337.7 C 166.9 333.8 166.6 329.8 166.7 325.9 C 166.8 322.0 166.5 318.0 167.2 314.2 C 167.9 310.4 169.4 306.6 170.8 302.9 C 172.2 299.2 173.5 295.3 175.7 292.0 C 177.8 288.6 180.7 285.5 183.7 282.6 C 186.7 279.7 190.0 276.9 193.6 274.7 C 197.2 272.5 201.1 270.7 205.2 269.3 C 209.3 268.0 213.9 267.2 218.2 266.6 C 222.6 266.0 227.0 265.3 231.3 265.7 C 235.6 266.2 239.9 267.8 244.0 269.3 C 248.1 270.7 252.5 272.2 255.9 274.5 C 259.4 276.8 262.4 280.0 264.7 283.3 C 267.0 286.6 268.5 290.4 269.7 294.2 C 270.9 297.9 271.6 301.8 272.2 305.7 C 272.8 309.6 273.4 313.5 273.3 317.4 C 273.3 321.3 272.3 325.2 271.7 329.1 C 271.1 333.0 270.6 336.9 269.8 340.7 C 268.9 344.5 267.8 348.3 266.7 352.1 C 265.5 355.9 263.6 359.6 262.9 363.4 C 262.1 367.2 262.4 371.2 262.3 375.1 C 262.1 379.0 261.7 383.0 261.9 386.9 C 262.1 390.8 262.9 394.7 263.4 398.5 Z" fill="#800101" fill-rule="evenodd" stroke="none"/>
  </g>
  <circle cx="331.6" cy="478.4" r="30.5" fill="url(#x0g10)" stroke="#020202" stroke-width="5.7"/>
  <circle cx="601.3" cy="510.3" r="32.4" fill="url(#x0g3)" stroke="#000000" stroke-width="5.7"/>
</svg>