<svg xmlns="http://www.w3.org/2000/svg" xmlns:xlink="http://www.w3.org/1999/xlink" viewBox="0 0 800 645" width="800" height="645">
  <rect width="100%" height="100%" fill="#ffffff"/>
  <defs>
    <radialGradient id="x0g0" cx=".5" cy=".5" fx=".33" fy=".33" r=".66"><stop offset="0%" stop-color="#bebebe"/><stop offset="40%" stop-color="#b3b3b3"/><stop offset="100%" stop-color="#7b6268"/></radialGradient>
    <radialGradient id="x0g1" cx=".5" cy=".5" fx=".33" fy=".33" r=".66"><stop offset="0%" stop-color="#c1c1c1"/><stop offset="40%" stop-color="#b7b7b7"/><stop offset="100%" stop-color="#826a6f"/></radialGradient>
    <radialGradient id="x0g2" cx=".5" cy=".5" fx=".33" fy=".33" r=".66"><stop offset="0%" stop-color="#b9b9b9"/><stop offset="40%" stop-color="#adadad"/><stop offset="100%" stop-color="#71565c"/></radialGradient>
    <radialGradient id="x0g3" cx=".5" cy=".5" fx=".33" fy=".33" r=".66"><stop offset="0%" stop-color="#b6b6b6"/><stop offset="40%" stop-color="#aaaaaa"/><stop offset="100%" stop-color="#6b4f55"/></radialGradient>
    <radialGradient id="x0g4" cx=".5" cy=".5" fx=".33" fy=".33" r=".66"><stop offset="0%" stop-color="#b7b7b7"/><stop offset="40%" stop-color="#ababab"/><stop offset="100%" stop-color="#6e5258"/></radialGradient>
    <radialGradient id="x0g5" cx=".5" cy=".5" fx=".33" fy=".33" r=".66"><stop offset="0%" stop-color="#bcbcbc"/><stop offset="40%" stop-color="#b1b1b1"/><stop offset="100%" stop-color="#785f64"/></radialGradient>
    <radialGradient id="x0g6" cx=".5" cy=".5" fx=".33" fy=".33" r=".66"><stop offset="0%" stop-color="#c6c6c6"/><stop offset="40%" stop-color="#bdbdbd"/><stop offset="100%" stop-color="#8c767b"/></radialGradient>
    <radialGradient id="x0g7" cx=".5" cy=".5" fx=".33" fy=".33" r=".66"><stop offset="0%" stop-color="#cfcfcf"/><stop offset="40%" stop-color="#c7c7c7"/><stop offset="100%" stop-color="#9d8b8f"/></radialGradient>
    <radialGradient id="x0g8" cx=".5" cy=".5" fx=".33" fy=".33" r=".66"><stop offset="0%" stop-color="#629fec"/><stop offset="40%" stop-color="#3957f8"/><stop offset="100%" stop-color="#0e23a2"/></radialGradient>
    <radialGradient id="x0g9" cx=".5" cy=".5" fx=".33" fy=".33" r=".66"><stop offset="0%" stop-color="#69a4ed"/><stop offset="40%" stop-color="#425ff8"/><stop offset="100%" stop-color="#1a2ea6"/></radialGradient>
    <radialGradient id="x0g10" cx=".5" cy=".5" fx=".33" fy=".33" r=".66"><stop offset="0%" stop-color="#5c9bec"/><stop offset="40%" stop-color="#3151f8"/><stop offset="100%" stop-color="#051b9e"/></radialGradient>
    <radialGradient id="x0g11" cx=".5" cy=".5" fx=".33" fy=".33" r=".66"><stop offset="0%" stop-color="#7fb1f0"/><stop offset="40%" stop-color="#5e77f9"/><stop offset="100%" stop-color="#3c4db3"/></radialGradient>
    <radialGradient id="x0g12" cx=".5" cy=".5" fx=".33" fy=".33" r=".66"><stop offset="0%" stop-color="#f05d4c"/><stop offset="40%" stop-color="#ff1c1c"/><stop offset="100%" stop-color="#9a102b"/></radialGradient>
    <radialGradient id="x0g13" cx=".5" cy=".5" fx=".33" fy=".33" r=".66"><stop offset="0%" stop-color="#f48e83"/><stop offset="40%" stop-color="#ff6262"/><stop offset="100%" stop-color="#b8596c"/></radialGradient>
  </defs>
  <g opacity="0.60">
    <path d="M 425.9 125.2 C 427.5 128.9 427.2 133.1 427.8 137.1 C 428.3 141.1 429.7 145.2 429.2 149.1 C 428.6 152.9 426.5 156.7 424.6 160.3 C 422.6 163.9 420.3 167.6 417.4 170.5 C 414.4 173.5 410.7 176.0 406.8 178.1 C 403.0 180.3 398.8 182.4 394.5 183.4 C 390.3 184.4 385.7 184.3 381.2 184.3 C 376.7 184.3 371.8 184.2 367.5 183.3 C 363.2 182.4 358.9 180.8 355.2 178.8 C 351.4 176.7 348.1 173.7 344.9 170.8 C 341.7 168.0 338.8 164.8 336.0 161.6 C 333.3 158.4 330.0 155.2 328.5 151.6 C 327.0 147.9 327.3 143.8 326.9 139.8 C 326.6 135.8 325.5 131.6 326.3 127.7 C 327.2 123.9 329.6 120.4 331.9 116.9 C 334.1 113.5 337.0 110.3 339.9 107.2 C 342.8 104.1 345.8 101.0 349.2 98.4 C 352.6 95.8 356.3 92.7 360.4 91.5 C 364.5 90.3 369.2 91.1 373.7 91.2 C 378.2 91.4 383.2 91.2 387.4 92.3 C 391.7 93.4 395.7 95.6 399.3 97.9 C 402.9 100.2 406.1 103.2 409.3 106.1 C 412.4 109.0 415.5 112.1 418.2 115.3 C 421.0 118.5 424.3 121.6 425.9 125.2 Z" fill="none" fill-rule="evenodd" stroke="#437eb9" stroke-width="4.3"/>
    <path d="M 425.9 134.0 C 426.7 137.7 427.4 141.8 427.3 145.6 C 427.1 149.4 426.3 153.3 424.8 156.8 C 423.3 160.4 420.9 163.9 418.2 167.0 C 415.6 170.1 412.4 172.9 408.9 175.2 C 405.4 177.6 401.4 179.7 397.3 181.1 C 393.3 182.4 388.9 183.0 384.5 183.2 C 380.2 183.4 375.5 182.9 371.2 182.2 C 366.9 181.6 362.6 181.0 358.7 179.2 C 354.9 177.5 351.6 174.6 348.3 172.0 C 345.1 169.3 342.1 166.4 339.4 163.3 C 336.6 160.3 333.5 157.2 331.7 153.8 C 329.9 150.3 329.2 146.5 328.6 142.7 C 328.0 138.9 327.5 134.8 328.0 131.0 C 328.5 127.3 329.6 123.6 331.4 120.1 C 333.2 116.7 336.1 113.5 338.7 110.3 C 341.4 107.2 344.2 104.1 347.3 101.4 C 350.5 98.7 353.9 95.6 357.7 94.1 C 361.5 92.6 366.0 92.4 370.3 92.2 C 374.6 92.1 379.3 92.5 383.6 93.3 C 387.8 94.1 392.0 95.3 395.7 97.2 C 399.4 99.1 402.7 102.0 405.9 104.7 C 409.1 107.4 412.0 110.4 414.8 113.4 C 417.6 116.4 420.8 119.5 422.6 122.9 C 424.5 126.3 425.1 130.2 425.9 134.0 Z" fill="none" stroke="#437eb9" stroke-width="2.5"/>
    <path d="M 416.9 125.2 C 418.5 128.9 418.3 133.1 418.8 137.1 C 419.4 141.1 421.0 145.4 420.2 149.2 C 419.4 152.9 416.6 156.5 414.0 159.8 C 411.4 163.0 408.1 166.0 404.7 168.6 C 401.3 171.2 397.5 174.2 393.4 175.4 C 389.3 176.7 384.5 176.3 380.0 176.2 C 375.5 176.1 370.5 176.2 366.3 175.0 C 362.1 173.9 358.2 171.7 354.6 169.3 C 351.1 166.9 347.9 163.7 345.0 160.6 C 342.1 157.5 338.7 154.3 337.2 150.6 C 335.7 147.0 336.3 142.7 335.9 138.7 C 335.6 134.7 334.1 130.3 335.1 126.6 C 336.1 122.8 339.2 119.4 341.8 116.1 C 344.4 112.8 347.3 109.6 350.5 106.7 C 353.7 103.9 357.0 100.2 361.0 98.9 C 365.0 97.6 369.8 98.7 374.4 98.9 C 378.9 99.0 383.9 98.7 388.1 100.0 C 392.3 101.3 395.9 104.1 399.4 106.6 C 402.9 109.2 406.0 112.3 408.9 115.4 C 411.8 118.5 415.2 121.6 416.9 125.2 Z" fill="none" stroke="#437eb9" stroke-width="2.5"/>
    <path d="M 407.8 122.4 C 409.9 125.8 410.6 129.7 411.3 133.6 C 412.0 137.5 412.8 141.8 412.2 145.6 C 411.6 149.4 410.1 153.2 407.8 156.4 C 405.5 159.7 401.9 162.9 398.3 165.1 C 394.8 167.3 390.6 169.2 386.4 169.8 C 382.1 170.4 377.1 169.3 372.7 168.7 C 368.3 168.0 363.6 167.7 359.8 165.9 C 356.1 164.0 352.8 160.6 350.1 157.5 C 347.3 154.4 344.8 150.9 343.6 147.2 C 342.3 143.5 342.5 139.1 342.5 135.2 C 342.4 131.3 341.9 127.2 343.4 123.6 C 344.9 120.0 348.4 116.8 351.4 113.8 C 354.3 110.8 357.4 106.9 361.2 105.5 C 365.0 104.1 369.9 105.2 374.4 105.3 C 378.8 105.5 383.9 105.0 388.0 106.4 C 392.1 107.7 395.7 110.5 399.0 113.2 C 402.3 115.9 405.8 119.0 407.8 122.4 Z" fill="none" stroke="#437eb9" stroke-width="2.5"/>
    <path d="M 398.8 120.2 C 401.4 123.1 403.2 126.8 404.2 130.5 C 405.1 134.2 404.9 138.6 404.4 142.5 C 404.0 146.3 403.6 150.3 401.5 153.5 C 399.3 156.7 395.5 160.2 391.7 161.7 C 387.9 163.2 383.1 162.3 378.7 162.2 C 374.2 162.1 369.1 162.6 365.1 161.2 C 361.1 159.9 357.2 157.1 354.8 154.1 C 352.3 151.1 351.2 147.1 350.2 143.4 C 349.2 139.6 348.4 135.3 348.8 131.5 C 349.2 127.7 350.3 123.9 352.5 120.7 C 354.6 117.4 358.0 113.4 361.7 112.0 C 365.5 110.5 370.5 111.8 374.9 111.9 C 379.4 112.0 384.5 111.3 388.5 112.7 C 392.5 114.1 396.2 117.2 398.8 120.2 Z" fill="none" stroke="#437eb9" stroke-width="2.5"/>
    <path d="M 389.8 119.1 C 393.2 120.7 396.0 124.8 397.2 128.3 C 398.4 131.8 397.2 136.2 396.8 140.1 C 396.4 143.9 397.1 148.7 394.9 151.3 C 392.7 153.8 387.8 154.8 383.7 155.4 C 379.6 155.9 374.5 155.3 370.3 154.4 C 366.2 153.6 361.0 152.8 358.8 150.2 C 356.5 147.6 357.4 142.5 356.7 138.6 C 356.1 134.8 354.0 130.4 355.0 127.0 C 356.1 123.5 359.4 119.4 363.0 118.0 C 366.6 116.6 371.9 118.4 376.4 118.6 C 380.9 118.8 386.3 117.5 389.8 119.1 Z" fill="none" stroke="#437eb9" stroke-width="2.5"/>
  </g>
  <circle cx="389.5" cy="110.6" r="29.1" fill="url(#x0g13)" stroke="#808080" stroke-width="5.7"/>
  <line x1="407.4" y1="128.4" x2="428.9" y2="173.8" stroke="#3a3a3a" stroke-width="10.0" stroke-linecap="round"/>
  <line x1="391.9" y1="135.8" x2="413.4" y2="181.1" stroke="#3a3a3a" stroke-width="10.0" stroke-linecap="round"/>
  <g opacity="0.60">
    <path d="M 425.9 89.0 C 428.0 92.6 430.2 96.4 431.1 100.3 C 431.9 104.1 431.2 108.2 431.0 112.2 C 430.8 116.2 431.1 120.5 429.9 124.3 C 428.6 128.1 426.2 131.7 423.6 134.9 C 421.1 138.2 417.6 141.1 414.4 143.9 C 411.1 146.7 407.7 149.5 404.0 151.9 C 400.4 154.4 396.7 157.4 392.6 158.6 C 388.4 159.8 383.6 159.3 379.1 159.3 C 374.6 159.4 369.6 159.7 365.3 158.7 C 361.0 157.6 357.0 155.5 353.3 153.2 C 349.6 151.0 346.3 147.9 343.2 145.0 C 340.1 142.0 337.0 138.9 334.5 135.6 C 332.0 132.3 329.0 128.9 327.9 125.1 C 326.9 121.3 328.1 117.0 328.4 113.0 C 328.7 109.0 328.3 104.8 329.8 101.1 C 331.2 97.4 334.5 94.2 337.2 90.9 C 339.8 87.6 342.5 84.3 345.6 81.3 C 348.7 78.3 351.9 75.2 355.6 72.9 C 359.3 70.7 363.5 69.1 367.8 67.9 C 372.1 66.8 377.0 66.2 381.5 66.0 C 386.0 65.7 390.6 65.5 394.9 66.5 C 399.2 67.4 403.5 69.5 407.4 71.6 C 411.3 73.6 415.2 76.0 418.2 79.0 C 421.3 81.9 423.8 85.5 425.9 89.0 Z" fill="none" fill-rule="evenodd" stroke="#741f2d" stroke-width="4.3"/>
    <path d="M 425.9 91.9 C 427.9 95.4 429.9 99.1 430.5 102.9 C 431.1 106.7 429.8 110.7 429.4 114.6 C 429.0 118.6 429.6 122.8 428.1 126.4 C 426.7 130.0 423.5 133.1 420.8 136.2 C 418.0 139.2 414.8 142.0 411.5 144.7 C 408.3 147.4 404.9 150.1 401.3 152.4 C 397.7 154.7 394.0 157.6 389.9 158.5 C 385.7 159.4 380.9 158.1 376.5 157.9 C 372.0 157.7 367.1 158.4 363.0 157.2 C 359.0 156.0 355.4 153.1 351.9 150.7 C 348.5 148.2 345.3 145.4 342.3 142.5 C 339.4 139.5 336.3 136.4 334.2 133.0 C 332.1 129.7 330.3 126.2 329.6 122.4 C 328.9 118.7 329.6 114.5 330.1 110.7 C 330.6 106.8 331.0 102.9 332.6 99.4 C 334.2 95.8 337.3 92.7 339.9 89.5 C 342.6 86.3 345.3 83.2 348.4 80.4 C 351.5 77.6 354.8 74.6 358.5 72.7 C 362.3 70.7 366.6 69.8 370.9 68.8 C 375.2 67.8 379.8 66.9 384.2 66.9 C 388.5 66.8 392.9 67.2 397.1 68.4 C 401.2 69.6 405.2 71.8 408.8 74.1 C 412.4 76.3 415.8 79.0 418.7 81.9 C 421.5 84.9 423.9 88.4 425.9 91.9 Z" fill="none" stroke="#741f2d" stroke-width="2.5"/>
    <path d="M 416.9 91.1 C 419.3 94.3 422.0 97.8 422.9 101.4 C 423.9 105.0 422.7 109.0 422.3 112.9 C 422.0 116.7 422.4 120.9 421.1 124.4 C 419.7 128.0 417.0 131.2 414.3 134.2 C 411.7 137.2 408.4 139.9 405.0 142.4 C 401.7 145.0 398.3 147.9 394.5 149.4 C 390.7 150.9 386.4 151.3 382.2 151.6 C 377.9 151.8 373.1 151.6 369.0 150.8 C 364.8 150.0 360.7 148.7 357.1 146.8 C 353.5 144.8 350.3 141.8 347.4 138.9 C 344.5 136.0 341.2 133.0 339.6 129.6 C 337.9 126.2 337.8 122.4 337.5 118.6 C 337.3 114.8 337.3 110.7 338.1 107.0 C 338.9 103.3 340.4 99.7 342.4 96.4 C 344.5 93.1 347.5 90.0 350.4 87.2 C 353.4 84.3 356.3 81.1 360.0 79.2 C 363.6 77.2 368.0 76.4 372.2 75.4 C 376.4 74.4 381.0 73.1 385.2 73.1 C 389.4 73.2 393.7 74.0 397.5 75.6 C 401.3 77.1 404.9 79.9 408.1 82.4 C 411.3 85.0 414.4 88.0 416.9 91.1 Z" fill="none" stroke="#741f2d" stroke-width="2.5"/>
    <path d="M 407.8 91.8 C 410.8 94.8 414.5 98.1 415.7 101.7 C 416.8 105.4 415.2 109.7 414.8 113.7 C 414.5 117.7 415.2 122.2 413.5 125.7 C 411.9 129.3 408.2 132.3 405.0 135.1 C 401.8 138.0 398.4 141.3 394.5 143.0 C 390.6 144.6 386.1 145.0 381.7 145.2 C 377.3 145.4 372.2 145.3 367.9 144.2 C 363.7 143.2 359.6 141.4 356.1 139.1 C 352.6 136.7 349.0 133.4 347.1 130.0 C 345.1 126.6 344.8 122.6 344.5 118.7 C 344.2 114.8 344.2 110.4 345.2 106.6 C 346.2 102.8 348.1 99.1 350.5 95.9 C 353.0 92.6 356.2 89.1 359.8 86.9 C 363.4 84.7 368.0 83.7 372.3 82.5 C 376.6 81.3 381.5 79.5 385.7 79.7 C 390.0 79.8 394.1 81.4 397.8 83.5 C 401.5 85.5 404.9 88.7 407.8 91.8 Z" fill="none" stroke="#741f2d" stroke-width="2.5"/>
    <path d="M 407.8 102.1 C 409.1 105.7 407.3 110.0 407.1 114.0 C 406.8 118.0 407.8 122.5 406.1 126.0 C 404.4 129.4 400.5 132.6 397.0 134.8 C 393.5 137.0 389.4 138.7 385.2 139.3 C 381.0 139.8 376.0 138.9 371.6 138.2 C 367.3 137.4 362.6 136.8 359.2 134.7 C 355.7 132.5 352.2 128.9 351.0 125.4 C 349.7 121.9 351.4 117.4 351.8 113.4 C 352.2 109.5 351.5 105.1 353.2 101.6 C 354.9 98.2 358.4 94.6 362.1 92.5 C 365.7 90.5 370.7 90.3 375.1 89.3 C 379.5 88.3 384.3 85.8 388.4 86.4 C 392.4 87.0 396.1 90.1 399.3 92.7 C 402.6 95.3 406.5 98.6 407.8 102.1 Z" fill="none" stroke="#741f2d" stroke-width="2.5"/>
    <path d="M 398.8 101.1 C 400.5 104.2 399.4 108.6 399.4 112.5 C 399.4 116.3 400.2 120.8 398.8 124.2 C 397.3 127.5 394.1 131.4 390.6 132.8 C 387.1 134.1 382.0 132.5 377.6 132.2 C 373.2 131.9 367.5 132.5 364.4 130.8 C 361.2 129.0 359.3 125.3 358.5 121.9 C 357.7 118.5 358.7 113.9 359.5 110.2 C 360.3 106.5 360.5 101.9 363.3 99.7 C 366.0 97.4 371.8 97.6 376.1 96.6 C 380.4 95.6 385.3 92.8 389.0 93.6 C 392.8 94.3 397.1 98.0 398.8 101.1 Z" fill="none" stroke="#741f2d" stroke-width="2.5"/>
  </g>
  <circle cx="641.6" cy="120.5" r="32.4" fill="url(#x0g7)" stroke="#7c7c7c" stroke-width="5.7"/>
  <line x1="624.2" y1="142.0" x2="578.2" y2="198.8" stroke="#393939" stroke-width="14.3" stroke-linecap="round"/>
  <circle cx="432.5" cy="201.4" r="32.4" fill="url(#x0g6)" stroke="#525252" stroke-width="5.7"/>
  <line x1="461.4" y1="205.4" x2="534.7" y2="215.3" stroke="#2e2e2e" stroke-width="14.3" stroke-linecap="round"/>
  <line x1="417.5" y1="223.3" x2="379.9" y2="278.0" stroke="#212121" stroke-width="14.3" stroke-linecap="round"/>
  <circle cx="561.9" cy="219.0" r="30.5" fill="url(#x0g11)" stroke="#515151" stroke-width="5.7"/>
  <line x1="573.6" y1="239.4" x2="605.3" y2="294.5" stroke="#1e1e1e" stroke-width="14.3" stroke-linecap="round"/>
  <circle cx="143.3" cy="235.5" r="32.4" fill="url(#x0g1)" stroke="#393939" stroke-width="5.7"/>
  <line x1="164.4" y1="253.7" x2="219.3" y2="301.0" stroke="#181818" stroke-width="14.3" stroke-linecap="round"/>
  <g opacity="0.60">
    <path d="M 453.0 418.3 C 454.0 422.1 454.7 426.2 454.9 430.0 C 455.0 433.9 454.9 437.9 453.9 441.7 C 452.9 445.4 450.9 449.1 448.9 452.6 C 446.9 456.1 444.7 459.6 442.0 462.7 C 439.3 465.9 436.2 468.8 432.9 471.4 C 429.6 474.1 426.1 476.7 422.2 478.6 C 418.4 480.5 414.1 481.8 409.9 483.1 C 405.7 484.3 401.2 485.3 396.9 486.1 C 392.5 486.8 388.0 487.3 383.6 487.6 C 379.1 487.9 374.6 487.8 370.1 487.8 C 365.6 487.8 361.1 487.9 356.6 487.7 C 352.1 487.4 347.1 487.7 343.2 486.5 C 339.4 485.3 335.3 483.6 333.4 480.6 C 331.6 477.7 332.5 472.8 332.1 468.9 C 331.7 464.9 331.5 461.0 331.1 457.1 C 330.8 453.1 330.5 449.2 330.0 445.3 C 329.6 441.3 329.2 437.4 328.3 433.5 C 327.4 429.7 326.0 425.9 324.7 422.1 C 323.4 418.4 322.5 414.4 320.8 410.8 C 319.0 407.3 316.3 404.0 314.1 400.6 C 311.8 397.2 309.5 393.8 307.3 390.3 C 305.0 386.9 302.6 383.6 300.6 380.1 C 298.6 376.5 296.8 372.9 295.3 369.2 C 293.7 365.5 292.5 361.7 291.4 357.9 C 290.2 354.1 289.3 350.2 288.5 346.3 C 287.8 342.4 287.3 338.5 287.0 334.6 C 286.7 330.7 286.6 326.7 286.7 322.8 C 286.9 318.8 286.9 314.9 287.7 311.0 C 288.5 307.2 289.8 303.3 291.4 299.7 C 293.0 296.0 294.7 292.2 297.1 289.0 C 299.4 285.7 302.5 282.7 305.7 280.0 C 308.8 277.2 312.5 274.9 316.2 272.6 C 319.8 270.3 323.6 268.1 327.7 266.4 C 331.7 264.8 336.0 263.6 340.3 262.7 C 344.7 261.9 349.2 261.5 353.7 261.2 C 358.1 261.0 362.6 260.8 367.0 261.3 C 371.4 261.7 375.8 262.9 380.1 264.1 C 384.3 265.3 388.7 266.4 392.6 268.3 C 396.5 270.1 400.0 272.7 403.4 275.2 C 406.9 277.8 410.2 280.5 413.0 283.6 C 415.8 286.6 418.4 289.9 420.4 293.4 C 422.4 296.9 423.8 300.7 425.2 304.5 C 426.5 308.2 427.8 312.0 428.6 315.9 C 429.4 319.8 429.6 323.7 429.9 327.7 C 430.3 331.6 430.8 335.5 431.0 339.5 C 431.2 343.4 431.1 347.4 431.1 351.3 C 431.2 355.2 431.0 359.2 431.4 363.1 C 431.8 367.1 432.8 370.9 433.6 374.8 C 434.4 378.7 434.7 382.7 436.1 386.4 C 437.6 390.1 440.0 393.5 442.1 397.0 C 444.2 400.5 447.0 403.7 448.8 407.2 C 450.6 410.8 452.0 414.5 453.0 418.3 Z" fill="none" fill-rule="evenodd" stroke="#6d1422" stroke-width="4.3"/>
    <path d="M 453.0 428.2 C 453.3 432.1 453.6 436.0 452.8 439.8 C 452.0 443.5 449.9 447.2 448.0 450.8 C 446.1 454.3 444.0 457.8 441.4 461.0 C 438.8 464.1 435.7 467.1 432.4 469.8 C 429.2 472.4 425.7 475.1 421.9 477.0 C 418.1 479.0 413.8 480.2 409.6 481.4 C 405.4 482.7 401.0 483.7 396.6 484.4 C 392.2 485.1 387.8 485.6 383.4 485.8 C 378.9 486.1 374.4 485.9 369.9 485.8 C 365.5 485.6 360.9 485.6 356.5 485.1 C 352.2 484.5 347.1 484.4 343.6 482.4 C 340.2 480.4 337.4 476.5 335.8 473.0 C 334.2 469.4 334.5 465.2 334.0 461.3 C 333.4 457.4 333.0 453.5 332.5 449.6 C 332.0 445.6 331.9 441.7 331.1 437.8 C 330.3 434.0 329.0 430.2 327.9 426.4 C 326.7 422.6 325.8 418.7 324.2 415.0 C 322.6 411.4 320.5 407.9 318.4 404.5 C 316.3 401.0 314.0 397.6 311.7 394.2 C 309.5 390.8 307.1 387.5 305.0 384.0 C 302.8 380.6 300.6 377.2 298.8 373.6 C 297.0 370.0 295.4 366.3 294.1 362.5 C 292.7 358.8 291.8 354.9 290.8 351.1 C 289.9 347.3 288.8 343.4 288.3 339.5 C 287.8 335.6 288.0 331.7 287.9 327.7 C 287.8 323.8 287.4 319.8 287.9 315.9 C 288.3 312.1 289.5 308.2 290.8 304.4 C 292.1 300.7 293.5 296.9 295.6 293.4 C 297.6 290.0 300.2 286.6 303.1 283.7 C 306.0 280.8 309.6 278.2 313.1 275.9 C 316.7 273.5 320.5 271.4 324.4 269.5 C 328.3 267.6 332.2 265.5 336.5 264.5 C 340.7 263.4 345.4 263.4 349.8 262.9 C 354.3 262.5 358.8 261.5 363.2 261.8 C 367.6 262.1 371.9 263.6 376.2 264.7 C 380.5 265.7 385.1 266.4 389.1 268.0 C 393.1 269.7 396.7 272.1 400.2 274.5 C 403.7 277.0 407.1 279.7 410.0 282.6 C 413.0 285.5 415.7 288.8 417.8 292.2 C 420.0 295.6 421.5 299.4 423.0 303.1 C 424.4 306.8 425.8 310.5 426.7 314.4 C 427.6 318.2 427.9 322.2 428.3 326.1 C 428.8 330.0 429.2 333.9 429.5 337.8 C 429.7 341.7 429.6 345.7 429.7 349.6 C 429.8 353.5 429.5 357.5 429.9 361.4 C 430.2 365.3 431.0 369.2 431.7 373.1 C 432.5 376.9 432.9 380.9 434.2 384.7 C 435.5 388.4 437.5 391.9 439.5 395.4 C 441.5 398.9 444.1 402.2 446.0 405.7 C 447.9 409.2 449.8 412.8 450.9 416.5 C 452.1 420.3 452.7 424.3 453.0 428.2 Z" fill="none" stroke="#6d1422" stroke-width="2.5"/>
    <path d="M 434.9 408.1 C 436.6 411.8 437.8 415.6 438.7 419.5 C 439.7 423.3 440.8 427.4 440.8 431.3 C 440.7 435.2 439.9 439.1 438.4 442.7 C 436.9 446.4 434.2 449.8 431.7 453.1 C 429.1 456.3 426.5 459.8 423.2 462.3 C 419.8 464.8 415.7 466.6 411.6 468.1 C 407.5 469.5 402.8 470.4 398.4 471.0 C 394.0 471.7 389.5 472.2 385.1 471.9 C 380.7 471.7 376.0 470.6 371.8 469.3 C 367.6 468.1 363.2 466.7 360.0 464.2 C 356.8 461.7 354.5 457.9 352.5 454.4 C 350.6 450.8 349.4 446.9 348.2 443.0 C 346.9 439.2 346.0 435.3 344.8 431.4 C 343.7 427.6 342.7 423.7 341.2 419.9 C 339.8 416.2 338.0 412.5 336.0 409.0 C 333.9 405.5 331.2 402.2 328.9 398.8 C 326.6 395.3 324.4 391.8 322.0 388.5 C 319.6 385.1 317.0 381.8 314.6 378.4 C 312.2 375.0 309.8 371.6 307.8 368.1 C 305.8 364.5 304.1 360.8 302.6 357.0 C 301.1 353.3 299.6 349.5 298.6 345.6 C 297.6 341.8 296.9 337.8 296.5 333.9 C 296.2 329.9 296.1 325.9 296.3 321.9 C 296.5 317.9 296.7 313.9 297.9 310.1 C 299.1 306.3 301.2 302.7 303.4 299.2 C 305.5 295.7 308.0 292.3 311.0 289.4 C 313.9 286.4 317.4 283.7 321.0 281.4 C 324.6 279.0 328.5 276.6 332.6 275.2 C 336.7 273.7 341.4 273.5 345.8 272.9 C 350.3 272.3 354.9 271.5 359.4 271.7 C 363.8 271.9 368.2 272.9 372.5 274.0 C 376.9 275.0 381.3 276.3 385.4 278.0 C 389.4 279.8 393.3 281.9 396.6 284.5 C 400.0 287.1 402.8 290.4 405.2 293.7 C 407.7 297.0 409.6 300.7 411.3 304.4 C 413.1 308.1 414.7 311.8 415.8 315.7 C 416.8 319.5 417.0 323.6 417.5 327.5 C 418.0 331.5 418.7 335.4 418.9 339.4 C 419.1 343.4 418.7 347.4 418.7 351.4 C 418.6 355.4 418.3 359.4 418.5 363.3 C 418.8 367.3 419.6 371.2 420.2 375.2 C 420.8 379.1 420.8 383.3 422.2 387.0 C 423.6 390.7 426.4 394.0 428.5 397.6 C 430.6 401.1 433.2 404.5 434.9 408.1 Z" fill="none" stroke="#6d1422" stroke-width="2.5"/>
    <path d="M 425.9 418.9 C 426.9 422.7 427.8 426.8 427.6 430.6 C 427.5 434.4 426.8 438.3 425.0 441.7 C 423.2 445.1 420.3 448.8 416.8 451.0 C 413.3 453.1 408.3 453.5 404.1 454.7 C 399.8 455.9 395.3 458.5 391.2 458.2 C 387.2 458.0 383.2 455.3 379.6 453.2 C 376.0 451.1 372.4 448.4 369.4 445.6 C 366.5 442.7 363.5 439.5 361.9 435.9 C 360.2 432.4 360.2 428.2 359.3 424.4 C 358.4 420.5 357.9 416.6 356.5 412.9 C 355.0 409.2 353.1 405.6 350.9 402.2 C 348.7 398.8 346.1 395.5 343.2 392.5 C 340.4 389.6 336.6 387.3 333.6 384.4 C 330.6 381.5 327.8 378.4 325.2 375.2 C 322.6 372.0 320.3 368.7 318.1 365.2 C 315.9 361.8 314.0 358.2 312.2 354.7 C 310.4 351.1 308.5 347.4 307.3 343.7 C 306.1 339.9 305.6 336.0 305.2 332.1 C 304.8 328.2 304.6 324.2 305.0 320.3 C 305.4 316.5 306.0 312.5 307.7 308.9 C 309.3 305.4 312.1 302.1 314.8 298.9 C 317.4 295.8 320.2 292.6 323.5 290.0 C 326.8 287.4 330.4 284.6 334.4 283.2 C 338.4 281.8 343.1 282.0 347.6 281.5 C 352.0 281.1 356.6 280.1 360.9 280.5 C 365.3 280.9 369.5 282.6 373.6 284.1 C 377.7 285.6 382.0 287.2 385.5 289.5 C 389.0 291.8 392.1 294.6 394.9 297.6 C 397.6 300.7 400.0 304.1 401.8 307.7 C 403.7 311.2 405.0 315.0 405.9 318.8 C 406.9 322.6 407.2 326.6 407.6 330.5 C 408.0 334.4 408.4 338.4 408.3 342.3 C 408.1 346.2 407.4 350.1 406.9 354.0 C 406.5 357.9 405.9 361.8 405.6 365.7 C 405.3 369.7 405.2 373.6 405.2 377.5 C 405.2 381.4 404.3 385.6 405.7 389.1 C 407.2 392.5 411.4 395.1 414.1 398.3 C 416.7 401.4 419.7 404.4 421.7 407.9 C 423.6 411.3 424.9 415.1 425.9 418.9 Z" fill="none" stroke="#6d1422" stroke-width="2.5"/>
    <path d="M 389.8 306.7 C 392.4 309.9 394.1 313.8 395.3 317.7 C 396.5 321.5 396.7 325.6 397.1 329.6 C 397.5 333.6 398.1 337.7 397.8 341.6 C 397.4 345.6 396.1 349.5 395.1 353.5 C 394.1 357.4 393.4 361.5 391.9 365.2 C 390.4 368.9 389.0 372.7 386.0 375.4 C 383.1 378.1 378.3 379.9 374.1 381.1 C 369.9 382.4 365.2 383.5 361.0 382.8 C 356.8 382.0 353.1 378.7 349.1 376.8 C 345.1 374.8 340.4 373.6 336.9 371.2 C 333.4 368.7 330.7 365.3 328.1 362.1 C 325.5 358.8 323.5 355.1 321.5 351.5 C 319.4 347.9 316.9 344.4 315.8 340.5 C 314.7 336.7 314.9 332.6 314.6 328.5 C 314.4 324.5 313.5 320.3 314.5 316.5 C 315.5 312.7 318.1 309.1 320.6 305.8 C 323.0 302.4 326.0 299.0 329.4 296.6 C 332.9 294.3 337.0 292.6 341.2 291.5 C 345.5 290.5 350.4 290.1 354.9 290.2 C 359.4 290.3 363.9 290.7 368.0 292.1 C 372.1 293.5 375.8 296.4 379.4 298.8 C 383.1 301.2 387.1 303.6 389.8 306.7 Z" fill="none" stroke="#6d1422" stroke-width="2.5"/>
    <path d="M 380.7 314.8 C 382.7 318.1 383.1 322.2 383.9 326.0 C 384.7 329.8 386.1 333.8 385.6 337.5 C 385.1 341.2 383.0 344.8 380.9 348.1 C 378.7 351.4 375.7 354.5 372.6 357.2 C 369.5 359.9 366.0 363.7 362.2 364.1 C 358.4 364.5 354.0 361.2 349.9 359.7 C 345.8 358.2 341.1 357.3 337.7 355.1 C 334.3 352.9 331.7 349.5 329.5 346.3 C 327.4 343.0 325.8 339.3 324.9 335.6 C 324.1 331.9 324.2 327.8 324.4 324.0 C 324.7 320.2 324.6 316.1 326.3 312.7 C 328.1 309.3 331.2 305.7 334.8 303.8 C 338.3 302.0 343.3 302.2 347.6 301.7 C 352.0 301.1 356.8 299.7 360.8 300.5 C 364.9 301.2 368.6 303.8 371.9 306.2 C 375.3 308.6 378.8 311.5 380.7 314.8 Z" fill="none" stroke="#6d1422" stroke-width="2.5"/>
  </g>
  <circle cx="364.9" cy="299.8" r="32.4" fill="url(#x0g0)" stroke="#292929" stroke-width="5.7"/>
  <line x1="337.4" y1="312.5" x2="267.5" y2="322.7" stroke="#141414" stroke-width="10.0" stroke-linecap="round" stroke-dasharray="10.0,20.0"/>
  <line x1="335.0" y1="295.5" x2="265.0" y2="305.7" stroke="#141414" stroke-width="10.0" stroke-linecap="round"/>
  <line x1="385.1" y1="319.1" x2="414.9" y2="373.7" stroke="#0e0e0e" stroke-width="10.0" stroke-linecap="round"/>
  <line x1="370.1" y1="327.3" x2="399.8" y2="381.9" stroke="#0e0e0e" stroke-width="10.0" stroke-linecap="round" stroke-dasharray="10.0,20.0"/>
  <circle cx="617.8" cy="316.2" r="32.4" fill="url(#x0g5)" stroke="#212121" stroke-width="5.7"/>
  <line x1="646.5" y1="307.3" x2="701.1" y2="306.7" stroke="#0f0f0f" stroke-width="10.0" stroke-linecap="round"/>
  <line x1="646.7" y1="324.5" x2="701.3" y2="323.9" stroke="#0f0f0f" stroke-width="10.0" stroke-linecap="round"/>
  <line x1="601.9" y1="339.2" x2="561.7" y2="397.7" stroke="#0d0d0d" stroke-width="14.3" stroke-linecap="round"/>
  <g opacity="0.60">
    <path d="M 263.4 433.1 C 263.5 437.0 263.0 441.0 262.7 444.9 C 262.3 448.9 262.2 452.9 261.2 456.8 C 260.2 460.6 258.5 464.3 256.7 467.9 C 254.8 471.5 252.5 475.0 250.3 478.5 C 248.2 482.0 246.2 485.6 243.8 488.9 C 241.3 492.2 238.8 495.7 235.6 498.4 C 232.5 501.2 228.9 503.8 225.0 505.5 C 221.0 507.2 216.2 507.8 211.9 508.6 C 207.5 509.5 203.0 511.1 198.7 510.7 C 194.4 510.4 190.2 508.1 186.1 506.5 C 181.9 504.9 177.4 503.6 173.9 501.3 C 170.3 498.9 167.4 495.7 164.7 492.5 C 162.1 489.3 159.9 485.8 157.8 482.3 C 155.6 478.8 153.7 475.2 151.9 471.5 C 150.1 467.9 147.9 464.2 147.1 460.4 C 146.3 456.6 147.0 452.5 147.2 448.6 C 147.4 444.6 147.2 440.5 148.2 436.7 C 149.2 432.9 151.3 429.3 153.1 425.6 C 154.8 422.0 157.0 418.4 158.6 414.7 C 160.1 411.0 161.1 407.1 162.2 403.3 C 163.3 399.5 164.5 395.6 165.1 391.7 C 165.8 387.7 166.1 383.8 166.2 379.8 C 166.4 375.9 166.0 371.9 165.9 367.9 C 165.9 364.0 165.9 360.0 166.0 356.0 C 166.1 352.0 166.0 348.0 166.4 344.1 C 166.9 340.2 167.4 336.1 168.7 332.4 C 170.1 328.7 172.1 325.0 174.5 321.6 C 176.8 318.2 179.3 314.9 182.6 312.2 C 185.8 309.5 189.7 307.1 193.7 305.5 C 197.7 303.9 202.2 303.2 206.6 302.7 C 211.0 302.2 215.7 302.2 220.1 302.5 C 224.6 302.9 229.1 303.4 233.1 304.8 C 237.2 306.3 240.8 309.0 244.4 311.4 C 247.9 313.8 251.2 316.6 254.4 319.4 C 257.6 322.3 261.0 325.1 263.5 328.3 C 266.0 331.6 268.2 335.2 269.4 338.9 C 270.6 342.7 270.4 346.8 270.7 350.8 C 271.0 354.7 271.5 358.8 271.0 362.7 C 270.6 366.6 269.3 370.4 268.2 374.3 C 267.1 378.1 265.5 381.9 264.5 385.8 C 263.6 389.7 263.2 393.6 262.6 397.5 C 262.0 401.5 261.0 405.4 260.9 409.4 C 260.8 413.3 261.5 417.3 261.9 421.2 C 262.3 425.2 263.3 429.1 263.4 433.1 Z" fill="none" fill-rule="evenodd" stroke="#366595" stroke-width="4.3"/>
    <path d="M 263.4 330.2 C 265.8 333.5 267.6 337.4 268.6 341.2 C 269.6 345.0 269.4 349.2 269.5 353.2 C 269.6 357.1 269.9 361.2 269.3 365.1 C 268.7 369.0 267.1 372.9 265.9 376.7 C 264.7 380.6 262.9 384.3 262.0 388.2 C 261.0 392.1 260.8 396.1 260.2 400.1 C 259.7 404.0 258.6 408.0 258.6 412.0 C 258.7 415.9 259.9 419.9 260.4 423.9 C 260.9 427.8 261.8 431.8 261.9 435.8 C 261.9 439.8 261.1 443.7 260.6 447.7 C 260.1 451.7 260.2 455.8 259.0 459.6 C 257.7 463.4 255.3 466.9 253.3 470.5 C 251.3 474.1 249.3 477.7 247.1 481.2 C 244.9 484.7 242.7 488.3 240.0 491.4 C 237.4 494.6 234.5 498.0 230.9 500.3 C 227.4 502.6 223.0 503.9 218.8 505.2 C 214.6 506.6 210.0 508.0 205.6 508.3 C 201.2 508.6 196.9 508.0 192.6 507.0 C 188.4 505.9 184.1 504.1 180.2 502.1 C 176.3 500.1 172.6 497.8 169.5 495.0 C 166.3 492.2 163.9 488.7 161.5 485.3 C 159.1 481.9 157.2 478.2 155.3 474.6 C 153.3 471.0 151.1 467.4 150.0 463.6 C 148.9 459.8 148.8 455.8 148.7 451.8 C 148.7 447.9 148.8 443.7 149.6 439.8 C 150.4 436.0 151.9 432.2 153.4 428.5 C 155.0 424.8 157.3 421.2 158.9 417.5 C 160.6 413.8 162.1 410.0 163.3 406.2 C 164.6 402.4 165.5 398.4 166.3 394.5 C 167.1 390.6 167.9 386.7 168.1 382.7 C 168.4 378.7 167.9 374.7 167.8 370.7 C 167.7 366.7 167.6 362.7 167.7 358.7 C 167.7 354.7 167.7 350.7 168.1 346.7 C 168.4 342.8 168.6 338.7 169.8 334.9 C 171.0 331.1 172.9 327.4 175.1 323.9 C 177.3 320.4 179.7 317.0 182.9 314.1 C 186.0 311.3 189.7 308.6 193.7 306.9 C 197.6 305.2 202.1 304.5 206.6 304.0 C 211.0 303.4 215.8 303.4 220.2 303.8 C 224.7 304.2 229.2 304.7 233.2 306.2 C 237.2 307.8 240.8 310.6 244.4 313.1 C 247.9 315.5 251.2 318.3 254.4 321.2 C 257.6 324.0 261.0 326.9 263.4 330.2 Z" fill="none" stroke="#366595" stroke-width="2.5"/>
    <path d="M 254.4 433.6 C 254.7 437.5 254.0 441.5 253.7 445.5 C 253.4 449.5 253.4 453.6 252.4 457.4 C 251.4 461.3 249.5 465.0 247.7 468.6 C 245.8 472.3 243.6 475.8 241.4 479.3 C 239.1 482.7 237.0 486.5 234.0 489.3 C 231.0 492.2 227.5 494.8 223.6 496.6 C 219.6 498.4 214.8 499.2 210.5 500.0 C 206.1 500.8 201.6 502.0 197.4 501.4 C 193.2 500.7 189.1 498.1 185.2 496.1 C 181.2 494.2 176.8 492.5 173.6 489.8 C 170.4 487.1 168.2 483.3 165.9 479.9 C 163.6 476.5 161.4 472.9 159.7 469.2 C 157.9 465.6 156.0 461.8 155.5 457.9 C 154.9 454.0 155.8 449.9 156.3 445.9 C 156.7 442.0 156.8 437.9 158.0 434.1 C 159.2 430.3 161.6 426.7 163.6 423.1 C 165.5 419.5 168.0 416.1 169.6 412.3 C 171.1 408.6 171.7 404.6 172.8 400.7 C 174.0 396.9 176.2 393.1 176.8 389.2 C 177.3 385.3 176.6 381.3 176.4 377.3 C 176.1 373.3 175.4 369.3 175.2 365.4 C 175.0 361.4 175.1 357.4 175.2 353.4 C 175.2 349.4 174.7 345.3 175.4 341.4 C 176.2 337.5 177.7 333.6 179.6 330.0 C 181.5 326.5 184.2 323.0 187.1 320.0 C 189.9 317.0 193.1 313.6 196.9 311.8 C 200.7 310.1 205.3 309.9 209.8 309.4 C 214.2 308.9 219.1 308.4 223.4 309.0 C 227.7 309.7 231.9 311.3 235.7 313.4 C 239.5 315.4 242.7 318.5 246.0 321.2 C 249.4 323.9 253.0 326.5 255.7 329.6 C 258.5 332.8 261.2 336.3 262.5 340.0 C 263.8 343.7 263.4 347.9 263.7 351.9 C 263.9 355.9 264.6 360.0 263.9 363.9 C 263.2 367.8 261.0 371.5 259.5 375.3 C 257.9 379.0 255.8 382.6 254.5 386.4 C 253.3 390.3 252.6 394.2 251.8 398.1 C 251.0 402.1 249.6 406.1 249.7 410.0 C 249.7 413.9 251.2 417.8 252.0 421.7 C 252.7 425.7 254.1 429.6 254.4 433.6 Z" fill="none" stroke="#366595" stroke-width="2.5"/>
    <path d="M 245.3 429.1 C 246.2 433.0 246.6 436.8 246.7 440.7 C 246.8 444.6 246.5 448.6 246.0 452.4 C 245.4 456.3 244.8 460.2 243.4 463.8 C 242.0 467.4 239.7 470.9 237.5 474.3 C 235.4 477.7 233.4 481.6 230.4 484.2 C 227.4 486.9 223.4 488.6 219.5 490.2 C 215.5 491.8 210.9 493.4 206.7 493.8 C 202.6 494.2 198.3 494.1 194.4 492.8 C 190.5 491.6 186.7 488.9 183.2 486.5 C 179.6 484.1 176.0 481.7 173.2 478.7 C 170.5 475.7 168.4 472.0 166.7 468.5 C 164.9 465.0 163.1 461.3 162.6 457.5 C 162.0 453.7 163.0 449.7 163.5 445.8 C 163.9 441.9 164.1 437.9 165.4 434.2 C 166.7 430.5 169.0 427.0 171.2 423.7 C 173.5 420.3 176.8 417.5 178.9 414.1 C 181.0 410.8 182.6 407.2 183.9 403.5 C 185.3 399.8 186.7 395.9 187.1 392.1 C 187.6 388.3 187.2 384.4 186.7 380.6 C 186.2 376.8 184.8 373.0 184.1 369.1 C 183.5 365.2 183.1 361.3 182.8 357.4 C 182.6 353.5 182.3 349.6 182.7 345.7 C 183.0 341.8 183.4 337.9 184.9 334.3 C 186.5 330.8 189.2 327.4 191.9 324.4 C 194.6 321.4 197.4 317.7 201.2 316.2 C 204.9 314.7 210.1 315.6 214.5 315.4 C 218.9 315.2 223.8 313.9 227.8 314.9 C 231.8 316.0 235.1 319.4 238.5 321.9 C 241.9 324.4 245.3 327.0 248.2 330.0 C 251.1 332.9 254.3 336.0 255.8 339.5 C 257.3 343.0 256.9 347.2 257.2 351.1 C 257.4 355.0 258.1 359.1 257.3 362.8 C 256.6 366.6 254.4 370.1 252.5 373.6 C 250.5 377.1 247.5 380.3 245.8 383.8 C 244.0 387.3 242.9 391.1 242.0 394.8 C 241.1 398.6 240.3 402.6 240.2 406.5 C 240.2 410.3 241.0 414.1 241.8 417.8 C 242.7 421.6 244.5 425.3 245.3 429.1 Z" fill="none" stroke="#366595" stroke-width="2.5"/>
    <path d="M 236.3 426.9 C 237.7 430.7 238.8 434.6 239.2 438.6 C 239.7 442.5 239.4 446.7 239.1 450.6 C 238.8 454.6 238.7 458.7 237.3 462.4 C 236.0 466.2 233.6 470.0 230.9 473.0 C 228.2 476.1 224.9 478.8 221.1 480.8 C 217.4 482.9 212.6 484.7 208.5 485.5 C 204.3 486.3 199.9 487.0 196.1 485.7 C 192.3 484.5 189.0 480.7 185.7 478.0 C 182.4 475.2 178.8 472.5 176.2 469.3 C 173.6 466.1 170.8 462.5 170.0 458.8 C 169.1 455.0 170.6 450.8 171.1 446.8 C 171.6 442.8 171.2 438.4 172.9 434.8 C 174.7 431.3 178.6 428.6 181.5 425.4 C 184.4 422.3 187.8 419.4 190.2 416.1 C 192.6 412.8 194.5 409.3 195.8 405.5 C 197.2 401.8 197.9 397.6 198.2 393.6 C 198.4 389.7 197.9 385.8 197.1 381.9 C 196.2 378.1 194.1 374.3 193.1 370.4 C 192.0 366.5 191.2 362.5 190.6 358.6 C 190.1 354.6 189.8 350.5 190.0 346.5 C 190.3 342.6 190.5 338.5 192.1 334.9 C 193.8 331.3 196.4 327.0 199.9 325.0 C 203.4 323.0 208.7 323.3 213.2 322.7 C 217.7 322.0 222.7 320.1 226.8 321.0 C 230.9 321.9 234.5 325.3 237.8 328.0 C 241.1 330.7 244.7 333.8 246.6 337.2 C 248.5 340.7 248.8 344.8 249.3 348.7 C 249.8 352.6 250.3 356.9 249.4 360.7 C 248.5 364.5 246.1 368.1 244.0 371.6 C 241.9 375.1 238.9 378.3 236.7 381.8 C 234.5 385.2 232.2 388.6 231.0 392.3 C 229.8 396.1 229.4 400.4 229.3 404.3 C 229.3 408.2 229.7 412.1 230.8 415.8 C 232.0 419.6 234.9 423.1 236.3 426.9 Z" fill="none" stroke="#366595" stroke-width="2.5"/>
    <path d="M 227.3 428.2 C 230.0 430.8 230.3 435.5 231.0 439.3 C 231.7 443.1 231.6 447.1 231.5 451.0 C 231.3 454.8 231.7 459.2 229.9 462.3 C 228.1 465.5 224.4 467.9 220.9 470.0 C 217.4 472.2 212.8 474.1 209.0 475.2 C 205.1 476.4 201.1 478.0 197.7 476.9 C 194.2 475.9 191.1 471.6 188.2 468.7 C 185.4 465.7 181.4 462.7 180.5 459.2 C 179.5 455.7 181.6 451.5 182.4 447.7 C 183.2 443.9 183.4 439.7 185.2 436.3 C 187.0 432.8 190.3 429.7 193.2 427.0 C 196.0 424.3 198.7 420.6 202.3 420.0 C 206.0 419.5 210.8 422.3 215.0 423.7 C 219.1 425.0 224.6 425.6 227.3 428.2 Z" fill="none" stroke="#366595" stroke-width="2.5"/>
    <path d="M 236.3 334.1 C 238.9 337.0 240.1 341.2 240.8 345.0 C 241.5 348.8 241.4 353.1 240.7 357.0 C 240.0 360.9 238.7 364.8 236.5 368.2 C 234.4 371.6 231.4 376.5 227.9 377.5 C 224.3 378.5 219.4 375.8 215.3 374.3 C 211.2 372.8 206.2 371.1 203.3 368.4 C 200.5 365.7 199.4 361.8 198.4 358.1 C 197.3 354.4 197.1 350.0 197.3 346.1 C 197.5 342.2 197.2 337.2 199.7 334.6 C 202.2 332.0 207.7 331.4 212.0 330.3 C 216.3 329.2 221.4 327.2 225.4 327.8 C 229.5 328.5 233.7 331.3 236.3 334.1 Z" fill="none" stroke="#366595" stroke-width="2.5"/>
  </g>
  <circle cx="239.2" cy="318.1" r="30.5" fill="url(#x0g9)" stroke="#202020" stroke-width="5.7"/>
  <line x1="244.0" y1="343.3" x2="234.6" y2="403.1" stroke="#0a0a0a" stroke-width="10.0" stroke-linecap="round" stroke-dasharray="10.0,20.0"/>
  <line x1="227.0" y1="340.6" x2="217.7" y2="400.5" stroke="#0a0a0a" stroke-width="10.0" stroke-linecap="round"/>
  <g opacity="0.60">
    <path d="M 778.0 329.6 C 778.7 333.4 780.3 337.3 780.0 341.2 C 779.7 345.0 777.5 348.7 776.0 352.4 C 774.5 356.2 773.3 360.0 771.2 363.5 C 769.1 366.9 766.2 370.1 763.3 373.0 C 760.3 375.9 757.1 378.7 753.5 381.1 C 750.0 383.5 746.2 385.9 742.1 387.3 C 738.0 388.6 733.3 388.7 728.8 389.3 C 724.4 390.0 719.7 391.7 715.5 391.2 C 711.3 390.6 707.6 387.8 703.6 386.0 C 699.7 384.2 695.6 382.4 691.8 380.3 C 688.1 378.1 684.4 375.7 681.3 373.0 C 678.1 370.3 675.1 367.2 672.7 363.9 C 670.4 360.6 668.9 356.8 667.2 353.1 C 665.5 349.5 663.2 345.8 662.6 342.0 C 662.1 338.2 663.2 334.3 663.8 330.4 C 664.4 326.6 664.9 322.6 666.1 318.8 C 667.3 315.0 668.8 311.3 670.9 307.8 C 672.9 304.3 675.5 301.0 678.3 298.0 C 681.2 295.0 684.4 292.0 688.0 289.8 C 691.6 287.5 695.9 286.1 700.0 284.5 C 704.1 282.9 708.4 280.8 712.6 280.4 C 716.9 280.0 721.4 281.2 725.7 281.9 C 730.1 282.7 734.6 283.4 738.7 284.9 C 742.8 286.3 746.7 288.4 750.4 290.6 C 754.0 292.9 757.3 295.7 760.3 298.5 C 763.4 301.4 766.2 304.6 768.7 307.8 C 771.2 311.0 773.7 314.4 775.3 318.0 C 776.8 321.6 777.2 325.7 778.0 329.6 Z" fill="none" fill-rule="evenodd" stroke="#6a0f1e" stroke-width="4.3"/>
    <path d="M 778.0 336.3 C 778.1 340.2 777.3 344.1 776.2 347.9 C 775.1 351.7 773.4 355.5 771.5 359.1 C 769.5 362.7 767.3 366.2 764.6 369.4 C 762.0 372.5 758.8 375.5 755.4 378.1 C 751.9 380.7 748.2 383.3 744.2 384.8 C 740.1 386.4 735.5 386.8 731.0 387.5 C 726.6 388.3 721.9 389.8 717.6 389.5 C 713.3 389.1 709.2 387.1 705.2 385.5 C 701.1 383.9 697.1 381.9 693.3 379.7 C 689.5 377.5 685.7 375.2 682.5 372.5 C 679.2 369.7 676.3 366.6 673.9 363.2 C 671.5 359.9 669.9 356.0 668.2 352.4 C 666.4 348.7 664.0 344.9 663.5 341.1 C 663.0 337.3 664.5 333.3 665.2 329.4 C 665.9 325.4 666.2 321.3 667.6 317.6 C 668.9 313.8 670.8 310.1 673.1 306.7 C 675.4 303.3 678.1 300.0 681.2 297.1 C 684.3 294.3 687.9 291.8 691.7 289.6 C 695.5 287.5 699.8 285.8 704.0 284.4 C 708.2 283.1 712.5 281.4 716.9 281.4 C 721.2 281.3 725.7 283.1 730.1 284.2 C 734.5 285.3 739.1 286.0 743.0 287.7 C 747.0 289.5 750.5 292.3 753.9 295.0 C 757.3 297.6 760.5 300.5 763.4 303.5 C 766.2 306.6 769.1 309.8 771.1 313.3 C 773.1 316.8 774.2 320.7 775.3 324.6 C 776.5 328.4 777.8 332.4 778.0 336.3 Z" fill="none" stroke="#6a0f1e" stroke-width="2.5"/>
    <path d="M 768.9 337.4 C 768.9 341.2 767.5 345.1 766.2 348.8 C 764.8 352.6 763.0 356.4 760.8 359.8 C 758.6 363.3 755.9 366.6 752.9 369.5 C 749.8 372.3 746.2 375.3 742.3 377.0 C 738.3 378.7 733.4 378.9 729.0 379.8 C 724.5 380.6 719.8 382.5 715.5 382.0 C 711.3 381.4 707.4 378.6 703.5 376.6 C 699.6 374.6 695.6 372.5 692.2 369.9 C 688.7 367.4 685.5 364.5 682.8 361.4 C 680.1 358.2 678.1 354.5 676.1 350.9 C 674.1 347.3 671.3 343.7 670.8 339.9 C 670.4 336.1 672.5 332.0 673.3 328.1 C 674.2 324.1 674.3 319.9 676.0 316.3 C 677.6 312.6 680.4 309.2 683.3 306.2 C 686.2 303.2 689.7 300.6 693.4 298.3 C 697.1 296.0 701.2 293.9 705.3 292.5 C 709.4 291.0 713.7 289.4 718.0 289.5 C 722.3 289.6 726.8 291.6 731.1 292.8 C 735.4 294.1 740.0 294.9 743.9 296.9 C 747.7 298.9 751.1 301.8 754.2 304.7 C 757.3 307.6 760.5 310.7 762.5 314.2 C 764.5 317.7 765.2 321.7 766.2 325.6 C 767.3 329.5 768.9 333.5 768.9 337.4 Z" fill="none" stroke="#6a0f1e" stroke-width="2.5"/>
    <path d="M 759.9 333.2 C 760.3 337.2 760.5 341.1 759.4 344.9 C 758.3 348.7 755.8 352.4 753.4 355.9 C 751.1 359.3 748.7 363.2 745.3 365.6 C 741.9 368.1 737.3 369.4 733.0 370.8 C 728.7 372.1 723.9 373.8 719.6 373.8 C 715.3 373.8 711.0 372.4 707.1 370.7 C 703.2 368.9 699.4 366.1 696.1 363.3 C 692.7 360.6 689.7 357.4 687.1 354.1 C 684.5 350.7 681.4 347.1 680.3 343.4 C 679.2 339.7 679.9 335.7 680.4 331.8 C 680.9 327.9 681.7 323.6 683.4 319.9 C 685.0 316.2 687.3 312.6 690.3 309.7 C 693.4 306.8 697.7 304.8 701.5 302.6 C 705.4 300.4 709.4 297.2 713.7 296.7 C 717.9 296.1 722.5 298.3 726.9 299.3 C 731.3 300.4 736.1 301.2 740.1 303.1 C 744.1 304.9 747.9 307.6 750.7 310.7 C 753.5 313.7 755.3 317.6 756.8 321.3 C 758.4 325.1 759.5 329.3 759.9 333.2 Z" fill="none" stroke="#6a0f1e" stroke-width="2.5"/>
    <path d="M 750.9 329.8 C 751.8 333.6 753.8 337.5 753.1 341.1 C 752.4 344.6 749.2 348.1 746.7 351.2 C 744.1 354.2 741.2 357.1 737.7 359.2 C 734.2 361.4 729.9 363.1 725.8 364.2 C 721.7 365.4 717.1 367.3 713.4 366.4 C 709.7 365.4 706.7 361.4 703.6 358.7 C 700.5 356.0 697.6 353.0 694.8 350.0 C 692.0 347.0 687.7 344.2 686.8 340.8 C 686.0 337.4 688.6 333.4 689.8 329.7 C 690.9 326.0 691.8 321.9 694.0 318.7 C 696.1 315.5 699.5 312.8 702.8 310.4 C 706.1 307.9 709.8 304.6 713.7 303.9 C 717.6 303.3 722.1 305.5 726.2 306.6 C 730.3 307.8 735.0 308.7 738.6 310.7 C 742.1 312.7 745.3 315.5 747.3 318.7 C 749.4 321.9 749.9 326.1 750.9 329.8 Z" fill="none" stroke="#6a0f1e" stroke-width="2.5"/>
    <path d="M 741.8 330.2 C 743.6 333.7 745.4 338.4 744.1 341.6 C 742.8 344.7 737.5 346.9 733.8 349.1 C 730.1 351.3 725.6 354.0 721.7 354.8 C 717.8 355.7 714.0 355.6 710.6 354.0 C 707.2 352.4 703.4 348.2 701.5 345.0 C 699.5 341.8 698.6 338.3 699.0 334.7 C 699.3 331.1 701.7 326.9 703.7 323.4 C 705.6 319.9 707.6 315.2 710.8 313.6 C 714.0 312.0 719.1 312.6 722.9 313.7 C 726.7 314.9 730.6 317.7 733.8 320.4 C 736.9 323.2 740.1 326.6 741.8 330.2 Z" fill="none" stroke="#6a0f1e" stroke-width="2.5"/>
  </g>
  <circle cx="727.0" cy="315.0" r="29.1" fill="url(#x0g12)" stroke="#171717" stroke-width="5.7"/>
  <g opacity="0.60">
    <path d="M 759.9 310.1 C 760.6 314.0 760.8 317.9 760.5 321.7 C 760.1 325.6 759.2 329.6 758.0 333.4 C 756.9 337.1 755.7 341.0 753.5 344.3 C 751.4 347.7 748.2 350.7 745.1 353.4 C 741.9 356.2 738.3 358.6 734.7 361.0 C 731.2 363.3 727.5 365.8 723.6 367.6 C 719.7 369.4 715.5 371.0 711.2 371.7 C 706.9 372.5 702.2 372.4 697.8 372.4 C 693.3 372.4 688.8 372.8 684.5 371.9 C 680.3 371.0 676.2 368.9 672.3 367.0 C 668.4 365.0 664.5 362.9 661.2 360.3 C 658.0 357.6 655.3 354.3 653.0 350.9 C 650.7 347.6 648.5 344.0 647.3 340.3 C 646.2 336.5 646.6 332.4 646.3 328.5 C 645.9 324.6 644.8 320.5 645.3 316.7 C 645.8 312.8 647.6 309.1 649.1 305.4 C 650.5 301.6 651.8 297.8 653.9 294.3 C 655.9 290.9 658.6 287.6 661.4 284.6 C 664.2 281.6 667.4 278.7 670.8 276.1 C 674.2 273.5 677.7 270.9 681.6 269.1 C 685.4 267.2 689.6 265.9 693.8 265.0 C 698.1 264.2 702.9 263.7 707.2 263.8 C 711.6 264.0 715.9 264.4 720.0 265.7 C 724.0 267.1 727.7 269.7 731.4 271.9 C 735.1 274.2 738.8 276.5 742.1 279.1 C 745.3 281.8 748.6 284.7 751.0 288.0 C 753.4 291.2 754.9 295.0 756.4 298.7 C 757.9 302.4 759.2 306.3 759.9 310.1 Z" fill="none" fill-rule="evenodd" stroke="#33608d" stroke-width="4.3"/>
    <path d="M 759.9 314.7 C 760.2 318.5 759.0 322.5 758.3 326.4 C 757.6 330.3 757.1 334.5 755.5 338.1 C 753.9 341.8 751.7 345.4 748.9 348.5 C 746.2 351.6 742.6 354.3 739.1 356.8 C 735.6 359.3 731.8 361.5 728.0 363.6 C 724.1 365.8 720.4 368.5 716.2 369.7 C 712.0 370.9 707.3 370.6 702.8 370.9 C 698.3 371.1 693.5 372.0 689.1 371.4 C 684.8 370.9 680.5 369.2 676.5 367.4 C 672.5 365.6 668.5 363.4 665.1 360.9 C 661.7 358.3 658.5 355.4 655.9 352.2 C 653.3 349.0 650.8 345.4 649.5 341.7 C 648.1 338.0 648.2 333.8 647.8 329.9 C 647.3 325.9 646.4 321.8 646.7 317.9 C 647.1 314.0 648.7 310.2 650.1 306.4 C 651.5 302.7 653.0 298.8 655.1 295.3 C 657.2 291.8 659.7 288.4 662.6 285.3 C 665.4 282.2 668.6 279.3 672.0 276.7 C 675.4 274.1 679.1 271.5 683.1 269.7 C 687.0 268.0 691.4 267.1 695.8 266.3 C 700.2 265.6 705.0 264.8 709.4 265.1 C 713.7 265.4 717.9 266.6 721.9 268.2 C 725.9 269.7 729.8 272.2 733.4 274.6 C 737.1 276.9 740.7 279.5 743.8 282.3 C 746.9 285.2 750.0 288.3 752.1 291.8 C 754.2 295.2 755.2 299.2 756.5 303.1 C 757.8 306.9 759.6 310.8 759.9 314.7 Z" fill="none" stroke="#33608d" stroke-width="2.5"/>
    <path d="M 750.9 309.9 C 751.8 313.7 752.2 317.6 751.8 321.5 C 751.4 325.4 749.9 329.4 748.5 333.1 C 747.0 336.9 745.5 340.7 743.0 343.9 C 740.4 347.1 736.8 349.9 733.4 352.4 C 729.9 355.0 726.2 357.5 722.2 359.3 C 718.2 361.0 713.9 362.1 709.5 362.8 C 705.1 363.4 700.3 363.3 695.8 363.1 C 691.4 362.8 686.8 362.5 682.7 361.1 C 678.6 359.7 674.7 357.2 671.2 354.7 C 667.8 352.2 664.3 349.2 662.0 345.9 C 659.7 342.6 658.5 338.7 657.5 334.9 C 656.5 331.0 656.0 326.9 655.9 322.9 C 655.9 319.0 656.2 315.1 657.3 311.3 C 658.5 307.6 660.6 303.8 662.7 300.3 C 664.7 296.7 666.7 293.1 669.4 289.9 C 672.2 286.8 675.4 283.8 679.0 281.4 C 682.5 278.9 686.4 276.7 690.6 275.5 C 694.8 274.3 699.7 274.2 704.1 274.0 C 708.6 273.7 713.2 273.0 717.3 274.1 C 721.5 275.3 725.2 278.2 728.8 280.6 C 732.4 283.1 736.0 285.6 738.9 288.6 C 741.8 291.7 744.1 295.2 746.0 298.7 C 748.0 302.2 749.9 306.1 750.9 309.9 Z" fill="none" stroke="#33608d" stroke-width="2.5"/>
    <path d="M 741.8 307.8 C 743.4 311.6 744.9 315.4 744.7 319.3 C 744.5 323.2 742.3 327.2 740.7 331.0 C 739.2 334.8 737.8 338.8 735.2 342.0 C 732.7 345.2 728.9 348.0 725.2 350.4 C 721.5 352.7 717.6 355.2 713.2 356.1 C 708.9 357.0 703.9 356.2 699.4 355.9 C 694.8 355.7 690.0 356.1 685.8 354.8 C 681.7 353.4 677.8 350.5 674.7 347.6 C 671.6 344.8 668.9 341.3 667.3 337.6 C 665.7 333.9 665.4 329.6 665.0 325.6 C 664.6 321.6 663.8 317.6 664.8 313.7 C 665.7 309.9 668.5 306.3 670.6 302.7 C 672.8 299.1 674.8 295.3 677.7 292.2 C 680.6 289.2 684.0 285.9 688.0 284.2 C 692.0 282.5 697.2 282.8 701.7 282.2 C 706.3 281.6 711.2 279.8 715.3 280.8 C 719.5 281.7 723.2 285.1 726.5 287.8 C 729.9 290.6 732.8 293.7 735.4 297.1 C 737.9 300.4 740.3 304.1 741.8 307.8 Z" fill="none" stroke="#33608d" stroke-width="2.5"/>
    <path d="M 732.8 308.0 C 734.6 311.4 736.8 315.0 736.8 318.6 C 736.7 322.2 733.9 326.0 732.4 329.6 C 730.9 333.3 730.0 337.4 727.5 340.4 C 725.0 343.5 721.3 346.6 717.5 348.1 C 713.7 349.5 709.0 349.1 704.7 349.2 C 700.3 349.2 695.4 349.6 691.4 348.5 C 687.4 347.4 683.2 345.4 680.5 342.7 C 677.8 340.0 676.7 336.0 675.3 332.4 C 674.0 328.7 672.6 324.6 672.6 320.9 C 672.5 317.2 673.6 313.6 675.2 310.1 C 676.7 306.6 679.3 303.0 682.0 300.0 C 684.7 297.1 687.6 294.1 691.3 292.4 C 695.0 290.7 700.0 290.5 704.3 290.0 C 708.6 289.5 713.3 288.3 716.9 289.6 C 720.5 290.9 723.3 294.9 725.9 298.0 C 728.6 301.1 731.0 304.6 732.8 308.0 Z" fill="none" stroke="#33608d" stroke-width="2.5"/>
    <path d="M 723.8 308.1 C 725.9 311.3 728.4 314.8 728.4 318.2 C 728.4 321.7 725.5 325.5 723.8 329.0 C 722.1 332.5 721.2 337.3 718.4 339.5 C 715.5 341.6 710.9 341.6 706.8 341.8 C 702.7 342.0 697.3 341.9 693.7 340.5 C 690.2 339.2 687.5 336.7 685.5 333.7 C 683.4 330.7 682.1 326.3 681.7 322.7 C 681.2 319.1 681.1 315.2 682.7 312.2 C 684.3 309.1 687.9 306.2 691.4 304.3 C 694.9 302.4 699.8 301.7 703.9 300.8 C 707.9 299.9 712.5 297.8 715.8 299.0 C 719.2 300.2 721.7 304.9 723.8 308.1 Z" fill="none" stroke="#33608d" stroke-width="2.5"/>
  </g>
  <g opacity="0.60">
    <path d="M 615.5 427.3 C 616.7 431.1 617.7 434.9 618.0 438.8 C 618.4 442.7 617.9 446.7 617.6 450.7 C 617.2 454.6 617.0 458.6 616.1 462.4 C 615.1 466.2 613.5 470.0 611.9 473.7 C 610.3 477.4 608.5 481.0 606.4 484.5 C 604.2 487.9 601.8 491.3 599.0 494.4 C 596.3 497.5 593.1 500.4 589.8 503.1 C 586.5 505.8 583.1 508.4 579.3 510.5 C 575.5 512.7 571.4 514.3 567.3 515.9 C 563.2 517.5 559.0 519.3 554.7 520.2 C 550.3 521.1 545.8 521.0 541.3 521.3 C 536.8 521.6 532.2 522.1 527.8 521.8 C 523.3 521.5 518.9 520.5 514.6 519.5 C 510.3 518.5 505.9 517.2 501.8 515.6 C 497.8 514.0 493.8 512.0 490.1 509.7 C 486.5 507.4 483.1 504.7 480.0 501.9 C 476.9 499.0 474.2 495.8 471.6 492.6 C 469.1 489.3 466.4 486.0 464.8 482.4 C 463.3 478.7 463.0 474.6 462.3 470.7 C 461.5 466.8 460.0 462.9 460.2 459.0 C 460.5 455.1 462.6 451.3 463.6 447.5 C 464.7 443.7 465.5 439.8 466.8 436.0 C 468.0 432.2 469.7 428.5 471.0 424.7 C 472.4 420.9 473.3 417.0 474.8 413.3 C 476.2 409.6 477.7 405.7 479.8 402.3 C 481.8 398.8 484.4 395.4 487.3 392.5 C 490.2 389.5 493.6 386.7 497.3 384.5 C 500.9 382.3 505.2 380.8 509.3 379.2 C 513.4 377.6 517.7 375.8 522.0 375.0 C 526.3 374.3 530.9 374.5 535.4 374.5 C 539.8 374.4 544.4 374.3 548.9 374.9 C 553.3 375.4 557.7 376.5 561.9 377.8 C 566.1 379.0 570.2 380.8 574.2 382.6 C 578.2 384.5 582.0 386.5 585.7 388.9 C 589.3 391.2 592.9 393.7 596.0 396.5 C 599.1 399.3 601.9 402.5 604.4 405.7 C 606.9 409.0 609.0 412.5 610.9 416.1 C 612.7 419.7 614.3 423.5 615.5 427.3 Z" fill="none" fill-rule="evenodd" stroke="#366695" stroke-width="4.3"/>
    <path d="M 615.5 431.8 C 616.3 435.7 616.2 439.7 616.3 443.7 C 616.3 447.7 616.4 451.7 615.8 455.7 C 615.2 459.6 614.2 463.5 612.9 467.3 C 611.6 471.1 609.9 474.9 608.0 478.5 C 606.1 482.1 604.1 485.7 601.6 489.1 C 599.2 492.4 596.4 495.6 593.3 498.5 C 590.2 501.4 586.7 504.0 583.0 506.4 C 579.4 508.8 575.5 510.9 571.5 512.8 C 567.5 514.6 563.3 516.4 559.0 517.6 C 554.8 518.8 550.3 519.5 545.8 519.9 C 541.3 520.4 536.7 520.6 532.1 520.5 C 527.6 520.4 523.1 520.1 518.7 519.3 C 514.3 518.5 509.9 517.1 505.7 515.6 C 501.6 514.1 497.4 512.4 493.6 510.3 C 489.8 508.1 486.3 505.5 483.1 502.7 C 479.8 499.9 476.8 496.9 474.2 493.7 C 471.5 490.5 468.6 487.1 466.9 483.5 C 465.2 479.9 464.7 475.8 463.9 471.9 C 463.0 468.0 461.7 463.9 461.8 460.0 C 462.0 456.1 463.6 452.2 464.6 448.3 C 465.6 444.5 466.5 440.5 467.7 436.7 C 468.9 432.8 470.5 429.1 471.8 425.2 C 473.1 421.4 474.1 417.5 475.6 413.7 C 477.1 410.0 478.7 406.2 480.8 402.7 C 482.9 399.2 485.4 395.7 488.4 392.8 C 491.4 389.8 495.0 387.2 498.8 385.0 C 502.6 382.8 506.9 381.3 511.1 379.8 C 515.3 378.2 519.5 376.4 523.9 375.7 C 528.3 375.0 532.9 375.6 537.5 375.7 C 542.0 375.8 546.7 375.4 551.1 376.1 C 555.5 376.8 559.8 378.4 564.0 379.9 C 568.2 381.4 572.4 383.1 576.3 385.1 C 580.3 387.0 584.1 389.2 587.7 391.7 C 591.2 394.1 594.7 396.8 597.6 399.8 C 600.6 402.8 603.2 406.2 605.5 409.6 C 607.8 413.0 609.6 416.7 611.3 420.5 C 612.9 424.2 614.6 428.0 615.5 431.8 Z" fill="none" stroke="#366695" stroke-width="2.5"/>
    <path d="M 597.4 425.8 C 599.1 429.4 600.7 433.1 601.3 436.9 C 601.8 440.7 601.0 444.7 600.7 448.6 C 600.5 452.5 600.7 456.5 599.7 460.3 C 598.7 464.0 596.6 467.6 594.7 471.2 C 592.8 474.7 591.0 478.3 588.5 481.6 C 586.1 484.8 583.1 487.8 580.0 490.5 C 576.8 493.2 573.1 495.6 569.4 497.8 C 565.7 499.9 561.9 502.1 557.8 503.5 C 553.7 505.0 549.4 505.7 545.0 506.3 C 540.7 506.9 536.1 507.3 531.7 507.2 C 527.3 507.1 522.9 506.6 518.7 505.6 C 514.5 504.7 510.3 502.9 506.4 501.2 C 502.4 499.5 498.4 497.6 495.0 495.2 C 491.6 492.8 488.4 489.8 485.8 486.7 C 483.3 483.6 481.4 480.0 479.8 476.3 C 478.2 472.7 476.9 468.9 476.2 465.1 C 475.5 461.2 475.5 457.4 475.8 453.5 C 476.0 449.6 476.9 445.7 477.7 441.9 C 478.4 438.0 479.1 434.2 480.3 430.4 C 481.4 426.6 483.0 422.9 484.7 419.3 C 486.4 415.7 488.2 412.1 490.6 408.8 C 492.9 405.6 495.7 402.3 498.9 399.7 C 502.2 397.2 506.2 395.2 510.1 393.4 C 514.0 391.5 518.1 389.5 522.3 388.7 C 526.6 387.8 531.1 388.2 535.5 388.3 C 539.9 388.3 544.5 388.3 548.9 389.0 C 553.2 389.7 557.5 390.9 561.5 392.5 C 565.5 394.1 569.3 396.3 572.9 398.6 C 576.5 400.8 580.0 403.4 583.0 406.2 C 586.1 409.0 588.8 412.1 591.2 415.4 C 593.6 418.7 595.7 422.2 597.4 425.8 Z" fill="none" stroke="#366695" stroke-width="2.5"/>
    <path d="M 579.4 421.2 C 581.8 424.5 584.6 427.9 586.0 431.5 C 587.4 435.1 587.4 439.0 587.5 442.9 C 587.7 446.7 587.5 450.8 586.7 454.6 C 585.8 458.5 584.5 462.2 582.6 465.7 C 580.7 469.2 578.0 472.5 575.3 475.6 C 572.6 478.7 569.6 481.7 566.4 484.4 C 563.1 487.0 559.5 489.8 555.6 491.4 C 551.6 493.0 547.1 493.5 542.7 494.2 C 538.4 494.9 533.7 495.8 529.4 495.5 C 525.0 495.3 520.7 494.2 516.7 492.7 C 512.7 491.2 508.6 489.0 505.1 486.7 C 501.6 484.4 498.3 481.7 495.6 478.6 C 493.0 475.6 490.9 471.9 489.2 468.3 C 487.6 464.6 486.2 460.8 485.9 457.0 C 485.5 453.1 486.7 449.1 487.2 445.2 C 487.7 441.3 487.7 437.3 488.9 433.6 C 490.0 429.8 492.2 426.2 494.2 422.7 C 496.3 419.2 498.3 415.7 501.1 412.6 C 503.9 409.6 507.3 406.9 510.9 404.6 C 514.4 402.2 518.3 399.6 522.4 398.5 C 526.5 397.5 531.1 398.0 535.5 398.2 C 539.9 398.4 544.6 398.5 548.8 399.5 C 553.1 400.5 557.2 402.2 561.0 404.2 C 564.7 406.3 568.2 409.0 571.3 411.8 C 574.3 414.6 576.9 418.0 579.4 421.2 Z" fill="none" stroke="#366695" stroke-width="2.5"/>
    <path d="M 570.3 428.1 C 572.5 431.5 574.2 435.1 574.7 438.9 C 575.2 442.7 574.1 447.0 573.4 450.9 C 572.6 454.8 572.0 458.8 570.0 462.3 C 568.1 465.8 564.8 468.9 561.8 471.9 C 558.7 474.8 555.7 478.2 551.7 479.9 C 547.8 481.6 542.8 481.5 538.3 482.2 C 533.8 482.9 529.0 484.8 524.9 484.0 C 520.7 483.1 517.1 479.7 513.6 477.1 C 510.2 474.5 506.9 471.7 504.1 468.5 C 501.3 465.4 498.1 462.1 497.0 458.4 C 495.9 454.7 497.4 450.4 497.6 446.4 C 497.9 442.4 497.3 438.2 498.6 434.5 C 499.9 430.8 503.1 427.5 505.7 424.3 C 508.3 421.0 511.0 417.7 514.2 414.9 C 517.4 412.0 520.7 408.3 524.7 407.3 C 528.7 406.3 533.7 408.2 538.2 408.8 C 542.7 409.4 547.7 409.1 551.7 410.8 C 555.6 412.4 558.8 415.7 561.9 418.6 C 565.0 421.5 568.2 424.7 570.3 428.1 Z" fill="none" stroke="#366695" stroke-width="2.5"/>
    <path d="M 561.3 433.7 C 562.7 437.2 561.3 441.4 560.8 445.3 C 560.3 449.2 560.3 453.7 558.5 457.1 C 556.6 460.5 553.5 463.7 549.8 465.6 C 546.2 467.5 540.9 467.8 536.5 468.4 C 532.1 469.1 527.3 470.7 523.6 469.5 C 519.8 468.2 515.9 464.4 513.8 461.1 C 511.7 457.8 511.7 453.6 511.1 449.6 C 510.6 445.7 509.5 441.4 510.3 437.6 C 511.2 433.9 513.7 430.3 516.3 427.2 C 518.9 424.2 522.1 420.0 525.9 419.1 C 529.7 418.2 534.8 420.8 539.3 421.7 C 543.7 422.6 548.9 422.4 552.5 424.5 C 556.2 426.5 559.9 430.2 561.3 433.7 Z" fill="none" stroke="#366695" stroke-width="2.5"/>
  </g>
  <circle cx="546.8" cy="419.3" r="30.5" fill="url(#x0g8)" stroke="#0f0f0f" stroke-width="5.7"/>
  <line x1="519.6" y1="415.4" x2="449.0" y2="405.3" stroke="#080808" stroke-width="14.3" stroke-linecap="round"/>
  <line x1="558.0" y1="438.0" x2="589.4" y2="490.5" stroke="#020202" stroke-width="14.3" stroke-linecap="round"/>
  <g opacity="0.60">
    <path d="M 597.4 367.8 C 598.9 371.6 600.5 375.4 601.5 379.2 C 602.6 383.1 603.6 387.0 603.9 390.9 C 604.2 394.9 603.5 398.9 603.1 402.9 C 602.8 406.9 602.6 410.9 602.0 414.9 C 601.4 418.8 600.4 422.7 599.3 426.6 C 598.3 430.5 597.3 434.5 595.7 438.2 C 594.1 441.9 592.1 445.6 589.7 448.9 C 587.3 452.2 584.3 455.4 581.1 458.2 C 578.0 461.0 574.3 463.6 570.5 465.7 C 566.7 467.9 562.6 469.9 558.4 471.2 C 554.1 472.5 549.6 473.0 545.1 473.4 C 540.7 473.9 535.9 474.1 531.5 473.8 C 527.0 473.4 522.5 472.8 518.4 471.5 C 514.2 470.1 510.3 467.8 506.4 465.7 C 502.5 463.7 498.7 461.4 495.0 459.0 C 491.4 456.7 487.5 454.4 484.4 451.6 C 481.3 448.7 478.5 445.4 476.4 441.9 C 474.3 438.4 473.2 434.4 471.9 430.6 C 470.5 426.8 468.9 423.0 468.2 419.1 C 467.5 415.2 467.1 411.3 467.6 407.4 C 468.1 403.5 470.0 399.7 471.2 395.8 C 472.4 391.9 473.2 388.0 474.7 384.2 C 476.2 380.5 478.0 376.7 480.1 373.2 C 482.2 369.7 484.7 366.3 487.4 363.1 C 490.1 359.9 493.2 356.9 496.4 354.1 C 499.7 351.4 503.4 349.0 507.1 346.6 C 510.8 344.2 514.6 342.0 518.4 339.9 C 522.3 337.8 526.1 335.7 530.1 333.9 C 534.1 332.0 538.4 330.4 542.6 329.0 C 546.8 327.6 550.8 325.4 555.1 325.5 C 559.3 325.6 563.8 327.8 567.9 329.5 C 572.0 331.2 576.5 332.8 579.6 335.5 C 582.8 338.2 584.6 342.2 586.8 345.7 C 589.0 349.2 590.8 352.9 592.6 356.6 C 594.4 360.3 595.9 364.0 597.4 367.8 Z" fill="none" fill-rule="evenodd" stroke="#620110" stroke-width="4.3"/>
    <path d="M 597.4 371.5 C 598.8 375.2 600.5 379.0 601.3 382.8 C 602.2 386.6 602.4 390.4 602.5 394.3 C 602.6 398.2 602.2 402.2 601.9 406.1 C 601.5 410.0 601.1 413.9 600.4 417.7 C 599.6 421.6 598.7 425.4 597.5 429.2 C 596.3 433.0 595.2 436.8 593.4 440.4 C 591.6 443.9 589.5 447.5 586.9 450.6 C 584.3 453.8 581.2 456.7 577.9 459.3 C 574.6 461.9 570.9 464.2 567.0 466.1 C 563.2 468.1 559.2 470.1 555.0 471.2 C 550.7 472.2 546.2 472.1 541.8 472.4 C 537.3 472.7 532.7 473.3 528.4 472.8 C 524.1 472.3 519.8 470.9 515.8 469.3 C 511.8 467.8 508.0 465.5 504.3 463.4 C 500.5 461.3 496.7 459.2 493.2 456.8 C 489.7 454.4 486.1 451.9 483.3 449.0 C 480.4 446.1 477.9 442.7 476.1 439.2 C 474.2 435.7 473.3 431.8 472.1 428.0 C 470.9 424.2 469.3 420.4 468.9 416.6 C 468.5 412.8 469.0 409.0 469.6 405.1 C 470.2 401.3 471.6 397.5 472.7 393.7 C 473.9 389.9 475.0 386.1 476.6 382.5 C 478.2 378.9 480.1 375.3 482.3 371.9 C 484.5 368.5 487.1 365.2 489.9 362.2 C 492.7 359.2 495.8 356.3 499.1 353.7 C 502.4 351.1 506.1 348.8 509.7 346.5 C 513.4 344.3 517.1 342.0 520.9 340.0 C 524.7 338.1 528.7 336.4 532.7 334.8 C 536.7 333.1 540.9 331.1 545.0 330.1 C 549.1 329.0 553.2 327.8 557.3 328.3 C 561.4 328.8 565.8 331.0 569.6 332.9 C 573.5 334.8 577.4 336.9 580.3 339.7 C 583.3 342.5 585.3 346.3 587.3 349.7 C 589.4 353.2 591.0 356.9 592.7 360.5 C 594.3 364.1 596.0 367.8 597.4 371.5 Z" fill="none" stroke="#620110" stroke-width="2.5"/>
    <path d="M 588.4 382.8 C 589.7 386.6 590.2 390.6 590.6 394.5 C 591.1 398.5 591.2 402.6 591.0 406.6 C 590.8 410.6 590.2 414.5 589.3 418.5 C 588.4 422.4 587.1 426.3 585.5 430.0 C 584.0 433.8 582.3 437.6 580.0 441.0 C 577.6 444.4 574.6 447.5 571.3 450.3 C 568.1 453.1 564.4 455.7 560.4 457.6 C 556.5 459.5 552.2 460.9 547.8 461.8 C 543.4 462.6 538.6 462.8 534.1 462.7 C 529.6 462.6 525.1 462.5 520.9 461.4 C 516.6 460.3 512.6 457.9 508.7 455.9 C 504.7 453.8 500.7 451.8 497.2 449.3 C 493.7 446.7 490.3 443.9 487.8 440.6 C 485.3 437.4 483.7 433.5 482.2 429.7 C 480.8 426.0 479.5 422.0 478.9 418.0 C 478.4 414.1 478.5 410.1 479.1 406.2 C 479.7 402.3 481.2 398.4 482.6 394.6 C 484.0 390.7 485.4 386.9 487.5 383.4 C 489.6 379.8 492.2 376.4 495.1 373.3 C 498.0 370.3 501.5 367.6 504.9 364.9 C 508.3 362.3 511.8 359.6 515.5 357.3 C 519.3 355.0 523.0 352.6 527.2 351.2 C 531.4 349.8 536.2 349.5 540.6 348.8 C 545.1 348.0 549.7 346.1 553.8 346.9 C 557.9 347.7 561.7 351.0 565.3 353.5 C 568.8 356.0 572.1 358.8 575.1 361.9 C 578.0 364.9 580.5 368.3 582.8 371.8 C 585.0 375.3 587.1 379.0 588.4 382.8 Z" fill="none" stroke="#620110" stroke-width="2.5"/>
    <path d="M 579.4 399.7 C 579.9 403.6 581.0 407.6 580.7 411.5 C 580.3 415.4 578.4 419.2 577.1 423.0 C 575.7 426.7 574.7 430.7 572.7 434.2 C 570.6 437.7 567.9 441.0 564.9 443.9 C 561.8 446.7 558.2 449.6 554.2 451.2 C 550.3 452.8 545.5 453.0 541.1 453.6 C 536.7 454.3 532.0 455.4 527.7 455.0 C 523.3 454.6 519.2 452.7 515.2 451.0 C 511.3 449.2 507.4 447.0 503.9 444.4 C 500.5 441.9 496.9 439.2 494.6 435.9 C 492.3 432.6 491.4 428.5 490.2 424.7 C 488.9 420.9 487.0 417.0 487.0 413.1 C 487.0 409.3 488.7 405.5 490.0 401.7 C 491.3 398.0 492.6 394.0 494.7 390.6 C 496.8 387.1 499.5 383.9 502.4 380.9 C 505.4 378.0 508.9 375.4 512.4 372.9 C 515.8 370.4 519.3 367.3 523.3 365.9 C 527.4 364.5 532.0 364.7 536.5 364.2 C 540.9 363.8 545.8 362.5 550.0 363.3 C 554.1 364.1 557.9 366.6 561.3 369.0 C 564.8 371.4 567.7 374.6 570.5 377.8 C 573.2 380.9 576.1 384.2 577.6 387.9 C 579.1 391.5 578.8 395.7 579.4 399.7 Z" fill="none" stroke="#620110" stroke-width="2.5"/>
    <path d="M 570.3 410.1 C 570.3 413.9 568.6 417.8 567.3 421.5 C 565.9 425.3 564.6 429.3 562.3 432.7 C 560.1 436.0 557.4 439.7 553.9 441.8 C 550.4 444.0 545.6 444.4 541.3 445.4 C 536.9 446.4 532.2 447.9 527.9 447.5 C 523.6 447.2 519.4 445.4 515.7 443.3 C 512.0 441.3 508.2 438.5 505.6 435.3 C 503.1 432.2 501.9 428.1 500.3 424.4 C 498.8 420.6 496.3 416.7 496.3 413.0 C 496.4 409.3 498.8 405.5 500.6 401.9 C 502.4 398.4 504.7 394.8 507.3 391.5 C 509.8 388.3 512.8 385.1 516.1 382.6 C 519.5 380.1 523.2 377.4 527.3 376.5 C 531.4 375.5 536.5 376.5 540.9 376.8 C 545.3 377.1 550.2 376.7 553.9 378.4 C 557.6 380.1 560.9 383.8 563.1 387.1 C 565.4 390.5 566.1 394.6 567.3 398.4 C 568.5 402.3 570.3 406.2 570.3 410.1 Z" fill="none" stroke="#620110" stroke-width="2.5"/>
    <path d="M 552.3 393.1 C 555.3 395.4 556.4 400.2 557.6 403.8 C 558.8 407.4 559.9 411.2 559.4 414.9 C 558.9 418.6 556.8 422.6 554.5 425.8 C 552.3 429.0 549.3 432.0 545.7 434.0 C 542.2 436.0 537.4 437.5 533.3 438.0 C 529.3 438.6 524.5 439.1 521.3 437.5 C 518.1 435.8 516.1 431.4 514.1 428.0 C 512.1 424.6 509.7 420.8 509.1 417.2 C 508.5 413.6 509.1 409.9 510.5 406.4 C 511.9 403.0 514.9 399.5 517.5 396.5 C 520.1 393.5 522.6 389.3 526.2 388.3 C 529.9 387.2 535.0 389.5 539.3 390.3 C 543.7 391.1 549.2 390.9 552.3 393.1 Z" fill="none" stroke="#620110" stroke-width="2.5"/>
  </g>
  <circle cx="420.1" cy="401.2" r="32.4" fill="url(#x0g2)" stroke="#0f0f0f" stroke-width="5.7"/>
  <line x1="405.2" y1="425.5" x2="356.5" y2="468.1" stroke="#040404" stroke-width="10.0" stroke-linecap="round"/>
  <line x1="393.9" y1="412.6" x2="345.2" y2="455.1" stroke="#040404" stroke-width="10.0" stroke-linecap="round" stroke-dasharray="10.0,20.0"/>
  <g opacity="0.60">
    <path d="M 453.0 360.6 C 454.0 364.5 454.6 368.4 455.2 372.3 C 455.7 376.3 456.2 380.3 456.2 384.2 C 456.1 388.1 455.8 392.1 455.0 396.0 C 454.1 399.9 452.8 403.7 451.2 407.4 C 449.7 411.1 447.9 414.8 445.5 418.1 C 443.1 421.5 440.1 424.5 437.0 427.4 C 433.9 430.3 430.6 433.1 427.0 435.4 C 423.4 437.7 419.5 440.0 415.3 441.3 C 411.2 442.6 406.4 442.7 402.0 443.3 C 397.5 443.8 392.9 444.9 388.6 444.4 C 384.2 443.9 380.0 441.8 375.9 440.3 C 371.7 438.8 367.3 437.4 363.6 435.3 C 359.8 433.2 356.5 430.3 353.4 427.5 C 350.2 424.7 347.2 421.6 344.7 418.3 C 342.3 415.0 340.5 411.3 338.8 407.7 C 337.0 404.0 335.8 400.2 334.3 396.5 C 332.8 392.7 331.4 388.9 330.0 385.2 C 328.5 381.4 327.2 377.6 325.7 373.9 C 324.2 370.2 322.8 366.4 320.7 362.9 C 318.6 359.4 315.7 356.2 313.3 352.9 C 310.9 349.5 308.5 346.2 306.3 342.7 C 304.1 339.2 301.9 335.7 300.1 332.1 C 298.2 328.5 296.4 324.8 295.1 321.1 C 293.8 317.3 293.0 313.4 292.2 309.5 C 291.5 305.6 290.9 301.6 290.6 297.7 C 290.3 293.7 290.2 289.8 290.4 285.8 C 290.6 281.9 291.0 277.9 291.6 274.0 C 292.3 270.0 293.0 266.1 294.3 262.3 C 295.6 258.6 297.4 254.8 299.4 251.3 C 301.5 247.8 303.9 244.4 306.7 241.3 C 309.4 238.2 312.6 235.3 315.9 232.6 C 319.2 229.9 322.6 227.2 326.4 225.1 C 330.1 223.0 334.2 221.2 338.5 219.9 C 342.7 218.5 347.2 217.8 351.6 217.1 C 356.1 216.4 360.5 215.5 364.9 215.7 C 369.3 216.0 373.8 217.5 378.1 218.6 C 382.4 219.7 387.0 220.5 390.9 222.2 C 394.9 224.0 398.5 226.7 401.9 229.2 C 405.4 231.7 408.7 234.4 411.8 237.4 C 414.8 240.3 417.6 243.4 420.1 246.7 C 422.6 250.0 424.9 253.5 426.9 257.0 C 428.9 260.6 430.7 264.2 432.2 268.0 C 433.7 271.7 434.7 275.6 435.9 279.4 C 437.0 283.3 438.4 287.1 438.9 291.0 C 439.4 294.9 439.1 298.9 439.1 302.9 C 439.1 306.8 438.6 310.8 439.0 314.8 C 439.3 318.7 440.3 322.6 441.2 326.5 C 442.1 330.4 443.0 334.3 444.2 338.1 C 445.5 341.9 447.2 345.6 448.7 349.3 C 450.1 353.1 451.9 356.8 453.0 360.6 Z" fill="none" fill-rule="evenodd" stroke="#33608d" stroke-width="4.3"/>
    <path d="M 453.0 367.9 C 453.7 371.8 454.0 375.8 454.3 379.8 C 454.5 383.7 454.8 387.7 454.2 391.7 C 453.7 395.6 452.4 399.5 451.0 403.3 C 449.7 407.1 448.3 410.9 446.2 414.4 C 444.0 417.8 441.2 421.0 438.2 424.1 C 435.3 427.1 432.0 429.9 428.6 432.4 C 425.1 435.0 421.5 437.7 417.4 439.2 C 413.3 440.7 408.5 440.8 404.0 441.5 C 399.6 442.1 394.9 443.5 390.5 443.1 C 386.2 442.8 381.9 440.8 377.7 439.3 C 373.5 437.8 369.2 436.3 365.4 434.2 C 361.6 432.1 358.1 429.5 354.9 426.7 C 351.7 423.9 348.7 420.8 346.3 417.5 C 343.9 414.1 342.1 410.4 340.3 406.8 C 338.6 403.1 337.3 399.2 335.9 395.5 C 334.4 391.7 332.9 387.9 331.5 384.1 C 330.0 380.3 328.8 376.5 327.2 372.8 C 325.5 369.1 323.9 365.4 321.7 361.9 C 319.6 358.4 316.7 355.2 314.3 351.8 C 311.9 348.5 309.5 345.1 307.3 341.6 C 305.1 338.1 302.9 334.6 301.1 330.9 C 299.2 327.3 297.4 323.6 296.1 319.8 C 294.8 316.0 294.1 312.1 293.3 308.1 C 292.6 304.2 291.9 300.2 291.7 296.3 C 291.4 292.3 291.5 288.3 291.7 284.3 C 292.0 280.4 292.4 276.4 293.1 272.4 C 293.9 268.5 294.7 264.6 296.2 260.8 C 297.7 257.1 299.8 253.5 302.1 250.1 C 304.3 246.6 306.8 243.2 309.7 240.2 C 312.6 237.1 315.9 234.3 319.3 231.7 C 322.8 229.1 326.4 226.6 330.3 224.7 C 334.3 222.9 338.6 221.7 342.9 220.5 C 347.3 219.4 351.8 218.3 356.2 217.9 C 360.7 217.5 365.1 217.7 369.5 218.3 C 374.0 218.9 378.5 220.1 382.7 221.4 C 386.9 222.8 391.1 224.3 394.9 226.4 C 398.7 228.5 402.1 231.3 405.4 234.0 C 408.7 236.7 411.8 239.6 414.7 242.7 C 417.5 245.8 420.1 249.2 422.3 252.6 C 424.6 256.0 426.7 259.6 428.4 263.3 C 430.2 267.0 431.5 270.8 432.8 274.6 C 434.1 278.4 435.5 282.3 436.3 286.2 C 437.1 290.1 437.5 294.0 437.7 298.0 C 437.9 302.0 437.4 306.0 437.5 310.0 C 437.7 313.9 438.0 317.9 438.6 321.8 C 439.2 325.8 440.2 329.7 441.2 333.6 C 442.3 337.4 443.6 341.3 445.0 345.0 C 446.4 348.8 448.3 352.5 449.6 356.3 C 450.9 360.1 452.2 363.9 453.0 367.9 Z" fill="none" stroke="#33608d" stroke-width="2.5"/>
    <path d="M 434.9 354.4 C 436.4 358.1 438.2 361.8 439.3 365.6 C 440.4 369.4 441.0 373.4 441.6 377.3 C 442.2 381.2 443.2 385.2 442.9 389.0 C 442.6 392.9 440.9 396.7 439.6 400.5 C 438.3 404.3 437.1 408.2 435.1 411.7 C 433.0 415.1 430.3 418.5 427.2 421.2 C 424.0 424.0 420.4 426.7 416.3 428.2 C 412.3 429.7 407.5 429.6 403.0 430.2 C 398.6 430.8 393.9 432.5 389.7 431.9 C 385.4 431.3 381.5 428.5 377.6 426.6 C 373.7 424.6 369.5 422.9 366.1 420.3 C 362.8 417.8 359.7 414.7 357.4 411.4 C 355.1 408.1 354.0 404.1 352.4 400.4 C 350.8 396.7 349.2 393.0 347.8 389.3 C 346.4 385.5 345.4 381.6 344.0 377.9 C 342.6 374.2 341.4 370.3 339.3 366.8 C 337.2 363.4 334.2 360.4 331.6 357.2 C 329.0 353.9 326.3 350.8 323.8 347.5 C 321.3 344.2 318.9 340.8 316.7 337.4 C 314.5 334.0 312.4 330.5 310.4 326.9 C 308.4 323.4 306.2 319.9 304.9 316.1 C 303.6 312.4 303.2 308.4 302.5 304.5 C 301.8 300.6 300.5 296.7 300.4 292.8 C 300.3 288.8 301.2 284.9 301.7 281.0 C 302.3 277.1 302.5 273.0 303.7 269.2 C 305.0 265.5 306.9 261.8 309.1 258.4 C 311.2 255.0 313.9 251.7 316.6 248.6 C 319.4 245.5 322.4 242.4 325.8 239.9 C 329.1 237.3 332.9 234.9 336.9 233.3 C 340.9 231.8 345.6 231.4 350.0 230.5 C 354.4 229.7 358.9 228.1 363.2 228.4 C 367.6 228.6 371.9 230.7 376.1 231.9 C 380.4 233.1 385.0 233.9 388.9 235.8 C 392.7 237.8 396.0 240.7 399.1 243.4 C 402.3 246.2 405.2 249.3 407.8 252.5 C 410.5 255.7 413.1 258.9 415.2 262.4 C 417.4 265.9 419.0 269.6 420.6 273.3 C 422.1 276.9 423.6 280.7 424.6 284.6 C 425.6 288.4 426.4 292.3 426.7 296.2 C 426.9 300.1 426.3 304.1 426.3 308.0 C 426.3 312.0 426.2 315.9 426.5 319.9 C 426.8 323.8 427.3 327.8 427.9 331.7 C 428.5 335.6 429.2 339.5 430.3 343.3 C 431.5 347.1 433.4 350.7 434.9 354.4 Z" fill="none" stroke="#33608d" stroke-width="2.5"/>
    <path d="M 425.9 367.2 C 427.2 370.9 428.2 374.8 428.9 378.6 C 429.7 382.5 430.8 386.4 430.5 390.2 C 430.1 394.0 428.4 397.8 426.9 401.4 C 425.3 405.1 424.0 409.3 421.2 412.0 C 418.4 414.7 414.1 416.1 410.0 417.4 C 406.0 418.7 401.1 419.8 396.9 419.8 C 392.7 419.8 388.3 419.1 384.7 417.4 C 381.1 415.6 377.9 412.3 375.2 409.3 C 372.4 406.3 370.4 402.7 368.2 399.2 C 366.1 395.8 363.7 392.4 362.2 388.8 C 360.7 385.1 360.4 381.1 359.3 377.3 C 358.2 373.5 357.5 369.5 355.6 366.0 C 353.7 362.6 350.8 359.5 348.0 356.5 C 345.2 353.5 341.8 350.9 338.8 348.0 C 335.8 345.1 332.9 342.2 330.2 339.1 C 327.5 336.0 324.9 332.8 322.6 329.4 C 320.3 326.1 317.9 322.7 316.2 319.1 C 314.6 315.5 313.7 311.7 312.7 307.9 C 311.7 304.1 310.6 300.2 310.3 296.3 C 309.9 292.4 310.0 288.5 310.5 284.7 C 311.0 280.8 312.0 276.9 313.2 273.2 C 314.5 269.4 316.0 265.7 318.1 262.3 C 320.3 258.9 323.0 255.7 326.0 252.8 C 329.0 250.0 332.3 247.0 336.1 245.2 C 339.9 243.4 344.7 243.1 349.0 242.2 C 353.3 241.2 357.8 239.3 362.1 239.6 C 366.3 239.8 370.5 242.0 374.6 243.4 C 378.7 244.9 383.1 246.1 386.8 248.2 C 390.4 250.3 393.6 253.1 396.6 256.0 C 399.5 258.9 402.1 262.2 404.4 265.5 C 406.6 268.9 408.3 272.5 409.9 276.2 C 411.6 279.8 413.3 283.5 414.2 287.3 C 415.1 291.1 415.4 295.0 415.5 298.9 C 415.5 302.7 415.0 306.7 414.8 310.6 C 414.6 314.5 414.4 318.4 414.3 322.3 C 414.1 326.2 413.5 330.2 413.9 334.1 C 414.2 337.9 415.0 341.6 416.2 345.3 C 417.4 349.0 419.5 352.6 421.1 356.2 C 422.7 359.9 424.6 363.5 425.9 367.2 Z" fill="none" stroke="#33608d" stroke-width="2.5"/>
    <path d="M 416.9 386.8 C 417.1 389.4 411.6 392.7 408.0 394.7 C 404.5 396.8 399.1 399.1 395.5 399.1 C 391.8 399.0 387.9 397.1 385.9 394.5 C 383.9 391.8 383.4 387.0 383.2 383.1 C 383.1 379.3 384.9 375.2 385.0 371.3 C 385.1 367.5 385.6 363.1 383.7 360.0 C 381.8 357.0 377.3 354.7 373.6 352.9 C 369.8 351.1 364.8 351.3 361.2 349.3 C 357.5 347.2 355.1 343.3 351.7 340.7 C 348.3 338.1 344.1 336.4 340.6 333.9 C 337.2 331.3 333.8 328.7 331.1 325.6 C 328.3 322.5 325.7 319.1 324.1 315.5 C 322.4 311.9 322.0 307.7 321.1 303.9 C 320.1 300.0 318.5 296.1 318.6 292.2 C 318.6 288.3 320.1 284.3 321.2 280.5 C 322.2 276.6 322.9 272.5 324.9 269.0 C 326.9 265.5 329.7 261.9 333.0 259.6 C 336.4 257.2 340.9 256.1 345.1 254.8 C 349.3 253.5 354.0 251.8 358.2 251.7 C 362.5 251.5 366.8 252.7 370.9 254.1 C 375.0 255.4 379.2 257.4 382.9 259.6 C 386.6 261.8 390.3 264.3 393.0 267.3 C 395.6 270.4 397.3 274.3 399.1 277.9 C 400.9 281.6 402.9 285.3 403.8 289.1 C 404.6 292.9 404.3 296.9 404.1 300.8 C 403.9 304.8 403.4 308.8 402.8 312.7 C 402.1 316.6 401.4 320.6 400.2 324.4 C 399.0 328.2 396.8 331.8 395.6 335.6 C 394.4 339.3 393.3 343.1 393.0 347.0 C 392.6 350.9 392.7 355.1 393.6 358.9 C 394.4 362.7 395.9 366.4 398.0 369.8 C 400.2 373.2 403.3 376.3 406.4 379.1 C 409.6 382.0 416.6 384.2 416.9 386.8 Z" fill="none" stroke="#33608d" stroke-width="2.5"/>
    <path d="M 389.8 282.8 C 391.9 286.0 393.4 290.0 393.8 293.7 C 394.1 297.4 392.6 301.3 391.9 305.1 C 391.3 308.9 391.7 313.3 389.7 316.5 C 387.8 319.7 383.7 322.2 380.2 324.5 C 376.7 326.8 372.6 329.3 368.7 330.1 C 364.9 330.9 360.8 330.5 357.0 329.3 C 353.3 328.1 349.7 325.1 346.0 323.0 C 342.4 320.9 337.6 319.4 335.2 316.5 C 332.8 313.6 332.6 309.1 331.4 305.4 C 330.3 301.7 328.2 298.0 328.1 294.2 C 327.9 290.5 329.3 286.7 330.5 283.1 C 331.7 279.5 332.8 275.1 335.5 272.4 C 338.2 269.7 342.9 268.4 346.9 266.8 C 350.9 265.3 355.3 263.2 359.3 263.2 C 363.4 263.2 367.4 264.9 370.9 266.8 C 374.5 268.6 377.7 271.7 380.8 274.3 C 384.0 277.0 387.6 279.6 389.8 282.8 Z" fill="none" stroke="#33608d" stroke-width="2.5"/>
  </g>
  <circle cx="222.2" cy="427.1" r="32.4" fill="url(#x0g4)" stroke="#080808" stroke-width="5.7"/>
  <line x1="251.8" y1="431.5" x2="310.8" y2="459.2" stroke="#020202" stroke-width="10.0" stroke-linecap="round" stroke-dasharray="10.0,20.0"/>
  <line x1="244.5" y1="447.1" x2="303.5" y2="474.8" stroke="#020202" stroke-width="10.0" stroke-linecap="round"/>
  <g opacity="0.60">
    <path d="M 263.4 398.5 C 263.9 402.4 264.9 406.3 264.9 410.2 C 265.0 414.1 264.4 418.0 263.8 421.9 C 263.3 425.8 263.0 429.8 261.6 433.5 C 260.3 437.2 258.3 440.8 255.8 444.0 C 253.3 447.2 250.0 449.9 246.8 452.7 C 243.6 455.4 240.4 458.2 236.8 460.5 C 233.2 462.7 229.3 464.8 225.1 466.0 C 221.0 467.3 216.3 467.4 211.9 467.9 C 207.5 468.4 203.0 469.6 198.8 469.0 C 194.5 468.4 190.5 466.0 186.6 464.1 C 182.7 462.3 178.6 460.5 175.2 458.0 C 171.8 455.6 168.8 452.5 166.2 449.4 C 163.6 446.2 161.4 442.8 159.4 439.3 C 157.5 435.8 156.1 432.0 154.5 428.3 C 153.0 424.7 151.1 421.0 150.2 417.2 C 149.3 413.5 149.1 409.6 149.3 405.7 C 149.4 401.8 150.0 397.8 151.0 394.0 C 151.9 390.2 153.2 386.5 154.7 382.8 C 156.2 379.2 158.5 375.7 160.1 372.1 C 161.7 368.5 163.5 364.9 164.5 361.1 C 165.4 357.3 165.4 353.3 165.8 349.4 C 166.1 345.5 166.5 341.6 166.7 337.7 C 166.9 333.8 166.6 329.8 166.7 325.9 C 166.8 322.0 166.5 318.0 167.2 314.2 C 167.9 310.4 169.4 306.6 170.8 302.9 C 172.2 299.2 173.5 295.3 175.7 292.0 C 177.8 288.6 180.7 285.5 183.7 282.6 C 186.7 279.7 190.0 276.9 193.6 274.7 C 197.2 272.5 201.1 270.7 205.2 269.3 C 209.3 268.0 213.9 267.2 218.2 266.6 C 222.6 266.0 227.0 265.3 231.3 265.7 C 235.6 266.2 239.9 267.8 244.0 269.3 C 248.1 270.7 252.5 272.2 255.9 274.5 C 259.4 276.8 262.4 280.0 264.7 283.3 C 267.0 286.6 268.5 290.4 269.7 294.2 C 270.9 297.9 271.6 301.8 272.2 305.7 C 272.8 309.6 273.4 313.5 273.3 317.4 C 273.3 321.3 272.3 325.2 271.7 329.1 C 271.1 333.0 270.6 336.9 269.8 340.7 C 268.9 344.5 267.8 348.3 266.7 352.1 C 265.5 355.9 263.6 359.6 262.9 363.4 C 262.1 367.2 262.4 371.2 262.3 375.1 C 262.1 379.0 261.7 383.0 261.9 386.9 C 262.1 390.8 262.9 394.7 263.4 398.5 Z" fill="none" fill-rule="evenodd" stroke="#610010" stroke-width="4.3"/>
    <path d="M 263.4 410.9 C 263.4 414.8 262.6 418.7 262.0 422.6 C 261.4 426.5 261.2 430.6 259.7 434.3 C 258.2 437.9 255.8 441.4 253.2 444.5 C 250.6 447.7 247.3 450.5 244.0 453.1 C 240.8 455.8 237.4 458.6 233.6 460.6 C 229.9 462.6 225.7 464.0 221.4 465.1 C 217.2 466.1 212.5 466.8 208.2 467.0 C 203.8 467.2 199.4 467.3 195.2 466.3 C 191.1 465.2 187.1 462.9 183.3 460.8 C 179.5 458.7 175.6 456.6 172.5 453.8 C 169.3 451.1 166.6 447.8 164.3 444.5 C 161.9 441.1 160.1 437.5 158.4 433.8 C 156.7 430.2 155.3 426.5 153.9 422.7 C 152.6 419.0 150.6 415.2 150.3 411.3 C 150.0 407.5 151.3 403.5 152.0 399.6 C 152.6 395.7 152.9 391.7 154.2 388.0 C 155.5 384.2 157.8 380.7 159.6 377.1 C 161.4 373.5 163.8 370.0 165.0 366.3 C 166.3 362.6 166.6 358.7 167.2 354.8 C 167.7 350.9 168.0 346.9 168.3 343.0 C 168.5 339.1 168.5 335.1 168.5 331.2 C 168.6 327.2 168.1 323.3 168.4 319.4 C 168.8 315.5 169.6 311.6 170.8 307.8 C 171.9 304.0 173.5 300.2 175.4 296.7 C 177.3 293.1 179.3 289.6 182.0 286.5 C 184.7 283.4 188.0 280.5 191.4 278.1 C 194.8 275.6 198.5 273.1 202.5 271.6 C 206.5 270.1 211.2 269.7 215.6 268.9 C 220.0 268.1 224.4 266.6 228.7 266.8 C 233.0 267.1 237.4 268.9 241.6 270.3 C 245.8 271.6 250.3 272.8 253.9 275.0 C 257.5 277.2 260.7 280.4 263.1 283.6 C 265.5 286.8 267.0 290.7 268.3 294.4 C 269.6 298.2 270.2 302.1 270.9 306.0 C 271.5 309.9 272.1 313.8 272.0 317.8 C 271.9 321.7 270.9 325.6 270.3 329.5 C 269.7 333.4 269.1 337.3 268.2 341.2 C 267.3 345.0 266.2 348.8 264.9 352.6 C 263.7 356.4 261.5 360.0 260.7 363.8 C 259.9 367.7 260.4 371.7 260.3 375.6 C 260.2 379.6 259.8 383.5 260.0 387.4 C 260.2 391.4 261.1 395.3 261.7 399.2 C 262.2 403.1 263.3 407.0 263.4 410.9 Z" fill="none" stroke="#610010" stroke-width="2.5"/>
    <path d="M 254.4 399.7 C 255.1 403.6 256.4 407.5 256.5 411.3 C 256.6 415.2 255.6 419.2 254.9 423.0 C 254.2 426.9 253.9 431.0 252.4 434.6 C 250.8 438.2 248.2 441.6 245.4 444.6 C 242.6 447.6 239.2 450.5 235.7 452.8 C 232.1 455.1 228.3 457.1 224.1 458.4 C 220.0 459.7 215.3 460.0 210.9 460.5 C 206.5 460.9 202.0 462.0 197.9 461.1 C 193.8 460.1 190.1 457.2 186.4 455.0 C 182.7 452.8 178.9 450.5 175.8 447.7 C 172.8 445.0 170.1 441.7 167.9 438.3 C 165.8 435.0 164.4 431.1 162.9 427.4 C 161.4 423.7 159.6 420.0 158.9 416.2 C 158.2 412.4 158.5 408.5 158.9 404.6 C 159.3 400.7 160.2 396.8 161.4 393.0 C 162.5 389.2 164.1 385.6 165.7 381.9 C 167.4 378.3 169.6 374.8 171.3 371.2 C 172.9 367.6 174.8 364.0 175.6 360.3 C 176.4 356.5 175.9 352.4 176.0 348.5 C 176.1 344.5 176.2 340.6 176.2 336.7 C 176.1 332.7 175.8 328.8 175.8 324.9 C 175.9 321.0 175.7 317.0 176.5 313.2 C 177.4 309.4 179.2 305.7 180.8 302.0 C 182.5 298.4 184.2 294.7 186.6 291.4 C 189.1 288.2 192.1 285.0 195.5 282.7 C 199.0 280.3 203.1 278.8 207.2 277.4 C 211.3 276.1 215.9 275.0 220.2 274.5 C 224.6 274.0 229.0 273.8 233.2 274.5 C 237.5 275.3 241.7 277.3 245.6 279.1 C 249.4 281.0 253.6 283.0 256.4 285.8 C 259.2 288.7 261.0 292.6 262.5 296.2 C 264.1 299.9 265.0 303.8 265.7 307.7 C 266.4 311.6 266.6 315.5 266.4 319.4 C 266.2 323.3 265.2 327.2 264.4 331.1 C 263.6 334.9 262.8 338.8 261.6 342.6 C 260.4 346.4 258.9 350.1 257.3 353.7 C 255.7 357.4 252.9 360.8 252.0 364.5 C 251.1 368.3 251.9 372.4 251.9 376.3 C 251.8 380.3 251.4 384.2 251.8 388.1 C 252.2 392.0 253.6 395.8 254.4 399.7 Z" fill="none" stroke="#610010" stroke-width="2.5"/>
    <path d="M 245.3 396.8 C 246.3 400.6 248.0 404.4 248.5 408.3 C 249.0 412.1 248.8 416.1 248.3 419.9 C 247.9 423.8 247.2 427.9 245.8 431.6 C 244.4 435.2 242.6 439.0 240.0 442.0 C 237.4 445.1 233.9 448.0 230.1 449.9 C 226.3 451.8 221.8 452.3 217.5 453.2 C 213.2 454.1 208.4 455.6 204.2 455.3 C 200.0 455.0 196.1 453.4 192.3 451.5 C 188.5 449.7 184.9 447.0 181.7 444.3 C 178.5 441.5 175.3 438.5 173.2 435.1 C 171.1 431.7 170.2 427.7 168.9 423.9 C 167.6 420.2 165.6 416.4 165.4 412.6 C 165.2 408.7 166.7 404.9 167.7 401.0 C 168.6 397.2 169.5 393.2 171.1 389.6 C 172.7 386.0 175.1 382.6 177.3 379.2 C 179.4 375.7 182.4 372.5 183.9 368.9 C 185.4 365.3 185.9 361.6 186.0 357.8 C 186.2 354.0 185.1 349.9 184.8 346.0 C 184.4 342.1 184.1 338.2 183.9 334.2 C 183.6 330.3 183.0 326.3 183.1 322.4 C 183.2 318.6 183.4 314.6 184.5 310.9 C 185.6 307.1 187.7 303.5 189.7 300.0 C 191.7 296.5 193.6 292.6 196.7 290.0 C 199.7 287.3 203.8 285.6 207.9 284.1 C 211.9 282.6 216.5 281.4 220.8 280.9 C 225.1 280.5 229.6 280.3 233.7 281.4 C 237.8 282.4 241.9 284.7 245.4 287.0 C 249.0 289.3 252.5 291.9 254.8 295.2 C 257.1 298.4 258.1 302.6 259.1 306.4 C 260.2 310.2 261.1 314.1 261.0 317.9 C 260.9 321.8 259.4 325.7 258.5 329.5 C 257.5 333.4 256.9 337.4 255.5 341.0 C 254.0 344.7 251.7 348.2 249.7 351.7 C 247.6 355.2 244.3 358.3 243.0 362.0 C 241.8 365.6 242.2 369.6 242.1 373.4 C 242.1 377.3 242.1 381.4 242.6 385.3 C 243.1 389.1 244.4 392.9 245.3 396.8 Z" fill="none" stroke="#610010" stroke-width="2.5"/>
    <path d="M 236.3 395.0 C 237.5 398.7 239.4 402.4 240.2 406.2 C 241.0 410.0 241.5 413.9 241.3 417.8 C 241.1 421.7 240.3 425.7 239.0 429.4 C 237.7 433.1 236.4 437.1 233.8 439.9 C 231.1 442.7 227.1 444.8 223.1 446.2 C 219.1 447.5 214.2 447.9 209.9 448.1 C 205.6 448.4 201.1 449.1 197.3 447.8 C 193.5 446.4 190.0 443.0 187.2 440.1 C 184.4 437.2 182.3 433.6 180.3 430.2 C 178.3 426.7 176.2 423.0 175.2 419.3 C 174.1 415.6 173.5 411.7 174.2 408.0 C 174.9 404.3 177.4 400.6 179.2 397.1 C 181.0 393.5 183.1 390.0 185.2 386.5 C 187.3 383.1 189.7 379.7 191.7 376.2 C 193.7 372.7 196.8 369.2 197.4 365.6 C 198.0 361.9 196.1 358.1 195.4 354.3 C 194.6 350.5 193.5 346.6 192.8 342.7 C 192.1 338.8 191.7 334.9 191.3 331.0 C 190.8 327.1 189.8 323.1 190.1 319.3 C 190.4 315.5 191.5 311.6 193.0 308.0 C 194.5 304.3 196.3 300.3 199.2 297.5 C 202.0 294.8 206.3 293.1 210.2 291.4 C 214.1 289.7 218.7 287.7 222.8 287.4 C 227.0 287.0 231.5 287.7 235.1 289.3 C 238.8 291.0 242.0 294.3 244.8 297.3 C 247.6 300.2 250.4 303.6 252.0 307.2 C 253.7 310.7 254.9 314.7 254.7 318.4 C 254.6 322.2 252.3 326.0 251.0 329.7 C 249.7 333.5 248.6 337.3 246.8 340.9 C 245.0 344.5 242.6 347.8 240.3 351.2 C 238.0 354.6 234.4 357.6 232.9 361.0 C 231.4 364.5 231.5 368.2 231.4 372.0 C 231.4 375.8 232.0 379.9 232.8 383.7 C 233.6 387.5 235.1 391.2 236.3 395.0 Z" fill="none" stroke="#610010" stroke-width="2.5"/>
    <path d="M 227.3 396.5 C 230.1 399.2 231.2 403.6 232.3 407.2 C 233.3 410.9 233.8 414.7 233.5 418.5 C 233.3 422.2 232.5 426.5 230.9 429.8 C 229.3 433.1 227.4 436.5 224.2 438.3 C 220.9 440.2 215.5 440.4 211.3 441.0 C 207.1 441.6 202.4 443.5 199.0 442.1 C 195.6 440.8 193.1 436.4 191.0 433.1 C 189.0 429.8 187.8 425.9 186.6 422.2 C 185.4 418.5 183.4 414.6 183.8 411.0 C 184.3 407.4 187.4 404.0 189.5 400.6 C 191.5 397.2 193.6 393.0 196.0 390.5 C 198.4 388.1 200.7 385.6 204.0 385.7 C 207.2 385.8 211.7 389.3 215.6 391.1 C 219.5 392.9 224.5 393.8 227.3 396.5 Z" fill="none" stroke="#610010" stroke-width="2.5"/>
    <path d="M 245.3 314.1 C 246.1 317.8 244.2 321.8 243.1 325.7 C 242.1 329.5 240.9 333.6 239.1 337.3 C 237.3 340.9 235.1 345.2 232.3 347.7 C 229.4 350.1 225.9 352.1 222.1 351.9 C 218.3 351.8 213.3 349.1 209.6 346.9 C 205.9 344.7 202.0 341.9 200.1 338.5 C 198.2 335.1 198.7 330.5 198.3 326.5 C 197.9 322.5 196.5 318.1 197.7 314.6 C 198.9 311.0 202.2 307.9 205.4 305.3 C 208.7 302.7 213.2 300.6 217.1 299.0 C 221.1 297.3 225.3 294.5 229.0 295.2 C 232.6 296.0 236.1 300.5 238.8 303.6 C 241.5 306.8 244.6 310.5 245.3 314.1 Z" fill="none" stroke="#610010" stroke-width="2.5"/>
  </g>
  <circle cx="331.6" cy="478.4" r="30.5" fill="url(#x0g10)" stroke="#020202" stroke-width="5.7"/>
  <circle cx="601.3" cy="510.3" r="32.4" fill="url(#x0g3)" stroke="#000000" stroke-width="5.7"/>
</svg>