<svg xmlns="http://www.w3.org/2000/svg" xmlns:xlink="http://www.w3.org/1999/xlink" viewBox="0 0 800 659" width="800" height="659">
  <rect width="100%" height="100%" fill="#ffffff"/>
  <defs>
    <radialGradient id="x0g0" cx=".5" cy=".5" fx=".33" fy=".33" r=".66"><stop offset="0%" stop-color="#bebebe"/><stop offset="40%" stop-color="#b3b3b3"/><stop offset="100%" stop-color="#7b6268"/></radialGradient>
    <radialGradient id="x0g1" cx=".5" cy=".5" fx=".33" fy=".33" r=".66"><stop offset="0%" stop-color="#c1c1c1"/><stop offset="40%" stop-color="#b7b7b7"/><stop offset="100%" stop-color="#826a6f"/></radialGradient>
    <radialGradient id="x0g2" cx=".5" cy=".5" fx=".33" fy=".33" r=".66"><stop offset="0%" stop-color="#b9b9b9"/><stop offset="40%" stop-color="#adadad"/><stop offset="100%" stop-color="#71565c"/></radialGradient>
    <radialGradient id="x0g3" cx=".5" cy=".5" fx=".33" fy=".33" r=".66"><stop offset="0%" stop-color="#b6b6b6"/><stop offset="40%" stop-color="#aaaaaa"/><stop offset="100%" stop-color="#6b4f55"/></radialGradient>
    <radialGradient id="x0g4" cx=".5" cy=".5" fx=".33" fy=".33" r=".66"><stop offset="0%" stop-color="#b7b7b7"/><stop offset="40%" stop-color="#ababab"/><stop offset="100%" stop-color="#6e5258"/></radialGradient>
    <radialGradient id="x0g5" cx=".5" cy=".5" fx=".33" fy=".33" r=".66"><stop offset="0%" stop-color="#bcbcbc"/><stop offset="40%" stop-color="#b1b1b1"/><stop offset="100%" stop-color="#785f64"/></radialGradient>
    <radialGradient id="x0g6" cx=".5" cy=".5" fx=".33" fy=".33" r=".66"><stop offset="0%" stop-color="#c6c6c6"/><stop offset="40%" stop-color="#bdbdbd"/><stop offset="100%" stop-color="#8c767b"/></radialGradient>
    <radialGradient id="x0g7" cx=".5" cy=".5" fx=".33" fy=".33" r=".66"><stop offset="0%" stop-color="#cfcfcf"/><stop offset="40%" stop-color="#c7c7c7"/><stop offset="100%" stop-color="#9d8b8f"/></radialGradient>
    <radialGradient id="x0g8" cx=".5" cy=".5" fx=".33" fy=".33" r=".66"><stop offset="0%" stop-color="#629fec"/><stop offset="40%" stop-color="#3957f8"/><stop offset="100%" stop-color="#0e23a2"/></radialGradient>
    <radialGradient id="x0g9" cx=".5" cy=".5" fx=".33" fy=".33" r=".66"><stop offset="0%" stop-color="#69a4ed"/><stop offset="40%" stop-color="#425ff8"/><stop offset="100%" stop-color="#1a2ea6"/></radialGradient>
    <radialGradient id="x0g10" cx=".5" cy=".5" fx=".33" fy=".33" r=".66"><stop offset="0%" stop-color="#5c9bec"/><stop offset="40%" stop-color="#3151f8"/><stop offset="100%" stop-color="#051b9e"/></radialGradient>
    <radialGradient id="x0g11" cx=".5" cy=".5" fx=".33" fy=".33" r=".66"><stop offset="0%" stop-color="#7fb1f0"/><stop offset="40%" stop-color="#5e77f9"/><stop offset="100%" stop-color="#3c4db3"/></radialGradient>
    <radialGradient id="x0g12" cx=".5" cy=".5" fx=".33" fy=".33" r=".66"><stop offset="0%" stop-color="#f05d4c"/><stop offset="40%" stop-color="#ff1c1c"/><stop offset="100%" stop-color="#9a102b"/></radialGradient>
    <radialGradient id="x0g13" cx=".5" cy=".5" fx=".33" fy=".33" r=".66"><stop offset="0%" stop-color="#f48e83"/><stop offset="40%" stop-color="#ff6262"/><stop offset="100%" stop-color="#b8596c"/></radialGradient>
  </defs>
  <g opacity="0.80">
    <path d="M 444.5 121.5 C 445.8 125.3 446.4 129.3 446.7 133.3 C 447.1 137.3 446.8 141.4 446.4 145.4 C 446.1 149.3 445.9 153.4 444.7 157.2 C 443.5 161.0 441.3 164.7 439.1 168.2 C 436.8 171.7 434.2 175.1 431.2 178.0 C 428.1 181.0 424.6 183.6 420.8 185.9 C 417.1 188.2 413.0 190.2 408.8 191.7 C 404.6 193.2 400.2 194.4 395.7 195.0 C 391.2 195.6 386.5 195.5 382.0 195.6 C 377.4 195.6 372.8 196.1 368.4 195.4 C 363.9 194.6 359.7 192.8 355.5 191.1 C 351.4 189.4 347.2 187.6 343.5 185.2 C 339.9 182.8 336.7 179.8 333.8 176.7 C 331.0 173.6 328.6 170.1 326.5 166.6 C 324.3 163.0 322.4 159.3 321.0 155.5 C 319.7 151.7 319.3 147.6 318.6 143.7 C 317.8 139.7 316.6 135.7 316.7 131.7 C 316.8 127.8 317.9 123.8 319.2 120.1 C 320.5 116.3 322.4 112.5 324.6 109.0 C 326.8 105.5 329.4 102.0 332.4 99.1 C 335.4 96.2 339.0 93.5 342.8 91.3 C 346.6 89.2 351.0 87.6 355.2 86.1 C 359.4 84.6 363.8 83.0 368.3 82.4 C 372.7 81.8 377.3 82.4 381.9 82.6 C 386.4 82.8 391.1 82.9 395.6 83.6 C 400.1 84.3 404.6 85.3 408.7 86.8 C 412.9 88.3 416.9 90.5 420.6 92.8 C 424.3 95.2 427.7 97.9 430.8 100.9 C 433.8 103.8 436.5 107.1 438.8 110.6 C 441.1 114.0 443.1 117.8 444.5 121.5 Z" fill="#ab5757" fill-rule="evenodd" stroke="#000000" stroke-width="3.66"/>
  </g>
  <circle cx="398.0" cy="112.7" r="29.8" fill="url(#x0g13)" stroke="#808080" stroke-width="5.9"/>
  <line x1="416.4" y1="131.0" x2="438.3" y2="177.4" stroke="#3a3a3a" stroke-width="10.2" stroke-linecap="round"/>
  <line x1="400.5" y1="138.5" x2="422.5" y2="184.9" stroke="#3a3a3a" stroke-width="10.2" stroke-linecap="round"/>
  <g opacity="0.80">
    <path d="M 444.5 79.4 C 446.0 83.3 446.8 87.4 447.8 91.4 C 448.8 95.4 450.1 99.5 450.3 103.5 C 450.6 107.6 449.7 111.7 449.3 115.8 C 448.9 119.9 449.1 124.2 447.9 128.1 C 446.8 132.0 444.6 135.8 442.2 139.3 C 439.9 142.8 436.8 145.9 433.6 149.0 C 430.5 152.0 426.9 154.7 423.4 157.4 C 419.8 160.0 416.3 162.8 412.3 164.9 C 408.4 167.1 404.3 169.5 399.8 170.4 C 395.4 171.4 390.6 170.7 385.9 170.6 C 381.3 170.6 376.3 171.2 371.9 170.3 C 367.4 169.4 363.1 167.4 359.3 165.2 C 355.4 163.0 351.9 160.1 348.5 157.3 C 345.1 154.6 341.8 151.6 338.7 148.5 C 335.6 145.4 332.4 142.4 329.9 138.9 C 327.5 135.5 325.3 131.7 324.2 127.8 C 323.0 123.9 323.3 119.6 322.9 115.5 C 322.6 111.4 321.8 107.3 322.1 103.2 C 322.3 99.1 323.5 95.1 324.4 91.1 C 325.3 87.0 326.0 82.9 327.4 79.0 C 328.9 75.1 330.6 71.3 332.9 67.7 C 335.2 64.1 337.8 60.6 341.0 57.6 C 344.2 54.7 348.1 52.3 352.1 50.3 C 356.0 48.2 360.5 46.4 364.9 45.3 C 369.3 44.2 374.0 43.9 378.6 43.6 C 383.2 43.3 388.1 43.1 392.7 43.5 C 397.3 43.9 401.9 44.6 406.2 45.9 C 410.6 47.2 414.9 49.1 418.9 51.2 C 422.8 53.3 426.7 55.8 429.9 58.6 C 433.2 61.5 436.1 64.9 438.5 68.3 C 440.9 71.8 442.9 75.6 444.5 79.4 Z" fill="#2d9696" fill-rule="evenodd" stroke="#000000" stroke-width="3.66"/>
  </g>
  <circle cx="655.9" cy="122.9" r="33.2" fill="url(#x0g7)" stroke="#7c7c7c" stroke-width="5.9"/>
  <line x1="638.2" y1="144.8" x2="591.1" y2="203.0" stroke="#393939" stroke-width="14.6" stroke-linecap="round"/>
  <g opacity="0.80">
    <path d="M 490.6 219.2 C 492.4 222.9 493.3 226.9 494.1 230.9 C 494.9 234.8 495.3 238.9 495.2 243.0 C 495.2 247.0 494.8 251.0 493.9 254.9 C 493.1 258.9 491.5 262.8 490.0 266.6 C 488.4 270.4 486.7 274.1 484.7 277.7 C 482.7 281.4 480.2 284.8 477.9 288.3 C 475.5 291.8 473.0 295.2 470.7 298.7 C 468.4 302.2 466.5 305.9 464.0 309.3 C 461.6 312.7 458.9 316.0 456.0 319.2 C 453.2 322.4 450.1 325.3 446.9 328.3 C 443.7 331.2 440.4 334.0 436.9 336.7 C 433.5 339.4 430.0 342.0 426.3 344.4 C 422.6 346.8 418.7 349.0 414.8 351.1 C 410.8 353.3 406.9 355.5 402.8 357.2 C 398.7 359.0 394.3 360.3 389.9 361.6 C 385.6 362.9 381.1 364.6 376.7 365.2 C 372.3 365.8 367.8 365.8 363.4 365.1 C 359.0 364.5 354.6 362.7 350.4 361.1 C 346.2 359.5 341.8 357.9 338.3 355.4 C 334.8 352.9 332.0 349.5 329.6 346.1 C 327.2 342.7 325.5 338.8 323.9 335.0 C 322.2 331.3 320.0 327.4 319.8 323.5 C 319.6 319.6 321.6 315.6 322.5 311.6 C 323.5 307.6 324.1 303.6 325.4 299.7 C 326.7 295.8 328.4 292.1 330.1 288.3 C 331.7 284.5 333.5 280.8 335.3 277.1 C 337.2 273.4 339.5 269.8 341.4 266.2 C 343.3 262.5 345.1 258.8 346.7 255.0 C 348.3 251.2 349.6 247.3 351.0 243.4 C 352.4 239.6 353.7 235.7 355.3 231.9 C 356.9 228.1 358.4 224.2 360.7 220.8 C 363.0 217.3 366.0 214.2 368.9 211.0 C 371.8 207.9 374.8 204.8 378.0 201.9 C 381.2 199.0 384.5 196.1 388.1 193.6 C 391.7 191.2 395.6 188.8 399.8 187.2 C 403.9 185.6 408.6 185.0 413.1 184.0 C 417.6 183.1 422.1 181.8 426.6 181.6 C 431.2 181.3 435.8 182.2 440.4 182.7 C 444.9 183.1 449.8 183.1 454.0 184.4 C 458.3 185.7 462.4 187.9 466.1 190.3 C 469.7 192.7 472.8 195.8 475.8 198.8 C 478.7 201.9 481.3 205.3 483.8 208.7 C 486.3 212.1 488.9 215.5 490.6 219.2 Z" fill="#359a9a" fill-rule="evenodd" stroke="#000000" stroke-width="3.66"/>
  </g>
  <circle cx="442.0" cy="205.6" r="33.2" fill="url(#x0g6)" stroke="#525252" stroke-width="5.9"/>
  <line x1="471.6" y1="209.7" x2="546.5" y2="219.8" stroke="#2e2e2e" stroke-width="14.6" stroke-linecap="round"/>
  <line x1="426.7" y1="228.0" x2="388.2" y2="284.0" stroke="#212121" stroke-width="14.6" stroke-linecap="round"/>
  <g opacity="0.80">
    <path d="M 610.7 241.0 C 612.7 244.7 615.0 248.4 615.5 252.4 C 616.1 256.3 614.7 260.6 614.0 264.7 C 613.2 268.7 613.0 273.0 611.0 276.6 C 609.1 280.2 605.6 283.3 602.4 286.3 C 599.2 289.3 595.9 292.5 591.9 294.6 C 588.0 296.6 583.1 297.3 578.6 298.5 C 574.1 299.8 569.5 301.9 565.0 301.9 C 560.5 301.9 556.0 299.9 551.6 298.5 C 547.2 297.1 542.4 295.8 538.7 293.5 C 534.9 291.2 531.7 288.0 529.0 284.7 C 526.4 281.4 524.1 277.6 522.7 273.7 C 521.4 269.8 521.3 265.5 520.8 261.4 C 520.3 257.4 519.1 253.2 519.6 249.2 C 520.1 245.2 522.2 241.2 523.9 237.4 C 525.6 233.6 527.1 229.4 529.9 226.2 C 532.7 223.1 536.8 220.6 540.8 218.7 C 544.8 216.7 549.6 215.4 554.1 214.4 C 558.5 213.5 563.2 212.6 567.7 212.9 C 572.3 213.2 576.9 214.9 581.3 216.3 C 585.7 217.7 590.3 218.9 594.0 221.3 C 597.7 223.6 600.6 227.2 603.4 230.4 C 606.2 233.7 608.7 237.3 610.7 241.0 Z" fill="#9c3838" fill-rule="evenodd" stroke="#000000" stroke-width="3.66"/>
  </g>
  <circle cx="574.4" cy="223.6" r="31.2" fill="url(#x0g11)" stroke="#515151" stroke-width="5.9"/>
  <line x1="586.4" y1="244.5" x2="618.8" y2="300.9" stroke="#1e1e1e" stroke-width="14.6" stroke-linecap="round"/>
  <g opacity="0.80">
    <path d="M 601.5 216.4 C 602.4 220.4 603.6 224.5 603.1 228.5 C 602.6 232.5 600.3 236.5 598.4 240.2 C 596.4 243.9 594.8 248.2 591.5 250.9 C 588.3 253.7 583.3 255.1 579.1 256.8 C 574.8 258.5 570.2 261.0 565.8 261.1 C 561.4 261.2 556.9 259.0 552.6 257.4 C 548.3 255.8 543.7 254.0 540.2 251.4 C 536.7 248.8 534.0 245.3 531.6 241.8 C 529.3 238.3 526.8 234.3 526.0 230.4 C 525.1 226.5 525.8 222.4 526.6 218.4 C 527.5 214.5 529.1 210.3 531.2 206.7 C 533.2 203.0 535.7 199.5 539.1 196.7 C 542.4 194.0 546.9 192.2 551.0 190.1 C 555.1 188.1 559.4 184.6 563.6 184.4 C 567.9 184.2 572.3 187.2 576.5 189.0 C 580.6 190.8 585.3 192.6 588.8 195.1 C 592.3 197.7 595.4 200.9 597.5 204.4 C 599.6 208.0 600.5 212.4 601.5 216.4 Z" fill="#1a8d8d" fill-rule="evenodd" stroke="#000000" stroke-width="3.66"/>
  </g>
  <circle cx="146.1" cy="240.5" r="33.2" fill="url(#x0g1)" stroke="#393939" stroke-width="5.9"/>
  <line x1="167.8" y1="259.1" x2="223.9" y2="307.5" stroke="#181818" stroke-width="14.6" stroke-linecap="round"/>
  <circle cx="372.8" cy="306.3" r="33.2" fill="url(#x0g0)" stroke="#292929" stroke-width="5.9"/>
  <line x1="344.7" y1="319.3" x2="273.2" y2="329.7" stroke="#141414" stroke-width="10.2" stroke-linecap="round" stroke-dasharray="10.2,20.5"/>
  <line x1="342.2" y1="301.9" x2="270.6" y2="312.3" stroke="#141414" stroke-width="10.2" stroke-linecap="round"/>
  <line x1="393.5" y1="326.0" x2="424.0" y2="381.9" stroke="#0e0e0e" stroke-width="10.2" stroke-linecap="round"/>
  <line x1="378.1" y1="334.4" x2="408.6" y2="390.3" stroke="#0e0e0e" stroke-width="10.2" stroke-linecap="round" stroke-dasharray="10.2,20.5"/>
  <g opacity="0.80">
    <path d="M 490.6 180.1 C 492.4 183.7 493.6 187.7 494.7 191.5 C 495.8 195.4 496.7 199.4 497.0 203.3 C 497.3 207.3 496.7 211.4 496.4 215.4 C 496.1 219.4 496.1 223.4 495.1 227.3 C 494.2 231.2 492.3 234.9 490.6 238.6 C 488.8 242.3 487.1 246.1 484.8 249.5 C 482.5 253.0 479.6 256.1 476.7 259.2 C 473.8 262.3 470.7 265.2 467.4 268.0 C 464.2 270.8 460.6 273.4 457.2 276.0 C 453.8 278.7 450.4 281.4 447.0 284.1 C 443.6 286.8 440.3 289.5 437.0 292.3 C 433.7 295.1 430.4 297.8 427.2 300.6 C 423.9 303.4 420.7 306.3 417.4 309.1 C 414.1 311.9 410.9 314.7 407.4 317.3 C 404.0 320.0 400.8 322.9 396.9 325.0 C 393.1 327.0 388.6 328.3 384.3 329.7 C 380.1 331.1 375.7 333.2 371.3 333.5 C 367.0 333.7 362.3 332.4 358.1 331.1 C 353.8 329.8 349.4 328.1 345.8 325.8 C 342.2 323.5 339.0 320.5 336.4 317.3 C 333.7 314.2 331.4 310.5 329.9 306.8 C 328.5 303.1 328.0 299.0 327.6 295.0 C 327.1 291.1 327.4 287.0 327.4 283.0 C 327.5 279.0 327.7 275.0 328.2 271.0 C 328.6 267.0 329.4 263.1 330.0 259.1 C 330.6 255.1 331.3 251.2 332.0 247.2 C 332.6 243.2 333.2 239.2 334.0 235.3 C 334.7 231.3 335.4 227.4 336.4 223.5 C 337.5 219.6 338.9 215.8 340.3 211.9 C 341.6 208.1 342.7 204.2 344.5 200.5 C 346.3 196.8 348.6 193.3 350.9 189.9 C 353.3 186.5 355.8 183.1 358.5 179.9 C 361.2 176.7 364.1 173.5 367.2 170.6 C 370.2 167.6 373.5 164.8 377.0 162.2 C 380.4 159.6 384.1 157.2 387.8 154.9 C 391.6 152.6 395.4 150.3 399.5 148.6 C 403.6 147.0 408.2 146.3 412.6 145.2 C 417.0 144.1 421.4 142.2 425.8 142.1 C 430.3 141.9 434.8 143.4 439.3 144.3 C 443.8 145.1 448.4 145.5 452.6 147.0 C 456.8 148.4 460.7 150.7 464.4 152.9 C 468.2 155.2 471.7 157.8 475.0 160.6 C 478.3 163.4 481.5 166.3 484.1 169.5 C 486.7 172.8 488.9 176.4 490.6 180.1 Z" fill="#870f0f" fill-rule="evenodd" stroke="#000000" stroke-width="3.66"/>
  </g>
  <circle cx="631.6" cy="323.1" r="33.2" fill="url(#x0g5)" stroke="#212121" stroke-width="5.9"/>
  <line x1="660.9" y1="314.0" x2="716.8" y2="313.3" stroke="#0f0f0f" stroke-width="10.2" stroke-linecap="round"/>
  <line x1="661.1" y1="331.5" x2="717.0" y2="330.9" stroke="#0f0f0f" stroke-width="10.2" stroke-linecap="round"/>
  <line x1="615.4" y1="346.6" x2="574.2" y2="406.4" stroke="#0d0d0d" stroke-width="14.6" stroke-linecap="round"/>
  <g opacity="0.80">
    <path d="M 296.7 334.4 C 298.2 338.3 300.3 342.2 300.7 346.2 C 301.1 350.2 299.8 354.3 299.1 358.3 C 298.4 362.4 298.0 366.7 296.5 370.5 C 294.9 374.3 292.4 377.8 289.8 381.2 C 287.1 384.5 284.0 387.6 280.8 390.6 C 277.5 393.6 274.1 396.5 270.4 398.9 C 266.7 401.3 262.7 403.7 258.5 405.3 C 254.2 406.8 249.4 407.4 244.9 408.3 C 240.3 409.2 235.8 410.6 231.2 410.6 C 226.6 410.6 222.0 409.1 217.4 408.3 C 212.8 407.4 208.0 407.0 203.8 405.4 C 199.6 403.7 195.9 401.0 192.2 398.4 C 188.6 395.8 185.3 392.9 182.1 389.9 C 178.9 386.9 175.8 383.8 173.2 380.4 C 170.6 377.0 168.3 373.4 166.6 369.6 C 164.9 365.8 164.0 361.7 163.1 357.7 C 162.1 353.7 160.9 349.7 160.9 345.6 C 160.9 341.6 162.3 337.5 163.2 333.5 C 164.2 329.5 164.6 325.3 166.6 321.6 C 168.5 318.0 171.8 314.8 174.8 311.7 C 177.9 308.7 181.4 305.8 185.0 303.2 C 188.6 300.6 192.3 298.1 196.4 296.1 C 200.4 294.1 204.8 292.6 209.2 291.4 C 213.6 290.2 218.4 289.5 222.9 289.0 C 227.5 288.5 232.1 288.1 236.7 288.6 C 241.2 289.1 245.8 290.5 250.2 291.8 C 254.6 293.2 259.1 294.5 263.1 296.5 C 267.1 298.5 270.8 301.2 274.3 303.9 C 277.8 306.6 281.0 309.6 283.9 312.8 C 286.9 315.9 289.8 319.2 292.0 322.9 C 294.1 326.5 295.2 330.5 296.7 334.4 Z" fill="#8f1e1e" fill-rule="evenodd" stroke="#000000" stroke-width="3.66"/>
  </g>
  <circle cx="244.3" cy="325.0" r="31.2" fill="url(#x0g9)" stroke="#202020" stroke-width="5.9"/>
  <line x1="249.1" y1="350.7" x2="239.6" y2="412.0" stroke="#0a0a0a" stroke-width="10.2" stroke-linecap="round" stroke-dasharray="10.2,20.5"/>
  <line x1="231.8" y1="348.0" x2="222.2" y2="409.3" stroke="#0a0a0a" stroke-width="10.2" stroke-linecap="round"/>
  <g opacity="0.80">
    <path d="M 296.7 296.9 C 298.3 300.7 298.6 304.9 299.2 308.9 C 299.9 313.0 301.1 317.1 300.8 321.1 C 300.5 325.2 299.0 329.1 297.5 332.9 C 296.0 336.8 294.1 340.6 291.9 344.2 C 289.6 347.8 287.0 351.3 284.0 354.3 C 281.0 357.4 277.4 360.2 273.6 362.5 C 269.9 364.9 265.7 366.9 261.4 368.5 C 257.2 370.1 252.5 370.9 248.1 372.2 C 243.6 373.4 239.2 375.9 234.8 376.1 C 230.4 376.2 226.0 374.5 221.7 373.2 C 217.3 372.0 212.9 370.5 208.7 368.7 C 204.5 366.9 200.2 365.1 196.5 362.6 C 192.9 360.2 189.6 357.1 186.7 353.9 C 183.9 350.7 181.8 346.9 179.4 343.4 C 177.1 339.9 174.5 336.4 172.5 332.8 C 170.4 329.1 168.1 325.5 167.0 321.6 C 165.8 317.7 166.0 313.4 165.8 309.3 C 165.5 305.2 164.7 301.1 165.4 297.1 C 166.1 293.1 168.1 289.3 169.9 285.5 C 171.6 281.7 173.3 277.8 175.8 274.3 C 178.3 270.9 181.5 267.8 184.8 264.9 C 188.0 262.0 191.6 259.1 195.4 256.9 C 199.3 254.8 203.6 253.0 208.0 251.9 C 212.4 250.7 217.3 250.4 221.8 250.1 C 226.4 249.9 231.0 249.4 235.4 250.2 C 239.8 251.0 244.2 253.1 248.5 254.6 C 252.8 256.2 257.3 257.5 261.3 259.5 C 265.3 261.6 269.0 264.2 272.4 267.0 C 275.7 269.8 278.6 273.1 281.4 276.4 C 284.3 279.6 287.0 283.0 289.5 286.4 C 292.0 289.8 295.1 293.2 296.7 296.9 Z" fill="#078383" fill-rule="evenodd" stroke="#000000" stroke-width="3.66"/>
  </g>
  <circle cx="743.3" cy="321.8" r="29.8" fill="url(#x0g12)" stroke="#171717" stroke-width="5.9"/>
  <g opacity="0.80">
    <path d="M 583.0 435.4 C 585.9 438.5 589.6 441.5 590.8 445.1 C 591.9 448.7 590.2 453.0 589.9 457.0 C 589.6 461.0 590.5 465.4 589.0 468.9 C 587.4 472.5 583.7 475.4 580.7 478.3 C 577.7 481.2 574.5 484.4 570.9 486.5 C 567.2 488.6 563.2 490.1 558.9 490.8 C 554.7 491.6 549.7 491.4 545.3 491.0 C 541.0 490.5 536.6 490.1 532.9 488.3 C 529.1 486.5 526.0 483.1 523.0 480.1 C 519.9 477.2 516.3 474.3 514.6 470.8 C 512.9 467.3 513.1 463.1 512.6 459.2 C 512.2 455.3 511.1 451.1 511.9 447.3 C 512.7 443.6 515.0 440.0 517.3 436.7 C 519.6 433.4 522.7 430.3 525.8 427.4 C 528.9 424.5 531.9 420.7 535.8 419.4 C 539.7 418.0 544.6 419.3 549.1 419.4 C 553.6 419.5 558.6 419.0 562.6 420.2 C 566.7 421.4 570.2 424.2 573.6 426.8 C 577.0 429.3 580.1 432.3 583.0 435.4 Z" fill="#0e8787" fill-rule="evenodd" stroke="#000000" stroke-width="3.66"/>
  </g>
  <circle cx="558.9" cy="428.6" r="31.2" fill="url(#x0g8)" stroke="#0f0f0f" stroke-width="5.9"/>
  <line x1="531.1" y1="424.6" x2="458.8" y2="414.2" stroke="#080808" stroke-width="14.6" stroke-linecap="round"/>
  <line x1="570.4" y1="447.7" x2="602.5" y2="501.3" stroke="#020202" stroke-width="14.6" stroke-linecap="round"/>
  <g opacity="0.80">
    <path d="M 564.5 411.6 C 567.6 414.1 569.4 419.1 569.2 422.8 C 568.9 426.5 566.0 430.9 563.0 434.0 C 560.0 437.0 555.2 438.9 551.0 441.0 C 546.9 443.0 541.6 447.0 538.1 446.3 C 534.7 445.6 532.7 440.3 530.5 436.8 C 528.3 433.3 525.4 428.9 524.9 425.1 C 524.5 421.3 525.8 417.6 527.8 414.1 C 529.8 410.7 533.1 405.5 536.9 404.4 C 540.8 403.3 546.3 406.4 550.9 407.6 C 555.5 408.8 561.5 409.1 564.5 411.6 Z" fill="#810303" fill-rule="evenodd" stroke="#000000" stroke-width="3.66"/>
  </g>
  <g opacity="0.80">
    <path d="M 462.9 416.4 C 465.2 419.8 466.4 423.8 467.7 427.6 C 469.0 431.4 470.3 435.4 470.7 439.3 C 471.1 443.2 470.8 447.1 470.2 451.1 C 469.6 455.0 468.5 459.0 467.1 462.7 C 465.7 466.5 464.1 470.2 461.7 473.5 C 459.2 476.8 455.8 479.6 452.6 482.5 C 449.5 485.3 446.1 488.0 442.7 490.7 C 439.3 493.3 436.0 496.1 432.3 498.4 C 428.6 500.7 424.6 502.6 420.5 504.4 C 416.5 506.2 412.3 507.7 408.1 509.3 C 403.9 510.9 399.8 512.6 395.5 513.7 C 391.2 514.9 386.6 515.3 382.1 516.2 C 377.7 517.1 373.4 518.5 368.9 519.2 C 364.5 519.9 359.9 520.2 355.4 520.6 C 350.9 521.0 345.7 522.8 342.0 521.7 C 338.3 520.5 335.0 517.0 333.1 513.7 C 331.1 510.4 330.5 505.8 330.3 501.9 C 330.1 498.1 330.5 494.1 331.8 490.4 C 333.0 486.7 336.0 483.3 337.8 479.7 C 339.6 476.0 341.0 472.2 342.7 468.5 C 344.3 464.8 346.3 461.2 347.8 457.4 C 349.3 453.6 350.4 449.8 351.6 445.9 C 352.8 442.1 353.8 438.2 355.0 434.3 C 356.1 430.4 357.1 426.5 358.5 422.7 C 360.0 418.9 361.5 415.1 363.6 411.6 C 365.7 408.1 367.9 404.5 370.9 401.5 C 373.9 398.6 377.8 396.3 381.6 394.1 C 385.4 391.9 389.4 389.6 393.6 388.5 C 397.8 387.3 402.4 387.3 406.9 387.2 C 411.3 387.2 416.1 387.6 420.4 388.5 C 424.8 389.3 429.2 390.4 433.2 392.2 C 437.1 394.0 440.7 396.6 444.3 399.1 C 447.8 401.6 451.3 404.2 454.4 407.1 C 457.5 410.0 460.7 413.0 462.9 416.4 Z" fill="#870e0e" fill-rule="evenodd" stroke="#000000" stroke-width="3.66"/>
  </g>
  <circle cx="429.3" cy="410.0" r="33.2" fill="url(#x0g2)" stroke="#0f0f0f" stroke-width="5.9"/>
  <line x1="414.1" y1="434.9" x2="364.3" y2="478.4" stroke="#040404" stroke-width="10.2" stroke-linecap="round"/>
  <line x1="402.5" y1="421.7" x2="352.7" y2="465.2" stroke="#040404" stroke-width="10.2" stroke-linecap="round" stroke-dasharray="10.2,20.5"/>
  <g opacity="0.80">
    <path d="M 278.2 453.5 C 279.4 457.4 280.5 461.3 280.9 465.3 C 281.3 469.3 281.1 473.3 280.8 477.3 C 280.6 481.2 280.2 485.3 279.5 489.2 C 278.8 493.2 277.8 497.1 276.5 500.9 C 275.1 504.7 273.3 508.5 271.2 512.0 C 269.1 515.6 266.7 519.0 263.9 522.2 C 261.2 525.4 258.0 528.3 254.8 531.1 C 251.5 533.9 248.0 536.5 244.3 538.9 C 240.7 541.3 236.9 543.9 232.8 545.4 C 228.7 547.0 224.0 547.4 219.5 548.3 C 215.1 549.1 210.6 550.3 206.1 550.6 C 201.5 550.8 197.0 549.9 192.5 549.5 C 187.9 549.0 183.2 548.8 178.9 547.8 C 174.5 546.8 170.3 545.1 166.3 543.3 C 162.3 541.4 158.4 539.1 154.9 536.5 C 151.4 534.0 148.1 531.2 145.3 528.1 C 142.4 525.0 140.1 521.5 137.9 518.0 C 135.6 514.5 133.8 510.8 131.9 507.1 C 130.0 503.5 127.7 499.9 126.5 496.0 C 125.3 492.2 125.1 488.2 124.7 484.2 C 124.2 480.2 123.4 476.1 123.9 472.2 C 124.3 468.3 125.9 464.5 127.5 460.8 C 129.0 457.1 131.1 453.4 133.2 449.9 C 135.4 446.3 137.5 442.8 140.2 439.6 C 142.9 436.3 146.2 433.5 149.3 430.6 C 152.5 427.7 155.7 424.8 159.1 422.1 C 162.5 419.4 165.9 416.7 169.7 414.5 C 173.5 412.4 177.6 410.6 181.9 409.3 C 186.1 407.9 190.7 407.0 195.2 406.2 C 199.6 405.5 204.1 404.9 208.6 404.8 C 213.2 404.8 217.8 405.5 222.3 406.2 C 226.8 406.9 231.4 407.4 235.5 408.9 C 239.6 410.4 243.4 412.9 247.0 415.3 C 250.7 417.7 254.0 420.5 257.2 423.3 C 260.5 426.1 263.9 428.9 266.7 432.0 C 269.5 435.1 272.2 438.5 274.1 442.1 C 276.0 445.6 277.1 449.6 278.2 453.5 Z" fill="#0c8686" fill-rule="evenodd" stroke="#000000" stroke-width="3.66"/>
  </g>
  <circle cx="226.9" cy="436.5" r="33.2" fill="url(#x0g4)" stroke="#080808" stroke-width="5.9"/>
  <line x1="257.1" y1="441.0" x2="317.5" y2="469.4" stroke="#020202" stroke-width="10.2" stroke-linecap="round" stroke-dasharray="10.2,20.5"/>
  <line x1="249.7" y1="456.9" x2="310.1" y2="485.3" stroke="#020202" stroke-width="10.2" stroke-linecap="round"/>
  <g opacity="0.80">
    <path d="M 287.5 420.4 C 288.5 424.3 287.9 428.5 288.0 432.6 C 288.2 436.7 289.3 440.9 288.5 444.9 C 287.7 448.8 285.0 452.4 283.1 456.1 C 281.1 459.8 279.1 463.5 276.7 467.0 C 274.2 470.4 271.5 473.8 268.4 476.8 C 265.3 479.8 261.6 482.4 258.0 484.9 C 254.3 487.4 250.3 489.5 246.4 491.7 C 242.4 493.9 238.6 496.5 234.4 497.9 C 230.1 499.4 225.4 499.7 220.9 500.4 C 216.3 501.1 211.6 502.1 207.0 502.1 C 202.5 502.0 197.9 501.0 193.5 500.0 C 189.0 499.1 184.4 497.9 180.2 496.3 C 175.9 494.8 171.7 492.9 167.9 490.6 C 164.1 488.3 160.5 485.6 157.2 482.8 C 153.9 479.9 150.7 476.9 148.1 473.5 C 145.5 470.2 143.5 466.5 141.7 462.8 C 139.9 459.0 138.3 455.1 137.2 451.2 C 136.1 447.2 135.5 443.2 135.1 439.2 C 134.7 435.1 134.7 431.0 134.9 426.9 C 135.1 422.9 135.5 418.8 136.5 414.9 C 137.4 410.9 138.9 407.0 140.7 403.2 C 142.4 399.4 144.2 395.7 146.7 392.3 C 149.1 388.9 152.3 385.7 155.4 382.8 C 158.6 379.8 162.0 376.9 165.6 374.4 C 169.3 371.9 173.0 369.4 177.2 367.7 C 181.4 366.1 186.2 365.6 190.8 364.7 C 195.3 363.8 199.9 362.3 204.4 362.4 C 209.0 362.5 213.5 364.2 218.0 365.2 C 222.5 366.2 227.2 366.7 231.5 368.3 C 235.7 369.8 239.6 372.3 243.5 374.5 C 247.4 376.7 251.3 378.9 255.0 381.4 C 258.6 383.9 262.2 386.5 265.5 389.4 C 268.7 392.4 271.6 395.6 274.3 398.9 C 277.0 402.2 279.4 405.7 281.6 409.3 C 283.8 412.9 286.4 416.5 287.5 420.4 Z" fill="#800000" fill-rule="evenodd" stroke="#000000" stroke-width="3.66"/>
  </g>
  <circle cx="338.8" cy="489.0" r="31.2" fill="url(#x0g10)" stroke="#020202" stroke-width="5.9"/>
  <g opacity="0.80">
    <path d="M 472.2 394.3 C 472.8 398.3 472.3 402.3 472.2 406.3 C 472.0 410.3 472.3 414.4 471.6 418.3 C 470.8 422.3 469.4 426.1 467.8 429.8 C 466.3 433.6 464.5 437.4 462.2 440.8 C 459.9 444.2 457.2 447.5 454.1 450.4 C 451.0 453.3 447.4 455.9 443.7 458.3 C 440.1 460.7 436.3 463.1 432.3 464.8 C 428.2 466.6 423.8 467.6 419.4 468.6 C 415.0 469.6 410.5 470.3 406.0 470.9 C 401.5 471.5 396.9 471.9 392.4 472.2 C 387.9 472.4 383.3 472.3 378.7 472.3 C 374.1 472.4 369.6 472.4 365.0 472.5 C 360.4 472.5 355.5 473.2 351.3 472.7 C 347.1 472.1 341.5 471.7 339.9 469.1 C 338.3 466.5 341.2 461.2 341.7 457.2 C 342.1 453.2 342.3 449.2 342.8 445.2 C 343.3 441.2 344.2 437.3 344.7 433.3 C 345.2 429.3 345.1 425.3 345.9 421.3 C 346.7 417.4 348.3 413.6 349.5 409.7 C 350.6 405.8 351.4 401.9 352.7 398.0 C 354.0 394.2 355.5 390.4 357.2 386.7 C 359.0 383.0 360.9 379.3 363.1 375.8 C 365.4 372.4 367.8 368.9 370.8 366.0 C 373.8 363.0 377.5 360.4 381.1 358.0 C 384.7 355.6 388.5 353.0 392.5 351.4 C 396.5 349.7 400.9 348.6 405.3 347.9 C 409.7 347.3 414.5 347.1 418.9 347.4 C 423.4 347.6 428.0 348.0 432.2 349.2 C 436.4 350.5 440.3 352.8 444.2 355.0 C 448.0 357.2 451.8 359.5 455.1 362.2 C 458.4 365.0 461.5 368.1 463.8 371.5 C 466.0 374.9 467.2 378.9 468.6 382.7 C 470.0 386.5 471.6 390.4 472.2 394.3 Z" fill="#008080" fill-rule="evenodd" stroke="#000000" stroke-width="3.66"/>
  </g>
  <circle cx="614.7" cy="521.7" r="33.2" fill="url(#x0g3)" stroke="#000000" stroke-width="5.9"/>
</svg>