<svg xmlns="http://www.w3.org/2000/svg" xmlns:xlink="http://www.w3.org/1999/xlink" viewBox="0 0 800 764" width="800" height="764">
  <rect width="100%" height="100%" fill="#ffffff"/>
  <defs>
    <radialGradient id="x0g0" cx=".5" cy=".5" fx=".33" fy=".33" r=".66"><stop offset="0%" stop-color="#de9a73"/><stop offset="40%" stop-color="#e47b4f"/><stop offset="100%" stop-color="#973831"/></radialGradient>
    <radialGradient id="x0g1" cx=".5" cy=".5" fx=".33" fy=".33" r=".66"><stop offset="0%" stop-color="#c2a1d1"/><stop offset="40%" stop-color="#a98cce"/><stop offset="100%" stop-color="#674995"/></radialGradient>
    <radialGradient id="x0g2" cx=".5" cy=".5" fx=".33" fy=".33" r=".66"><stop offset="0%" stop-color="#f0ab56"/><stop offset="40%" stop-color="#ff9428"/><stop offset="100%" stop-color="#9e4628"/></radialGradient>
    <radialGradient id="x0g3" cx=".5" cy=".5" fx=".33" fy=".33" r=".66"><stop offset="0%" stop-color="#ef5846"/><stop offset="40%" stop-color="#ff1515"/><stop offset="100%" stop-color="#960925"/></radialGradient>
    <radialGradient id="x0g4" cx=".5" cy=".5" fx=".33" fy=".33" r=".66"><stop offset="0%" stop-color="#ef5443"/><stop offset="40%" stop-color="#ff1010"/><stop offset="100%" stop-color="#940420"/></radialGradient>
    <radialGradient id="x0g5" cx=".5" cy=".5" fx=".33" fy=".33" r=".66"><stop offset="0%" stop-color="#86b5f1"/><stop offset="40%" stop-color="#677ef9"/><stop offset="100%" stop-color="#4657b7"/></radialGradient>
    <radialGradient id="x0g6" cx=".5" cy=".5" fx=".33" fy=".33" r=".66"><stop offset="0%" stop-color="#8db9f1"/><stop offset="40%" stop-color="#6f85fa"/><stop offset="100%" stop-color="#505fbb"/></radialGradient>
    <radialGradient id="x0g7" cx=".5" cy=".5" fx=".33" fy=".33" r=".66"><stop offset="0%" stop-color="#c5c5c5"/><stop offset="40%" stop-color="#bcbcbc"/><stop offset="100%" stop-color="#8b757a"/></radialGradient>
    <radialGradient id="x0g8" cx=".5" cy=".5" fx=".33" fy=".33" r=".66"><stop offset="0%" stop-color="#c8c8c8"/><stop offset="40%" stop-color="#c0c0c0"/><stop offset="100%" stop-color="#917c81"/></radialGradient>
    <radialGradient id="x0g9" cx=".5" cy=".5" fx=".33" fy=".33" r=".66"><stop offset="0%" stop-color="#cecece"/><stop offset="40%" stop-color="#c6c6c6"/><stop offset="100%" stop-color="#9b898d"/></radialGradient>
    <radialGradient id="x0g11" cx=".5" cy=".5" fx=".33" fy=".33" r=".66"><stop offset="0%" stop-color="#cecece"/><stop offset="40%" stop-color="#c5c5c5"/><stop offset="100%" stop-color="#9b888c"/></radialGradient>
    <radialGradient id="x0g13" cx=".5" cy=".5" fx=".33" fy=".33" r=".66"><stop offset="0%" stop-color="#c8c8c8"/><stop offset="40%" stop-color="#bfbfbf"/><stop offset="100%" stop-color="#917c80"/></radialGradient>
    <radialGradient id="x0g15" cx=".5" cy=".5" fx=".33" fy=".33" r=".66"><stop offset="0%" stop-color="#b8b8b8"/><stop offset="40%" stop-color="#acacac"/><stop offset="100%" stop-color="#6f545a"/></radialGradient>
    <radialGradient id="x0g17" cx=".5" cy=".5" fx=".33" fy=".33" r=".66"><stop offset="0%" stop-color="#bababa"/><stop offset="40%" stop-color="#aeaeae"/><stop offset="100%" stop-color="#73595e"/></radialGradient>
    <radialGradient id="x0g19" cx=".5" cy=".5" fx=".33" fy=".33" r=".66"><stop offset="0%" stop-color="#bcbcbc"/><stop offset="40%" stop-color="#b1b1b1"/><stop offset="100%" stop-color="#775e63"/></radialGradient>
    <radialGradient id="x0g21" cx=".5" cy=".5" fx=".33" fy=".33" r=".66"><stop offset="0%" stop-color="#bababa"/><stop offset="40%" stop-color="#afafaf"/><stop offset="100%" stop-color="#745a60"/></radialGradient>
    <radialGradient id="x0g23" cx=".5" cy=".5" fx=".33" fy=".33" r=".66"><stop offset="0%" stop-color="#b8b8b8"/><stop offset="40%" stop-color="#acacac"/><stop offset="100%" stop-color="#6f545a"/></radialGradient>
    <radialGradient id="x0g25" cx=".5" cy=".5" fx=".33" fy=".33" r=".66"><stop offset="0%" stop-color="#cacaca"/><stop offset="40%" stop-color="#c1c1c1"/><stop offset="100%" stop-color="#948084"/></radialGradient>
    <radialGradient id="x0g26" cx=".5" cy=".5" fx=".33" fy=".33" r=".66"><stop offset="0%" stop-color="#c7c7c7"/><stop offset="40%" stop-color="#bebebe"/><stop offset="100%" stop-color="#8f797e"/></radialGradient>
    <radialGradient id="x0g28" cx=".5" cy=".5" fx=".33" fy=".33" r=".66"><stop offset="0%" stop-color="#cfcfcf"/><stop offset="40%" stop-color="#c7c7c7"/><stop offset="100%" stop-color="#9e8c8f"/></radialGradient>
    <radialGradient id="x0g30" cx=".5" cy=".5" fx=".33" fy=".33" r=".66"><stop offset="0%" stop-color="#dcdcdc"/><stop offset="40%" stop-color="#d6d6d6"/><stop offset="100%" stop-color="#b8aaad"/></radialGradient>
    <radialGradient id="x0g32" cx=".5" cy=".5" fx=".33" fy=".33" r=".66"><stop offset="0%" stop-color="#e0e0e0"/><stop offset="40%" stop-color="#dadada"/><stop offset="100%" stop-color="#c0b4b6"/></radialGradient>
    <radialGradient id="x0g34" cx=".5" cy=".5" fx=".33" fy=".33" r=".66"><stop offset="0%" stop-color="#d6d6d6"/><stop offset="40%" stop-color="#cfcfcf"/><stop offset="100%" stop-color="#ac9c9f"/></radialGradient>
    <radialGradient id="x0g36" cx=".5" cy=".5" fx=".33" fy=".33" r=".66"><stop offset="0%" stop-color="#bababa"/><stop offset="40%" stop-color="#afafaf"/><stop offset="100%" stop-color="#745a5f"/></radialGradient>
    <radialGradient id="x0g37" cx=".5" cy=".5" fx=".33" fy=".33" r=".66"><stop offset="0%" stop-color="#b6b6b6"/><stop offset="40%" stop-color="#ababab"/><stop offset="100%" stop-color="#6c5157"/></radialGradient>
    <radialGradient id="x0g39" cx=".5" cy=".5" fx=".33" fy=".33" r=".66"><stop offset="0%" stop-color="#b6b6b6"/><stop offset="40%" stop-color="#aaaaaa"/><stop offset="100%" stop-color="#6b4f55"/></radialGradient>
    <radialGradient id="x0g41" cx=".5" cy=".5" fx=".33" fy=".33" r=".66"><stop offset="0%" stop-color="#b6b6b6"/><stop offset="40%" stop-color="#aaaaaa"/><stop offset="100%" stop-color="#6b4f55"/></radialGradient>
    <radialGradient id="x0g43" cx=".5" cy=".5" fx=".33" fy=".33" r=".66"><stop offset="0%" stop-color="#b7b7b7"/><stop offset="40%" stop-color="#acacac"/><stop offset="100%" stop-color="#6e5359"/></radialGradient>
    <radialGradient id="x0g45" cx=".5" cy=".5" fx=".33" fy=".33" r=".66"><stop offset="0%" stop-color="#bbbbbb"/><stop offset="40%" stop-color="#b0b0b0"/><stop offset="100%" stop-color="#765c61"/></radialGradient>
    <radialGradient id="x0g47" cx=".5" cy=".5" fx=".33" fy=".33" r=".66"><stop offset="0%" stop-color="#c7c7c7"/><stop offset="40%" stop-color="#bebebe"/><stop offset="100%" stop-color="#8e797d"/></radialGradient>
    <radialGradient id="x0g49" cx=".5" cy=".5" fx=".33" fy=".33" r=".66"><stop offset="0%" stop-color="#d5d5d5"/><stop offset="40%" stop-color="#cecece"/><stop offset="100%" stop-color="#ab9b9e"/></radialGradient>
    <radialGradient id="x0g52" cx=".5" cy=".5" fx=".33" fy=".33" r=".66"><stop offset="0%" stop-color="#d6d6d6"/><stop offset="40%" stop-color="#d0d0d0"/><stop offset="100%" stop-color="#ad9ea1"/></radialGradient>
    <radialGradient id="x0g53" cx=".5" cy=".5" fx=".33" fy=".33" r=".66"><stop offset="0%" stop-color="#cccccc"/><stop offset="40%" stop-color="#c4c4c4"/><stop offset="100%" stop-color="#998589"/></radialGradient>
    <radialGradient id="x0g54" cx=".5" cy=".5" fx=".33" fy=".33" r=".66"><stop offset="0%" stop-color="#d7d7d7"/><stop offset="40%" stop-color="#d1d1d1"/><stop offset="100%" stop-color="#afa0a3"/></radialGradient>
    <radialGradient id="x0g55" cx=".5" cy=".5" fx=".33" fy=".33" r=".66"><stop offset="0%" stop-color="#e5e5e5"/><stop offset="40%" stop-color="#e0e0e0"/><stop offset="100%" stop-color="#cac0c2"/></radialGradient>
    <radialGradient id="x0g56" cx=".5" cy=".5" fx=".33" fy=".33" r=".66"><stop offset="0%" stop-color="#e4e4e4"/><stop offset="40%" stop-color="#e0e0e0"/><stop offset="100%" stop-color="#c9bec1"/></radialGradient>
    <radialGradient id="x0g57" cx=".5" cy=".5" fx=".33" fy=".33" r=".66"><stop offset="0%" stop-color="#cdcdcd"/><stop offset="40%" stop-color="#c5c5c5"/><stop offset="100%" stop-color="#9b888c"/></radialGradient>
    <radialGradient id="x0g61" cx=".5" cy=".5" fx=".33" fy=".33" r=".66"><stop offset="0%" stop-color="#bbbbbb"/><stop offset="40%" stop-color="#afafaf"/><stop offset="100%" stop-color="#755b60"/></radialGradient>
    <radialGradient id="x0g62" cx=".5" cy=".5" fx=".33" fy=".33" r=".66"><stop offset="0%" stop-color="#b9b9b9"/><stop offset="40%" stop-color="#aeaeae"/><stop offset="100%" stop-color="#72585d"/></radialGradient>
    <radialGradient id="x0g63" cx=".5" cy=".5" fx=".33" fy=".33" r=".66"><stop offset="0%" stop-color="#ffffff"/><stop offset="40%" stop-color="#ffffff"/><stop offset="100%" stop-color="#a98b90"/></radialGradient>
    <radialGradient id="x0g64" cx=".5" cy=".5" fx=".33" fy=".33" r=".66"><stop offset="0%" stop-color="#ffffff"/><stop offset="40%" stop-color="#ffffff"/><stop offset="100%" stop-color="#ab8e93"/></radialGradient>
    <radialGradient id="x0g65" cx=".5" cy=".5" fx=".33" fy=".33" r=".66"><stop offset="0%" stop-color="#ffffff"/><stop offset="40%" stop-color="#ffffff"/><stop offset="100%" stop-color="#b49b9f"/></radialGradient>
    <radialGradient id="x0g66" cx=".5" cy=".5" fx=".33" fy=".33" r=".66"><stop offset="0%" stop-color="#f27567"/><stop offset="40%" stop-color="#ff3e3e"/><stop offset="100%" stop-color="#a9344b"/></radialGradient>
    <radialGradient id="x0g67" cx=".5" cy=".5" fx=".33" fy=".33" r=".66"><stop offset="0%" stop-color="#cccccc"/><stop offset="40%" stop-color="#c3c3c3"/><stop offset="100%" stop-color="#978488"/></radialGradient>
    <radialGradient id="x0g73" cx=".5" cy=".5" fx=".33" fy=".33" r=".66"><stop offset="0%" stop-color="#c8c8c8"/><stop offset="40%" stop-color="#bfbfbf"/><stop offset="100%" stop-color="#917c80"/></radialGradient>
  </defs>
  <circle cx="405.7" cy="143.8" r="20.6" fill="url(#x0g55)" stroke="#b2b2b2" stroke-width="3.6"/>
  <line x1="416.3" y1="160.0" x2="428.9" y2="201.6" stroke="#838383" stroke-width="6.4" stroke-linecap="round"/>
  <line x1="405.9" y1="163.1" x2="418.4" y2="204.8" stroke="#838383" stroke-width="6.4" stroke-linecap="round" stroke-dasharray="6.4,12.7"/>
  <line x1="395.5" y1="138.9" x2="381.9" y2="119.8" stroke="#707070" stroke-width="6.4" stroke-linecap="round" stroke-dasharray="6.4,12.7"/>
  <line x1="404.4" y1="132.6" x2="390.8" y2="113.4" stroke="#707070" stroke-width="6.4" stroke-linecap="round"/>
  <circle cx="429.0" cy="220.9" r="20.6" fill="url(#x0g56)" stroke="#b2b2b2" stroke-width="3.6"/>
  <line x1="433.9" y1="230.4" x2="432.6" y2="252.1" stroke="#6e6e6e" stroke-width="6.4" stroke-linecap="round"/>
  <line x1="423.0" y1="229.8" x2="421.7" y2="251.4" stroke="#6e6e6e" stroke-width="6.4" stroke-linecap="round" stroke-dasharray="6.4,12.7"/>
  <circle cx="180.0" cy="302.9" r="20.6" fill="url(#x0g32)" stroke="#b2b2b2" stroke-width="3.6"/>
  <line x1="166.9" y1="289.5" x2="147.4" y2="251.9" stroke="#707070" stroke-width="6.4" stroke-linecap="round"/>
  <line x1="176.6" y1="284.4" x2="157.1" y2="246.9" stroke="#707070" stroke-width="6.4" stroke-linecap="round" stroke-dasharray="6.4,12.7"/>
  <line x1="194.3" y1="307.5" x2="220.0" y2="328.6" stroke="#676767" stroke-width="6.4" stroke-linecap="round" stroke-dasharray="6.4,12.7"/>
  <line x1="187.4" y1="316.0" x2="213.1" y2="337.0" stroke="#676767" stroke-width="6.4" stroke-linecap="round"/>
  <circle cx="144.0" cy="233.5" r="20.6" fill="url(#x0g30)" stroke="#b2b2b2" stroke-width="3.6"/>
  <line x1="141.5" y1="224.5" x2="147.9" y2="207.9" stroke="#575757" stroke-width="6.4" stroke-linecap="round"/>
  <line x1="151.7" y1="228.4" x2="158.1" y2="211.8" stroke="#575757" stroke-width="6.4" stroke-linecap="round" stroke-dasharray="6.4,12.7"/>
  <circle cx="380.6" cy="108.5" r="20.6" fill="url(#x0g54)" stroke="#a8a8a8" stroke-width="3.6"/>
  <line x1="385.9" y1="118.5" x2="385.7" y2="141.6" stroke="#4e4e4e" stroke-width="6.4" stroke-linecap="round" stroke-dasharray="6.4,12.7"/>
  <line x1="375.0" y1="118.4" x2="374.8" y2="141.5" stroke="#4e4e4e" stroke-width="6.4" stroke-linecap="round"/>
  <circle cx="426.5" cy="260.9" r="20.6" fill="url(#x0g52)" stroke="#a4a4a4" stroke-width="3.6"/>
  <line x1="430.9" y1="278.9" x2="442.5" y2="326.7" stroke="#5a5a5a" stroke-width="9.1" stroke-linecap="round"/>
  <line x1="416.5" y1="255.7" x2="403.7" y2="236.9" stroke="#4c4c4c" stroke-width="6.4" stroke-linecap="round"/>
  <line x1="425.5" y1="249.6" x2="412.7" y2="230.8" stroke="#4c4c4c" stroke-width="6.4" stroke-linecap="round" stroke-dasharray="6.4,12.7"/>
  <circle cx="227.4" cy="341.7" r="20.6" fill="url(#x0g34)" stroke="#a0a0a0" stroke-width="3.6"/>
  <line x1="225.0" y1="332.8" x2="231.4" y2="316.4" stroke="#484848" stroke-width="6.4" stroke-linecap="round" stroke-dasharray="6.4,12.7"/>
  <line x1="235.1" y1="336.8" x2="241.5" y2="320.4" stroke="#484848" stroke-width="6.4" stroke-linecap="round"/>
  <circle cx="446.9" cy="344.6" r="20.6" fill="url(#x0g49)" stroke="#9d9d9d" stroke-width="3.6"/>
  <line x1="452.0" y1="348.6" x2="465.4" y2="359.1" stroke="#464646" stroke-width="9.1" stroke-linecap="round"/>
  <circle cx="155.7" cy="202.8" r="20.6" fill="url(#x0g28)" stroke="#7e7e7e" stroke-width="3.6"/>
  <line x1="170.0" y1="207.4" x2="195.7" y2="228.2" stroke="#3c3c3c" stroke-width="6.4" stroke-linecap="round"/>
  <line x1="163.1" y1="215.9" x2="188.8" y2="236.7" stroke="#3c3c3c" stroke-width="6.4" stroke-linecap="round" stroke-dasharray="6.4,12.7"/>
  <circle cx="379.2" cy="558.6" r="20.6" fill="url(#x0g9)" stroke="#787878" stroke-width="3.6"/>
  <line x1="361.9" y1="567.2" x2="316.9" y2="575.2" stroke="#434343" stroke-width="6.4" stroke-linecap="round"/>
  <line x1="360.0" y1="556.5" x2="315.0" y2="564.4" stroke="#434343" stroke-width="6.4" stroke-linecap="round" stroke-dasharray="6.4,12.7"/>
  <line x1="377.1" y1="541.2" x2="385.3" y2="500.7" stroke="#3c3c3c" stroke-width="6.4" stroke-linecap="round" stroke-dasharray="6.4,12.7"/>
  <line x1="387.8" y1="543.4" x2="396.0" y2="502.9" stroke="#3c3c3c" stroke-width="6.4" stroke-linecap="round"/>
  <line x1="372.6" y1="558.6" x2="345.8" y2="558.8" stroke="#2e2e2e" stroke-width="9.1" stroke-linecap="round"/>
  <circle cx="297.7" cy="573.0" r="20.6" fill="url(#x0g11)" stroke="#777777" stroke-width="3.6"/>
  <line x1="284.7" y1="561.4" x2="264.2" y2="526.2" stroke="#3b3b3b" stroke-width="6.4" stroke-linecap="round"/>
  <line x1="294.1" y1="555.9" x2="273.7" y2="520.7" stroke="#3b3b3b" stroke-width="6.4" stroke-linecap="round" stroke-dasharray="6.4,12.7"/>
  <line x1="303.9" y1="570.8" x2="329.5" y2="561.7" stroke="#2e2e2e" stroke-width="9.1" stroke-linecap="round"/>
  <circle cx="536.3" cy="487.7" r="20.6" fill="url(#x0g57)" stroke="#767676" stroke-width="3.6"/>
  <line x1="522.9" y1="479.2" x2="485.6" y2="455.5" stroke="#393939" stroke-width="9.1" stroke-linecap="round"/>
  <circle cx="380.2" cy="151.4" r="20.6" fill="url(#x0g53)" stroke="#717171" stroke-width="3.6"/>
  <line x1="390.8" y1="167.6" x2="403.1" y2="207.9" stroke="#3f3f3f" stroke-width="6.4" stroke-linecap="round" stroke-dasharray="6.4,12.7"/>
  <line x1="380.4" y1="170.8" x2="392.7" y2="211.0" stroke="#3f3f3f" stroke-width="6.4" stroke-linecap="round"/>
  <circle cx="402.9" cy="226.1" r="19.4" fill="url(#x0g6)" stroke="#6f6f6f" stroke-width="3.6"/>
  <line x1="404.9" y1="235.4" x2="413.6" y2="276.8" stroke="#2b2b2b" stroke-width="9.1" stroke-linecap="round"/>
  <circle cx="633.6" cy="258.3" r="20.6" fill="url(#x0g67)" stroke="#6d6d6d" stroke-width="3.6"/>
  <line x1="651.0" y1="254.2" x2="698.8" y2="242.8" stroke="#393939" stroke-width="9.1" stroke-linecap="round"/>
  <line x1="625.7" y1="269.8" x2="606.4" y2="298.2" stroke="#333333" stroke-width="9.1" stroke-linecap="round"/>
  <circle cx="239.2" cy="311.5" r="20.6" fill="url(#x0g25)" stroke="#666666" stroke-width="3.6"/>
  <line x1="226.1" y1="298.0" x2="206.5" y2="259.8" stroke="#353535" stroke-width="6.4" stroke-linecap="round" stroke-dasharray="6.4,12.7"/>
  <line x1="235.8" y1="293.0" x2="216.2" y2="254.8" stroke="#353535" stroke-width="6.4" stroke-linecap="round"/>
  <line x1="250.5" y1="319.3" x2="292.1" y2="347.7" stroke="#2c2c2c" stroke-width="9.1" stroke-linecap="round"/>
  <circle cx="470.3" cy="362.9" r="19.4" fill="url(#x0g5)" stroke="#616161" stroke-width="3.6"/>
  <line x1="486.4" y1="356.9" x2="531.4" y2="340.1" stroke="#343434" stroke-width="10.9" stroke-linecap="round" stroke-dasharray="10.9,20.0"/>
  <line x1="470.6" y1="380.0" x2="471.8" y2="428.7" stroke="#333333" stroke-width="9.1" stroke-linecap="round"/>
  <line x1="462.5" y1="352.3" x2="426.9" y2="304.1" stroke="#282828" stroke-width="9.1" stroke-linecap="round"/>
  <circle cx="394.0" cy="485.5" r="20.6" fill="url(#x0g8)" stroke="#5e5e5e" stroke-width="3.6"/>
  <line x1="410.5" y1="477.4" x2="455.7" y2="455.1" stroke="#323232" stroke-width="9.1" stroke-linecap="round"/>
  <line x1="375.4" y1="483.6" x2="333.8" y2="465.9" stroke="#303030" stroke-width="6.4" stroke-linecap="round" stroke-dasharray="6.4,12.7"/>
  <line x1="379.7" y1="473.5" x2="338.1" y2="455.9" stroke="#303030" stroke-width="6.4" stroke-linecap="round"/>
  <line x1="385.1" y1="497.0" x2="348.8" y2="544.2" stroke="#282828" stroke-width="9.1" stroke-linecap="round"/>
  <circle cx="716.2" cy="238.7" r="20.6" fill="url(#x0g73)" stroke="#5d5d5d" stroke-width="3.6"/>
  <circle cx="260.6" cy="509.1" r="20.6" fill="url(#x0g13)" stroke="#5d5d5d" stroke-width="3.6"/>
  <line x1="270.0" y1="492.9" x2="302.7" y2="462.2" stroke="#303030" stroke-width="6.4" stroke-linecap="round"/>
  <line x1="277.4" y1="500.8" x2="310.2" y2="470.2" stroke="#303030" stroke-width="6.4" stroke-linecap="round" stroke-dasharray="6.4,12.7"/>
  <line x1="272.8" y1="517.0" x2="322.0" y2="548.8" stroke="#272727" stroke-width="9.1" stroke-linecap="round"/>
  <circle cx="540.5" cy="336.8" r="10.8" fill="url(#x0g65)" stroke="#595959" stroke-width="3.6"/>
  <line x1="548.8" y1="332.8" x2="585.2" y2="315.3" stroke="#2e2e2e" stroke-width="10.9" stroke-linecap="round" stroke-dasharray="10.9,20.0"/>
  <circle cx="203.2" cy="241.3" r="20.6" fill="url(#x0g26)" stroke="#585858" stroke-width="3.6"/>
  <circle cx="472.2" cy="446.9" r="20.6" fill="url(#x0g47)" stroke="#575757" stroke-width="3.6"/>
  <circle cx="319.5" cy="454.0" r="20.6" fill="url(#x0g7)" stroke="#4f4f4f" stroke-width="3.6"/>
  <line x1="317.0" y1="436.8" x2="307.7" y2="375.6" stroke="#262626" stroke-width="9.1" stroke-linecap="round"/>
  <line x1="322.4" y1="470.4" x2="333.9" y2="537.8" stroke="#242424" stroke-width="9.1" stroke-linecap="round"/>
  <circle cx="599.4" cy="308.5" r="18.5" fill="url(#x0g66)" stroke="#4a4a4a" stroke-width="3.6"/>
  <line x1="586.3" y1="300.7" x2="529.6" y2="267.2" stroke="#232323" stroke-width="10.9" stroke-linecap="round" stroke-dasharray="10.9,20.0"/>
  <circle cx="304.9" cy="356.4" r="23.1" fill="url(#x0g2)" stroke="#3a3a3a" stroke-width="3.6"/>
  <line x1="322.5" y1="345.7" x2="395.8" y2="301.8" stroke="#1e1e1e" stroke-width="9.1" stroke-linecap="round"/>
  <line x1="291.9" y1="358.8" x2="249.4" y2="366.9" stroke="#151515" stroke-width="9.1" stroke-linecap="round"/>
  <circle cx="522.0" cy="262.6" r="10.8" fill="url(#x0g64)" stroke="#343434" stroke-width="3.6"/>
  <line x1="512.5" y1="265.0" x2="439.4" y2="283.7" stroke="#1d1d1d" stroke-width="10.9" stroke-linecap="round" stroke-dasharray="10.9,20.0"/>
  <line x1="515.9" y1="255.6" x2="497.4" y2="234.2" stroke="#1b1b1b" stroke-width="10.9" stroke-linecap="round" stroke-dasharray="10.9,20.0"/>
  <circle cx="337.5" cy="558.8" r="26.3" fill="url(#x0g0)" stroke="#333333" stroke-width="3.6"/>
  <line x1="342.6" y1="579.9" x2="359.2" y2="647.8" stroke="#161616" stroke-width="9.1" stroke-linecap="round"/>
  <line x1="327.2" y1="575.4" x2="294.2" y2="628.6" stroke="#141414" stroke-width="9.1" stroke-linecap="round"/>
  <line x1="353.0" y1="568.4" x2="403.2" y2="599.2" stroke="#131313" stroke-width="9.1" stroke-linecap="round"/>
  <line x1="328.1" y1="561.0" x2="297.9" y2="568.1" stroke="#0f0f0f" stroke-width="9.1" stroke-linecap="round"/>
  <line x1="344.1" y1="556.7" x2="365.4" y2="550.0" stroke="#0f0f0f" stroke-width="9.1" stroke-linecap="round"/>
  <circle cx="416.2" cy="289.6" r="26.6" fill="url(#x0g1)" stroke="#323232" stroke-width="3.6"/>
  <line x1="434.6" y1="274.4" x2="483.9" y2="233.4" stroke="#1a1a1a" stroke-width="9.1" stroke-linecap="round"/>
  <line x1="405.6" y1="273.5" x2="379.1" y2="233.6" stroke="#141414" stroke-width="9.1" stroke-linecap="round"/>
  <line x1="423.2" y1="302.2" x2="440.4" y2="333.2" stroke="#121212" stroke-width="9.1" stroke-linecap="round"/>
  <circle cx="491.4" cy="227.2" r="10.8" fill="url(#x0g63)" stroke="#2d2d2d" stroke-width="3.6"/>
  <circle cx="363.2" cy="664.3" r="20.6" fill="url(#x0g19)" stroke="#1f1f1f" stroke-width="3.6"/>
  <line x1="344.4" y1="664.5" x2="301.8" y2="651.9" stroke="#0f0f0f" stroke-width="6.4" stroke-linecap="round"/>
  <line x1="347.5" y1="654.0" x2="304.9" y2="641.4" stroke="#0f0f0f" stroke-width="6.4" stroke-linecap="round" stroke-dasharray="6.4,12.7"/>
  <line x1="370.8" y1="647.8" x2="399.6" y2="615.9" stroke="#0e0e0e" stroke-width="6.4" stroke-linecap="round" stroke-dasharray="6.4,12.7"/>
  <line x1="378.9" y1="655.1" x2="407.7" y2="623.2" stroke="#0e0e0e" stroke-width="6.4" stroke-linecap="round"/>
  <circle cx="159.4" cy="387.1" r="20.6" fill="url(#x0g45)" stroke="#1b1b1b" stroke-width="3.6"/>
  <line x1="176.1" y1="377.7" x2="218.7" y2="367.9" stroke="#0e0e0e" stroke-width="6.4" stroke-linecap="round"/>
  <line x1="178.5" y1="388.3" x2="221.2" y2="378.5" stroke="#0e0e0e" stroke-width="6.4" stroke-linecap="round" stroke-dasharray="6.4,12.7"/>
  <line x1="149.2" y1="395.2" x2="122.1" y2="402.0" stroke="#090909" stroke-width="6.4" stroke-linecap="round" stroke-dasharray="6.4,12.7"/>
  <line x1="146.6" y1="384.7" x2="119.4" y2="391.4" stroke="#090909" stroke-width="6.4" stroke-linecap="round"/>
  <circle cx="370.8" cy="221.1" r="20.6" fill="url(#x0g61)" stroke="#191919" stroke-width="3.6"/>
  <line x1="353.4" y1="215.1" x2="338.4" y2="193.5" stroke="#0a0a0a" stroke-width="6.4" stroke-linecap="round"/>
  <line x1="362.3" y1="208.9" x2="347.4" y2="187.3" stroke="#0a0a0a" stroke-width="6.4" stroke-linecap="round"/>
  <line x1="371.3" y1="202.7" x2="356.4" y2="181.1" stroke="#0a0a0a" stroke-width="6.4" stroke-linecap="round"/>
  <circle cx="286.1" cy="641.6" r="20.6" fill="url(#x0g21)" stroke="#171717" stroke-width="3.6"/>
  <line x1="281.7" y1="625.2" x2="284.1" y2="585.5" stroke="#090909" stroke-width="6.4" stroke-linecap="round"/>
  <line x1="292.6" y1="625.8" x2="295.0" y2="586.2" stroke="#090909" stroke-width="6.4" stroke-linecap="round" stroke-dasharray="6.4,12.7"/>
  <circle cx="237.8" cy="369.1" r="20.6" fill="url(#x0g36)" stroke="#171717" stroke-width="3.6"/>
  <line x1="242.6" y1="362.3" x2="257.0" y2="358.9" stroke="#060606" stroke-width="6.4" stroke-linecap="round"/>
  <line x1="245.1" y1="372.9" x2="259.5" y2="369.5" stroke="#060606" stroke-width="6.4" stroke-linecap="round" stroke-dasharray="6.4,12.7"/>
  <circle cx="415.3" cy="606.7" r="20.6" fill="url(#x0g17)" stroke="#151515" stroke-width="3.6"/>
  <line x1="401.0" y1="596.9" x2="376.2" y2="564.7" stroke="#080808" stroke-width="6.4" stroke-linecap="round" stroke-dasharray="6.4,12.7"/>
  <line x1="409.6" y1="590.3" x2="384.9" y2="558.1" stroke="#080808" stroke-width="6.4" stroke-linecap="round"/>
  <circle cx="445.8" cy="343.0" r="20.6" fill="url(#x0g62)" stroke="#121212" stroke-width="3.6"/>
  <line x1="461.1" y1="345.1" x2="472.5" y2="360.4" stroke="#060606" stroke-width="6.4" stroke-linecap="round"/>
  <line x1="452.3" y1="351.6" x2="463.8" y2="366.9" stroke="#060606" stroke-width="6.4" stroke-linecap="round"/>
  <line x1="443.6" y1="358.2" x2="455.1" y2="373.5" stroke="#060606" stroke-width="6.4" stroke-linecap="round"/>
  <circle cx="339.8" cy="176.3" r="18.5" fill="url(#x0g3)" stroke="#0d0d0d" stroke-width="3.6"/>
  <circle cx="290.6" cy="569.8" r="20.6" fill="url(#x0g23)" stroke="#0c0c0c" stroke-width="3.6"/>
  <line x1="307.0" y1="559.7" x2="351.2" y2="547.8" stroke="#060606" stroke-width="6.4" stroke-linecap="round"/>
  <line x1="309.9" y1="570.3" x2="354.1" y2="558.4" stroke="#060606" stroke-width="6.4" stroke-linecap="round" stroke-dasharray="6.4,12.7"/>
  <circle cx="370.5" cy="548.3" r="20.6" fill="url(#x0g15)" stroke="#0a0a0a" stroke-width="3.6"/>
  <circle cx="109.2" cy="399.6" r="20.6" fill="url(#x0g43)" stroke="#090909" stroke-width="3.6"/>
  <line x1="114.3" y1="392.9" x2="129.0" y2="389.7" stroke="#010101" stroke-width="6.4" stroke-linecap="round" stroke-dasharray="6.4,12.7"/>
  <line x1="116.6" y1="403.6" x2="131.3" y2="400.4" stroke="#010101" stroke-width="6.4" stroke-linecap="round"/>
  <circle cx="469.6" cy="374.7" r="18.5" fill="url(#x0g4)" stroke="#050505" stroke-width="3.6"/>
  <circle cx="264.3" cy="362.8" r="20.6" fill="url(#x0g37)" stroke="#040404" stroke-width="3.6"/>
  <line x1="254.0" y1="370.9" x2="226.7" y2="377.6" stroke="#000000" stroke-width="6.4" stroke-linecap="round"/>
  <line x1="251.4" y1="360.3" x2="224.1" y2="367.0" stroke="#000000" stroke-width="6.4" stroke-linecap="round" stroke-dasharray="6.4,12.7"/>
  <circle cx="136.3" cy="393.7" r="20.6" fill="url(#x0g41)" stroke="#000000" stroke-width="3.6"/>
  <line x1="152.8" y1="384.2" x2="194.8" y2="374.1" stroke="#000000" stroke-width="6.4" stroke-linecap="round" stroke-dasharray="6.4,12.7"/>
  <line x1="155.4" y1="394.8" x2="197.4" y2="384.7" stroke="#000000" stroke-width="6.4" stroke-linecap="round"/>
  <circle cx="213.9" cy="375.1" r="20.6" fill="url(#x0g39)" stroke="#000000" stroke-width="3.6"/>
</svg>