<svg xmlns="http://www.w3.org/2000/svg" xmlns:xlink="http://www.w3.org/1999/xlink" viewBox="0 0 734 800" width="734" height="800">
  <rect width="100%" height="100%" fill="#ffffff"/>
  <defs>
    <radialGradient id="x0g0" cx=".5" cy=".5" fx=".33" fy=".33" r=".66"><stop offset="0%" stop-color="#bbbbbb"/><stop offset="40%" stop-color="#b0b0b0"/><stop offset="100%" stop-color="#755b61"/></radialGradient>
    <radialGradient id="x0g1" cx=".5" cy=".5" fx=".33" fy=".33" r=".66"><stop offset="0%" stop-color="#b6b6b6"/><stop offset="40%" stop-color="#aaaaaa"/><stop offset="100%" stop-color="#6b4f55"/></radialGradient>
    <radialGradient id="x0g2" cx=".5" cy=".5" fx=".33" fy=".33" r=".66"><stop offset="0%" stop-color="#b6b6b6"/><stop offset="40%" stop-color="#aaaaaa"/><stop offset="100%" stop-color="#6b4f55"/></radialGradient>
    <radialGradient id="x0g3" cx=".5" cy=".5" fx=".33" fy=".33" r=".66"><stop offset="0%" stop-color="#bbbbbb"/><stop offset="40%" stop-color="#b0b0b0"/><stop offset="100%" stop-color="#755b61"/></radialGradient>
    <radialGradient id="x0g4" cx=".5" cy=".5" fx=".33" fy=".33" r=".66"><stop offset="0%" stop-color="#cbcbcb"/><stop offset="40%" stop-color="#c3c3c3"/><stop offset="100%" stop-color="#978388"/></radialGradient>
    <radialGradient id="x0g5" cx=".5" cy=".5" fx=".33" fy=".33" r=".66"><stop offset="0%" stop-color="#cccccc"/><stop offset="40%" stop-color="#c3c3c3"/><stop offset="100%" stop-color="#978488"/></radialGradient>
    <radialGradient id="x0g6" cx=".5" cy=".5" fx=".33" fy=".33" r=".66"><stop offset="0%" stop-color="#f05e4d"/><stop offset="40%" stop-color="#ff1e1e"/><stop offset="100%" stop-color="#9a122d"/></radialGradient>
    <radialGradient id="x0g7" cx=".5" cy=".5" fx=".33" fy=".33" r=".66"><stop offset="0%" stop-color="#ffffff"/><stop offset="40%" stop-color="#ffffff"/><stop offset="100%" stop-color="#a38489"/></radialGradient>
    <radialGradient id="x0g13" cx=".5" cy=".5" fx=".33" fy=".33" r=".66"><stop offset="0%" stop-color="#bbbbbb"/><stop offset="40%" stop-color="#b0b0b0"/><stop offset="100%" stop-color="#755b61"/></radialGradient>
    <radialGradient id="x0g14" cx=".5" cy=".5" fx=".33" fy=".33" r=".66"><stop offset="0%" stop-color="#b6b6b6"/><stop offset="40%" stop-color="#aaaaaa"/><stop offset="100%" stop-color="#6b4f55"/></radialGradient>
    <radialGradient id="x0g15" cx=".5" cy=".5" fx=".33" fy=".33" r=".66"><stop offset="0%" stop-color="#b6b6b6"/><stop offset="40%" stop-color="#aaaaaa"/><stop offset="100%" stop-color="#6b4f55"/></radialGradient>
    <radialGradient id="x0g16" cx=".5" cy=".5" fx=".33" fy=".33" r=".66"><stop offset="0%" stop-color="#bbbbbb"/><stop offset="40%" stop-color="#b0b0b0"/><stop offset="100%" stop-color="#755b61"/></radialGradient>
    <radialGradient id="x0g17" cx=".5" cy=".5" fx=".33" fy=".33" r=".66"><stop offset="0%" stop-color="#cbcbcb"/><stop offset="40%" stop-color="#c3c3c3"/><stop offset="100%" stop-color="#978388"/></radialGradient>
    <radialGradient id="x0g18" cx=".5" cy=".5" fx=".33" fy=".33" r=".66"><stop offset="0%" stop-color="#cccccc"/><stop offset="40%" stop-color="#c3c3c3"/><stop offset="100%" stop-color="#978488"/></radialGradient>
    <radialGradient id="x0g19" cx=".5" cy=".5" fx=".33" fy=".33" r=".66"><stop offset="0%" stop-color="#f05e4d"/><stop offset="40%" stop-color="#ff1e1e"/><stop offset="100%" stop-color="#9a122d"/></radialGradient>
    <radialGradient id="x0g20" cx=".5" cy=".5" fx=".33" fy=".33" r=".66"><stop offset="0%" stop-color="#ffffff"/><stop offset="40%" stop-color="#ffffff"/><stop offset="100%" stop-color="#a38489"/></radialGradient>
  </defs>
  <circle cx="500.5" cy="419.1" r="30.7" fill="url(#x0g5)" stroke="#6e6e6e" stroke-width="5.4"/>
  <line x1="500.3" y1="447.9" x2="482.2" y2="508.5" stroke="#3d3d3d" stroke-width="9.5" stroke-linecap="round"/>
  <line x1="484.8" y1="443.2" x2="466.7" y2="503.8" stroke="#3d3d3d" stroke-width="9.5" stroke-linecap="round" stroke-dasharray="9.5,18.9"/>
  <line x1="496.5" y1="403.7" x2="505.4" y2="373.3" stroke="#222222" stroke-width="9.5" stroke-linecap="round" stroke-dasharray="9.5,18.9"/>
  <line x1="512.1" y1="408.2" x2="521.0" y2="377.9" stroke="#222222" stroke-width="9.5" stroke-linecap="round"/>
  <circle cx="233.9" cy="310.9" r="30.7" fill="url(#x0g18)" stroke="#6d6d6d" stroke-width="5.4"/>
  <line x1="228.0" y1="339.0" x2="198.1" y2="394.7" stroke="#3d3d3d" stroke-width="9.5" stroke-linecap="round" stroke-dasharray="9.5,18.9"/>
  <line x1="213.7" y1="331.4" x2="183.8" y2="387.0" stroke="#3d3d3d" stroke-width="9.5" stroke-linecap="round"/>
  <line x1="233.5" y1="294.8" x2="248.9" y2="266.7" stroke="#222222" stroke-width="9.5" stroke-linecap="round"/>
  <line x1="247.7" y1="302.6" x2="263.1" y2="274.5" stroke="#222222" stroke-width="9.5" stroke-linecap="round" stroke-dasharray="9.5,18.9"/>
  <circle cx="466.5" cy="532.6" r="30.7" fill="url(#x0g4)" stroke="#6d6d6d" stroke-width="5.4"/>
  <line x1="470.4" y1="548.1" x2="461.3" y2="578.5" stroke="#222222" stroke-width="9.5" stroke-linecap="round"/>
  <line x1="454.8" y1="543.5" x2="445.7" y2="573.8" stroke="#222222" stroke-width="9.5" stroke-linecap="round" stroke-dasharray="9.5,18.9"/>
  <circle cx="177.8" cy="415.2" r="30.7" fill="url(#x0g17)" stroke="#6d6d6d" stroke-width="5.4"/>
  <line x1="178.5" y1="431.2" x2="163.7" y2="459.3" stroke="#222222" stroke-width="9.5" stroke-linecap="round" stroke-dasharray="9.5,18.9"/>
  <line x1="164.2" y1="423.6" x2="149.3" y2="451.7" stroke="#222222" stroke-width="9.5" stroke-linecap="round"/>
  <circle cx="544.7" cy="246.5" r="27.5" fill="url(#x0g6)" stroke="#191919" stroke-width="5.4"/>
  <line x1="538.9" y1="270.6" x2="523.5" y2="335.6" stroke="#0e0e0e" stroke-width="13.5" stroke-linecap="round"/>
  <line x1="569.3" y1="243.4" x2="612.0" y2="238.0" stroke="#0e0e0e" stroke-width="13.5" stroke-linecap="round"/>
  <circle cx="517.1" cy="362.4" r="30.7" fill="url(#x0g0)" stroke="#191919" stroke-width="5.4"/>
  <line x1="521.0" y1="377.9" x2="512.1" y2="408.2" stroke="#030303" stroke-width="9.5" stroke-linecap="round"/>
  <line x1="505.4" y1="373.3" x2="496.5" y2="403.7" stroke="#030303" stroke-width="9.5" stroke-linecap="round" stroke-dasharray="9.5,18.9"/>
  <circle cx="398.2" cy="164.5" r="16.1" fill="url(#x0g20)" stroke="#191919" stroke-width="5.4"/>
  <line x1="383.8" y1="162.6" x2="340.6" y2="156.7" stroke="#0e0e0e" stroke-width="13.5" stroke-linecap="round"/>
  <circle cx="316.1" cy="153.3" r="27.5" fill="url(#x0g19)" stroke="#191919" stroke-width="5.4"/>
  <line x1="304.9" y1="175.4" x2="275.2" y2="233.8" stroke="#0e0e0e" stroke-width="13.5" stroke-linecap="round"/>
  <circle cx="449.5" cy="589.4" r="30.7" fill="url(#x0g3)" stroke="#191919" stroke-width="5.4"/>
  <line x1="445.7" y1="573.8" x2="454.8" y2="543.5" stroke="#030303" stroke-width="9.5" stroke-linecap="round" stroke-dasharray="9.5,18.9"/>
  <line x1="461.3" y1="578.5" x2="470.4" y2="548.1" stroke="#030303" stroke-width="9.5" stroke-linecap="round"/>
  <circle cx="262.7" cy="258.4" r="30.7" fill="url(#x0g13)" stroke="#191919" stroke-width="5.4"/>
  <line x1="263.1" y1="274.5" x2="247.7" y2="302.6" stroke="#030303" stroke-width="9.5" stroke-linecap="round" stroke-dasharray="9.5,18.9"/>
  <line x1="248.9" y1="266.7" x2="233.5" y2="294.8" stroke="#030303" stroke-width="9.5" stroke-linecap="round"/>
  <circle cx="626.4" cy="236.2" r="16.1" fill="url(#x0g7)" stroke="#191919" stroke-width="5.4"/>
  <circle cx="150.0" cy="467.7" r="30.7" fill="url(#x0g16)" stroke="#191919" stroke-width="5.4"/>
  <line x1="149.3" y1="451.7" x2="164.2" y2="423.6" stroke="#030303" stroke-width="9.5" stroke-linecap="round"/>
  <line x1="163.7" y1="459.3" x2="178.5" y2="431.2" stroke="#030303" stroke-width="9.5" stroke-linecap="round" stroke-dasharray="9.5,18.9"/>
  <path d="M 423.5 257.6 C 424.4 259.1 425.0 260.8 425.4 262.5 C 425.9 264.1 426.2 265.9 426.4 267.6 C 426.6 269.4 426.6 271.2 426.5 272.9 C 426.5 274.7 426.4 276.4 426.1 278.2 C 425.8 279.9 425.4 281.6 424.9 283.3 C 424.4 285.0 423.9 286.7 423.1 288.2 C 422.3 289.7 421.2 291.1 420.3 292.5 C 419.4 294.0 418.4 295.4 417.5 296.8 C 416.6 298.3 415.6 299.7 414.6 301.1 C 413.7 302.5 412.6 303.9 411.7 305.3 C 410.8 306.7 409.9 308.2 409.1 309.8 C 408.3 311.3 407.7 312.9 407.0 314.5 C 406.3 316.1 405.6 317.7 404.9 319.3 C 404.1 320.9 403.4 322.4 402.7 324.0 C 401.9 325.6 401.1 327.1 400.5 328.7 C 399.9 330.3 399.4 332.0 398.9 333.7 C 398.5 335.4 398.1 337.1 397.7 338.8 C 397.3 340.5 396.9 342.3 396.5 344.0 C 396.0 345.7 395.7 347.4 395.2 349.1 C 394.6 350.7 394.0 352.4 393.4 354.0 C 392.7 355.6 391.9 357.1 391.1 358.7 C 390.4 360.2 389.7 361.8 389.0 363.4 C 388.3 365.0 387.7 366.6 387.0 368.2 C 386.4 369.8 385.7 371.5 385.0 373.1 C 384.3 374.6 383.5 376.2 382.8 377.8 C 382.1 379.3 381.3 380.9 380.6 382.5 C 380.0 384.1 379.5 385.8 379.1 387.5 C 378.6 389.2 378.2 390.9 377.8 392.6 C 377.4 394.3 377.0 396.0 376.6 397.7 C 376.2 399.4 375.8 401.2 375.3 402.8 C 374.8 404.5 374.2 406.1 373.5 407.7 C 372.9 409.3 372.0 410.9 371.3 412.4 C 370.6 414.0 369.9 415.6 369.2 417.2 C 368.5 418.8 367.9 420.4 367.2 422.0 C 366.5 423.6 365.9 425.2 365.1 426.8 C 364.4 428.4 363.6 429.9 362.8 431.5 C 362.1 433.0 361.2 434.5 360.5 436.1 C 359.7 437.7 359.1 439.3 358.4 440.9 C 357.7 442.5 357.0 444.1 356.4 445.7 C 355.7 447.3 355.0 448.9 354.3 450.5 C 353.6 452.0 352.8 453.6 352.1 455.1 C 351.4 456.7 350.7 458.3 350.1 460.0 C 349.5 461.6 349.1 463.3 348.7 465.0 C 348.2 466.7 347.9 468.4 347.4 470.1 C 347.0 471.8 346.6 473.6 346.1 475.2 C 345.6 476.9 345.2 478.6 344.5 480.2 C 343.8 481.8 342.9 483.3 342.0 484.7 C 341.1 486.2 340.1 487.5 339.1 488.9 C 338.1 490.3 337.1 491.8 336.1 493.1 C 335.0 494.4 333.8 495.6 332.7 496.9 C 331.6 498.1 330.4 499.3 329.3 500.6 C 328.2 501.9 327.3 503.4 326.3 504.8 C 325.3 506.2 324.2 507.5 323.3 509.0 C 322.4 510.4 321.5 511.9 320.8 513.5 C 320.1 515.0 319.6 516.7 319.1 518.4 C 318.6 520.1 318.2 521.8 317.8 523.5 C 317.3 525.2 316.9 526.9 316.5 528.6 C 316.1 530.3 315.7 532.0 315.1 533.7 C 314.6 535.3 313.9 536.9 313.2 538.5 C 312.5 540.1 311.6 541.6 310.8 543.1 C 310.0 544.7 309.3 546.2 308.4 547.7 C 307.6 549.2 306.7 550.8 305.7 552.1 C 304.7 553.5 303.7 554.9 302.4 555.9 C 301.1 556.9 299.6 557.6 298.1 558.2 C 296.6 558.8 295.0 559.5 293.5 559.5 C 291.9 559.6 290.3 559.1 288.8 558.6 C 287.3 558.1 285.7 557.4 284.4 556.4 C 283.2 555.3 282.1 553.9 281.3 552.4 C 280.4 550.9 279.8 549.2 279.3 547.5 C 278.9 545.9 278.7 544.1 278.6 542.4 C 278.4 540.6 278.4 538.8 278.4 537.1 C 278.5 535.3 278.7 533.5 278.9 531.8 C 279.2 530.1 279.5 528.3 280.0 526.6 C 280.4 524.9 280.9 523.3 281.5 521.6 C 282.1 520.0 282.9 518.5 283.6 516.8 C 284.2 515.2 284.9 513.6 285.4 511.9 C 285.9 510.3 286.3 508.6 286.7 506.9 C 287.1 505.2 287.5 503.4 287.9 501.7 C 288.3 500.0 288.7 498.3 289.2 496.6 C 289.6 494.9 290.0 493.2 290.6 491.6 C 291.2 489.9 292.0 488.4 292.7 486.8 C 293.4 485.2 294.2 483.7 294.9 482.1 C 295.6 480.5 296.3 478.9 296.9 477.3 C 297.6 475.7 298.3 474.1 299.0 472.5 C 299.6 470.9 300.3 469.3 301.0 467.7 C 301.7 466.1 302.6 464.6 303.3 463.0 C 304.0 461.4 304.7 459.8 305.2 458.2 C 305.8 456.5 306.1 454.8 306.6 453.1 C 307.0 451.4 307.4 449.7 307.8 448.0 C 308.2 446.2 308.6 444.5 309.0 442.8 C 309.5 441.1 309.8 439.4 310.4 437.8 C 311.0 436.1 311.8 434.6 312.5 433.0 C 313.2 431.4 314.0 429.9 314.7 428.3 C 315.4 426.7 316.1 425.1 316.8 423.5 C 317.5 421.9 318.1 420.3 318.8 418.7 C 319.5 417.1 320.2 415.5 320.9 413.9 C 321.7 412.4 322.6 410.9 323.3 409.3 C 324.1 407.8 324.9 406.2 325.6 404.7 C 326.3 403.1 326.9 401.4 327.6 399.8 C 328.3 398.2 328.9 396.6 329.6 395.0 C 330.3 393.4 331.0 391.9 331.8 390.3 C 332.5 388.7 333.3 387.2 334.0 385.6 C 334.6 384.0 335.2 382.3 335.6 380.6 C 336.1 379.0 336.5 377.2 336.9 375.5 C 337.3 373.8 337.7 372.1 338.1 370.4 C 338.5 368.7 338.9 367.0 339.4 365.3 C 339.9 363.6 340.4 362.0 341.1 360.3 C 341.7 358.7 342.6 357.2 343.3 355.6 C 344.0 354.1 344.7 352.5 345.4 350.9 C 346.1 349.3 346.8 347.7 347.4 346.1 C 348.1 344.5 348.8 342.9 349.5 341.3 C 350.2 339.7 350.9 338.1 351.6 336.5 C 352.3 334.9 353.2 333.4 353.8 331.8 C 354.5 330.2 355.0 328.5 355.5 326.9 C 356.0 325.2 356.4 323.5 356.8 321.8 C 357.2 320.0 357.6 318.3 358.0 316.6 C 358.4 314.9 358.8 313.2 359.3 311.5 C 359.8 309.8 360.3 308.2 360.9 306.5 C 361.5 304.9 362.4 303.4 363.2 301.9 C 363.9 300.3 364.7 298.8 365.5 297.2 C 366.3 295.7 367.0 294.1 367.9 292.6 C 368.8 291.1 369.6 289.6 370.6 288.2 C 371.6 286.9 372.7 285.6 373.9 284.4 C 375.0 283.2 376.3 282.1 377.5 280.9 C 378.7 279.7 380.0 278.6 381.1 277.3 C 382.2 276.0 383.1 274.6 383.9 273.1 C 384.8 271.6 385.4 269.9 386.1 268.3 C 386.8 266.7 387.3 265.1 388.0 263.5 C 388.7 261.9 389.3 260.2 390.2 258.7 C 391.0 257.3 392.0 255.8 393.2 254.6 C 394.3 253.5 395.8 252.6 397.2 251.9 C 398.6 251.1 400.2 250.5 401.7 250.1 C 403.3 249.8 405.0 249.8 406.6 249.7 C 408.2 249.7 409.8 249.6 411.4 249.9 C 413.0 250.2 414.5 250.7 416.0 251.3 C 417.5 251.9 419.1 252.6 420.3 253.6 C 421.6 254.7 422.7 256.2 423.5 257.6 Z" fill="#35c42f" fill-rule="evenodd" stroke="none" opacity="1.000"/>
  <path d="M 242.7 371.4 C 243.3 373.0 243.7 374.7 244.1 376.4 C 244.5 378.1 244.9 379.9 244.9 381.6 C 245.0 383.4 244.9 385.1 244.5 386.7 C 244.0 388.4 243.1 389.9 242.2 391.4 C 241.4 392.9 240.5 394.5 239.4 395.7 C 238.3 397.0 236.9 397.9 235.5 398.8 C 234.1 399.7 232.6 400.4 231.1 401.1 C 229.6 401.8 228.2 402.6 226.6 403.1 C 225.1 403.6 223.4 403.7 221.8 404.0 C 220.2 404.2 218.6 404.9 217.0 404.7 C 215.5 404.5 214.0 403.5 212.5 402.9 C 211.0 402.3 209.4 401.7 208.0 400.9 C 206.6 400.1 205.2 399.1 203.9 398.2 C 202.5 397.2 201.3 396.0 199.9 395.1 C 198.6 394.1 197.2 393.2 195.8 392.4 C 194.4 391.5 192.9 390.8 191.4 390.0 C 190.0 389.2 188.5 388.5 187.1 387.7 C 185.6 386.9 184.2 386.0 182.8 385.1 C 181.4 384.3 180.0 383.4 178.6 382.5 C 177.2 381.6 175.8 380.7 174.4 379.8 C 173.1 378.8 171.7 377.9 170.4 376.8 C 169.2 375.7 167.8 374.7 166.8 373.3 C 165.9 371.9 165.3 370.2 164.7 368.5 C 164.0 366.9 163.3 365.3 163.0 363.6 C 162.7 361.9 162.8 360.1 162.7 358.3 C 162.7 356.5 162.5 354.7 162.7 353.0 C 162.9 351.2 163.4 349.5 164.0 347.9 C 164.5 346.2 165.1 344.5 165.9 343.0 C 166.8 341.5 167.8 340.2 169.0 339.0 C 170.2 337.8 171.6 336.9 173.0 336.0 C 174.4 335.2 175.8 334.3 177.4 333.7 C 178.9 333.1 180.5 332.9 182.1 332.6 C 183.7 332.3 185.3 331.7 186.9 331.9 C 188.4 332.0 189.9 332.8 191.5 333.4 C 193.0 333.9 194.5 334.6 196.0 335.4 C 197.4 336.1 198.8 337.1 200.1 338.0 C 201.5 339.0 202.7 340.1 204.1 341.1 C 205.4 342.1 206.8 343.0 208.2 343.9 C 209.6 344.7 211.1 345.4 212.6 346.2 C 214.0 347.0 215.5 347.7 216.9 348.5 C 218.4 349.3 219.8 350.2 221.2 351.1 C 222.6 351.9 224.0 352.8 225.4 353.7 C 226.8 354.6 228.2 355.4 229.6 356.3 C 231.0 357.2 232.4 358.2 233.7 359.2 C 235.0 360.2 236.4 361.2 237.5 362.5 C 238.6 363.7 239.4 365.3 240.3 366.8 C 241.2 368.3 242.0 369.8 242.7 371.4 Z" fill="#761805" fill-rule="evenodd" stroke="none" opacity="1.000"/>
  <path d="M 520.4 483.5 C 520.9 485.2 521.5 486.9 521.7 488.6 C 521.8 490.3 521.5 492.0 521.2 493.7 C 520.8 495.4 520.2 497.1 519.5 498.6 C 518.7 500.2 517.8 501.6 516.7 502.8 C 515.6 504.1 514.2 505.0 512.8 505.9 C 511.4 506.8 510.0 507.7 508.5 508.3 C 507.0 509.0 505.5 509.3 503.9 509.7 C 502.4 510.1 500.8 510.7 499.2 510.8 C 497.6 510.9 496.0 510.6 494.4 510.4 C 492.9 510.2 491.3 509.8 489.7 509.5 C 488.1 509.2 486.5 508.8 485.0 508.5 C 483.4 508.1 481.8 507.8 480.3 507.4 C 478.7 507.0 477.1 506.7 475.5 506.3 C 474.0 506.0 472.4 505.6 470.8 505.2 C 469.3 504.8 467.7 504.4 466.1 504.1 C 464.6 503.7 463.0 503.2 461.4 502.8 C 459.9 502.4 458.3 502.0 456.7 501.7 C 455.2 501.4 453.5 501.3 452.0 500.9 C 450.4 500.5 448.8 500.1 447.4 499.5 C 445.9 498.8 444.6 497.8 443.2 496.8 C 441.9 495.9 440.5 494.9 439.4 493.6 C 438.3 492.4 437.2 491.0 436.5 489.5 C 435.7 488.0 435.5 486.2 435.1 484.5 C 434.6 482.8 434.1 481.1 433.9 479.4 C 433.7 477.6 433.9 475.8 433.9 474.1 C 433.9 472.3 433.8 470.5 434.0 468.8 C 434.3 467.1 434.9 465.4 435.6 463.8 C 436.2 462.2 436.8 460.5 437.8 459.2 C 438.8 457.8 440.1 456.7 441.4 455.8 C 442.7 454.8 444.2 454.1 445.7 453.5 C 447.2 452.9 448.8 452.6 450.4 452.3 C 452.0 452.0 453.6 452.0 455.2 451.9 C 456.8 451.9 458.4 451.8 460.0 451.8 C 461.6 451.8 463.2 451.9 464.8 452.0 C 466.4 452.1 468.0 452.1 469.6 452.3 C 471.2 452.5 472.8 452.9 474.4 453.2 C 476.0 453.5 477.5 453.8 479.1 454.2 C 480.7 454.5 482.3 454.9 483.8 455.2 C 485.4 455.6 487.0 456.1 488.5 456.3 C 490.1 456.6 491.7 456.5 493.3 456.7 C 494.9 456.8 496.6 456.7 498.1 457.1 C 499.7 457.6 501.1 458.5 502.5 459.3 C 503.9 460.2 505.2 461.2 506.4 462.4 C 507.6 463.5 508.6 464.9 509.6 466.3 C 510.6 467.6 511.5 469.1 512.5 470.5 C 513.5 471.8 514.6 473.2 515.6 474.5 C 516.6 475.9 517.8 477.2 518.6 478.7 C 519.3 480.2 519.9 481.9 520.4 483.5 Z" fill="#761805" fill-rule="evenodd" stroke="none" opacity="1.000"/>
  <path d="M 472.0 187.1 C 472.6 188.7 473.3 190.4 473.6 192.1 C 474.0 193.8 474.1 195.6 474.2 197.3 C 474.4 199.1 474.5 200.9 474.5 202.7 C 474.6 204.4 474.4 206.2 474.4 208.0 C 474.3 209.7 474.3 211.6 474.1 213.3 C 473.8 215.0 473.3 216.7 472.8 218.4 C 472.2 220.1 471.6 221.8 470.8 223.3 C 470.0 224.7 469.0 226.2 467.8 227.4 C 466.7 228.6 465.2 229.5 463.9 230.5 C 462.6 231.5 461.2 232.4 459.8 233.3 C 458.3 234.2 456.9 235.0 455.4 235.8 C 454.0 236.6 452.6 237.6 451.1 238.2 C 449.6 238.9 448.1 239.3 446.5 239.7 C 444.9 240.1 443.3 240.4 441.7 240.5 C 440.1 240.5 438.5 240.4 436.9 240.0 C 435.4 239.6 433.8 238.8 432.5 238.0 C 431.1 237.1 429.7 236.1 428.7 234.8 C 427.7 233.5 427.0 231.7 426.4 230.1 C 425.7 228.5 425.1 226.8 424.8 225.1 C 424.5 223.3 424.7 221.5 424.7 219.8 C 424.6 218.0 424.4 216.2 424.6 214.4 C 424.8 212.7 425.3 211.0 425.7 209.2 C 426.1 207.5 426.3 205.7 427.0 204.1 C 427.6 202.5 428.7 201.1 429.6 199.6 C 430.5 198.2 431.5 196.8 432.5 195.4 C 433.5 194.0 434.5 192.6 435.6 191.3 C 436.7 190.0 437.9 188.7 439.1 187.6 C 440.3 186.4 441.7 185.4 443.0 184.3 C 444.3 183.3 445.5 182.1 446.9 181.2 C 448.3 180.3 449.7 179.5 451.2 179.0 C 452.7 178.5 454.4 178.2 456.0 178.0 C 457.6 177.9 459.2 177.7 460.8 177.9 C 462.3 178.2 463.9 179.0 465.3 179.8 C 466.8 180.5 468.3 181.3 469.4 182.5 C 470.5 183.8 471.3 185.5 472.0 187.1 Z" fill="#27804c" fill-rule="evenodd" stroke="none" opacity="1.000"/>
  <circle cx="177.8" cy="415.2" r="30.7" fill="url(#x0g15)" stroke="#000000" stroke-width="5.4"/>
  <line x1="183.8" y1="387.0" x2="213.7" y2="331.4" stroke="#000000" stroke-width="9.5" stroke-linecap="round"/>
  <line x1="198.1" y1="394.7" x2="228.0" y2="339.0" stroke="#000000" stroke-width="9.5" stroke-linecap="round" stroke-dasharray="9.5,18.9"/>
  <circle cx="466.5" cy="532.6" r="30.7" fill="url(#x0g2)" stroke="#000000" stroke-width="5.4"/>
  <line x1="466.7" y1="503.8" x2="484.8" y2="443.2" stroke="#000000" stroke-width="9.5" stroke-linecap="round" stroke-dasharray="9.5,18.9"/>
  <line x1="482.2" y1="508.5" x2="500.3" y2="447.9" stroke="#000000" stroke-width="9.5" stroke-linecap="round"/>
  <circle cx="233.9" cy="310.9" r="30.7" fill="url(#x0g14)" stroke="#000000" stroke-width="5.4"/>
  <circle cx="500.5" cy="419.1" r="30.7" fill="url(#x0g1)" stroke="#000000" stroke-width="5.4"/>
</svg>