<svg xmlns="http://www.w3.org/2000/svg" xmlns:xlink="http://www.w3.org/1999/xlink" viewBox="0 0 741 800" width="741" height="800">
  <rect width="100%" height="100%" fill="#ffffff"/>
  <defs>
    <radialGradient id="x0g0" cx=".5" cy=".5" fx=".33" fy=".33" r=".66"><stop offset="0%" stop-color="#bbbbbb"/><stop offset="40%" stop-color="#b0b0b0"/><stop offset="100%" stop-color="#755b61"/></radialGradient>
    <radialGradient id="x0g1" cx=".5" cy=".5" fx=".33" fy=".33" r=".66"><stop offset="0%" stop-color="#b6b6b6"/><stop offset="40%" stop-color="#aaaaaa"/><stop offset="100%" stop-color="#6b4f55"/></radialGradient>
    <radialGradient id="x0g2" cx=".5" cy=".5" fx=".33" fy=".33" r=".66"><stop offset="0%" stop-color="#b6b6b6"/><stop offset="40%" stop-color="#aaaaaa"/><stop offset="100%" stop-color="#6b4f55"/></radialGradient>
    <radialGradient id="x0g3" cx=".5" cy=".5" fx=".33" fy=".33" r=".66"><stop offset="0%" stop-color="#bbbbbb"/><stop offset="40%" stop-color="#b0b0b0"/><stop offset="100%" stop-color="#755b61"/></radialGradient>
    <radialGradient id="x0g4" cx=".5" cy=".5" fx=".33" fy=".33" r=".66"><stop offset="0%" stop-color="#cbcbcb"/><stop offset="40%" stop-color="#c3c3c3"/><stop offset="100%" stop-color="#978388"/></radialGradient>
    <radialGradient id="x0g5" cx=".5" cy=".5" fx=".33" fy=".33" r=".66"><stop offset="0%" stop-color="#cccccc"/><stop offset="40%" stop-color="#c3c3c3"/><stop offset="100%" stop-color="#978488"/></radialGradient>
    <radialGradient id="x0g6" cx=".5" cy=".5" fx=".33" fy=".33" r=".66"><stop offset="0%" stop-color="#f05e4d"/><stop offset="40%" stop-color="#ff1e1e"/><stop offset="100%" stop-color="#9a122d"/></radialGradient>
    <radialGradient id="x0g7" cx=".5" cy=".5" fx=".33" fy=".33" r=".66"><stop offset="0%" stop-color="#ffffff"/><stop offset="40%" stop-color="#ffffff"/><stop offset="100%" stop-color="#a38489"/></radialGradient>
    <radialGradient id="x0g13" cx=".5" cy=".5" fx=".33" fy=".33" r=".66"><stop offset="0%" stop-color="#bbbbbb"/><stop offset="40%" stop-color="#b0b0b0"/><stop offset="100%" stop-color="#755b61"/></radialGradient>
    <radialGradient id="x0g14" cx=".5" cy=".5" fx=".33" fy=".33" r=".66"><stop offset="0%" stop-color="#b6b6b6"/><stop offset="40%" stop-color="#aaaaaa"/><stop offset="100%" stop-color="#6b4f55"/></radialGradient>
    <radialGradient id="x0g15" cx=".5" cy=".5" fx=".33" fy=".33" r=".66"><stop offset="0%" stop-color="#b6b6b6"/><stop offset="40%" stop-color="#aaaaaa"/><stop offset="100%" stop-color="#6b4f55"/></radialGradient>
    <radialGradient id="x0g16" cx=".5" cy=".5" fx=".33" fy=".33" r=".66"><stop offset="0%" stop-color="#bbbbbb"/><stop offset="40%" stop-color="#b0b0b0"/><stop offset="100%" stop-color="#755b61"/></radialGradient>
    <radialGradient id="x0g17" cx=".5" cy=".5" fx=".33" fy=".33" r=".66"><stop offset="0%" stop-color="#cbcbcb"/><stop offset="40%" stop-color="#c3c3c3"/><stop offset="100%" stop-color="#978388"/></radialGradient>
    <radialGradient id="x0g18" cx=".5" cy=".5" fx=".33" fy=".33" r=".66"><stop offset="0%" stop-color="#cccccc"/><stop offset="40%" stop-color="#c3c3c3"/><stop offset="100%" stop-color="#978488"/></radialGradient>
    <radialGradient id="x0g19" cx=".5" cy=".5" fx=".33" fy=".33" r=".66"><stop offset="0%" stop-color="#f05e4d"/><stop offset="40%" stop-color="#ff1e1e"/><stop offset="100%" stop-color="#9a122d"/></radialGradient>
    <radialGradient id="x0g20" cx=".5" cy=".5" fx=".33" fy=".33" r=".66"><stop offset="0%" stop-color="#ffffff"/><stop offset="40%" stop-color="#ffffff"/><stop offset="100%" stop-color="#a38489"/></radialGradient>
  </defs>
  <path d="M 476.3 544.4 C 476.8 545.7 477.0 547.1 477.3 548.4 C 477.6 549.7 477.9 551.1 478.1 552.4 C 478.3 553.8 478.3 555.1 478.3 556.5 C 478.3 557.9 478.4 559.3 478.3 560.6 C 478.2 562.0 477.9 563.3 477.7 564.7 C 477.4 566.0 477.1 567.4 476.7 568.7 C 476.3 569.9 475.7 571.2 475.0 572.3 C 474.3 573.4 473.4 574.4 472.6 575.4 C 471.7 576.4 470.8 577.4 469.8 578.3 C 468.9 579.2 467.9 580.1 466.7 580.7 C 465.6 581.3 464.4 581.6 463.2 582.0 C 461.9 582.4 460.7 582.7 459.5 583.0 C 458.2 583.2 457.0 583.2 455.7 583.3 C 454.4 583.4 453.2 583.5 451.9 583.5 C 450.6 583.5 449.4 583.5 448.1 583.4 C 446.8 583.4 445.6 583.4 444.3 583.2 C 443.1 583.1 441.8 582.9 440.6 582.6 C 439.3 582.3 438.1 582.0 436.9 581.5 C 435.7 581.0 434.6 580.5 433.5 579.7 C 432.5 579.0 431.5 578.0 430.6 577.1 C 429.7 576.2 428.8 575.2 427.9 574.2 C 427.1 573.1 426.3 572.0 425.7 570.8 C 425.2 569.6 424.8 568.3 424.5 567.0 C 424.1 565.7 423.8 564.3 423.6 563.0 C 423.4 561.6 423.3 560.3 423.2 558.9 C 423.1 557.5 423.1 556.1 423.1 554.8 C 423.0 553.4 423.1 552.0 423.2 550.7 C 423.2 549.3 423.2 547.9 423.4 546.6 C 423.6 545.2 423.8 543.9 424.2 542.6 C 424.6 541.3 425.1 540.0 425.7 538.8 C 426.3 537.6 426.9 536.4 427.8 535.4 C 428.6 534.4 429.7 533.6 430.8 532.8 C 431.8 532.0 432.9 531.3 434.0 530.6 C 435.1 529.9 436.2 529.3 437.3 528.7 C 438.4 528.0 439.5 527.3 440.7 526.7 C 441.8 526.2 443.0 525.6 444.2 525.2 C 445.4 524.8 446.6 524.6 447.9 524.3 C 449.1 524.0 450.3 523.7 451.6 523.6 C 452.9 523.5 454.1 523.7 455.4 523.7 C 456.7 523.8 457.9 523.8 459.2 524.0 C 460.4 524.3 461.6 524.9 462.8 525.4 C 463.9 525.9 465.2 526.4 466.2 527.2 C 467.2 528.0 468.0 529.1 468.8 530.1 C 469.6 531.2 470.3 532.4 470.9 533.5 C 471.6 534.7 472.2 535.9 472.8 537.1 C 473.4 538.3 474.0 539.5 474.6 540.7 C 475.2 542.0 475.9 543.2 476.3 544.4 Z" fill="#1e3f62" fill-rule="evenodd" stroke="none" opacity="1.000"/>
  <path d="M 522.2 387.0 C 522.6 388.3 522.8 389.7 523.0 391.1 C 523.3 392.4 523.6 393.8 523.7 395.1 C 523.7 396.5 523.5 397.8 523.3 399.2 C 523.1 400.5 522.9 401.9 522.6 403.3 C 522.2 404.6 521.7 405.8 521.2 407.1 C 520.6 408.3 520.0 409.5 519.4 410.7 C 518.8 411.9 518.2 413.2 517.6 414.4 C 516.9 415.5 516.3 416.7 515.5 417.8 C 514.8 419.0 514.0 420.1 513.1 421.0 C 512.2 421.9 511.0 422.6 509.9 423.3 C 508.8 423.9 507.6 424.4 506.4 424.8 C 505.2 425.2 503.9 425.4 502.7 425.6 C 501.4 425.8 500.1 425.8 498.9 425.9 C 497.6 426.0 496.3 426.0 495.1 426.0 C 493.8 426.1 492.5 426.0 491.3 426.0 C 490.0 426.0 488.7 426.0 487.4 425.9 C 486.2 425.9 484.9 425.8 483.6 425.6 C 482.4 425.5 481.1 425.3 479.9 425.0 C 478.7 424.6 477.5 424.1 476.3 423.5 C 475.2 422.9 474.1 422.1 473.2 421.2 C 472.3 420.2 471.7 419.0 471.1 417.7 C 470.6 416.5 470.1 415.2 469.8 413.9 C 469.5 412.6 469.4 411.2 469.2 409.8 C 469.1 408.4 469.0 407.1 469.0 405.7 C 468.9 404.3 469.0 402.9 469.0 401.6 C 469.0 400.2 469.0 398.8 469.1 397.4 C 469.3 396.1 469.5 394.7 469.7 393.3 C 469.9 392.0 470.2 390.6 470.6 389.3 C 470.9 388.0 471.3 386.7 471.8 385.5 C 472.4 384.2 473.0 383.0 473.6 381.8 C 474.2 380.6 474.8 379.4 475.4 378.2 C 476.1 377.0 476.7 375.8 477.4 374.6 C 478.1 373.5 478.8 372.3 479.7 371.3 C 480.6 370.4 481.6 369.6 482.7 368.9 C 483.8 368.2 485.0 367.7 486.2 367.2 C 487.4 366.8 488.6 366.4 489.9 366.2 C 491.1 366.0 492.4 366.0 493.7 365.9 C 495.0 365.9 496.2 365.8 497.5 365.8 C 498.8 365.8 500.0 365.9 501.3 366.0 C 502.6 366.1 503.8 366.2 505.1 366.5 C 506.3 366.8 507.5 367.3 508.7 367.8 C 509.8 368.4 511.1 368.9 512.1 369.7 C 513.1 370.5 513.9 371.6 514.7 372.7 C 515.5 373.7 516.2 374.9 516.9 376.1 C 517.5 377.2 518.1 378.4 518.8 379.7 C 519.4 380.9 520.0 382.1 520.5 383.3 C 521.1 384.5 521.8 385.7 522.2 387.0 Z" fill="#1e3f62" fill-rule="evenodd" stroke="none" opacity="1.000"/>
  <path d="M 292.7 291.6 C 293.2 292.9 293.8 294.2 293.9 295.6 C 294.1 296.9 293.8 298.3 293.7 299.7 C 293.5 301.1 293.4 302.5 293.1 303.8 C 292.7 305.1 292.1 306.4 291.6 307.7 C 291.1 308.9 290.4 310.1 289.9 311.4 C 289.3 312.6 288.8 313.9 288.2 315.1 C 287.7 316.4 287.1 317.7 286.5 318.9 C 285.9 320.1 285.4 321.4 284.7 322.5 C 283.9 323.7 283.1 324.7 282.2 325.7 C 281.4 326.8 280.4 327.7 279.4 328.6 C 278.5 329.5 277.5 330.5 276.4 331.2 C 275.3 331.9 274.1 332.3 272.9 332.7 C 271.7 333.1 270.4 333.5 269.1 333.6 C 267.9 333.8 266.6 333.7 265.3 333.6 C 264.1 333.5 262.8 333.2 261.6 332.9 C 260.3 332.6 259.1 332.2 257.9 331.6 C 256.7 331.1 255.6 330.4 254.5 329.7 C 253.4 329.1 252.2 328.4 251.1 327.8 C 250.0 327.1 248.9 326.4 247.8 325.6 C 246.7 324.9 245.6 324.2 244.6 323.3 C 243.6 322.4 242.8 321.4 242.0 320.3 C 241.2 319.2 240.5 318.0 239.8 316.8 C 239.2 315.6 238.5 314.4 237.9 313.2 C 237.3 312.0 236.7 310.7 236.1 309.5 C 235.5 308.3 234.8 307.1 234.4 305.8 C 233.9 304.5 233.6 303.1 233.4 301.8 C 233.1 300.4 232.8 299.1 232.7 297.7 C 232.6 296.3 232.7 294.9 232.9 293.6 C 233.1 292.2 233.3 290.8 233.7 289.5 C 234.1 288.2 234.6 286.9 235.3 285.7 C 236.0 284.6 236.9 283.6 237.8 282.6 C 238.7 281.5 239.6 280.5 240.5 279.6 C 241.5 278.8 242.6 277.9 243.7 277.3 C 244.8 276.7 246.1 276.4 247.3 276.0 C 248.6 275.6 249.8 275.3 251.1 275.1 C 252.4 274.9 253.6 274.9 254.9 274.9 C 256.2 274.9 257.5 274.8 258.8 274.9 C 260.0 275.0 261.3 275.3 262.6 275.6 C 263.8 275.9 265.1 276.1 266.3 276.5 C 267.5 276.9 268.7 277.5 269.9 278.0 C 271.1 278.6 272.2 279.3 273.4 279.8 C 274.5 280.4 275.8 280.8 277.0 281.3 C 278.2 281.7 279.4 282.1 280.6 282.5 C 281.9 282.9 283.1 283.3 284.3 283.8 C 285.5 284.3 286.7 284.9 287.8 285.6 C 288.9 286.2 290.1 287.0 290.9 288.0 C 291.7 289.0 292.2 290.4 292.7 291.6 Z" fill="#1e3f62" fill-rule="evenodd" stroke="none" opacity="1.000"/>
  <path d="M 216.2 440.7 C 216.7 441.9 217.3 443.2 217.4 444.6 C 217.6 445.9 217.4 447.2 217.2 448.6 C 217.1 449.9 216.9 451.3 216.5 452.6 C 216.1 453.9 215.5 455.1 214.9 456.3 C 214.3 457.5 213.4 458.5 212.7 459.6 C 211.9 460.7 211.2 461.9 210.4 462.9 C 209.5 463.9 208.7 464.9 207.7 465.9 C 206.8 466.8 205.8 467.6 204.8 468.5 C 203.8 469.3 202.8 470.2 201.8 471.0 C 200.8 471.8 199.7 472.6 198.6 473.2 C 197.5 473.7 196.2 474.0 194.9 474.3 C 193.7 474.6 192.5 475.1 191.3 475.2 C 190.0 475.4 188.7 475.3 187.5 475.4 C 186.2 475.4 184.9 475.5 183.7 475.4 C 182.4 475.3 181.2 475.0 179.9 474.7 C 178.7 474.4 177.4 474.2 176.2 473.8 C 175.0 473.3 173.9 472.8 172.7 472.2 C 171.6 471.6 170.5 470.9 169.4 470.3 C 168.3 469.6 167.1 469.0 166.1 468.3 C 165.0 467.6 163.9 466.9 162.9 466.1 C 161.8 465.3 160.7 464.5 159.9 463.5 C 159.1 462.5 158.4 461.3 157.8 460.1 C 157.2 458.9 156.7 457.6 156.4 456.3 C 156.0 455.0 155.8 453.7 155.6 452.3 C 155.4 451.0 155.4 449.6 155.4 448.2 C 155.3 446.8 155.3 445.5 155.3 444.1 C 155.3 442.7 155.4 441.3 155.6 440.0 C 155.7 438.6 155.8 437.3 156.1 435.9 C 156.5 434.6 157.0 433.3 157.5 432.1 C 158.1 430.9 158.7 429.6 159.6 428.7 C 160.4 427.7 161.6 427.0 162.7 426.4 C 163.8 425.7 165.0 425.2 166.2 424.7 C 167.3 424.2 168.6 423.8 169.8 423.4 C 171.0 423.0 172.2 422.7 173.4 422.2 C 174.6 421.8 175.8 421.3 177.0 420.8 C 178.1 420.3 179.2 419.6 180.4 419.0 C 181.6 418.5 182.7 418.0 183.9 417.6 C 185.2 417.3 186.4 417.1 187.7 417.0 C 188.9 416.8 190.2 416.5 191.4 416.7 C 192.7 416.8 193.9 417.4 195.1 417.9 C 196.2 418.4 197.5 418.8 198.5 419.6 C 199.6 420.3 200.4 421.4 201.3 422.4 C 202.2 423.4 203.0 424.4 203.8 425.5 C 204.6 426.5 205.4 427.6 206.3 428.5 C 207.2 429.5 208.2 430.4 209.1 431.3 C 210.1 432.2 211.1 433.1 212.0 434.0 C 212.9 435.0 213.9 435.9 214.6 437.0 C 215.3 438.1 215.8 439.4 216.2 440.7 Z" fill="#1e3f62" fill-rule="evenodd" stroke="none" opacity="1.000"/>
  <circle cx="493.7" cy="421.7" r="27.8" fill="url(#x0g5)" stroke="#6e6e6e" stroke-width="4.9"/>
  <line x1="493.6" y1="447.7" x2="477.2" y2="502.6" stroke="#3d3d3d" stroke-width="8.6" stroke-linecap="round"/>
  <line x1="479.5" y1="443.5" x2="463.1" y2="498.4" stroke="#3d3d3d" stroke-width="8.6" stroke-linecap="round" stroke-dasharray="8.6,17.1"/>
  <line x1="490.2" y1="407.7" x2="498.2" y2="380.2" stroke="#222222" stroke-width="8.6" stroke-linecap="round" stroke-dasharray="8.6,17.1"/>
  <line x1="504.3" y1="411.8" x2="512.3" y2="384.4" stroke="#222222" stroke-width="8.6" stroke-linecap="round"/>
  <circle cx="252.4" cy="323.7" r="27.8" fill="url(#x0g18)" stroke="#6d6d6d" stroke-width="4.9"/>
  <line x1="247.0" y1="349.2" x2="219.9" y2="399.6" stroke="#3d3d3d" stroke-width="8.6" stroke-linecap="round" stroke-dasharray="8.6,17.1"/>
  <line x1="234.1" y1="342.3" x2="207.0" y2="392.6" stroke="#3d3d3d" stroke-width="8.6" stroke-linecap="round"/>
  <line x1="252.0" y1="309.2" x2="266.0" y2="283.7" stroke="#222222" stroke-width="8.6" stroke-linecap="round"/>
  <line x1="264.9" y1="316.2" x2="278.8" y2="290.7" stroke="#222222" stroke-width="8.6" stroke-linecap="round" stroke-dasharray="8.6,17.1"/>
  <circle cx="463.0" cy="524.4" r="27.8" fill="url(#x0g4)" stroke="#6d6d6d" stroke-width="4.9"/>
  <line x1="466.5" y1="538.5" x2="458.3" y2="566.0" stroke="#222222" stroke-width="8.6" stroke-linecap="round"/>
  <line x1="452.4" y1="534.3" x2="444.2" y2="561.8" stroke="#222222" stroke-width="8.6" stroke-linecap="round" stroke-dasharray="8.6,17.1"/>
  <circle cx="201.6" cy="418.1" r="27.8" fill="url(#x0g17)" stroke="#6d6d6d" stroke-width="4.9"/>
  <line x1="202.2" y1="432.6" x2="188.8" y2="458.1" stroke="#222222" stroke-width="8.6" stroke-linecap="round" stroke-dasharray="8.6,17.1"/>
  <line x1="189.3" y1="425.8" x2="175.8" y2="451.2" stroke="#222222" stroke-width="8.6" stroke-linecap="round"/>
  <path d="M 496.7 475.9 C 497.3 477.1 498.0 478.3 498.2 479.6 C 498.3 480.9 497.8 482.4 497.6 483.7 C 497.3 485.0 497.2 486.5 496.5 487.6 C 495.9 488.7 494.7 489.6 493.7 490.4 C 492.7 491.3 491.6 492.1 490.5 492.8 C 489.4 493.5 488.3 494.1 487.1 494.7 C 486.0 495.4 484.8 496.1 483.6 496.5 C 482.5 497.0 481.2 497.3 480.0 497.5 C 478.7 497.7 477.4 497.6 476.1 497.5 C 474.9 497.4 473.6 497.3 472.4 496.9 C 471.2 496.5 470.1 495.7 468.9 495.1 C 467.7 494.6 466.5 494.0 465.4 493.5 C 464.2 492.9 463.1 492.3 461.9 491.7 C 460.8 491.0 459.6 490.5 458.5 489.8 C 457.4 489.1 456.3 488.3 455.4 487.3 C 454.4 486.4 453.6 485.3 452.8 484.2 C 451.9 483.2 451.0 482.1 450.4 481.0 C 449.8 479.8 449.2 478.6 449.0 477.3 C 448.8 476.0 448.9 474.5 449.0 473.1 C 449.1 471.8 449.2 470.4 449.7 469.1 C 450.2 467.9 451.1 466.9 452.0 465.8 C 452.8 464.7 453.6 463.6 454.6 462.7 C 455.5 461.8 456.5 460.9 457.6 460.2 C 458.7 459.6 460.0 459.2 461.2 458.8 C 462.4 458.4 463.7 458.0 464.9 457.8 C 466.2 457.6 467.5 457.6 468.8 457.5 C 470.0 457.5 471.3 457.4 472.6 457.5 C 473.9 457.6 475.1 457.9 476.4 458.2 C 477.6 458.5 478.9 458.8 480.1 459.2 C 481.3 459.7 482.4 460.3 483.5 461.1 C 484.6 461.8 485.6 462.7 486.6 463.5 C 487.6 464.4 488.7 465.2 489.6 466.1 C 490.6 467.0 491.5 468.0 492.4 469.0 C 493.2 470.1 493.9 471.2 494.6 472.4 C 495.4 473.5 496.1 474.7 496.7 475.9 Z" fill="#1c3566" fill-rule="evenodd" stroke="none" opacity="1.000"/>
  <path d="M 246.8 371.6 C 247.3 372.9 247.4 374.3 247.7 375.7 C 247.9 377.0 248.3 378.4 248.2 379.8 C 248.2 381.1 247.7 382.5 247.4 383.8 C 247.1 385.2 246.9 386.6 246.3 387.8 C 245.7 389.0 244.8 390.0 243.8 390.9 C 242.9 391.9 241.7 392.6 240.6 393.2 C 239.5 393.9 238.3 394.7 237.1 394.9 C 235.9 395.1 234.6 394.8 233.3 394.7 C 232.0 394.6 230.8 394.4 229.5 394.2 C 228.2 394.0 227.0 393.7 225.7 393.4 C 224.5 393.1 223.2 392.9 222.0 392.5 C 220.7 392.2 219.5 391.8 218.2 391.4 C 217.0 391.1 215.7 390.8 214.6 390.2 C 213.4 389.7 212.3 389.0 211.2 388.2 C 210.2 387.5 209.2 386.5 208.2 385.6 C 207.2 384.8 206.2 383.9 205.3 382.9 C 204.3 382.0 203.4 381.0 202.7 379.9 C 202.0 378.8 201.5 377.4 201.1 376.1 C 200.6 374.9 199.9 373.6 199.7 372.2 C 199.5 370.9 199.8 369.6 200.1 368.3 C 200.4 367.0 201.0 365.7 201.6 364.5 C 202.1 363.2 202.8 362.0 203.6 361.0 C 204.4 359.9 205.5 359.1 206.5 358.3 C 207.6 357.6 208.8 357.1 210.0 356.5 C 211.2 356.0 212.4 355.2 213.6 355.0 C 214.8 354.9 216.1 355.4 217.4 355.5 C 218.7 355.7 220.0 355.8 221.2 356.0 C 222.5 356.2 223.7 356.6 225.0 356.9 C 226.2 357.2 227.5 357.4 228.7 357.7 C 230.0 358.1 231.2 358.4 232.4 358.8 C 233.7 359.2 235.0 359.5 236.1 360.1 C 237.3 360.7 238.4 361.4 239.4 362.2 C 240.4 363.0 241.3 364.1 242.2 365.0 C 243.1 366.0 244.1 367.0 244.8 368.1 C 245.6 369.2 246.4 370.3 246.8 371.6 Z" fill="#1d3665" fill-rule="evenodd" stroke="none" opacity="1.000"/>
  <path d="M 522.2 396.2 C 522.7 397.5 522.8 398.9 523.0 400.3 C 523.3 401.6 523.7 403.0 523.7 404.4 C 523.7 405.7 523.3 407.1 523.0 408.5 C 522.7 409.8 522.6 411.3 522.1 412.5 C 521.6 413.8 520.8 414.9 520.0 416.0 C 519.2 417.1 518.2 418.1 517.3 419.0 C 516.4 420.0 515.5 421.0 514.4 421.8 C 513.4 422.6 512.2 423.2 511.1 423.7 C 509.9 424.2 508.6 424.5 507.3 424.8 C 506.1 425.1 504.8 425.4 503.5 425.5 C 502.3 425.6 501.0 425.5 499.7 425.5 C 498.4 425.5 497.1 425.5 495.9 425.3 C 494.6 425.1 493.4 424.7 492.1 424.3 C 490.9 423.9 489.6 423.6 488.5 423.0 C 487.3 422.4 486.3 421.5 485.3 420.7 C 484.2 419.9 483.2 419.0 482.2 418.2 C 481.2 417.3 480.2 416.4 479.3 415.5 C 478.3 414.5 477.5 413.5 476.7 412.4 C 475.9 411.3 475.1 410.2 474.4 409.0 C 473.6 407.9 472.7 406.8 472.2 405.6 C 471.6 404.4 471.1 403.1 470.8 401.8 C 470.4 400.5 470.1 399.1 470.0 397.7 C 469.9 396.3 469.9 394.9 470.0 393.6 C 470.2 392.2 470.5 390.8 470.8 389.5 C 471.2 388.2 471.7 386.9 472.3 385.7 C 473.0 384.5 473.9 383.5 474.8 382.5 C 475.6 381.4 476.5 380.4 477.5 379.5 C 478.5 378.6 479.5 377.7 480.6 377.1 C 481.7 376.5 483.0 376.1 484.2 375.7 C 485.4 375.3 486.7 374.9 488.0 374.7 C 489.2 374.5 490.5 374.5 491.8 374.5 C 493.1 374.4 494.4 374.4 495.6 374.5 C 496.9 374.6 498.2 374.9 499.4 375.2 C 500.7 375.5 502.0 375.8 503.2 376.2 C 504.3 376.7 505.5 377.4 506.6 378.1 C 507.7 378.8 508.6 379.7 509.7 380.6 C 510.7 381.4 511.7 382.2 512.7 383.1 C 513.7 384.1 514.6 385.0 515.5 386.0 C 516.3 387.1 517.1 388.2 517.9 389.3 C 518.7 390.4 519.5 391.5 520.2 392.6 C 520.9 393.8 521.7 394.9 522.2 396.2 Z" fill="#1c3566" fill-rule="evenodd" stroke="none" opacity="1.000"/>
  <path d="M 290.2 302.6 C 290.4 303.9 290.6 305.3 290.6 306.6 C 290.6 308.0 290.6 309.4 290.4 310.7 C 290.2 312.1 290.0 313.4 289.5 314.7 C 289.1 315.9 288.3 317.1 287.6 318.2 C 287.0 319.4 286.3 320.6 285.4 321.6 C 284.6 322.6 283.5 323.4 282.5 324.1 C 281.4 324.9 280.2 325.5 279.1 326.1 C 278.0 326.7 276.8 327.3 275.7 327.9 C 274.5 328.5 273.4 329.0 272.2 329.6 C 271.1 330.1 269.9 330.9 268.7 331.3 C 267.6 331.7 266.3 331.8 265.1 331.9 C 263.8 332.1 262.5 332.1 261.3 331.9 C 260.0 331.8 258.8 331.5 257.6 331.1 C 256.4 330.6 255.3 329.9 254.1 329.4 C 253.0 328.8 251.8 328.3 250.7 327.7 C 249.5 327.1 248.4 326.5 247.2 325.9 C 246.1 325.3 244.9 324.8 243.9 324.0 C 242.8 323.3 241.8 322.5 240.8 321.6 C 239.9 320.7 239.0 319.7 238.2 318.6 C 237.3 317.6 236.4 316.6 235.7 315.5 C 235.0 314.4 234.3 313.2 233.9 311.9 C 233.4 310.7 233.3 309.3 233.1 307.9 C 232.8 306.6 232.5 305.2 232.6 303.9 C 232.6 302.5 233.1 301.2 233.4 299.8 C 233.7 298.5 233.8 297.1 234.4 295.9 C 234.9 294.7 235.8 293.6 236.6 292.5 C 237.4 291.5 238.3 290.5 239.1 289.5 C 240.0 288.5 240.9 287.6 241.9 286.7 C 242.9 285.9 244.0 285.2 245.1 284.5 C 246.2 283.8 247.4 283.3 248.5 282.7 C 249.7 282.1 250.8 281.5 252.0 280.9 C 253.1 280.4 254.3 279.8 255.5 279.3 C 256.6 278.8 257.8 278.0 259.0 277.7 C 260.2 277.4 261.5 277.5 262.7 277.5 C 264.0 277.5 265.3 277.3 266.5 277.7 C 267.7 278.0 268.8 278.7 269.9 279.4 C 271.0 280.0 272.0 280.9 273.1 281.6 C 274.1 282.4 275.2 283.1 276.2 283.9 C 277.2 284.8 278.2 285.6 279.2 286.5 C 280.2 287.4 281.1 288.4 282.0 289.3 C 283.0 290.2 284.0 291.0 284.9 292.0 C 285.8 292.9 286.8 293.8 287.5 294.9 C 288.2 296.1 288.7 297.3 289.2 298.6 C 289.6 299.9 289.9 301.2 290.2 302.6 Z" fill="#1d3665" fill-rule="evenodd" stroke="none" opacity="1.000"/>
  <path d="M 478.9 543.3 C 479.4 544.5 479.7 545.9 480.0 547.2 C 480.3 548.5 480.6 549.9 480.7 551.2 C 480.8 552.6 480.7 553.9 480.4 555.2 C 480.1 556.5 479.5 557.7 479.0 559.0 C 478.5 560.2 478.0 561.5 477.2 562.6 C 476.5 563.7 475.6 564.7 474.8 565.7 C 473.9 566.7 473.0 567.6 472.1 568.6 C 471.2 569.6 470.3 570.6 469.4 571.5 C 468.5 572.4 467.5 573.4 466.5 574.1 C 465.4 574.8 464.2 575.3 463.1 575.9 C 461.9 576.4 460.7 577.1 459.5 577.4 C 458.3 577.6 457.1 577.5 455.8 577.4 C 454.6 577.4 453.3 577.1 452.1 576.9 C 450.8 576.7 449.6 576.5 448.4 576.2 C 447.1 575.9 445.9 575.7 444.6 575.4 C 443.4 575.0 442.2 574.7 441.0 574.4 C 439.7 574.0 438.5 573.7 437.3 573.2 C 436.2 572.7 435.0 572.2 433.9 571.5 C 432.8 570.8 431.9 569.9 430.9 568.9 C 430.0 568.0 429.1 567.1 428.3 566.0 C 427.4 565.0 426.6 564.0 426.0 562.8 C 425.3 561.6 425.0 560.3 424.6 559.0 C 424.2 557.7 423.9 556.4 423.6 555.0 C 423.4 553.7 423.4 552.3 423.3 551.0 C 423.3 549.6 423.3 548.2 423.4 546.9 C 423.6 545.5 423.8 544.1 424.1 542.9 C 424.5 541.6 425.0 540.3 425.7 539.1 C 426.3 537.9 427.0 536.7 427.9 535.8 C 428.8 534.9 430.1 534.4 431.2 533.8 C 432.3 533.1 433.5 532.6 434.7 532.2 C 435.9 531.8 437.1 531.5 438.3 531.1 C 439.6 530.8 440.8 530.5 442.0 530.2 C 443.3 529.9 444.5 529.7 445.8 529.4 C 447.0 529.2 448.3 528.8 449.5 528.8 C 450.8 528.7 452.0 528.9 453.2 529.0 C 454.5 529.2 455.7 529.4 457.0 529.7 C 458.2 529.9 459.5 530.2 460.7 530.5 C 461.9 530.8 463.2 531.1 464.4 531.5 C 465.6 531.8 466.8 532.2 468.0 532.7 C 469.2 533.1 470.4 533.6 471.5 534.3 C 472.6 534.9 473.7 535.6 474.6 536.5 C 475.6 537.4 476.3 538.6 477.0 539.7 C 477.7 540.9 478.4 542.1 478.9 543.3 Z" fill="#1d3665" fill-rule="evenodd" stroke="none" opacity="1.000"/>
  <path d="M 208.6 437.3 C 209.1 438.5 209.3 439.9 209.6 441.3 C 209.9 442.6 210.3 444.0 210.5 445.3 C 210.6 446.7 210.5 448.1 210.5 449.5 C 210.5 450.9 210.6 452.3 210.4 453.6 C 210.2 455.0 209.7 456.3 209.3 457.6 C 208.8 458.9 208.4 460.2 207.7 461.4 C 207.0 462.5 206.1 463.5 205.1 464.4 C 204.1 465.3 203.0 466.0 201.9 466.7 C 200.8 467.4 199.7 468.1 198.5 468.5 C 197.3 469.0 196.0 469.2 194.7 469.5 C 193.5 469.8 192.2 470.3 191.0 470.3 C 189.7 470.4 188.5 469.9 187.2 469.7 C 185.9 469.5 184.7 469.3 183.4 469.1 C 182.2 468.8 180.9 468.4 179.7 468.1 C 178.4 467.8 177.2 467.5 175.9 467.2 C 174.7 466.8 173.5 466.3 172.3 465.8 C 171.2 465.2 170.0 464.7 168.9 463.9 C 167.8 463.2 166.8 462.3 166.0 461.3 C 165.1 460.3 164.4 459.1 163.7 458.0 C 163.0 456.8 162.3 455.6 161.7 454.4 C 161.1 453.2 160.6 451.9 160.1 450.6 C 159.6 449.4 158.8 448.2 158.5 446.9 C 158.2 445.6 158.1 444.2 158.1 442.8 C 158.0 441.5 158.0 440.0 158.2 438.7 C 158.5 437.4 159.0 436.1 159.6 434.9 C 160.2 433.8 161.1 432.7 162.0 431.7 C 162.8 430.6 163.6 429.5 164.6 428.6 C 165.5 427.7 166.6 426.8 167.6 426.1 C 168.7 425.4 169.9 424.8 171.1 424.2 C 172.2 423.6 173.4 423.0 174.5 422.4 C 175.7 421.9 176.9 421.3 178.0 420.8 C 179.2 420.2 180.3 419.5 181.5 419.1 C 182.7 418.7 184.0 418.5 185.2 418.4 C 186.5 418.3 187.8 418.3 189.1 418.6 C 190.3 418.8 191.5 419.2 192.6 419.7 C 193.8 420.3 194.8 421.2 195.8 422.0 C 196.9 422.8 198.0 423.5 199.0 424.4 C 199.9 425.3 200.9 426.3 201.8 427.3 C 202.6 428.3 203.4 429.4 204.2 430.5 C 205.0 431.6 205.8 432.6 206.5 433.8 C 207.2 434.9 208.1 436.0 208.6 437.3 Z" fill="#1c3566" fill-rule="evenodd" stroke="none" opacity="1.000"/>
  <path d="M 399.8 175.3 C 400.4 176.6 400.8 177.9 401.1 179.2 C 401.4 180.5 401.5 181.9 401.6 183.3 C 401.8 184.7 401.8 186.1 401.9 187.4 C 402.0 188.8 402.0 190.2 402.0 191.6 C 402.0 193.0 402.0 194.4 402.0 195.7 C 402.0 197.1 401.9 198.5 401.8 199.9 C 401.8 201.3 401.8 202.7 401.7 204.0 C 401.5 205.4 401.3 206.8 401.0 208.1 C 400.7 209.5 400.5 210.8 400.0 212.1 C 399.6 213.4 399.0 214.7 398.3 215.8 C 397.6 216.9 396.7 217.9 395.8 218.9 C 395.0 219.9 394.1 220.9 393.1 221.8 C 392.1 222.7 391.1 223.6 390.0 224.2 C 388.8 224.8 387.6 225.1 386.3 225.5 C 385.1 225.8 383.9 226.3 382.6 226.5 C 381.4 226.6 380.1 226.5 378.8 226.5 C 377.5 226.5 376.2 226.6 375.0 226.4 C 373.7 226.2 372.5 225.8 371.3 225.3 C 370.1 224.8 368.9 224.2 367.9 223.4 C 366.9 222.7 366.0 221.7 365.2 220.6 C 364.5 219.5 364.0 218.1 363.5 216.9 C 363.1 215.6 362.7 214.2 362.5 212.9 C 362.3 211.5 362.3 210.1 362.2 208.8 C 362.1 207.4 362.0 206.0 362.0 204.6 C 361.9 203.2 362.0 201.8 362.0 200.5 C 362.0 199.1 361.9 197.7 361.9 196.3 C 361.9 194.9 362.0 193.5 362.0 192.2 C 362.0 190.8 362.0 189.4 362.0 188.0 C 362.1 186.6 362.2 185.2 362.3 183.9 C 362.4 182.5 362.4 181.1 362.7 179.8 C 362.9 178.4 363.4 177.1 363.9 175.8 C 364.4 174.6 365.0 173.2 365.8 172.2 C 366.6 171.2 367.7 170.4 368.8 169.7 C 369.9 169.0 371.1 168.4 372.3 168.0 C 373.5 167.6 374.7 167.4 376.0 167.2 C 377.2 167.0 378.5 166.9 379.8 166.9 C 381.1 166.8 382.3 166.8 383.6 166.9 C 384.9 166.9 386.2 167.0 387.4 167.1 C 388.7 167.3 390.0 167.5 391.2 167.8 C 392.4 168.2 393.6 168.8 394.7 169.4 C 395.8 170.1 397.0 170.8 397.9 171.8 C 398.7 172.7 399.3 174.1 399.8 175.3 Z" fill="#1f4660" fill-rule="evenodd" stroke="none" opacity="1.000"/>
  <path d="M 331.0 238.2 C 331.5 239.5 331.6 240.9 331.9 242.3 C 332.1 243.6 332.6 245.0 332.6 246.4 C 332.7 247.7 332.3 249.1 332.0 250.4 C 331.8 251.8 331.7 253.2 331.2 254.5 C 330.7 255.8 330.0 256.9 329.2 258.0 C 328.5 259.1 327.5 260.1 326.6 261.1 C 325.7 262.1 324.8 263.1 323.8 263.9 C 322.8 264.7 321.7 265.5 320.5 266.0 C 319.4 266.5 318.0 266.6 316.8 266.9 C 315.5 267.1 314.3 267.5 313.0 267.4 C 311.7 267.4 310.5 267.0 309.2 266.7 C 308.0 266.5 306.7 266.3 305.5 265.9 C 304.3 265.5 303.2 264.7 302.0 264.2 C 300.8 263.6 299.7 262.9 298.5 262.4 C 297.3 262.0 296.1 261.6 294.9 261.2 C 293.6 260.8 292.4 260.5 291.2 260.1 C 289.9 259.8 288.7 259.4 287.5 259.0 C 286.2 258.6 285.0 258.3 283.8 257.8 C 282.6 257.3 281.5 256.7 280.4 256.0 C 279.3 255.3 278.3 254.3 277.3 253.5 C 276.3 252.7 275.3 251.8 274.3 250.9 C 273.3 250.0 272.4 249.1 271.5 248.1 C 270.6 247.1 269.9 246.0 269.1 244.9 C 268.3 243.8 267.5 242.7 266.8 241.6 C 266.1 240.4 265.2 239.4 264.7 238.1 C 264.2 236.8 264.2 235.4 263.9 234.0 C 263.7 232.7 263.2 231.3 263.3 229.9 C 263.4 228.6 263.9 227.2 264.3 226.0 C 264.8 224.7 265.3 223.3 266.0 222.2 C 266.8 221.2 267.9 220.4 268.9 219.6 C 270.0 218.9 271.2 218.3 272.4 217.8 C 273.6 217.4 274.9 217.2 276.1 217.0 C 277.4 216.8 278.7 216.8 280.0 216.7 C 281.2 216.6 282.5 216.6 283.8 216.5 C 285.1 216.5 286.3 216.5 287.6 216.5 C 288.9 216.5 290.2 216.6 291.4 216.6 C 292.7 216.6 294.0 216.7 295.3 216.8 C 296.5 216.9 297.8 217.0 299.1 217.2 C 300.3 217.4 301.6 217.8 302.8 218.1 C 304.0 218.5 305.3 218.8 306.5 219.3 C 307.6 219.8 308.8 220.5 309.9 221.1 C 311.0 221.8 312.2 222.4 313.3 223.0 C 314.5 223.6 315.6 224.2 316.8 224.8 C 317.9 225.4 319.1 226.0 320.2 226.7 C 321.3 227.4 322.4 228.1 323.4 228.9 C 324.4 229.8 325.3 230.8 326.2 231.8 C 327.1 232.8 327.9 233.8 328.7 234.9 C 329.5 236.0 330.5 237.0 331.0 238.2 Z" fill="#1e4361" fill-rule="evenodd" stroke="none" opacity="1.000"/>
  <path d="M 552.8 324.9 C 553.3 326.2 553.9 327.5 554.1 328.8 C 554.3 330.2 554.0 331.6 553.8 332.9 C 553.7 334.3 553.5 335.7 553.1 337.0 C 552.7 338.3 552.1 339.5 551.3 340.6 C 550.6 341.7 549.7 342.7 548.8 343.7 C 547.9 344.7 547.0 345.7 546.0 346.6 C 545.0 347.4 544.0 348.2 542.8 348.8 C 541.7 349.4 540.4 349.6 539.1 350.0 C 537.9 350.3 536.7 350.7 535.4 350.9 C 534.1 351.1 532.9 351.1 531.6 351.1 C 530.3 351.2 529.0 351.3 527.8 351.3 C 526.5 351.3 525.2 351.3 523.9 351.3 C 522.7 351.3 521.4 351.4 520.1 351.4 C 518.8 351.4 517.6 351.3 516.3 351.3 C 515.0 351.3 513.7 351.4 512.5 351.3 C 511.2 351.3 509.9 351.2 508.6 351.2 C 507.4 351.1 506.1 351.1 504.8 351.0 C 503.5 350.8 502.3 350.5 501.1 350.2 C 499.8 349.9 498.5 349.6 497.4 349.1 C 496.2 348.6 495.1 347.9 494.0 347.2 C 492.9 346.5 491.9 345.5 490.9 344.7 C 489.9 343.8 488.9 343.0 487.9 342.1 C 487.0 341.2 486.1 340.2 485.2 339.2 C 484.4 338.2 483.6 337.1 482.8 336.0 C 482.0 334.9 481.2 333.8 480.5 332.6 C 479.8 331.5 479.1 330.4 478.6 329.1 C 478.1 327.8 478.0 326.4 477.8 325.0 C 477.5 323.7 477.1 322.3 477.1 321.0 C 477.1 319.6 477.6 318.3 477.8 316.9 C 478.1 315.5 478.2 314.1 478.7 312.9 C 479.2 311.6 480.1 310.5 480.8 309.4 C 481.6 308.4 482.6 307.4 483.5 306.4 C 484.4 305.4 485.3 304.4 486.3 303.6 C 487.3 302.9 488.5 302.2 489.7 301.8 C 490.9 301.3 492.2 301.1 493.4 300.9 C 494.7 300.6 496.0 300.4 497.2 300.5 C 498.5 300.6 499.7 300.9 501.0 301.2 C 502.2 301.5 503.5 301.7 504.7 302.2 C 505.9 302.6 507.0 303.3 508.2 303.9 C 509.3 304.5 510.5 305.1 511.7 305.6 C 512.9 306.1 514.1 306.4 515.3 306.8 C 516.6 307.2 517.8 307.5 519.0 307.9 C 520.3 308.2 521.5 308.5 522.7 308.9 C 524.0 309.3 525.2 309.6 526.4 310.0 C 527.6 310.4 528.8 311.0 530.0 311.5 C 531.1 312.1 532.3 312.8 533.4 313.3 C 534.6 313.9 535.8 314.4 537.0 314.8 C 538.2 315.3 539.4 315.6 540.6 316.1 C 541.9 316.5 543.1 316.9 544.3 317.4 C 545.5 317.9 546.6 318.4 547.8 319.1 C 548.9 319.7 550.1 320.3 551.0 321.3 C 551.8 322.3 552.3 323.7 552.8 324.9 Z" fill="#1f4a5e" fill-rule="evenodd" stroke="none" opacity="1.000"/>
  <path d="M 606.3 249.6 C 606.9 250.8 607.3 252.1 607.7 253.4 C 608.0 254.8 608.1 256.1 608.2 257.5 C 608.4 258.8 608.4 260.2 608.5 261.6 C 608.5 263.0 608.5 264.4 608.5 265.7 C 608.4 267.1 608.4 268.5 608.3 269.9 C 608.2 271.2 608.0 272.6 607.8 273.9 C 607.5 275.3 607.2 276.6 606.8 277.9 C 606.4 279.2 605.9 280.5 605.2 281.6 C 604.6 282.8 603.7 283.8 602.8 284.9 C 602.0 285.9 601.1 286.9 600.1 287.8 C 599.2 288.6 598.2 289.6 597.1 290.2 C 596.0 290.9 594.8 291.2 593.5 291.6 C 592.3 292.0 591.1 292.4 589.8 292.6 C 588.6 292.8 587.3 292.9 586.1 292.9 C 584.8 292.9 583.5 293.0 582.3 292.8 C 581.0 292.6 579.8 292.4 578.6 292.0 C 577.4 291.6 576.2 291.0 575.0 290.4 C 573.9 289.8 572.8 289.0 571.9 288.1 C 571.0 287.2 570.3 286.0 569.6 284.8 C 568.9 283.7 568.2 282.5 567.6 281.3 C 566.9 280.2 566.3 278.9 565.7 277.7 C 565.2 276.5 564.5 275.3 564.0 274.1 C 563.5 272.8 563.0 271.5 562.7 270.2 C 562.3 268.9 562.1 267.5 562.0 266.1 C 561.8 264.8 561.6 263.4 561.7 262.1 C 561.7 260.7 562.1 259.4 562.3 258.0 C 562.6 256.7 562.8 255.3 563.3 254.0 C 563.7 252.7 564.4 251.6 564.9 250.3 C 565.5 249.1 566.1 247.9 566.7 246.7 C 567.3 245.5 568.0 244.3 568.7 243.1 C 569.4 242.0 570.0 240.8 570.8 239.7 C 571.7 238.7 572.6 237.7 573.6 236.9 C 574.6 236.2 575.9 235.8 577.1 235.3 C 578.3 234.8 579.5 234.2 580.7 234.1 C 582.0 234.0 583.3 234.5 584.5 234.7 C 585.8 234.9 587.1 235.0 588.3 235.4 C 589.5 235.8 590.6 236.5 591.7 237.1 C 592.9 237.7 594.0 238.3 595.1 239.0 C 596.2 239.6 597.3 240.3 598.4 241.0 C 599.5 241.7 600.6 242.4 601.6 243.3 C 602.6 244.1 603.7 244.9 604.4 246.0 C 605.2 247.0 605.8 248.3 606.3 249.6 Z" fill="#1e3f62" fill-rule="evenodd" stroke="none" opacity="1.000"/>
  <path d="M 453.4 628.0 C 453.8 629.3 453.9 630.8 454.1 632.1 C 454.3 633.5 454.9 634.9 454.8 636.3 C 454.7 637.6 454.1 639.0 453.7 640.3 C 453.3 641.6 452.9 643.0 452.2 644.1 C 451.5 645.3 450.6 646.2 449.6 647.1 C 448.6 648.0 447.5 648.8 446.4 649.5 C 445.4 650.3 444.2 651.0 443.1 651.7 C 442.0 652.3 440.9 653.0 439.7 653.6 C 438.6 654.2 437.4 655.0 436.2 655.4 C 435.0 655.9 433.8 656.1 432.5 656.4 C 431.2 656.7 430.0 657.1 428.7 657.1 C 427.4 657.1 426.2 656.9 424.9 656.7 C 423.6 656.5 422.3 656.3 421.1 655.9 C 419.9 655.5 418.7 654.9 417.5 654.4 C 416.4 653.8 415.3 653.1 414.1 652.5 C 413.0 651.8 411.8 651.2 410.6 650.6 C 409.5 650.0 408.3 649.4 407.2 648.8 C 406.0 648.1 404.9 647.5 403.8 646.7 C 402.7 646.0 401.7 645.1 400.8 644.1 C 399.9 643.2 399.0 642.1 398.2 641.1 C 397.3 640.0 396.4 639.0 395.8 637.8 C 395.1 636.6 394.7 635.3 394.4 634.0 C 394.0 632.7 393.7 631.3 393.7 629.9 C 393.6 628.5 393.6 627.2 393.9 625.8 C 394.2 624.5 394.8 623.2 395.4 622.0 C 396.0 620.8 396.7 619.6 397.7 618.7 C 398.6 617.8 399.8 617.2 401.0 616.6 C 402.1 616.0 403.3 615.5 404.6 615.0 C 405.8 614.5 407.0 614.2 408.2 613.8 C 409.5 613.4 410.7 613.0 411.9 612.5 C 413.1 612.0 414.3 611.4 415.5 610.9 C 416.6 610.3 417.8 609.6 419.0 609.1 C 420.2 608.7 421.4 608.3 422.7 608.0 C 423.9 607.7 425.2 607.4 426.5 607.3 C 427.7 607.2 429.0 607.3 430.3 607.5 C 431.5 607.7 432.8 608.0 434.1 608.4 C 435.3 608.8 436.4 609.4 437.5 610.1 C 438.7 610.8 439.6 611.7 440.7 612.5 C 441.7 613.3 442.7 614.2 443.7 615.1 C 444.7 616.0 445.6 616.9 446.5 617.9 C 447.4 619.0 448.2 620.1 449.0 621.2 C 449.8 622.3 450.5 623.4 451.3 624.5 C 452.0 625.7 452.9 626.8 453.4 628.0 Z" fill="#1e3d63" fill-rule="evenodd" stroke="none" opacity="1.000"/>
  <circle cx="533.8" cy="265.4" r="24.9" fill="url(#x0g6)" stroke="#191919" stroke-width="4.9"/>
  <line x1="528.6" y1="287.3" x2="514.6" y2="346.1" stroke="#0e0e0e" stroke-width="12.2" stroke-linecap="round"/>
  <line x1="556.0" y1="262.6" x2="594.7" y2="257.7" stroke="#0e0e0e" stroke-width="12.2" stroke-linecap="round"/>
  <circle cx="508.8" cy="370.4" r="27.8" fill="url(#x0g0)" stroke="#191919" stroke-width="4.9"/>
  <line x1="512.3" y1="384.4" x2="504.3" y2="411.8" stroke="#030303" stroke-width="8.6" stroke-linecap="round"/>
  <line x1="498.2" y1="380.2" x2="490.2" y2="407.7" stroke="#030303" stroke-width="8.6" stroke-linecap="round" stroke-dasharray="8.6,17.1"/>
  <circle cx="401.2" cy="191.2" r="14.6" fill="url(#x0g20)" stroke="#191919" stroke-width="4.9"/>
  <line x1="388.1" y1="189.4" x2="349.0" y2="184.1" stroke="#0e0e0e" stroke-width="12.2" stroke-linecap="round"/>
  <circle cx="326.8" cy="181.1" r="24.9" fill="url(#x0g19)" stroke="#191919" stroke-width="4.9"/>
  <line x1="316.6" y1="201.1" x2="289.8" y2="253.9" stroke="#0e0e0e" stroke-width="12.2" stroke-linecap="round"/>
  <circle cx="447.6" cy="575.9" r="27.8" fill="url(#x0g3)" stroke="#191919" stroke-width="4.9"/>
  <line x1="444.2" y1="561.8" x2="452.4" y2="534.3" stroke="#030303" stroke-width="8.6" stroke-linecap="round" stroke-dasharray="8.6,17.1"/>
  <line x1="458.3" y1="566.0" x2="466.5" y2="538.5" stroke="#030303" stroke-width="8.6" stroke-linecap="round"/>
  <circle cx="278.4" cy="276.2" r="27.8" fill="url(#x0g13)" stroke="#191919" stroke-width="4.9"/>
  <line x1="278.8" y1="290.7" x2="264.9" y2="316.2" stroke="#030303" stroke-width="8.6" stroke-linecap="round" stroke-dasharray="8.6,17.1"/>
  <line x1="266.0" y1="283.7" x2="252.0" y2="309.2" stroke="#030303" stroke-width="8.6" stroke-linecap="round"/>
  <circle cx="607.8" cy="256.1" r="14.6" fill="url(#x0g7)" stroke="#191919" stroke-width="4.9"/>
  <circle cx="176.4" cy="465.7" r="27.8" fill="url(#x0g16)" stroke="#191919" stroke-width="4.9"/>
  <line x1="175.8" y1="451.2" x2="189.3" y2="425.8" stroke="#030303" stroke-width="8.6" stroke-linecap="round"/>
  <line x1="188.8" y1="458.1" x2="202.2" y2="432.6" stroke="#030303" stroke-width="8.6" stroke-linecap="round" stroke-dasharray="8.6,17.1"/>
  <path d="M 178.0 519.9 C 178.4 521.2 178.5 522.6 178.7 524.0 C 178.9 525.3 179.3 526.7 179.3 528.1 C 179.3 529.5 178.9 530.8 178.5 532.1 C 178.0 533.4 177.5 534.8 176.8 535.9 C 176.1 537.0 175.1 537.9 174.1 538.7 C 173.0 539.4 171.8 540.1 170.6 540.5 C 169.4 541.0 168.2 541.3 166.9 541.5 C 165.6 541.7 164.3 541.7 163.1 541.8 C 161.8 541.9 160.5 542.0 159.2 542.0 C 157.9 542.0 156.7 542.0 155.4 542.0 C 154.1 542.0 152.8 542.0 151.5 542.0 C 150.3 542.0 149.0 542.0 147.7 542.0 C 146.4 542.0 145.1 542.0 143.8 542.0 C 142.6 541.9 141.3 541.9 140.0 541.8 C 138.7 541.7 137.4 541.6 136.2 541.4 C 134.9 541.2 133.7 540.8 132.4 540.4 C 131.2 540.1 130.0 539.7 128.8 539.1 C 127.7 538.5 126.7 537.6 125.7 536.7 C 124.7 535.8 123.8 534.8 123.0 533.8 C 122.1 532.8 121.2 531.7 120.5 530.6 C 119.8 529.4 119.4 528.1 119.0 526.8 C 118.6 525.5 118.3 524.1 118.1 522.7 C 118.0 521.4 117.9 520.0 118.0 518.6 C 118.1 517.3 118.5 515.9 118.8 514.6 C 119.1 513.2 119.5 511.9 120.1 510.7 C 120.6 509.5 121.5 508.4 122.3 507.3 C 123.0 506.1 123.7 505.0 124.6 503.9 C 125.4 502.9 126.2 501.8 127.1 500.8 C 128.0 499.8 129.0 499.0 130.0 498.1 C 131.0 497.2 132.0 496.4 133.1 495.6 C 134.1 494.8 135.1 493.9 136.3 493.3 C 137.4 492.7 138.7 492.4 139.9 492.0 C 141.1 491.7 142.4 491.3 143.7 491.2 C 144.9 491.1 146.2 491.3 147.5 491.5 C 148.7 491.7 150.0 491.9 151.3 492.2 C 152.5 492.6 153.7 493.1 154.8 493.7 C 156.0 494.3 157.1 495.0 158.2 495.6 C 159.4 496.3 160.5 496.9 161.6 497.6 C 162.7 498.3 163.8 499.0 164.9 499.8 C 166.0 500.5 167.1 501.3 168.0 502.2 C 169.0 503.1 169.8 504.2 170.5 505.3 C 171.3 506.4 172.0 507.7 172.6 508.8 C 173.3 510.0 173.9 511.2 174.5 512.5 C 175.1 513.7 175.7 514.9 176.3 516.2 C 176.8 517.4 177.6 518.6 178.0 519.9 Z" fill="#1e3d63" fill-rule="evenodd" stroke="none" opacity="1.000"/>
  <path d="M 208.6 437.3 C 209.1 438.5 209.3 439.9 209.6 441.3 C 209.9 442.6 210.3 444.0 210.5 445.3 C 210.6 446.7 210.5 448.1 210.5 449.5 C 210.5 450.9 210.6 452.3 210.4 453.6 C 210.2 455.0 209.7 456.3 209.3 457.6 C 208.8 458.9 208.4 460.2 207.7 461.4 C 207.0 462.5 206.1 463.5 205.1 464.4 C 204.1 465.3 203.0 466.0 201.9 466.7 C 200.8 467.4 199.7 468.1 198.5 468.5 C 197.3 469.0 196.0 469.2 194.7 469.5 C 193.5 469.8 192.2 470.3 191.0 470.3 C 189.7 470.4 188.5 469.9 187.2 469.7 C 185.9 469.5 184.7 469.3 183.4 469.1 C 182.2 468.8 180.9 468.4 179.7 468.1 C 178.4 467.8 177.2 467.5 175.9 467.2 C 174.7 466.8 173.5 466.3 172.3 465.8 C 171.2 465.2 170.0 464.7 168.9 463.9 C 167.8 463.2 166.8 462.3 166.0 461.3 C 165.1 460.3 164.4 459.1 163.7 458.0 C 163.0 456.8 162.3 455.6 161.7 454.4 C 161.1 453.2 160.6 451.9 160.1 450.6 C 159.6 449.4 158.8 448.2 158.5 446.9 C 158.2 445.6 158.1 444.2 158.1 442.8 C 158.0 441.5 158.0 440.0 158.2 438.7 C 158.5 437.4 159.0 436.1 159.6 434.9 C 160.2 433.8 161.1 432.7 162.0 431.7 C 162.8 430.6 163.6 429.5 164.6 428.6 C 165.5 427.7 166.6 426.8 167.6 426.1 C 168.7 425.4 169.9 424.8 171.1 424.2 C 172.2 423.6 173.4 423.0 174.5 422.4 C 175.7 421.9 176.9 421.3 178.0 420.8 C 179.2 420.2 180.3 419.5 181.5 419.1 C 182.7 418.7 184.0 418.5 185.2 418.4 C 186.5 418.3 187.8 418.3 189.1 418.6 C 190.3 418.8 191.5 419.2 192.6 419.7 C 193.8 420.3 194.8 421.2 195.8 422.0 C 196.9 422.8 198.0 423.5 199.0 424.4 C 199.9 425.3 200.9 426.3 201.8 427.3 C 202.6 428.3 203.4 429.4 204.2 430.5 C 205.0 431.6 205.8 432.6 206.5 433.8 C 207.2 434.9 208.1 436.0 208.6 437.3 Z" fill="#1d3665" fill-rule="evenodd" stroke="none" opacity="1.000"/>
  <path d="M 476.3 540.0 C 476.9 541.2 477.4 542.5 477.7 543.8 C 478.0 545.1 478.0 546.5 478.1 547.9 C 478.2 549.3 478.3 550.7 478.2 552.0 C 478.1 553.4 477.9 554.8 477.7 556.1 C 477.4 557.4 477.2 558.8 476.7 560.1 C 476.3 561.4 475.7 562.6 475.1 563.8 C 474.4 565.0 473.6 566.0 472.8 567.1 C 472.0 568.2 471.3 569.3 470.4 570.3 C 469.5 571.3 468.6 572.4 467.6 573.2 C 466.6 574.0 465.5 574.7 464.4 575.3 C 463.2 575.9 462.1 576.5 460.9 576.9 C 459.7 577.3 458.4 577.6 457.2 577.6 C 455.9 577.6 454.7 577.3 453.4 577.1 C 452.1 576.9 450.9 576.7 449.6 576.5 C 448.4 576.2 447.1 575.9 445.9 575.6 C 444.6 575.3 443.4 575.0 442.2 574.7 C 440.9 574.4 439.7 574.0 438.5 573.5 C 437.3 573.1 436.0 572.7 434.9 572.1 C 433.8 571.5 432.8 570.6 431.8 569.7 C 430.8 568.9 429.9 567.8 429.1 566.8 C 428.2 565.8 427.3 564.8 426.6 563.7 C 425.9 562.5 425.4 561.3 424.9 560.0 C 424.5 558.7 424.2 557.4 424.0 556.0 C 423.7 554.7 423.5 553.3 423.4 552.0 C 423.3 550.6 423.4 549.2 423.5 547.8 C 423.6 546.4 423.7 545.1 424.0 543.7 C 424.3 542.4 424.8 541.1 425.4 539.9 C 425.9 538.7 426.5 537.4 427.4 536.4 C 428.3 535.5 429.5 534.8 430.6 534.1 C 431.7 533.5 432.9 532.9 434.1 532.5 C 435.3 532.0 436.5 531.7 437.7 531.3 C 439.0 531.0 440.2 530.7 441.5 530.4 C 442.7 530.1 444.0 529.8 445.2 529.6 C 446.5 529.3 447.7 529.0 449.0 528.9 C 450.2 528.8 451.5 528.8 452.7 528.9 C 454.0 529.0 455.2 529.3 456.5 529.6 C 457.7 529.8 459.0 530.1 460.2 530.4 C 461.5 530.7 462.7 531.0 464.0 531.3 C 465.2 531.7 466.4 532.0 467.6 532.5 C 468.8 533.0 470.0 533.5 471.1 534.2 C 472.2 534.8 473.4 535.5 474.3 536.5 C 475.1 537.4 475.7 538.7 476.3 540.0 Z" fill="#1d3665" fill-rule="evenodd" stroke="none" opacity="1.000"/>
  <path d="M 290.2 302.6 C 290.4 303.9 290.5 305.3 290.6 306.7 C 290.6 308.0 290.6 309.5 290.4 310.8 C 290.2 312.2 289.9 313.5 289.5 314.8 C 289.0 316.1 288.2 317.3 287.5 318.4 C 286.8 319.6 286.1 320.8 285.2 321.8 C 284.3 322.7 283.3 323.6 282.2 324.3 C 281.1 325.0 279.9 325.6 278.8 326.3 C 277.6 326.9 276.5 327.5 275.3 328.1 C 274.2 328.7 273.0 329.2 271.8 329.8 C 270.6 330.3 269.5 331.1 268.3 331.5 C 267.1 331.8 265.8 331.8 264.5 331.8 C 263.2 331.8 261.9 332.0 260.6 331.7 C 259.4 331.4 258.3 330.8 257.2 330.1 C 256.0 329.5 255.0 328.6 253.9 327.9 C 252.9 327.1 251.8 326.3 250.7 325.5 C 249.7 324.7 248.7 323.9 247.6 323.0 C 246.6 322.2 245.6 321.3 244.6 320.5 C 243.6 319.7 242.5 318.9 241.4 318.1 C 240.3 317.4 239.3 316.6 238.3 315.7 C 237.3 314.8 236.2 314.0 235.5 312.9 C 234.8 311.7 234.4 310.3 233.9 309.0 C 233.5 307.7 232.9 306.4 232.8 305.1 C 232.6 303.7 233.1 302.3 233.3 301.0 C 233.5 299.6 233.6 298.1 234.0 296.9 C 234.5 295.6 235.3 294.4 236.0 293.3 C 236.8 292.2 237.7 291.2 238.6 290.2 C 239.5 289.2 240.3 288.2 241.3 287.3 C 242.3 286.4 243.4 285.6 244.5 284.9 C 245.6 284.2 246.8 283.6 247.9 283.0 C 249.1 282.4 250.2 281.8 251.4 281.2 C 252.6 280.7 253.8 280.1 254.9 279.6 C 256.1 279.0 257.2 278.2 258.5 277.9 C 259.7 277.6 261.0 277.5 262.2 277.5 C 263.5 277.5 264.8 277.4 266.1 277.6 C 267.3 277.9 268.4 278.5 269.6 279.1 C 270.7 279.8 271.7 280.6 272.8 281.4 C 273.9 282.2 275.0 282.9 276.0 283.7 C 277.0 284.6 278.0 285.5 279.0 286.3 C 280.0 287.2 280.9 288.2 281.9 289.1 C 282.8 290.0 283.9 290.9 284.8 291.9 C 285.7 292.8 286.7 293.8 287.5 294.9 C 288.2 296.0 288.7 297.3 289.2 298.5 C 289.6 299.8 289.9 301.2 290.2 302.6 Z" fill="#1c3566" fill-rule="evenodd" stroke="none" opacity="1.000"/>
  <path d="M 522.2 396.2 C 522.7 397.5 522.8 398.9 523.0 400.3 C 523.3 401.6 523.7 403.0 523.7 404.4 C 523.7 405.7 523.3 407.1 523.0 408.5 C 522.7 409.8 522.6 411.3 522.1 412.5 C 521.6 413.8 520.8 414.9 520.0 416.0 C 519.2 417.1 518.2 418.1 517.3 419.0 C 516.4 420.0 515.5 421.0 514.4 421.8 C 513.4 422.6 512.2 423.2 511.1 423.7 C 509.9 424.2 508.6 424.5 507.3 424.8 C 506.1 425.1 504.8 425.4 503.5 425.5 C 502.3 425.6 501.0 425.5 499.7 425.5 C 498.4 425.5 497.1 425.5 495.9 425.3 C 494.6 425.1 493.4 424.7 492.1 424.3 C 490.9 423.9 489.6 423.6 488.5 423.0 C 487.3 422.4 486.3 421.5 485.3 420.7 C 484.2 419.9 483.2 419.0 482.2 418.2 C 481.2 417.3 480.2 416.4 479.3 415.5 C 478.3 414.5 477.5 413.5 476.7 412.4 C 475.9 411.3 475.1 410.2 474.4 409.0 C 473.6 407.9 472.7 406.8 472.2 405.6 C 471.6 404.4 471.1 403.1 470.8 401.8 C 470.4 400.5 470.1 399.1 470.0 397.7 C 469.9 396.3 469.9 394.9 470.0 393.6 C 470.2 392.2 470.5 390.8 470.8 389.5 C 471.2 388.2 471.7 386.9 472.3 385.7 C 473.0 384.5 473.9 383.5 474.8 382.5 C 475.6 381.4 476.5 380.4 477.5 379.5 C 478.5 378.6 479.5 377.7 480.6 377.1 C 481.7 376.5 483.0 376.1 484.2 375.7 C 485.4 375.3 486.7 374.9 488.0 374.7 C 489.2 374.5 490.5 374.5 491.8 374.5 C 493.1 374.4 494.4 374.4 495.6 374.5 C 496.9 374.6 498.2 374.9 499.4 375.2 C 500.7 375.5 502.0 375.8 503.2 376.2 C 504.3 376.7 505.5 377.4 506.6 378.1 C 507.7 378.8 508.6 379.7 509.7 380.6 C 510.7 381.4 511.7 382.2 512.7 383.1 C 513.7 384.1 514.6 385.0 515.5 386.0 C 516.3 387.1 517.1 388.2 517.9 389.3 C 518.7 390.4 519.5 391.5 520.2 392.6 C 520.9 393.8 521.7 394.9 522.2 396.2 Z" fill="#1c3566" fill-rule="evenodd" stroke="none" opacity="1.000"/>
  <path d="M 246.8 371.6 C 247.3 372.9 247.4 374.3 247.7 375.7 C 247.9 377.0 248.3 378.4 248.2 379.8 C 248.2 381.1 247.7 382.5 247.4 383.8 C 247.1 385.2 246.9 386.6 246.3 387.8 C 245.7 389.0 244.8 390.0 243.8 390.9 C 242.9 391.9 241.7 392.6 240.6 393.2 C 239.5 393.9 238.3 394.7 237.1 394.9 C 235.9 395.1 234.6 394.8 233.3 394.7 C 232.0 394.6 230.8 394.4 229.5 394.2 C 228.2 394.0 227.0 393.7 225.7 393.4 C 224.5 393.1 223.2 392.9 222.0 392.5 C 220.7 392.2 219.5 391.8 218.2 391.4 C 217.0 391.1 215.7 390.8 214.6 390.2 C 213.4 389.7 212.3 389.0 211.2 388.2 C 210.2 387.5 209.2 386.5 208.2 385.6 C 207.2 384.8 206.2 383.9 205.3 382.9 C 204.3 382.0 203.4 381.0 202.7 379.9 C 202.0 378.8 201.5 377.4 201.1 376.1 C 200.6 374.9 199.9 373.6 199.7 372.2 C 199.5 370.9 199.8 369.6 200.1 368.3 C 200.4 367.0 201.0 365.7 201.6 364.5 C 202.1 363.2 202.8 362.0 203.6 361.0 C 204.4 359.9 205.5 359.1 206.5 358.3 C 207.6 357.6 208.8 357.1 210.0 356.5 C 211.2 356.0 212.4 355.2 213.6 355.0 C 214.8 354.9 216.1 355.4 217.4 355.5 C 218.7 355.7 220.0 355.8 221.2 356.0 C 222.5 356.2 223.7 356.6 225.0 356.9 C 226.2 357.2 227.5 357.4 228.7 357.7 C 230.0 358.1 231.2 358.4 232.4 358.8 C 233.7 359.2 235.0 359.5 236.1 360.1 C 237.3 360.7 238.4 361.4 239.4 362.2 C 240.4 363.0 241.3 364.1 242.2 365.0 C 243.1 366.0 244.1 367.0 244.8 368.1 C 245.6 369.2 246.4 370.3 246.8 371.6 Z" fill="#1c3566" fill-rule="evenodd" stroke="none" opacity="1.000"/>
  <circle cx="201.6" cy="418.1" r="27.8" fill="url(#x0g15)" stroke="#000000" stroke-width="4.9"/>
  <line x1="207.0" y1="392.6" x2="234.1" y2="342.3" stroke="#000000" stroke-width="8.6" stroke-linecap="round"/>
  <line x1="219.9" y1="399.6" x2="247.0" y2="349.2" stroke="#000000" stroke-width="8.6" stroke-linecap="round" stroke-dasharray="8.6,17.1"/>
  <circle cx="463.0" cy="524.4" r="27.8" fill="url(#x0g2)" stroke="#000000" stroke-width="4.9"/>
  <line x1="463.1" y1="498.4" x2="479.5" y2="443.5" stroke="#000000" stroke-width="8.6" stroke-linecap="round" stroke-dasharray="8.6,17.1"/>
  <line x1="477.2" y1="502.6" x2="493.6" y2="447.7" stroke="#000000" stroke-width="8.6" stroke-linecap="round"/>
  <circle cx="252.4" cy="323.7" r="27.8" fill="url(#x0g14)" stroke="#000000" stroke-width="4.9"/>
  <path d="M 496.7 475.9 C 497.3 477.1 498.0 478.3 498.2 479.6 C 498.3 480.9 497.8 482.4 497.6 483.7 C 497.3 485.0 497.2 486.5 496.5 487.6 C 495.9 488.7 494.7 489.6 493.7 490.4 C 492.7 491.3 491.6 492.1 490.5 492.8 C 489.4 493.5 488.3 494.1 487.1 494.7 C 486.0 495.4 484.8 496.1 483.6 496.5 C 482.5 497.0 481.2 497.3 480.0 497.5 C 478.7 497.7 477.4 497.6 476.1 497.5 C 474.9 497.4 473.6 497.3 472.4 496.9 C 471.2 496.5 470.1 495.7 468.9 495.1 C 467.7 494.6 466.5 494.0 465.4 493.5 C 464.2 492.9 463.1 492.3 461.9 491.7 C 460.8 491.0 459.6 490.5 458.5 489.8 C 457.4 489.1 456.3 488.3 455.4 487.3 C 454.4 486.4 453.6 485.3 452.8 484.2 C 451.9 483.2 451.0 482.1 450.4 481.0 C 449.8 479.8 449.2 478.6 449.0 477.3 C 448.8 476.0 448.9 474.5 449.0 473.1 C 449.1 471.8 449.2 470.4 449.7 469.1 C 450.2 467.9 451.1 466.9 452.0 465.8 C 452.8 464.7 453.6 463.6 454.6 462.7 C 455.5 461.8 456.5 460.9 457.6 460.2 C 458.7 459.6 460.0 459.2 461.2 458.8 C 462.4 458.4 463.7 458.0 464.9 457.8 C 466.2 457.6 467.5 457.6 468.8 457.5 C 470.0 457.5 471.3 457.4 472.6 457.5 C 473.9 457.6 475.1 457.9 476.4 458.2 C 477.6 458.5 478.9 458.8 480.1 459.2 C 481.3 459.7 482.4 460.3 483.5 461.1 C 484.6 461.8 485.6 462.7 486.6 463.5 C 487.6 464.4 488.7 465.2 489.6 466.1 C 490.6 467.0 491.5 468.0 492.4 469.0 C 493.2 470.1 493.9 471.2 494.6 472.4 C 495.4 473.5 496.1 474.7 496.7 475.9 Z" fill="#1c3566" fill-rule="evenodd" stroke="none" opacity="1.000"/>
  <circle cx="493.7" cy="421.7" r="27.8" fill="url(#x0g1)" stroke="#000000" stroke-width="4.9"/>
  <path d="M 522.2 387.0 C 522.6 388.3 522.8 389.7 523.0 391.1 C 523.3 392.4 523.6 393.8 523.7 395.1 C 523.7 396.5 523.5 397.8 523.3 399.2 C 523.1 400.5 522.9 401.9 522.6 403.3 C 522.2 404.6 521.7 405.8 521.2 407.1 C 520.6 408.3 520.0 409.5 519.4 410.7 C 518.8 411.9 518.2 413.2 517.6 414.4 C 516.9 415.5 516.3 416.7 515.5 417.8 C 514.8 419.0 514.0 420.1 513.1 421.0 C 512.2 421.9 511.0 422.6 509.9 423.3 C 508.8 423.9 507.6 424.4 506.4 424.8 C 505.2 425.2 503.9 425.4 502.7 425.6 C 501.4 425.8 500.1 425.8 498.9 425.9 C 497.6 426.0 496.3 426.0 495.1 426.0 C 493.8 426.1 492.5 426.0 491.3 426.0 C 490.0 426.0 488.7 426.0 487.4 425.9 C 486.2 425.9 484.9 425.8 483.6 425.6 C 482.4 425.5 481.1 425.3 479.9 425.0 C 478.7 424.6 477.5 424.1 476.3 423.5 C 475.2 422.9 474.1 422.1 473.2 421.2 C 472.3 420.2 471.7 419.0 471.1 417.7 C 470.6 416.5 470.1 415.2 469.8 413.9 C 469.5 412.6 469.4 411.2 469.2 409.8 C 469.1 408.4 469.0 407.1 469.0 405.7 C 468.9 404.3 469.0 402.9 469.0 401.6 C 469.0 400.2 469.0 398.8 469.1 397.4 C 469.3 396.1 469.5 394.7 469.7 393.3 C 469.9 392.0 470.2 390.6 470.6 389.3 C 470.9 388.0 471.3 386.7 471.8 385.5 C 472.4 384.2 473.0 383.0 473.6 381.8 C 474.2 380.6 474.8 379.4 475.4 378.2 C 476.1 377.0 476.7 375.8 477.4 374.6 C 478.1 373.5 478.8 372.3 479.7 371.3 C 480.6 370.4 481.6 369.6 482.7 368.9 C 483.8 368.2 485.0 367.7 486.2 367.2 C 487.4 366.8 488.6 366.4 489.9 366.2 C 491.1 366.0 492.4 366.0 493.7 365.9 C 495.0 365.9 496.2 365.8 497.5 365.8 C 498.8 365.8 500.0 365.9 501.3 366.0 C 502.6 366.1 503.8 366.2 505.1 366.5 C 506.3 366.8 507.5 367.3 508.7 367.8 C 509.8 368.4 511.1 368.9 512.1 369.7 C 513.1 370.5 513.9 371.6 514.7 372.7 C 515.5 373.7 516.2 374.9 516.9 376.1 C 517.5 377.2 518.1 378.4 518.8 379.7 C 519.4 380.9 520.0 382.1 520.5 383.3 C 521.1 384.5 521.8 385.7 522.2 387.0 Z" fill="#1e3f62" fill-rule="evenodd" stroke="none" opacity="1.000"/>
  <path d="M 476.3 544.4 C 476.8 545.7 477.0 547.1 477.3 548.4 C 477.6 549.8 478.0 551.1 478.1 552.5 C 478.3 553.9 478.3 555.2 478.3 556.6 C 478.3 558.0 478.4 559.4 478.3 560.8 C 478.2 562.2 477.9 563.5 477.6 564.9 C 477.4 566.2 477.1 567.6 476.7 568.9 C 476.2 570.1 475.6 571.4 474.9 572.5 C 474.2 573.7 473.3 574.6 472.4 575.6 C 471.5 576.6 470.6 577.7 469.6 578.5 C 468.6 579.4 467.6 580.3 466.5 580.9 C 465.3 581.4 464.0 581.7 462.8 582.1 C 461.6 582.4 460.3 582.8 459.1 583.0 C 457.8 583.2 456.5 583.1 455.3 583.1 C 454.0 583.2 452.7 583.3 451.4 583.2 C 450.2 583.0 448.9 582.7 447.7 582.4 C 446.4 582.2 445.1 581.9 443.9 581.5 C 442.7 581.1 441.6 580.5 440.4 579.9 C 439.3 579.3 438.2 578.6 437.0 577.9 C 435.9 577.3 434.8 576.6 433.7 575.9 C 432.6 575.2 431.5 574.5 430.4 573.7 C 429.4 572.9 428.3 572.1 427.5 571.1 C 426.7 570.0 426.0 568.8 425.5 567.6 C 424.9 566.4 424.4 565.0 424.1 563.7 C 423.7 562.4 423.5 561.0 423.4 559.7 C 423.2 558.3 423.2 556.9 423.1 555.5 C 423.1 554.1 423.1 552.8 423.1 551.4 C 423.2 550.0 423.2 548.6 423.4 547.2 C 423.5 545.9 423.7 544.5 424.0 543.2 C 424.4 541.8 424.8 540.5 425.4 539.3 C 426.0 538.1 426.6 536.8 427.4 535.8 C 428.3 534.8 429.3 534.0 430.3 533.1 C 431.4 532.3 432.5 531.6 433.6 530.9 C 434.7 530.2 435.8 529.5 436.9 528.9 C 438.0 528.2 439.2 527.5 440.3 526.9 C 441.5 526.3 442.6 525.7 443.8 525.3 C 445.0 524.9 446.3 524.6 447.5 524.4 C 448.8 524.1 450.0 523.7 451.3 523.6 C 452.6 523.5 453.9 523.7 455.1 523.7 C 456.4 523.8 457.7 523.7 458.9 524.0 C 460.2 524.2 461.4 524.8 462.6 525.3 C 463.8 525.8 465.0 526.3 466.0 527.1 C 467.1 527.9 467.9 529.0 468.7 530.0 C 469.5 531.1 470.2 532.3 470.9 533.5 C 471.6 534.6 472.2 535.8 472.8 537.0 C 473.4 538.3 474.0 539.5 474.6 540.7 C 475.2 541.9 475.9 543.1 476.3 544.4 Z" fill="#1e3d63" fill-rule="evenodd" stroke="none" opacity="1.000"/>
  <path d="M 285.1 290.8 C 285.6 292.0 286.1 293.3 286.4 294.6 C 286.8 296.0 286.9 297.3 287.1 298.7 C 287.2 300.1 287.3 301.5 287.3 302.9 C 287.3 304.2 287.3 305.6 287.3 307.0 C 287.3 308.4 287.3 309.8 287.2 311.2 C 287.0 312.5 286.9 313.9 286.6 315.3 C 286.4 316.6 286.1 318.0 285.7 319.3 C 285.2 320.6 284.8 321.9 284.1 323.1 C 283.5 324.2 282.6 325.3 281.7 326.3 C 280.9 327.3 280.0 328.3 279.0 329.2 C 278.0 330.1 277.0 331.0 275.9 331.6 C 274.8 332.2 273.5 332.6 272.3 332.9 C 271.1 333.3 269.8 333.6 268.5 333.7 C 267.3 333.8 266.0 333.7 264.7 333.5 C 263.5 333.3 262.2 333.1 261.0 332.7 C 259.7 332.4 258.6 331.8 257.4 331.3 C 256.3 330.7 255.1 330.0 254.0 329.4 C 252.9 328.7 251.7 328.1 250.6 327.4 C 249.5 326.7 248.4 326.0 247.3 325.3 C 246.3 324.5 245.2 323.8 244.2 322.8 C 243.3 321.9 242.5 320.8 241.7 319.7 C 240.9 318.6 240.3 317.4 239.6 316.2 C 238.9 315.1 238.3 313.8 237.7 312.6 C 237.1 311.4 236.5 310.2 236.0 308.9 C 235.4 307.7 234.6 306.5 234.2 305.2 C 233.8 304.0 233.6 302.6 233.3 301.2 C 233.1 299.9 232.7 298.5 232.7 297.1 C 232.6 295.7 232.9 294.4 233.1 293.0 C 233.3 291.7 233.5 290.2 233.9 289.0 C 234.3 287.7 234.9 286.4 235.7 285.3 C 236.4 284.2 237.3 283.2 238.2 282.2 C 239.1 281.2 240.0 280.2 241.0 279.3 C 242.0 278.5 243.0 277.6 244.2 277.0 C 245.3 276.5 246.6 276.2 247.9 275.9 C 249.1 275.6 250.3 275.1 251.6 275.0 C 252.9 274.8 254.1 274.9 255.4 274.9 C 256.7 274.9 258.0 274.7 259.3 274.9 C 260.5 275.0 261.8 275.4 263.0 275.7 C 264.3 276.0 265.5 276.2 266.8 276.6 C 268.0 277.0 269.1 277.7 270.3 278.3 C 271.4 278.9 272.5 279.6 273.6 280.2 C 274.8 280.9 275.9 281.5 277.0 282.3 C 278.1 283.0 279.2 283.7 280.2 284.5 C 281.2 285.4 282.3 286.2 283.1 287.2 C 283.9 288.3 284.5 289.5 285.1 290.8 Z" fill="#1e3f62" fill-rule="evenodd" stroke="none" opacity="1.000"/>
  <path d="M 216.2 437.2 C 216.7 438.5 216.8 439.9 217.1 441.2 C 217.4 442.6 217.8 444.0 217.9 445.3 C 217.9 446.7 217.5 448.0 217.2 449.4 C 217.0 450.7 216.8 452.2 216.4 453.4 C 215.9 454.7 215.2 455.9 214.5 457.0 C 213.8 458.2 213.0 459.3 212.2 460.4 C 211.4 461.4 210.7 462.6 209.8 463.6 C 209.0 464.6 208.0 465.6 207.1 466.5 C 206.1 467.4 205.1 468.2 204.1 469.1 C 203.1 469.9 202.1 470.8 201.0 471.6 C 200.0 472.3 198.8 473.0 197.7 473.5 C 196.5 474.0 195.2 474.3 194.0 474.6 C 192.7 474.9 191.5 475.2 190.2 475.4 C 188.9 475.5 187.7 475.4 186.4 475.4 C 185.1 475.4 183.8 475.4 182.6 475.3 C 181.3 475.1 180.1 474.7 178.8 474.4 C 177.6 474.1 176.3 473.9 175.1 473.4 C 173.9 472.9 172.8 472.2 171.7 471.6 C 170.5 471.0 169.4 470.3 168.3 469.6 C 167.2 469.0 166.0 468.3 164.9 467.6 C 163.9 466.8 162.8 466.1 161.8 465.2 C 160.8 464.4 159.7 463.5 159.0 462.4 C 158.2 461.3 157.7 460.0 157.2 458.7 C 156.7 457.5 156.2 456.2 156.0 454.8 C 155.7 453.5 155.6 452.1 155.5 450.7 C 155.4 449.3 155.3 448.0 155.3 446.6 C 155.3 445.2 155.3 443.8 155.4 442.4 C 155.5 441.1 155.5 439.6 155.7 438.3 C 155.9 436.9 156.2 435.6 156.7 434.3 C 157.1 433.0 157.6 431.7 158.3 430.6 C 159.1 429.5 159.9 428.4 160.9 427.6 C 161.9 426.7 163.1 426.2 164.2 425.6 C 165.4 425.0 166.6 424.5 167.8 424.0 C 169.0 423.6 170.2 423.3 171.5 422.9 C 172.7 422.5 173.9 422.1 175.1 421.6 C 176.3 421.1 177.5 420.5 178.6 419.9 C 179.8 419.4 180.9 418.7 182.1 418.2 C 183.3 417.7 184.6 417.5 185.8 417.2 C 187.1 416.9 188.3 416.6 189.6 416.5 C 190.8 416.4 192.1 416.6 193.4 416.8 C 194.6 417.0 195.9 417.2 197.1 417.6 C 198.3 418.1 199.5 418.7 200.6 419.3 C 201.6 420.0 202.6 420.9 203.7 421.8 C 204.7 422.6 205.7 423.4 206.7 424.3 C 207.6 425.2 208.6 426.2 209.5 427.2 C 210.3 428.2 211.1 429.3 211.9 430.4 C 212.7 431.5 213.5 432.6 214.2 433.7 C 214.9 434.8 215.8 435.9 216.2 437.2 Z" fill="#1e3f62" fill-rule="evenodd" stroke="none" opacity="1.000"/>
</svg>