<svg xmlns="http://www.w3.org/2000/svg" xmlns:xlink="http://www.w3.org/1999/xlink" viewBox="0 0 741 800" width="741" height="800">
  <rect width="100%" height="100%" fill="#ffffff"/>
  <defs>
    <radialGradient id="x0g0" cx=".5" cy=".5" fx=".33" fy=".33" r=".66"><stop offset="0%" stop-color="#bbbbbb"/><stop offset="40%" stop-color="#b0b0b0"/><stop offset="100%" stop-color="#755b61"/></radialGradient>
    <radialGradient id="x0g1" cx=".5" cy=".5" fx=".33" fy=".33" r=".66"><stop offset="0%" stop-color="#b6b6b6"/><stop offset="40%" stop-color="#aaaaaa"/><stop offset="100%" stop-color="#6b4f55"/></radialGradient>
    <radialGradient id="x0g2" cx=".5" cy=".5" fx=".33" fy=".33" r=".66"><stop offset="0%" stop-color="#b6b6b6"/><stop offset="40%" stop-color="#aaaaaa"/><stop offset="100%" stop-color="#6b4f55"/></radialGradient>
    <radialGradient id="x0g3" cx=".5" cy=".5" fx=".33" fy=".33" r=".66"><stop offset="0%" stop-color="#bbbbbb"/><stop offset="40%" stop-color="#b0b0b0"/><stop offset="100%" stop-color="#755b61"/></radialGradient>
    <radialGradient id="x0g4" cx=".5" cy=".5" fx=".33" fy=".33" r=".66"><stop offset="0%" stop-color="#cbcbcb"/><stop offset="40%" stop-color="#c3c3c3"/><stop offset="100%" stop-color="#978388"/></radialGradient>
    <radialGradient id="x0g5" cx=".5" cy=".5" fx=".33" fy=".33" r=".66"><stop offset="0%" stop-color="#cccccc"/><stop offset="40%" stop-color="#c3c3c3"/><stop offset="100%" stop-color="#978488"/></radialGradient>
    <radialGradient id="x0g6" cx=".5" cy=".5" fx=".33" fy=".33" r=".66"><stop offset="0%" stop-color="#f05e4d"/><stop offset="40%" stop-color="#ff1e1e"/><stop offset="100%" stop-color="#9a122d"/></radialGradient>
    <radialGradient id="x0g7" cx=".5" cy=".5" fx=".33" fy=".33" r=".66"><stop offset="0%" stop-color="#ffffff"/><stop offset="40%" stop-color="#ffffff"/><stop offset="100%" stop-color="#a38489"/></radialGradient>
    <radialGradient id="x0g13" cx=".5" cy=".5" fx=".33" fy=".33" r=".66"><stop offset="0%" stop-color="#bbbbbb"/><stop offset="40%" stop-color="#b0b0b0"/><stop offset="100%" stop-color="#755b61"/></radialGradient>
    <radialGradient id="x0g14" cx=".5" cy=".5" fx=".33" fy=".33" r=".66"><stop offset="0%" stop-color="#b6b6b6"/><stop offset="40%" stop-color="#aaaaaa"/><stop offset="100%" stop-color="#6b4f55"/></radialGradient>
    <radialGradient id="x0g15" cx=".5" cy=".5" fx=".33" fy=".33" r=".66"><stop offset="0%" stop-color="#b6b6b6"/><stop offset="40%" stop-color="#aaaaaa"/><stop offset="100%" stop-color="#6b4f55"/></radialGradient>
    <radialGradient id="x0g16" cx=".5" cy=".5" fx=".33" fy=".33" r=".66"><stop offset="0%" stop-color="#bbbbbb"/><stop offset="40%" stop-color="#b0b0b0"/><stop offset="100%" stop-color="#755b61"/></radialGradient>
    <radialGradient id="x0g17" cx=".5" cy=".5" fx=".33" fy=".33" r=".66"><stop offset="0%" stop-color="#cbcbcb"/><stop offset="40%" stop-color="#c3c3c3"/><stop offset="100%" stop-color="#978388"/></radialGradient>
    <radialGradient id="x0g18" cx=".5" cy=".5" fx=".33" fy=".33" r=".66"><stop offset="0%" stop-color="#cccccc"/><stop offset="40%" stop-color="#c3c3c3"/><stop offset="100%" stop-color="#978488"/></radialGradient>
    <radialGradient id="x0g19" cx=".5" cy=".5" fx=".33" fy=".33" r=".66"><stop offset="0%" stop-color="#f05e4d"/><stop offset="40%" stop-color="#ff1e1e"/><stop offset="100%" stop-color="#9a122d"/></radialGradient>
    <radialGradient id="x0g20" cx=".5" cy=".5" fx=".33" fy=".33" r=".66"><stop offset="0%" stop-color="#ffffff"/><stop offset="40%" stop-color="#ffffff"/><stop offset="100%" stop-color="#a38489"/></radialGradient>
  </defs>
  <circle cx="493.7" cy="421.7" r="27.8" fill="url(#x0g5)" stroke="#6e6e6e" stroke-width="4.9"/>
  <line x1="493.6" y1="447.7" x2="477.2" y2="502.6" stroke="#3d3d3d" stroke-width="8.6" stroke-linecap="round"/>
  <line x1="479.5" y1="443.5" x2="463.1" y2="498.4" stroke="#3d3d3d" stroke-width="8.6" stroke-linecap="round" stroke-dasharray="8.6,17.1"/>
  <line x1="490.2" y1="407.7" x2="498.2" y2="380.2" stroke="#222222" stroke-width="8.6" stroke-linecap="round" stroke-dasharray="8.6,17.1"/>
  <line x1="504.3" y1="411.8" x2="512.3" y2="384.4" stroke="#222222" stroke-width="8.6" stroke-linecap="round"/>
  <circle cx="252.4" cy="323.7" r="27.8" fill="url(#x0g18)" stroke="#6d6d6d" stroke-width="4.9"/>
  <line x1="247.0" y1="349.2" x2="219.9" y2="399.6" stroke="#3d3d3d" stroke-width="8.6" stroke-linecap="round" stroke-dasharray="8.6,17.1"/>
  <line x1="234.1" y1="342.3" x2="207.0" y2="392.6" stroke="#3d3d3d" stroke-width="8.6" stroke-linecap="round"/>
  <line x1="252.0" y1="309.2" x2="266.0" y2="283.7" stroke="#222222" stroke-width="8.6" stroke-linecap="round"/>
  <line x1="264.9" y1="316.2" x2="278.8" y2="290.7" stroke="#222222" stroke-width="8.6" stroke-linecap="round" stroke-dasharray="8.6,17.1"/>
  <circle cx="463.0" cy="524.4" r="27.8" fill="url(#x0g4)" stroke="#6d6d6d" stroke-width="4.9"/>
  <line x1="466.5" y1="538.5" x2="458.3" y2="566.0" stroke="#222222" stroke-width="8.6" stroke-linecap="round"/>
  <line x1="452.4" y1="534.3" x2="444.2" y2="561.8" stroke="#222222" stroke-width="8.6" stroke-linecap="round" stroke-dasharray="8.6,17.1"/>
  <circle cx="201.6" cy="418.1" r="27.8" fill="url(#x0g17)" stroke="#6d6d6d" stroke-width="4.9"/>
  <line x1="202.2" y1="432.6" x2="188.8" y2="458.1" stroke="#222222" stroke-width="8.6" stroke-linecap="round" stroke-dasharray="8.6,17.1"/>
  <line x1="189.3" y1="425.8" x2="175.8" y2="451.2" stroke="#222222" stroke-width="8.6" stroke-linecap="round"/>
  <path d="M 486.5 179.6 C 486.7 181.0 486.7 182.4 486.8 183.7 C 486.9 185.1 486.9 186.5 486.9 187.9 C 486.9 189.3 486.9 190.6 486.8 192.0 C 486.7 193.4 486.6 194.8 486.4 196.1 C 486.2 197.5 485.9 198.8 485.5 200.1 C 485.1 201.5 484.8 202.8 484.2 204.0 C 483.6 205.2 482.8 206.3 482.1 207.5 C 481.4 208.6 480.6 209.7 479.9 210.8 C 479.1 211.9 478.4 213.1 477.6 214.2 C 476.9 215.3 476.0 216.4 475.3 217.5 C 474.6 218.6 473.8 219.7 473.2 220.9 C 472.6 222.1 472.0 223.4 471.5 224.6 C 470.9 225.8 470.4 227.1 469.8 228.3 C 469.3 229.6 468.7 230.8 468.1 232.0 C 467.5 233.3 466.9 234.5 466.4 235.7 C 465.9 237.0 465.5 238.3 465.1 239.6 C 464.7 240.9 464.4 242.3 464.1 243.6 C 463.7 244.9 463.4 246.3 463.1 247.6 C 462.7 248.9 462.4 250.3 461.9 251.6 C 461.5 252.9 461.0 254.1 460.4 255.3 C 459.7 256.5 458.9 257.6 458.1 258.7 C 457.4 259.8 456.7 260.9 455.9 262.1 C 455.2 263.2 454.4 264.3 453.6 265.4 C 452.9 266.5 452.0 267.5 451.3 268.6 C 450.5 269.7 449.8 270.9 449.1 272.1 C 448.4 273.2 447.8 274.4 447.0 275.5 C 446.3 276.6 445.6 277.8 444.7 278.8 C 443.9 279.8 442.9 280.7 442.0 281.7 C 441.0 282.6 440.0 283.4 439.0 284.3 C 438.0 285.2 437.0 286.1 436.1 287.0 C 435.2 288.0 434.4 289.1 433.6 290.1 C 432.8 291.2 432.0 292.2 431.2 293.3 C 430.3 294.3 429.5 295.4 428.6 296.4 C 427.7 297.4 426.7 298.2 425.7 299.1 C 424.7 300.0 423.7 300.8 422.8 301.7 C 421.8 302.6 420.8 303.5 420.0 304.5 C 419.1 305.6 418.5 306.8 417.8 307.9 C 417.1 309.1 416.4 310.3 415.8 311.5 C 415.2 312.7 414.6 313.9 414.0 315.1 C 413.4 316.3 412.7 317.5 412.2 318.8 C 411.6 320.0 411.1 321.3 410.7 322.6 C 410.3 323.9 410.0 325.2 409.7 326.6 C 409.4 327.9 409.0 329.2 408.7 330.6 C 408.4 331.9 408.1 333.2 407.7 334.6 C 407.4 335.9 407.1 337.2 406.6 338.5 C 406.1 339.8 405.5 341.0 405.0 342.3 C 404.5 343.5 403.8 344.7 403.4 346.0 C 402.9 347.3 402.7 348.7 402.3 350.0 C 402.0 351.3 401.7 352.7 401.3 354.0 C 401.0 355.3 400.7 356.7 400.4 358.0 C 400.0 359.3 399.8 360.7 399.3 362.0 C 398.9 363.3 398.4 364.5 397.8 365.8 C 397.3 367.0 396.6 368.2 396.1 369.5 C 395.5 370.7 395.0 371.9 394.4 373.2 C 393.9 374.4 393.4 375.7 392.8 377.0 C 392.3 378.2 391.8 379.5 391.2 380.7 C 390.6 381.9 389.9 383.1 389.3 384.3 C 388.7 385.5 388.1 386.7 387.5 388.0 C 386.9 389.2 386.4 390.4 385.8 391.7 C 385.3 392.9 384.8 394.2 384.1 395.4 C 383.5 396.6 382.9 397.8 382.1 398.9 C 381.4 400.0 380.5 401.1 379.8 402.2 C 379.0 403.3 378.3 404.4 377.5 405.5 C 376.7 406.6 376.0 407.7 375.2 408.8 C 374.4 409.9 373.6 410.9 372.9 412.1 C 372.2 413.2 371.6 414.5 371.0 415.7 C 370.4 416.9 369.8 418.2 369.3 419.4 C 368.7 420.6 368.2 421.9 367.6 423.1 C 367.1 424.4 366.4 425.6 365.9 426.8 C 365.3 428.0 364.7 429.3 364.3 430.6 C 363.8 431.8 363.5 433.2 363.2 434.5 C 362.8 435.8 362.5 437.2 362.2 438.5 C 361.9 439.9 361.6 441.2 361.2 442.5 C 360.9 443.9 360.6 445.2 360.1 446.5 C 359.7 447.8 359.1 449.0 358.6 450.3 C 358.0 451.5 357.4 452.7 356.8 453.9 C 356.2 455.2 355.7 456.4 355.2 457.7 C 354.6 458.9 354.1 460.2 353.6 461.5 C 353.0 462.7 352.5 464.0 351.9 465.2 C 351.4 466.4 350.7 467.6 350.1 468.8 C 349.5 470.0 348.8 471.2 348.3 472.5 C 347.7 473.7 347.2 475.0 346.7 476.2 C 346.1 477.5 345.6 478.7 345.0 480.0 C 344.5 481.2 343.9 482.4 343.3 483.6 C 342.7 484.8 342.0 486.0 341.3 487.2 C 340.7 488.4 340.1 489.6 339.4 490.8 C 338.7 491.9 338.1 493.1 337.3 494.2 C 336.5 495.3 335.7 496.4 334.7 497.3 C 333.8 498.1 332.6 498.7 331.5 499.3 C 330.3 499.9 329.1 500.4 327.9 500.7 C 326.6 501.0 325.3 501.0 324.1 501.1 C 322.8 501.1 321.5 501.2 320.3 501.0 C 319.0 500.8 317.8 500.4 316.6 500.0 C 315.4 499.5 314.1 499.0 313.1 498.3 C 312.1 497.5 311.2 496.4 310.5 495.3 C 309.8 494.1 309.3 492.8 308.9 491.5 C 308.5 490.2 308.3 488.8 308.1 487.5 C 307.9 486.1 307.9 484.7 308.0 483.3 C 308.0 482.0 308.0 480.6 308.2 479.2 C 308.4 477.9 308.7 476.5 309.0 475.2 C 309.3 473.8 309.7 472.5 310.1 471.2 C 310.6 469.9 311.2 468.7 311.7 467.4 C 312.2 466.2 312.8 464.9 313.2 463.6 C 313.6 462.3 313.9 461.0 314.3 459.7 C 314.6 458.3 314.9 457.0 315.3 455.7 C 315.6 454.3 315.9 453.0 316.2 451.7 C 316.6 450.3 316.9 449.0 317.3 447.7 C 317.8 446.4 318.3 445.2 318.9 443.9 C 319.4 442.7 320.1 441.5 320.6 440.2 C 321.2 439.0 321.7 437.8 322.3 436.5 C 322.8 435.2 323.3 434.0 323.9 432.7 C 324.4 431.5 324.9 430.2 325.5 429.0 C 326.1 427.8 326.8 426.6 327.4 425.4 C 328.0 424.2 328.6 423.0 329.2 421.7 C 329.7 420.5 330.2 419.2 330.8 418.0 C 331.3 416.7 331.8 415.5 332.4 414.2 C 333.0 413.0 333.5 411.8 334.2 410.6 C 334.8 409.3 335.4 408.2 336.0 407.0 C 336.6 405.7 337.2 404.5 337.7 403.2 C 338.3 402.0 338.8 400.7 339.3 399.5 C 339.8 398.2 340.4 396.9 340.9 395.7 C 341.5 394.5 342.1 393.3 342.7 392.0 C 343.2 390.8 343.8 389.6 344.3 388.3 C 344.8 387.0 345.1 385.7 345.4 384.3 C 345.8 383.0 346.1 381.7 346.4 380.3 C 346.7 379.0 347.0 377.7 347.4 376.3 C 347.7 375.0 348.0 373.6 348.5 372.4 C 348.9 371.1 349.4 369.8 350.0 368.6 C 350.5 367.3 351.2 366.1 351.7 364.9 C 352.3 363.7 352.8 362.4 353.4 361.2 C 353.9 359.9 354.4 358.6 355.0 357.4 C 355.5 356.1 356.0 354.9 356.6 353.6 C 357.1 352.4 357.7 351.2 358.3 350.0 C 358.9 348.7 359.5 347.5 360.0 346.2 C 360.5 345.0 360.8 343.6 361.1 342.3 C 361.5 341.0 361.8 339.6 362.2 338.3 C 362.6 337.0 363.1 335.7 363.6 334.4 C 364.1 333.2 364.6 331.9 365.3 330.7 C 366.0 329.6 366.8 328.6 367.7 327.6 C 368.6 326.6 369.6 325.8 370.5 324.8 C 371.5 323.9 372.5 323.1 373.4 322.1 C 374.3 321.1 375.1 320.0 375.8 318.9 C 376.6 317.8 377.2 316.6 377.9 315.4 C 378.6 314.2 379.2 313.0 379.8 311.8 C 380.4 310.6 381.0 309.4 381.6 308.2 C 382.2 307.0 382.8 305.8 383.3 304.5 C 383.8 303.2 384.1 301.8 384.4 300.5 C 384.8 299.2 385.1 297.9 385.4 296.5 C 385.8 295.2 386.1 293.9 386.5 292.5 C 386.8 291.2 387.1 289.8 387.6 288.6 C 388.1 287.3 388.8 286.1 389.5 285.0 C 390.1 283.8 391.0 282.8 391.8 281.7 C 392.6 280.6 393.3 279.5 394.1 278.4 C 395.0 277.4 395.9 276.4 396.7 275.4 C 397.6 274.4 398.6 273.5 399.4 272.5 C 400.3 271.5 401.1 270.4 401.9 269.3 C 402.7 268.3 403.5 267.2 404.3 266.1 C 405.1 265.0 405.9 263.9 406.6 262.8 C 407.3 261.6 407.8 260.4 408.4 259.1 C 409.0 257.9 409.5 256.6 410.1 255.4 C 410.6 254.2 411.1 252.9 411.7 251.7 C 412.3 250.4 412.9 249.3 413.5 248.0 C 414.0 246.8 414.5 245.5 415.0 244.2 C 415.4 242.9 415.7 241.6 416.0 240.2 C 416.4 238.9 416.7 237.6 417.0 236.2 C 417.4 234.9 417.7 233.6 418.1 232.2 C 418.5 230.9 418.9 229.6 419.5 228.4 C 420.0 227.2 420.8 226.1 421.5 224.9 C 422.2 223.8 423.0 222.7 423.8 221.6 C 424.5 220.4 425.2 219.3 426.0 218.2 C 426.7 217.1 427.6 216.0 428.3 214.9 C 429.1 213.8 429.8 212.7 430.5 211.5 C 431.1 210.3 431.6 209.1 432.2 207.8 C 432.8 206.6 433.3 205.3 433.9 204.1 C 434.5 202.9 435.0 201.6 435.7 200.4 C 436.3 199.2 436.9 198.0 437.6 196.8 C 438.2 195.6 438.7 194.4 439.3 193.1 C 439.8 191.9 440.4 190.6 441.0 189.4 C 441.5 188.2 442.1 186.9 442.8 185.8 C 443.5 184.6 444.3 183.6 445.1 182.5 C 445.9 181.4 446.7 180.3 447.5 179.3 C 448.3 178.2 449.2 177.2 450.1 176.2 C 451.0 175.2 452.0 174.4 453.0 173.5 C 453.9 172.6 455.0 171.8 456.0 171.0 C 457.0 170.2 458.0 169.3 459.2 168.7 C 460.3 168.1 461.5 167.7 462.7 167.3 C 464.0 166.9 465.2 166.6 466.5 166.4 C 467.7 166.2 469.0 166.2 470.3 166.1 C 471.5 166.1 472.8 166.1 474.1 166.3 C 475.3 166.5 476.6 166.8 477.8 167.3 C 479.0 167.7 480.2 168.2 481.3 169.0 C 482.3 169.7 483.2 170.8 483.9 171.9 C 484.7 173.0 485.1 174.3 485.5 175.6 C 486.0 176.9 486.3 178.3 486.5 179.6 Z" fill="#31c933" fill-rule="evenodd" stroke="none" opacity="1.000"/>
  <circle cx="533.8" cy="265.4" r="24.9" fill="url(#x0g6)" stroke="#191919" stroke-width="4.9"/>
  <line x1="528.6" y1="287.3" x2="514.6" y2="346.1" stroke="#0e0e0e" stroke-width="12.2" stroke-linecap="round"/>
  <line x1="556.0" y1="262.6" x2="594.7" y2="257.7" stroke="#0e0e0e" stroke-width="12.2" stroke-linecap="round"/>
  <circle cx="508.8" cy="370.4" r="27.8" fill="url(#x0g0)" stroke="#191919" stroke-width="4.9"/>
  <line x1="512.3" y1="384.4" x2="504.3" y2="411.8" stroke="#030303" stroke-width="8.6" stroke-linecap="round"/>
  <line x1="498.2" y1="380.2" x2="490.2" y2="407.7" stroke="#030303" stroke-width="8.6" stroke-linecap="round" stroke-dasharray="8.6,17.1"/>
  <circle cx="401.2" cy="191.2" r="14.6" fill="url(#x0g20)" stroke="#191919" stroke-width="4.9"/>
  <line x1="388.1" y1="189.4" x2="349.0" y2="184.1" stroke="#0e0e0e" stroke-width="12.2" stroke-linecap="round"/>
  <circle cx="326.8" cy="181.1" r="24.9" fill="url(#x0g19)" stroke="#191919" stroke-width="4.9"/>
  <line x1="316.6" y1="201.1" x2="289.8" y2="253.9" stroke="#0e0e0e" stroke-width="12.2" stroke-linecap="round"/>
  <circle cx="447.6" cy="575.9" r="27.8" fill="url(#x0g3)" stroke="#191919" stroke-width="4.9"/>
  <line x1="444.2" y1="561.8" x2="452.4" y2="534.3" stroke="#030303" stroke-width="8.6" stroke-linecap="round" stroke-dasharray="8.6,17.1"/>
  <line x1="458.3" y1="566.0" x2="466.5" y2="538.5" stroke="#030303" stroke-width="8.6" stroke-linecap="round"/>
  <circle cx="278.4" cy="276.2" r="27.8" fill="url(#x0g13)" stroke="#191919" stroke-width="4.9"/>
  <line x1="278.8" y1="290.7" x2="264.9" y2="316.2" stroke="#030303" stroke-width="8.6" stroke-linecap="round" stroke-dasharray="8.6,17.1"/>
  <line x1="266.0" y1="283.7" x2="252.0" y2="309.2" stroke="#030303" stroke-width="8.6" stroke-linecap="round"/>
  <circle cx="607.8" cy="256.1" r="14.6" fill="url(#x0g7)" stroke="#191919" stroke-width="4.9"/>
  <circle cx="176.4" cy="465.7" r="27.8" fill="url(#x0g16)" stroke="#191919" stroke-width="4.9"/>
  <line x1="175.8" y1="451.2" x2="189.3" y2="425.8" stroke="#030303" stroke-width="8.6" stroke-linecap="round"/>
  <line x1="188.8" y1="458.1" x2="202.2" y2="432.6" stroke="#030303" stroke-width="8.6" stroke-linecap="round" stroke-dasharray="8.6,17.1"/>
  <circle cx="201.6" cy="418.1" r="27.8" fill="url(#x0g15)" stroke="#000000" stroke-width="4.9"/>
  <line x1="207.0" y1="392.6" x2="234.1" y2="342.3" stroke="#000000" stroke-width="8.6" stroke-linecap="round"/>
  <line x1="219.9" y1="399.6" x2="247.0" y2="349.2" stroke="#000000" stroke-width="8.6" stroke-linecap="round" stroke-dasharray="8.6,17.1"/>
  <circle cx="463.0" cy="524.4" r="27.8" fill="url(#x0g2)" stroke="#000000" stroke-width="4.9"/>
  <line x1="463.1" y1="498.4" x2="479.5" y2="443.5" stroke="#000000" stroke-width="8.6" stroke-linecap="round" stroke-dasharray="8.6,17.1"/>
  <line x1="477.2" y1="502.6" x2="493.6" y2="447.7" stroke="#000000" stroke-width="8.6" stroke-linecap="round"/>
  <circle cx="252.4" cy="323.7" r="27.8" fill="url(#x0g14)" stroke="#000000" stroke-width="4.9"/>
  <circle cx="493.7" cy="421.7" r="27.8" fill="url(#x0g1)" stroke="#000000" stroke-width="4.9"/>
</svg>