<?xml version="1.0" encoding="UTF-8" standalone="no"?>
<!DOCTYPE svg PUBLIC "-//W3C//DTD SVG 1.1//EN" "http://www.w3.org/Graphics/SVG/1.1/DTD/svg11.dtd">
<svg width="100%" height="100%" viewBox="0 0 1713 445" version="1.1" xmlns="http://www.w3.org/2000/svg" xmlns:xlink="http://www.w3.org/1999/xlink" xml:space="preserve" xmlns:serif="http://www.serif.com/" style="fill-rule:evenodd;clip-rule:evenodd;stroke-linecap:round;">
    <g transform="matrix(1,0,0,1,-196.517974,-2016.894297)">
        <rect id="Artboard1" x="0" y="0" width="2480.315" height="3507.874" style="fill:white;"/>
        <g id="Artboard11" serif:id="Artboard1">
            <g transform="matrix(1,0,0,1,-250.350222,1878)">
                <g transform="matrix(0.678952,0,0,0.678952,398.069865,-778.108613)">
                    <path d="M515.858,1372.743L638.626,1495.51L638.626,1917.368L94,1917.368L94,1372.743L515.858,1372.743Z" style="fill:white;"/>
                    <clipPath id="_clip1">
                        <path d="M515.858,1372.743L638.626,1495.51L638.626,1917.368L94,1917.368L94,1372.743L515.858,1372.743Z"/>
                    </clipPath>
                    <g clip-path="url(#_clip1)">
                        <g id="BTUBE" transform="matrix(0.378276,0.178862,-0.178862,0.378276,-350.95311,982.090343)">
                            <g transform="matrix(4.166667,0,0,4.166667,0,0)">
                                <path d="M607.616,433.234L587.616,463.634C583.068,470.547 573.778,472.464 566.866,467.916C559.953,463.368 558.036,454.078 562.584,447.166L582.581,416.77L582.584,416.766L603.881,384.37C608.426,377.456 617.716,375.536 624.63,380.081C631.544,384.626 633.464,393.916 628.919,400.83L607.619,433.23L607.616,433.234Z" style="fill:none;stroke:black;stroke-width:2.11px;"/>
                            </g>
                            <g transform="matrix(4.166667,0,0,4.166667,0,0)">
                                <circle cx="575.2" cy="246.5" r="31.4" style="fill:none;stroke:rgb(7,7,7);stroke-width:2.11px;stroke-linecap:butt;"/>
                            </g>
                            <g transform="matrix(4.166667,0,0,4.166667,0,0)">
                                <path d="M590.106,311.466L574.306,278.165C570.901,270.989 573.958,262.411 581.135,259.006C588.311,255.601 596.889,258.658 600.294,265.835L616.094,299.134L632.894,334.534C636.299,341.71 633.243,350.288 626.066,353.694C618.89,357.099 610.312,354.043 606.906,346.866L590.106,311.466Z" style="fill:none;stroke:black;stroke-width:2.11px;"/>
                            </g>
                            <g transform="matrix(4.166667,0,0,4.166667,0,0)">
                                <path d="M508.934,252.874L470.134,248.074C462.251,247.098 456.651,239.917 457.626,232.034C458.602,224.151 465.783,218.551 473.666,219.526L512.46,224.326L512.466,224.326L548.96,228.826C556.843,229.798 562.446,236.976 561.474,244.86C560.502,252.743 553.324,258.346 545.44,257.374L508.94,252.874L508.934,252.874Z" style="fill:none;stroke:black;stroke-width:2.11px;"/>
                            </g>
                            <g transform="matrix(4.166667,0,0,4.166667,0,0)">
                                <path d="M626.465,201.451L603.568,232.446C598.849,238.835 589.843,240.188 583.454,235.468C577.065,230.749 575.712,221.743 580.432,215.354L603.332,184.354L603.335,184.349L621.24,160.526C625.962,154.139 634.968,152.79 641.355,157.512C647.742,162.235 649.091,171.241 644.369,177.627L626.468,201.446L626.465,201.451Z" style="fill:none;stroke:black;stroke-width:2.11px;"/>
                            </g>
                            <g transform="matrix(-3.28615,-2.60342,2.60342,-3.28615,1226.322288,4150.245963)">
                                <path d="M277.03,541.114L245.83,525.014C238.477,521.219 235.592,512.183 239.386,504.83C243.181,497.477 252.217,494.592 259.57,498.386L290.726,514.464L290.77,514.486L320.226,529.564C327.592,533.334 330.507,542.361 326.736,549.726C322.966,557.092 313.939,560.007 306.574,556.236L277.074,541.136C277.059,541.129 277.044,541.121 277.03,541.114Z" style="fill:none;stroke:black;stroke-width:2.11px;"/>
                            </g>
                            <g transform="matrix(4.166667,0,0,4.166667,0,0)">
                                <path d="M400.023,327.654C396.072,334.239 387.531,336.374 380.946,332.423C374.361,328.472 372.226,319.931 376.177,313.346L414.877,248.846C418.828,242.261 427.369,240.126 433.954,244.077C440.539,248.028 442.674,256.569 438.723,263.154L400.023,327.654Z" style="fill:none;fill-rule:nonzero;stroke:black;stroke-width:2.11px;"/>
                            </g>
                            <g transform="matrix(4.166667,0,0,4.166667,0,0)">
                                <circle cx="442.2" cy="230.2" r="33.3" style="fill:none;stroke:rgb(3,3,3);stroke-width:2.11px;stroke-linecap:butt;"/>
                            </g>
                            <g transform="matrix(4.166667,0,0,4.166667,0,0)">
                                <path d="M432.159,169.427L443.759,197.027C446.837,204.35 443.395,212.781 436.073,215.859C428.75,218.937 420.319,215.495 417.241,208.173L405.645,180.581L405.641,180.573L395.245,155.881C392.162,148.56 395.598,140.127 402.919,137.045C410.24,133.962 418.673,137.398 421.755,144.719L432.155,169.419L432.159,169.427Z" style="fill:none;stroke:black;stroke-width:2.11px;"/>
                            </g>
                            <g transform="matrix(4.166667,0,0,4.166667,0,0)">
                                <circle cx="632.7" cy="367.8" r="33.3" style="fill:none;stroke:rgb(2,2,2);stroke-width:2.11px;stroke-linecap:butt;"/>
                            </g>
                            <g transform="matrix(4.166667,0,0,4.166667,-21.773964,42.255891)">
                                <circle cx="657.1" cy="135.9" r="33.3" style="fill:none;stroke:rgb(2,2,2);stroke-width:2.11px;stroke-linecap:butt;"/>
                            </g>
                            <g transform="matrix(4.166667,0,0,4.166667,0,0)">
                                <circle cx="398" cy="125.5" r="29.9" style="fill:none;stroke:rgb(1,1,1);stroke-width:2.11px;stroke-linecap:butt;"/>
                            </g>
                        </g>
                        <g id="BTUBE1" serif:id="BTUBE" transform="matrix(0.378276,0.178862,-0.178862,0.378276,-350.95311,982.090343)">
                            <g transform="matrix(0.707107,-0.707107,0.707107,0.707107,115.956667,1325.777491)">
                                <g transform="matrix(5.533466,-2.616411,2.616411,5.533466,-1867.670214,728.243049)">
                                    <circle cx="555.475" cy="243.914" r="3.086" style="fill:rgb(1,136,226);"/>
                                    <path d="M555.475,240.072C557.596,240.072 559.317,241.794 559.317,243.914C559.317,246.035 557.596,247.756 555.475,247.756C553.355,247.756 551.633,246.035 551.633,243.914C551.633,241.794 553.355,240.072 555.475,240.072ZM555.475,240.829C553.772,240.829 552.39,242.211 552.39,243.914C552.39,245.617 553.772,247 555.475,247C557.178,247 558.561,245.617 558.561,243.914C558.561,242.211 557.178,240.829 555.475,240.829Z" style="fill:rgb(1,136,226);"/>
                                </g>
                                <g transform="matrix(5.533466,-2.616411,2.616411,5.533466,-2014.174065,418.401051)">
                                    <circle cx="555.475" cy="243.914" r="3.086" style="fill:rgb(1,136,226);"/>
                                    <path d="M555.475,240.072C557.596,240.072 559.317,241.794 559.317,243.914C559.317,246.035 557.596,247.756 555.475,247.756C553.355,247.756 551.633,246.035 551.633,243.914C551.633,241.794 553.355,240.072 555.475,240.072ZM555.475,240.829C553.772,240.829 552.39,242.211 552.39,243.914C552.39,245.617 553.772,247 555.475,247C557.178,247 558.561,245.617 558.561,243.914C558.561,242.211 557.178,240.829 555.475,240.829Z" style="fill:rgb(1,136,226);"/>
                                </g>
                                <g transform="matrix(4.017087,-1.899415,1.899415,4.017087,-915.465267,562.385091)">
                                    <path d="M555.475,278.131L555.475,201" style="fill:none;stroke:rgb(1,136,226);stroke-width:2.57px;stroke-miterlimit:1.5;"/>
                                </g>
                                <g transform="matrix(6.186997,-2.925423,2.925423,6.186997,-2379.314406,585.564774)">
                                    <circle cx="555.475" cy="243.914" r="3.086" style="fill:white;"/>
                                    <path d="M555.475,239.757C557.77,239.757 559.632,241.62 559.632,243.914C559.632,246.209 557.77,248.072 555.475,248.072C553.181,248.072 551.318,246.209 551.318,243.914C551.318,241.62 553.181,239.757 555.475,239.757ZM555.475,240.829C553.772,240.829 552.39,242.211 552.39,243.914C552.39,245.617 553.772,247 555.475,247C557.178,247 558.561,245.617 558.561,243.914C558.561,242.211 557.178,240.829 555.475,240.829Z" style="fill:rgb(1,136,226);"/>
                                </g>
                            </g>
                            <g transform="matrix(0.999988,-0.004921,0.004921,0.999988,505.137815,622.067886)">
                                <g transform="matrix(6.186997,-2.925423,2.925423,6.186997,-2379.314406,585.564774)">
                                    <circle cx="555.475" cy="243.914" r="3.086" style="fill:white;"/>
                                    <path d="M555.475,239.757C557.77,239.757 559.632,241.62 559.632,243.914C559.632,246.209 557.77,248.072 555.475,248.072C553.181,248.072 551.318,246.209 551.318,243.914C551.318,241.62 553.181,239.757 555.47,239.757L555.475,239.757ZM555.475,240.829C553.772,240.829 552.39,242.211 552.39,243.914C552.39,245.617 553.772,247 555.475,247C557.178,247 558.561,245.617 558.561,243.914C558.561,242.211 557.178,240.829 555.475,240.829Z" style="fill:rgb(1,136,226);"/>
                                </g>
                                <g transform="matrix(6.186997,-2.925423,2.925423,6.186997,-2142.210996,474.878654)">
                                    <circle cx="555.475" cy="243.914" r="3.086" style="fill:white;"/>
                                    <path d="M555.475,239.757C557.77,239.757 559.632,241.62 559.632,243.914C559.632,246.209 557.77,248.072 555.475,248.072C553.181,248.072 551.318,246.209 551.318,243.914C551.318,241.62 553.181,239.757 555.47,239.757L555.475,239.757ZM555.475,240.829C553.772,240.829 552.39,242.211 552.39,243.914C552.39,245.617 553.772,247 555.475,247C557.178,247 558.561,245.617 558.561,243.914C558.561,242.211 557.178,240.829 555.475,240.829Z" style="fill:rgb(1,136,226);"/>
                                </g>
                                <g transform="matrix(2.925423,6.186997,-6.186997,2.925423,1718.267352,-3854.507735)">
                                    <circle cx="555.475" cy="243.914" r="3.086" style="fill:white;"/>
                                    <path d="M555.475,239.757C557.77,239.757 559.632,241.62 559.632,243.914C559.632,246.209 557.77,248.072 555.475,248.072C553.181,248.072 551.318,246.209 551.318,243.914C551.318,241.62 553.181,239.757 555.475,239.757ZM555.475,240.829C553.772,240.829 552.39,242.211 552.39,243.914C552.39,245.617 553.772,247 555.475,247C557.178,247 558.561,245.617 558.561,243.914C558.561,242.211 557.178,240.829 555.475,240.829Z" style="fill:rgb(1,136,226);"/>
                                </g>
                                <g transform="matrix(2.925423,6.186997,-6.186997,2.925423,1828.953472,-3617.404324)">
                                    <circle cx="555.475" cy="243.914" r="3.086" style="fill:white;"/>
                                    <path d="M555.475,239.757C557.77,239.757 559.632,241.62 559.632,243.914C559.632,246.209 557.77,248.072 555.475,248.072C553.181,248.072 551.318,246.209 551.318,243.914C551.318,241.62 553.181,239.757 555.475,239.757ZM555.475,240.829C553.772,240.829 552.39,242.211 552.39,243.914C552.39,245.617 553.772,247 555.475,247C557.178,247 558.561,245.617 558.561,243.914C558.561,242.211 557.178,240.829 555.475,240.829Z" style="fill:rgb(1,136,226);"/>
                                </g>
                            </g>
                            <g transform="matrix(1.063308,-0.005233,0.005233,1.063308,-168.801775,528.505359)">
                                <g transform="matrix(6.186997,-2.925423,2.925423,6.186997,-2379.314406,585.564774)">
                                    <circle cx="555.475" cy="243.914" r="3.086" style="fill:white;"/>
                                    <path d="M555.475,239.821C557.734,239.821 559.569,241.655 559.569,243.914C559.569,246.174 557.734,248.008 555.475,248.008C553.216,248.008 551.382,246.174 551.382,243.914C551.382,241.655 553.216,239.821 555.47,239.821L555.475,239.821ZM555.475,240.829C553.772,240.829 552.39,242.211 552.39,243.914C552.39,245.617 553.772,247 555.475,247C557.178,247 558.561,245.617 558.561,243.914C558.561,242.211 557.178,240.829 555.475,240.829Z" style="fill:rgb(1,136,226);"/>
                                </g>
                                <g transform="matrix(6.186997,-2.925423,2.925423,6.186997,-2142.210996,474.878654)">
                                    <circle cx="555.475" cy="243.914" r="3.086" style="fill:white;"/>
                                    <path d="M555.475,239.821C557.734,239.821 559.569,241.655 559.569,243.914C559.569,246.174 557.734,248.008 555.475,248.008C553.216,248.008 551.382,246.174 551.382,243.914C551.382,241.655 553.216,239.821 555.471,239.821L555.475,239.821ZM555.475,240.829C553.772,240.829 552.39,242.211 552.39,243.914C552.39,245.617 553.772,247 555.475,247C557.178,247 558.561,245.617 558.561,243.914C558.561,242.211 557.178,240.829 555.475,240.829Z" style="fill:rgb(1,136,226);"/>
                                </g>
                                <g transform="matrix(2.925423,6.186997,-6.186997,2.925423,1718.267352,-3854.507735)">
                                    <circle cx="555.475" cy="243.914" r="3.086" style="fill:white;"/>
                                    <path d="M555.475,239.821C557.734,239.821 559.569,241.655 559.569,243.914C559.569,246.174 557.734,248.008 555.475,248.008C553.216,248.008 551.382,246.174 551.382,243.914C551.382,241.655 553.216,239.821 555.475,239.821ZM555.475,240.829C553.772,240.829 552.39,242.211 552.39,243.914C552.39,245.617 553.772,247 555.475,247C557.178,247 558.561,245.617 558.561,243.914C558.561,242.211 557.178,240.829 555.475,240.829Z" style="fill:rgb(1,136,226);"/>
                                </g>
                                <g transform="matrix(2.925423,6.186997,-6.186997,2.925423,1828.953472,-3617.404324)">
                                    <circle cx="555.475" cy="243.914" r="3.086" style="fill:white;"/>
                                    <path d="M555.475,239.821C557.734,239.821 559.569,241.655 559.569,243.914C559.569,246.174 557.734,248.008 555.475,248.008C553.216,248.008 551.382,246.174 551.382,243.914C551.382,241.655 553.216,239.821 555.475,239.821ZM555.475,240.829C553.772,240.829 552.39,242.211 552.39,243.914C552.39,245.617 553.772,247 555.475,247C557.178,247 558.561,245.617 558.561,243.914C558.561,242.211 557.178,240.829 555.475,240.829Z" style="fill:rgb(1,136,226);"/>
                                </g>
                            </g>
                            <g transform="matrix(0.560008,-6.820808,6.820808,0.560008,-1132.67044,4704.410508)">
                                <path d="M570.652,424.024L574.64,428.012L570.652,432L566.664,428.012L570.652,424.024Z" style="fill:white;stroke:rgb(1,136,226);stroke-width:1.07px;stroke-linejoin:round;stroke-miterlimit:1.5;"/>
                            </g>
                            <g transform="matrix(0.560008,-6.820808,6.820808,0.560008,-1122.825587,4584.501756)">
                                <path d="M570.652,424.024L574.64,428.012L570.652,432L566.664,428.012L570.652,424.024Z" style="fill:white;stroke:rgb(1,136,226);stroke-width:1.07px;stroke-linejoin:round;stroke-miterlimit:1.5;"/>
                            </g>
                            <g transform="matrix(6.290625,-2.695378,2.695378,6.290625,-3051.139923,-397.810554)">
                                <path d="M570.652,424.024L574.64,428.012L570.652,432L566.664,428.012L570.652,424.024Z" style="fill:white;stroke:rgb(1,136,226);stroke-width:1.07px;stroke-linejoin:round;stroke-miterlimit:1.5;"/>
                            </g>
                            <g transform="matrix(6.290625,-2.695378,2.695378,6.290625,-2940.551701,-445.194886)">
                                <path d="M570.652,424.024L574.64,428.012L570.652,432L566.664,428.012L570.652,424.024Z" style="fill:white;stroke:rgb(1,136,226);stroke-width:1.07px;stroke-linejoin:round;stroke-miterlimit:1.5;"/>
                            </g>
                            <g transform="matrix(5.626989,3.895385,-3.895385,5.626989,960.755759,-3851.788885)">
                                <path d="M570.652,424.024L574.64,428.012L570.652,432L566.664,428.012L570.652,424.024Z" style="fill:white;stroke:rgb(1,136,226);stroke-width:1.07px;stroke-linejoin:round;stroke-miterlimit:1.5;"/>
                            </g>
                            <g transform="matrix(5.626989,3.895385,-3.895385,5.626989,1059.677358,-3783.308616)">
                                <path d="M570.652,424.024L574.64,428.012L570.652,432L566.664,428.012L570.652,424.024Z" style="fill:white;stroke:rgb(1,136,226);stroke-width:1.07px;stroke-linejoin:round;stroke-miterlimit:1.5;"/>
                            </g>
                            <g transform="matrix(0.957775,-0.004714,0.004714,0.957775,-153.346903,134.998459)">
                                <g transform="matrix(6.186997,-2.925423,2.925423,6.186997,-2379.314406,585.564774)">
                                    <circle cx="555.475" cy="243.914" r="3.086" style="fill:white;"/>
                                    <path d="M555.475,239.71C557.796,239.71 559.68,241.594 559.68,243.914C559.68,246.235 557.796,248.119 555.475,248.119C553.155,248.119 551.271,246.235 551.271,243.914C551.271,241.594 553.155,239.71 555.47,239.71L555.475,239.71ZM555.475,240.829C553.772,240.829 552.39,242.211 552.39,243.914C552.39,245.617 553.772,247 555.475,247C557.178,247 558.561,245.617 558.561,243.914C558.561,242.211 557.178,240.829 555.475,240.829Z" style="fill:rgb(1,136,226);"/>
                                </g>
                                <g transform="matrix(6.186997,-2.925423,2.925423,6.186997,-2142.210996,474.878654)">
                                    <circle cx="555.475" cy="243.914" r="3.086" style="fill:white;"/>
                                    <path d="M555.475,239.71C557.796,239.71 559.68,241.594 559.68,243.914C559.68,246.235 557.796,248.119 555.475,248.119C553.155,248.119 551.271,246.235 551.271,243.914C551.271,241.594 553.155,239.71 555.47,239.71L555.475,239.71ZM555.475,240.829C553.772,240.829 552.39,242.211 552.39,243.914C552.39,245.617 553.772,247 555.475,247C557.178,247 558.561,245.617 558.561,243.914C558.561,242.211 557.178,240.829 555.475,240.829Z" style="fill:rgb(1,136,226);"/>
                                </g>
                                <g transform="matrix(2.925423,6.186997,-6.186997,2.925423,1718.267352,-3854.507735)">
                                    <circle cx="555.475" cy="243.914" r="3.086" style="fill:white;"/>
                                    <path d="M555.475,239.71C557.796,239.71 559.68,241.594 559.68,243.914C559.68,246.235 557.796,248.119 555.475,248.119C553.155,248.119 551.271,246.235 551.271,243.914C551.271,241.594 553.155,239.71 555.475,239.71ZM555.475,240.829C553.772,240.829 552.39,242.211 552.39,243.914C552.39,245.617 553.772,247 555.475,247C557.178,247 558.561,245.617 558.561,243.914C558.561,242.211 557.178,240.829 555.475,240.829Z" style="fill:rgb(1,136,226);"/>
                                </g>
                                <g transform="matrix(2.925423,6.186997,-6.186997,2.925423,1828.953472,-3617.404324)">
                                    <circle cx="555.475" cy="243.914" r="3.086" style="fill:white;"/>
                                    <path d="M555.475,239.71C557.796,239.71 559.68,241.594 559.68,243.914C559.68,246.235 557.796,248.119 555.475,248.119C553.155,248.119 551.271,246.235 551.271,243.914C551.271,241.594 553.155,239.71 555.475,239.71ZM555.475,240.829C553.772,240.829 552.39,242.211 552.39,243.914C552.39,245.617 553.772,247 555.475,247C557.178,247 558.561,245.617 558.561,243.914C558.561,242.211 557.178,240.829 555.475,240.829Z" style="fill:rgb(1,136,226);"/>
                                </g>
                            </g>
                            <g transform="matrix(0.96647,-0.45698,0.45698,0.96647,700.649362,1071.548099)">
                                <g transform="matrix(6.186997,-2.925423,2.925423,6.186997,-2379.314406,585.564774)">
                                    <circle cx="555.475" cy="243.914" r="3.086" style="fill:white;"/>
                                    <path d="M555.475,239.826C557.731,239.826 559.563,241.658 559.563,243.914C559.563,246.171 557.731,248.002 555.475,248.002C553.219,248.002 551.387,246.171 551.387,243.914C551.387,241.658 553.219,239.826 555.475,239.826ZM555.475,240.829C553.772,240.829 552.39,242.211 552.39,243.914C552.39,245.617 553.772,247 555.475,247C557.178,247 558.561,245.617 558.561,243.914C558.561,242.211 557.178,240.829 555.475,240.829Z" style="fill:rgb(1,136,226);"/>
                                </g>
                                <g transform="matrix(6.186997,-2.925423,2.925423,6.186997,-2142.210996,474.878654)">
                                    <circle cx="555.475" cy="243.914" r="3.086" style="fill:white;"/>
                                    <path d="M555.475,239.826C557.731,239.826 559.563,241.658 559.563,243.914C559.563,246.171 557.731,248.002 555.475,248.002C553.219,248.002 551.387,246.171 551.387,243.914C551.387,241.658 553.219,239.826 555.475,239.826ZM555.475,240.829C553.772,240.829 552.39,242.211 552.39,243.914C552.39,245.617 553.772,247 555.475,247C557.178,247 558.561,245.617 558.561,243.914C558.561,242.211 557.178,240.829 555.475,240.829Z" style="fill:rgb(1,136,226);"/>
                                </g>
                                <g transform="matrix(2.925423,6.186997,-6.186997,2.925423,1718.267352,-3854.507735)">
                                    <circle cx="555.475" cy="243.914" r="3.086" style="fill:white;"/>
                                    <path d="M555.475,239.826C557.731,239.826 559.563,241.658 559.563,243.914C559.563,246.171 557.731,248.002 555.475,248.002C553.219,248.002 551.387,246.171 551.387,243.914C551.387,241.658 553.219,239.826 555.475,239.826ZM555.475,240.829C553.772,240.829 552.39,242.211 552.39,243.914C552.39,245.617 553.772,247 555.475,247C557.178,247 558.561,245.617 558.561,243.914C558.561,242.211 557.178,240.829 555.475,240.829Z" style="fill:rgb(1,136,226);"/>
                                </g>
                                <g transform="matrix(2.925423,6.186997,-6.186997,2.925423,1828.953472,-3617.404324)">
                                    <circle cx="555.475" cy="243.914" r="3.086" style="fill:white;"/>
                                    <path d="M555.475,239.826C557.731,239.826 559.563,241.658 559.563,243.914C559.563,246.171 557.731,248.002 555.475,248.002C553.219,248.002 551.387,246.171 551.387,243.914C551.387,241.658 553.219,239.826 555.475,239.826ZM555.475,240.829C553.772,240.829 552.39,242.211 552.39,243.914C552.39,245.617 553.772,247 555.475,247C557.178,247 558.561,245.617 558.561,243.914C558.561,242.211 557.178,240.829 555.475,240.829Z" style="fill:rgb(1,136,226);"/>
                                </g>
                            </g>
                            <g transform="matrix(0.333653,-4.063843,4.063843,0.333653,796.704542,2996.118711)">
                                <path d="M617,369L663,369L686,305C658.603,288.963 650.141,247.991 640,209.698C629.34,248.471 621.456,288.021 594,305L617,369Z" style="fill:rgb(245,245,245);"/>
                                <path d="M617,369L640,369C640,369 639.989,351.991 640,209.698C629.34,248.471 621.456,288.021 594,305L617,369Z" style="fill:rgb(214,214,214);"/>
                                <g>
                                    <path d="M675.484,296.808C664.036,285.334 656.75,268.397 650.898,249.65" style="fill:none;stroke:black;stroke-width:2.54px;stroke-linejoin:round;stroke-miterlimit:1.5;"/>
                                    <path d="M630.062,245.813C628.544,250.853 626.948,255.77 625.215,260.506" style="fill:none;stroke:black;stroke-width:2.54px;stroke-linejoin:round;stroke-miterlimit:1.5;"/>
                                    <path d="M622.539,267.389C615.9,283.421 607.218,296.826 594,305L614.986,363.396" style="fill:none;stroke:black;stroke-width:2.54px;stroke-linejoin:round;stroke-miterlimit:1.5;"/>
                                    <g>
                                        <path d="M632.248,238.272C647.529,238.305 647.544,238.272 647.544,238.272C647.544,238.272 642.513,219.188 640,209.698C637.359,219.304 634.888,228.926 632.248,238.272Z" style="stroke:black;stroke-width:1.14px;stroke-linejoin:round;stroke-miterlimit:1.5;"/>
                                        <path d="M639.896,234L639.896,311" style="fill:none;stroke:black;stroke-width:2.94px;stroke-linejoin:round;stroke-miterlimit:1.5;"/>
                                        <g transform="matrix(1.273746,0,0,1.273746,-175.16884,-85.134913)">
                                            <circle cx="639.896" cy="311" r="7.648" style="stroke:black;stroke-width:1.69px;stroke-linejoin:round;stroke-miterlimit:1.5;"/>
                                        </g>
                                    </g>
                                </g>
                                <g>
                                    <rect x="617" y="369" width="46" height="8" style="fill:rgb(128,128,128);"/>
                                    <g transform="matrix(0.369565,0,0,0.369565,415.973878,235.23913)">
                                        <rect x="617" y="369" width="46" height="8" style="fill:rgb(214,214,214);"/>
                                    </g>
                                    <g transform="matrix(0.5,0,0,1,308.5,0)">
                                        <rect x="617" y="369" width="46" height="8"/>
                                    </g>
                                </g>
                            </g>
                        </g>
                    </g>
                    <path d="M650.899,1490.426L650.899,1929.642L81.726,1929.642L81.726,1360.469L520.942,1360.469L650.899,1490.426ZM515.858,1372.743L94,1372.743L94,1917.368L638.626,1917.368L638.626,1495.51L515.858,1372.743Z"/>
                </g>
                <g transform="matrix(4.799818,0,0,4.799818,-6276.033275,-4810.038883)">
                    <g transform="matrix(50,0,0,50,1491.102951,1112.957369)">
                        <path d="M0.311,-0.363L0.196,-0.528L0.05,-0.528L0.227,-0.269L0.043,-0L0.19,-0L0.311,-0.173L0.433,-0L0.579,-0L0.396,-0.269L0.573,-0.528L0.427,-0.528L0.311,-0.363Z" style="fill-rule:nonzero;"/>
                    </g>
                    <g transform="matrix(50,0,0,50,1521.107834,1112.957369)">
                        <path d="M0.152,0.213C0.18,0.213 0.203,0.209 0.223,0.2C0.243,0.191 0.26,0.179 0.274,0.166C0.288,0.153 0.3,0.138 0.309,0.123C0.319,0.107 0.326,0.092 0.332,0.079L0.6,-0.528L0.45,-0.528L0.33,-0.218L0.31,-0.165L0.295,-0.219L0.174,-0.528L0.025,-0.528L0.249,-0.022L0.218,0.036C0.214,0.043 0.211,0.048 0.208,0.052C0.205,0.056 0.201,0.062 0.195,0.07C0.189,0.078 0.182,0.085 0.174,0.092C0.165,0.098 0.156,0.102 0.145,0.102C0.14,0.102 0.109,0.1 0.103,0.1L0.086,0.204C0.098,0.207 0.109,0.209 0.118,0.211C0.128,0.213 0.139,0.213 0.152,0.213Z" style="fill-rule:nonzero;"/>
                    </g>
                    <g transform="matrix(50,0,0,50,1551.112717,1112.957369)">
                        <path d="M0.243,-0.109L0.542,-0.447L0.542,-0.528L0.064,-0.528L0.064,-0.418L0.354,-0.418L0.058,-0.084L0.058,-0L0.554,-0L0.554,-0.109L0.243,-0.109Z" style="fill-rule:nonzero;"/>
                    </g>
                    <g transform="matrix(50,0,0,50,1761.146897,1112.957369)">
                    </g>
                    <text x="1581.118px" y="1112.957px" style="font-family:'RobotoMono-Regular', 'Roboto Mono', monospace;font-size:50px;fill:rgb(128,128,128);">render</text>
                </g>
                <path d="M748.313,153.917L748.313,237.27L831.666,237.27" style="fill:none;stroke:black;stroke-width:8.33px;stroke-linecap:butt;stroke-miterlimit:1.5;"/>
            </g>
        </g>
    </g>
</svg>
